%TF.GenerationSoftware,KiCad,Pcbnew,9.0.2*%
%TF.CreationDate,2025-06-10T12:02:56+02:00*%
%TF.ProjectId,FrenGP_robot,4672656e-4750-45f7-926f-626f742e6b69,rev?*%
%TF.SameCoordinates,Original*%
%TF.FileFunction,Legend,Top*%
%TF.FilePolarity,Positive*%
%FSLAX46Y46*%
G04 Gerber Fmt 4.6, Leading zero omitted, Abs format (unit mm)*
G04 Created by KiCad (PCBNEW 9.0.2) date 2025-06-10 12:02:56*
%MOMM*%
%LPD*%
G01*
G04 APERTURE LIST*
%ADD10C,0.100000*%
%ADD11C,0.200000*%
%ADD12C,0.300000*%
%ADD13C,0.150000*%
%ADD14C,0.120000*%
G04 APERTURE END LIST*
D10*
X63905000Y-108301200D02*
X66905000Y-108301200D01*
X66905000Y-111301200D01*
X63905000Y-111301200D01*
X63905000Y-108301200D01*
G36*
X63905000Y-108301200D02*
G01*
X66905000Y-108301200D01*
X66905000Y-111301200D01*
X63905000Y-111301200D01*
X63905000Y-108301200D01*
G37*
D11*
X67284600Y-108356400D02*
X70156200Y-108356400D01*
X70156200Y-111256400D01*
X67284600Y-111256400D01*
X67284600Y-108356400D01*
D10*
X67232400Y-104950000D02*
X70232400Y-104950000D01*
X70232400Y-107950000D01*
X67232400Y-107950000D01*
X67232400Y-104950000D01*
G36*
X67232400Y-104950000D02*
G01*
X70232400Y-104950000D01*
X70232400Y-107950000D01*
X67232400Y-107950000D01*
X67232400Y-104950000D01*
G37*
X63904000Y-104950000D02*
X66904000Y-104950000D01*
X66904000Y-107950000D01*
X63904000Y-107950000D01*
X63904000Y-104950000D01*
G36*
X63904000Y-104950000D02*
G01*
X66904000Y-104950000D01*
X66904000Y-107950000D01*
X63904000Y-107950000D01*
X63904000Y-104950000D01*
G37*
D12*
X72790425Y-109170828D02*
X72123758Y-109170828D01*
X72123758Y-110742257D02*
X72123758Y-107742257D01*
X72123758Y-107742257D02*
X73076139Y-107742257D01*
X73838044Y-110742257D02*
X73838044Y-108742257D01*
X73838044Y-109313685D02*
X73933282Y-109027971D01*
X73933282Y-109027971D02*
X74028520Y-108885114D01*
X74028520Y-108885114D02*
X74218996Y-108742257D01*
X74218996Y-108742257D02*
X74409473Y-108742257D01*
X75838044Y-110599400D02*
X75647568Y-110742257D01*
X75647568Y-110742257D02*
X75266615Y-110742257D01*
X75266615Y-110742257D02*
X75076139Y-110599400D01*
X75076139Y-110599400D02*
X74980901Y-110313685D01*
X74980901Y-110313685D02*
X74980901Y-109170828D01*
X74980901Y-109170828D02*
X75076139Y-108885114D01*
X75076139Y-108885114D02*
X75266615Y-108742257D01*
X75266615Y-108742257D02*
X75647568Y-108742257D01*
X75647568Y-108742257D02*
X75838044Y-108885114D01*
X75838044Y-108885114D02*
X75933282Y-109170828D01*
X75933282Y-109170828D02*
X75933282Y-109456542D01*
X75933282Y-109456542D02*
X74980901Y-109742257D01*
X76790425Y-108742257D02*
X76790425Y-110742257D01*
X76790425Y-109027971D02*
X76885663Y-108885114D01*
X76885663Y-108885114D02*
X77076139Y-108742257D01*
X77076139Y-108742257D02*
X77361854Y-108742257D01*
X77361854Y-108742257D02*
X77552330Y-108885114D01*
X77552330Y-108885114D02*
X77647568Y-109170828D01*
X77647568Y-109170828D02*
X77647568Y-110742257D01*
X79647568Y-107885114D02*
X79457092Y-107742257D01*
X79457092Y-107742257D02*
X79171378Y-107742257D01*
X79171378Y-107742257D02*
X78885663Y-107885114D01*
X78885663Y-107885114D02*
X78695187Y-108170828D01*
X78695187Y-108170828D02*
X78599949Y-108456542D01*
X78599949Y-108456542D02*
X78504711Y-109027971D01*
X78504711Y-109027971D02*
X78504711Y-109456542D01*
X78504711Y-109456542D02*
X78599949Y-110027971D01*
X78599949Y-110027971D02*
X78695187Y-110313685D01*
X78695187Y-110313685D02*
X78885663Y-110599400D01*
X78885663Y-110599400D02*
X79171378Y-110742257D01*
X79171378Y-110742257D02*
X79361854Y-110742257D01*
X79361854Y-110742257D02*
X79647568Y-110599400D01*
X79647568Y-110599400D02*
X79742806Y-110456542D01*
X79742806Y-110456542D02*
X79742806Y-109456542D01*
X79742806Y-109456542D02*
X79361854Y-109456542D01*
X80599949Y-110742257D02*
X80599949Y-107742257D01*
X80599949Y-107742257D02*
X81361854Y-107742257D01*
X81361854Y-107742257D02*
X81552330Y-107885114D01*
X81552330Y-107885114D02*
X81647568Y-108027971D01*
X81647568Y-108027971D02*
X81742806Y-108313685D01*
X81742806Y-108313685D02*
X81742806Y-108742257D01*
X81742806Y-108742257D02*
X81647568Y-109027971D01*
X81647568Y-109027971D02*
X81552330Y-109170828D01*
X81552330Y-109170828D02*
X81361854Y-109313685D01*
X81361854Y-109313685D02*
X80599949Y-109313685D01*
X85266616Y-110742257D02*
X84599949Y-109313685D01*
X84123759Y-110742257D02*
X84123759Y-107742257D01*
X84123759Y-107742257D02*
X84885664Y-107742257D01*
X84885664Y-107742257D02*
X85076140Y-107885114D01*
X85076140Y-107885114D02*
X85171378Y-108027971D01*
X85171378Y-108027971D02*
X85266616Y-108313685D01*
X85266616Y-108313685D02*
X85266616Y-108742257D01*
X85266616Y-108742257D02*
X85171378Y-109027971D01*
X85171378Y-109027971D02*
X85076140Y-109170828D01*
X85076140Y-109170828D02*
X84885664Y-109313685D01*
X84885664Y-109313685D02*
X84123759Y-109313685D01*
X86409473Y-110742257D02*
X86218997Y-110599400D01*
X86218997Y-110599400D02*
X86123759Y-110456542D01*
X86123759Y-110456542D02*
X86028521Y-110170828D01*
X86028521Y-110170828D02*
X86028521Y-109313685D01*
X86028521Y-109313685D02*
X86123759Y-109027971D01*
X86123759Y-109027971D02*
X86218997Y-108885114D01*
X86218997Y-108885114D02*
X86409473Y-108742257D01*
X86409473Y-108742257D02*
X86695188Y-108742257D01*
X86695188Y-108742257D02*
X86885664Y-108885114D01*
X86885664Y-108885114D02*
X86980902Y-109027971D01*
X86980902Y-109027971D02*
X87076140Y-109313685D01*
X87076140Y-109313685D02*
X87076140Y-110170828D01*
X87076140Y-110170828D02*
X86980902Y-110456542D01*
X86980902Y-110456542D02*
X86885664Y-110599400D01*
X86885664Y-110599400D02*
X86695188Y-110742257D01*
X86695188Y-110742257D02*
X86409473Y-110742257D01*
X87933283Y-110742257D02*
X87933283Y-107742257D01*
X87933283Y-108885114D02*
X88123759Y-108742257D01*
X88123759Y-108742257D02*
X88504712Y-108742257D01*
X88504712Y-108742257D02*
X88695188Y-108885114D01*
X88695188Y-108885114D02*
X88790426Y-109027971D01*
X88790426Y-109027971D02*
X88885664Y-109313685D01*
X88885664Y-109313685D02*
X88885664Y-110170828D01*
X88885664Y-110170828D02*
X88790426Y-110456542D01*
X88790426Y-110456542D02*
X88695188Y-110599400D01*
X88695188Y-110599400D02*
X88504712Y-110742257D01*
X88504712Y-110742257D02*
X88123759Y-110742257D01*
X88123759Y-110742257D02*
X87933283Y-110599400D01*
X90028521Y-110742257D02*
X89838045Y-110599400D01*
X89838045Y-110599400D02*
X89742807Y-110456542D01*
X89742807Y-110456542D02*
X89647569Y-110170828D01*
X89647569Y-110170828D02*
X89647569Y-109313685D01*
X89647569Y-109313685D02*
X89742807Y-109027971D01*
X89742807Y-109027971D02*
X89838045Y-108885114D01*
X89838045Y-108885114D02*
X90028521Y-108742257D01*
X90028521Y-108742257D02*
X90314236Y-108742257D01*
X90314236Y-108742257D02*
X90504712Y-108885114D01*
X90504712Y-108885114D02*
X90599950Y-109027971D01*
X90599950Y-109027971D02*
X90695188Y-109313685D01*
X90695188Y-109313685D02*
X90695188Y-110170828D01*
X90695188Y-110170828D02*
X90599950Y-110456542D01*
X90599950Y-110456542D02*
X90504712Y-110599400D01*
X90504712Y-110599400D02*
X90314236Y-110742257D01*
X90314236Y-110742257D02*
X90028521Y-110742257D01*
X91266617Y-108742257D02*
X92028521Y-108742257D01*
X91552331Y-107742257D02*
X91552331Y-110313685D01*
X91552331Y-110313685D02*
X91647569Y-110599400D01*
X91647569Y-110599400D02*
X91838045Y-110742257D01*
X91838045Y-110742257D02*
X92028521Y-110742257D01*
X93457093Y-110599400D02*
X93266617Y-110742257D01*
X93266617Y-110742257D02*
X92885664Y-110742257D01*
X92885664Y-110742257D02*
X92695188Y-110599400D01*
X92695188Y-110599400D02*
X92599950Y-110313685D01*
X92599950Y-110313685D02*
X92599950Y-109170828D01*
X92599950Y-109170828D02*
X92695188Y-108885114D01*
X92695188Y-108885114D02*
X92885664Y-108742257D01*
X92885664Y-108742257D02*
X93266617Y-108742257D01*
X93266617Y-108742257D02*
X93457093Y-108885114D01*
X93457093Y-108885114D02*
X93552331Y-109170828D01*
X93552331Y-109170828D02*
X93552331Y-109456542D01*
X93552331Y-109456542D02*
X92599950Y-109742257D01*
X94409474Y-110742257D02*
X94409474Y-107742257D01*
X94599950Y-109599400D02*
X95171379Y-110742257D01*
X95171379Y-108742257D02*
X94409474Y-109885114D01*
X98599951Y-110742257D02*
X97457094Y-110742257D01*
X98028522Y-110742257D02*
X98028522Y-107742257D01*
X98028522Y-107742257D02*
X97838046Y-108170828D01*
X97838046Y-108170828D02*
X97647570Y-108456542D01*
X97647570Y-108456542D02*
X97457094Y-108599400D01*
X99457094Y-110456542D02*
X99552332Y-110599400D01*
X99552332Y-110599400D02*
X99457094Y-110742257D01*
X99457094Y-110742257D02*
X99361856Y-110599400D01*
X99361856Y-110599400D02*
X99457094Y-110456542D01*
X99457094Y-110456542D02*
X99457094Y-110742257D01*
X101457094Y-110742257D02*
X100314237Y-110742257D01*
X100885665Y-110742257D02*
X100885665Y-107742257D01*
X100885665Y-107742257D02*
X100695189Y-108170828D01*
X100695189Y-108170828D02*
X100504713Y-108456542D01*
X100504713Y-108456542D02*
X100314237Y-108599400D01*
X104782803Y-92306293D02*
X104639946Y-92232007D01*
X104639946Y-92232007D02*
X104425660Y-92232007D01*
X104425660Y-92232007D02*
X104211374Y-92306293D01*
X104211374Y-92306293D02*
X104068517Y-92454864D01*
X104068517Y-92454864D02*
X103997088Y-92603436D01*
X103997088Y-92603436D02*
X103925660Y-92900579D01*
X103925660Y-92900579D02*
X103925660Y-93123436D01*
X103925660Y-93123436D02*
X103997088Y-93420579D01*
X103997088Y-93420579D02*
X104068517Y-93569150D01*
X104068517Y-93569150D02*
X104211374Y-93717722D01*
X104211374Y-93717722D02*
X104425660Y-93792007D01*
X104425660Y-93792007D02*
X104568517Y-93792007D01*
X104568517Y-93792007D02*
X104782803Y-93717722D01*
X104782803Y-93717722D02*
X104854231Y-93643436D01*
X104854231Y-93643436D02*
X104854231Y-93123436D01*
X104854231Y-93123436D02*
X104568517Y-93123436D01*
X105497088Y-92752007D02*
X105497088Y-93792007D01*
X105497088Y-92900579D02*
X105568517Y-92826293D01*
X105568517Y-92826293D02*
X105711374Y-92752007D01*
X105711374Y-92752007D02*
X105925660Y-92752007D01*
X105925660Y-92752007D02*
X106068517Y-92826293D01*
X106068517Y-92826293D02*
X106139946Y-92974864D01*
X106139946Y-92974864D02*
X106139946Y-93792007D01*
X107497089Y-93792007D02*
X107497089Y-92232007D01*
X107497089Y-93717722D02*
X107354231Y-93792007D01*
X107354231Y-93792007D02*
X107068517Y-93792007D01*
X107068517Y-93792007D02*
X106925660Y-93717722D01*
X106925660Y-93717722D02*
X106854231Y-93643436D01*
X106854231Y-93643436D02*
X106782803Y-93494864D01*
X106782803Y-93494864D02*
X106782803Y-93049150D01*
X106782803Y-93049150D02*
X106854231Y-92900579D01*
X106854231Y-92900579D02*
X106925660Y-92826293D01*
X106925660Y-92826293D02*
X107068517Y-92752007D01*
X107068517Y-92752007D02*
X107354231Y-92752007D01*
X107354231Y-92752007D02*
X107497089Y-92826293D01*
X104568517Y-96303520D02*
X104568517Y-94743520D01*
X106139946Y-96303520D02*
X105639946Y-95560663D01*
X105282803Y-96303520D02*
X105282803Y-94743520D01*
X105282803Y-94743520D02*
X105854232Y-94743520D01*
X105854232Y-94743520D02*
X105997089Y-94817806D01*
X105997089Y-94817806D02*
X106068518Y-94892092D01*
X106068518Y-94892092D02*
X106139946Y-95040663D01*
X106139946Y-95040663D02*
X106139946Y-95263520D01*
X106139946Y-95263520D02*
X106068518Y-95412092D01*
X106068518Y-95412092D02*
X105997089Y-95486377D01*
X105997089Y-95486377D02*
X105854232Y-95560663D01*
X105854232Y-95560663D02*
X105282803Y-95560663D01*
X107497089Y-94743520D02*
X106782803Y-94743520D01*
X106782803Y-94743520D02*
X106711375Y-95486377D01*
X106711375Y-95486377D02*
X106782803Y-95412092D01*
X106782803Y-95412092D02*
X106925661Y-95337806D01*
X106925661Y-95337806D02*
X107282803Y-95337806D01*
X107282803Y-95337806D02*
X107425661Y-95412092D01*
X107425661Y-95412092D02*
X107497089Y-95486377D01*
X107497089Y-95486377D02*
X107568518Y-95634949D01*
X107568518Y-95634949D02*
X107568518Y-96006377D01*
X107568518Y-96006377D02*
X107497089Y-96154949D01*
X107497089Y-96154949D02*
X107425661Y-96229235D01*
X107425661Y-96229235D02*
X107282803Y-96303520D01*
X107282803Y-96303520D02*
X106925661Y-96303520D01*
X106925661Y-96303520D02*
X106782803Y-96229235D01*
X106782803Y-96229235D02*
X106711375Y-96154949D01*
X104568517Y-98815033D02*
X104568517Y-97255033D01*
X106139946Y-98815033D02*
X105639946Y-98072176D01*
X105282803Y-98815033D02*
X105282803Y-97255033D01*
X105282803Y-97255033D02*
X105854232Y-97255033D01*
X105854232Y-97255033D02*
X105997089Y-97329319D01*
X105997089Y-97329319D02*
X106068518Y-97403605D01*
X106068518Y-97403605D02*
X106139946Y-97552176D01*
X106139946Y-97552176D02*
X106139946Y-97775033D01*
X106139946Y-97775033D02*
X106068518Y-97923605D01*
X106068518Y-97923605D02*
X105997089Y-97997890D01*
X105997089Y-97997890D02*
X105854232Y-98072176D01*
X105854232Y-98072176D02*
X105282803Y-98072176D01*
X107425661Y-97775033D02*
X107425661Y-98815033D01*
X107068518Y-97180748D02*
X106711375Y-98295033D01*
X106711375Y-98295033D02*
X107639946Y-98295033D01*
X104568517Y-101326546D02*
X104568517Y-99766546D01*
X106139946Y-101326546D02*
X105639946Y-100583689D01*
X105282803Y-101326546D02*
X105282803Y-99766546D01*
X105282803Y-99766546D02*
X105854232Y-99766546D01*
X105854232Y-99766546D02*
X105997089Y-99840832D01*
X105997089Y-99840832D02*
X106068518Y-99915118D01*
X106068518Y-99915118D02*
X106139946Y-100063689D01*
X106139946Y-100063689D02*
X106139946Y-100286546D01*
X106139946Y-100286546D02*
X106068518Y-100435118D01*
X106068518Y-100435118D02*
X105997089Y-100509403D01*
X105997089Y-100509403D02*
X105854232Y-100583689D01*
X105854232Y-100583689D02*
X105282803Y-100583689D01*
X106639946Y-99766546D02*
X107568518Y-99766546D01*
X107568518Y-99766546D02*
X107068518Y-100360832D01*
X107068518Y-100360832D02*
X107282803Y-100360832D01*
X107282803Y-100360832D02*
X107425661Y-100435118D01*
X107425661Y-100435118D02*
X107497089Y-100509403D01*
X107497089Y-100509403D02*
X107568518Y-100657975D01*
X107568518Y-100657975D02*
X107568518Y-101029403D01*
X107568518Y-101029403D02*
X107497089Y-101177975D01*
X107497089Y-101177975D02*
X107425661Y-101252261D01*
X107425661Y-101252261D02*
X107282803Y-101326546D01*
X107282803Y-101326546D02*
X106854232Y-101326546D01*
X106854232Y-101326546D02*
X106711375Y-101252261D01*
X106711375Y-101252261D02*
X106639946Y-101177975D01*
X104568517Y-103838059D02*
X104568517Y-102278059D01*
X106139946Y-103838059D02*
X105639946Y-103095202D01*
X105282803Y-103838059D02*
X105282803Y-102278059D01*
X105282803Y-102278059D02*
X105854232Y-102278059D01*
X105854232Y-102278059D02*
X105997089Y-102352345D01*
X105997089Y-102352345D02*
X106068518Y-102426631D01*
X106068518Y-102426631D02*
X106139946Y-102575202D01*
X106139946Y-102575202D02*
X106139946Y-102798059D01*
X106139946Y-102798059D02*
X106068518Y-102946631D01*
X106068518Y-102946631D02*
X105997089Y-103020916D01*
X105997089Y-103020916D02*
X105854232Y-103095202D01*
X105854232Y-103095202D02*
X105282803Y-103095202D01*
X106711375Y-102426631D02*
X106782803Y-102352345D01*
X106782803Y-102352345D02*
X106925661Y-102278059D01*
X106925661Y-102278059D02*
X107282803Y-102278059D01*
X107282803Y-102278059D02*
X107425661Y-102352345D01*
X107425661Y-102352345D02*
X107497089Y-102426631D01*
X107497089Y-102426631D02*
X107568518Y-102575202D01*
X107568518Y-102575202D02*
X107568518Y-102723774D01*
X107568518Y-102723774D02*
X107497089Y-102946631D01*
X107497089Y-102946631D02*
X106639946Y-103838059D01*
X106639946Y-103838059D02*
X107568518Y-103838059D01*
X104568517Y-106349572D02*
X104568517Y-104789572D01*
X106139946Y-106349572D02*
X105639946Y-105606715D01*
X105282803Y-106349572D02*
X105282803Y-104789572D01*
X105282803Y-104789572D02*
X105854232Y-104789572D01*
X105854232Y-104789572D02*
X105997089Y-104863858D01*
X105997089Y-104863858D02*
X106068518Y-104938144D01*
X106068518Y-104938144D02*
X106139946Y-105086715D01*
X106139946Y-105086715D02*
X106139946Y-105309572D01*
X106139946Y-105309572D02*
X106068518Y-105458144D01*
X106068518Y-105458144D02*
X105997089Y-105532429D01*
X105997089Y-105532429D02*
X105854232Y-105606715D01*
X105854232Y-105606715D02*
X105282803Y-105606715D01*
X107568518Y-106349572D02*
X106711375Y-106349572D01*
X107139946Y-106349572D02*
X107139946Y-104789572D01*
X107139946Y-104789572D02*
X106997089Y-105012429D01*
X106997089Y-105012429D02*
X106854232Y-105161001D01*
X106854232Y-105161001D02*
X106711375Y-105235287D01*
X104139947Y-107301085D02*
X104639947Y-108861085D01*
X104639947Y-108861085D02*
X105139947Y-107301085D01*
X106282804Y-108786800D02*
X106139946Y-108861085D01*
X106139946Y-108861085D02*
X105854232Y-108861085D01*
X105854232Y-108861085D02*
X105711375Y-108786800D01*
X105711375Y-108786800D02*
X105639946Y-108712514D01*
X105639946Y-108712514D02*
X105568518Y-108563942D01*
X105568518Y-108563942D02*
X105568518Y-108118228D01*
X105568518Y-108118228D02*
X105639946Y-107969657D01*
X105639946Y-107969657D02*
X105711375Y-107895371D01*
X105711375Y-107895371D02*
X105854232Y-107821085D01*
X105854232Y-107821085D02*
X106139946Y-107821085D01*
X106139946Y-107821085D02*
X106282804Y-107895371D01*
X107568518Y-108786800D02*
X107425660Y-108861085D01*
X107425660Y-108861085D02*
X107139946Y-108861085D01*
X107139946Y-108861085D02*
X106997089Y-108786800D01*
X106997089Y-108786800D02*
X106925660Y-108712514D01*
X106925660Y-108712514D02*
X106854232Y-108563942D01*
X106854232Y-108563942D02*
X106854232Y-108118228D01*
X106854232Y-108118228D02*
X106925660Y-107969657D01*
X106925660Y-107969657D02*
X106997089Y-107895371D01*
X106997089Y-107895371D02*
X107139946Y-107821085D01*
X107139946Y-107821085D02*
X107425660Y-107821085D01*
X107425660Y-107821085D02*
X107568518Y-107895371D01*
X61232060Y-31482600D02*
X62374918Y-31482600D01*
X61803489Y-32076885D02*
X61803489Y-30888314D01*
X63803489Y-30516885D02*
X63089203Y-30516885D01*
X63089203Y-30516885D02*
X63017775Y-31259742D01*
X63017775Y-31259742D02*
X63089203Y-31185457D01*
X63089203Y-31185457D02*
X63232061Y-31111171D01*
X63232061Y-31111171D02*
X63589203Y-31111171D01*
X63589203Y-31111171D02*
X63732061Y-31185457D01*
X63732061Y-31185457D02*
X63803489Y-31259742D01*
X63803489Y-31259742D02*
X63874918Y-31408314D01*
X63874918Y-31408314D02*
X63874918Y-31779742D01*
X63874918Y-31779742D02*
X63803489Y-31928314D01*
X63803489Y-31928314D02*
X63732061Y-32002600D01*
X63732061Y-32002600D02*
X63589203Y-32076885D01*
X63589203Y-32076885D02*
X63232061Y-32076885D01*
X63232061Y-32076885D02*
X63089203Y-32002600D01*
X63089203Y-32002600D02*
X63017775Y-31928314D01*
X64303489Y-30516885D02*
X64803489Y-32076885D01*
X64803489Y-32076885D02*
X65303489Y-30516885D01*
X65446346Y-32225457D02*
X66589203Y-32225457D01*
X66946345Y-32076885D02*
X66946345Y-30516885D01*
X66946345Y-31111171D02*
X67089203Y-31036885D01*
X67089203Y-31036885D02*
X67374917Y-31036885D01*
X67374917Y-31036885D02*
X67517774Y-31111171D01*
X67517774Y-31111171D02*
X67589203Y-31185457D01*
X67589203Y-31185457D02*
X67660631Y-31334028D01*
X67660631Y-31334028D02*
X67660631Y-31779742D01*
X67660631Y-31779742D02*
X67589203Y-31928314D01*
X67589203Y-31928314D02*
X67517774Y-32002600D01*
X67517774Y-32002600D02*
X67374917Y-32076885D01*
X67374917Y-32076885D02*
X67089203Y-32076885D01*
X67089203Y-32076885D02*
X66946345Y-32002600D01*
X68946346Y-32076885D02*
X68946346Y-31259742D01*
X68946346Y-31259742D02*
X68874917Y-31111171D01*
X68874917Y-31111171D02*
X68732060Y-31036885D01*
X68732060Y-31036885D02*
X68446346Y-31036885D01*
X68446346Y-31036885D02*
X68303488Y-31111171D01*
X68946346Y-32002600D02*
X68803488Y-32076885D01*
X68803488Y-32076885D02*
X68446346Y-32076885D01*
X68446346Y-32076885D02*
X68303488Y-32002600D01*
X68303488Y-32002600D02*
X68232060Y-31854028D01*
X68232060Y-31854028D02*
X68232060Y-31705457D01*
X68232060Y-31705457D02*
X68303488Y-31556885D01*
X68303488Y-31556885D02*
X68446346Y-31482600D01*
X68446346Y-31482600D02*
X68803488Y-31482600D01*
X68803488Y-31482600D02*
X68946346Y-31408314D01*
X69446346Y-31036885D02*
X70017774Y-31036885D01*
X69660631Y-30516885D02*
X69660631Y-31854028D01*
X69660631Y-31854028D02*
X69732060Y-32002600D01*
X69732060Y-32002600D02*
X69874917Y-32076885D01*
X69874917Y-32076885D02*
X70017774Y-32076885D01*
X31209260Y-43912461D02*
X32352118Y-43912461D01*
X31780689Y-44506746D02*
X31780689Y-43318175D01*
X33780689Y-42946746D02*
X33066403Y-42946746D01*
X33066403Y-42946746D02*
X32994975Y-43689603D01*
X32994975Y-43689603D02*
X33066403Y-43615318D01*
X33066403Y-43615318D02*
X33209261Y-43541032D01*
X33209261Y-43541032D02*
X33566403Y-43541032D01*
X33566403Y-43541032D02*
X33709261Y-43615318D01*
X33709261Y-43615318D02*
X33780689Y-43689603D01*
X33780689Y-43689603D02*
X33852118Y-43838175D01*
X33852118Y-43838175D02*
X33852118Y-44209603D01*
X33852118Y-44209603D02*
X33780689Y-44358175D01*
X33780689Y-44358175D02*
X33709261Y-44432461D01*
X33709261Y-44432461D02*
X33566403Y-44506746D01*
X33566403Y-44506746D02*
X33209261Y-44506746D01*
X33209261Y-44506746D02*
X33066403Y-44432461D01*
X33066403Y-44432461D02*
X32994975Y-44358175D01*
X34280689Y-42946746D02*
X34780689Y-44506746D01*
X34780689Y-44506746D02*
X35280689Y-42946746D01*
X35423546Y-44655318D02*
X36566403Y-44655318D01*
X36923545Y-44506746D02*
X36923545Y-42946746D01*
X36923545Y-43541032D02*
X37066403Y-43466746D01*
X37066403Y-43466746D02*
X37352117Y-43466746D01*
X37352117Y-43466746D02*
X37494974Y-43541032D01*
X37494974Y-43541032D02*
X37566403Y-43615318D01*
X37566403Y-43615318D02*
X37637831Y-43763889D01*
X37637831Y-43763889D02*
X37637831Y-44209603D01*
X37637831Y-44209603D02*
X37566403Y-44358175D01*
X37566403Y-44358175D02*
X37494974Y-44432461D01*
X37494974Y-44432461D02*
X37352117Y-44506746D01*
X37352117Y-44506746D02*
X37066403Y-44506746D01*
X37066403Y-44506746D02*
X36923545Y-44432461D01*
X38923546Y-44506746D02*
X38923546Y-43689603D01*
X38923546Y-43689603D02*
X38852117Y-43541032D01*
X38852117Y-43541032D02*
X38709260Y-43466746D01*
X38709260Y-43466746D02*
X38423546Y-43466746D01*
X38423546Y-43466746D02*
X38280688Y-43541032D01*
X38923546Y-44432461D02*
X38780688Y-44506746D01*
X38780688Y-44506746D02*
X38423546Y-44506746D01*
X38423546Y-44506746D02*
X38280688Y-44432461D01*
X38280688Y-44432461D02*
X38209260Y-44283889D01*
X38209260Y-44283889D02*
X38209260Y-44135318D01*
X38209260Y-44135318D02*
X38280688Y-43986746D01*
X38280688Y-43986746D02*
X38423546Y-43912461D01*
X38423546Y-43912461D02*
X38780688Y-43912461D01*
X38780688Y-43912461D02*
X38923546Y-43838175D01*
X39423546Y-43466746D02*
X39994974Y-43466746D01*
X39637831Y-42946746D02*
X39637831Y-44283889D01*
X39637831Y-44283889D02*
X39709260Y-44432461D01*
X39709260Y-44432461D02*
X39852117Y-44506746D01*
X39852117Y-44506746D02*
X39994974Y-44506746D01*
X37066403Y-50555571D02*
X36923546Y-50481285D01*
X36923546Y-50481285D02*
X36709260Y-50481285D01*
X36709260Y-50481285D02*
X36494974Y-50555571D01*
X36494974Y-50555571D02*
X36352117Y-50704142D01*
X36352117Y-50704142D02*
X36280688Y-50852714D01*
X36280688Y-50852714D02*
X36209260Y-51149857D01*
X36209260Y-51149857D02*
X36209260Y-51372714D01*
X36209260Y-51372714D02*
X36280688Y-51669857D01*
X36280688Y-51669857D02*
X36352117Y-51818428D01*
X36352117Y-51818428D02*
X36494974Y-51967000D01*
X36494974Y-51967000D02*
X36709260Y-52041285D01*
X36709260Y-52041285D02*
X36852117Y-52041285D01*
X36852117Y-52041285D02*
X37066403Y-51967000D01*
X37066403Y-51967000D02*
X37137831Y-51892714D01*
X37137831Y-51892714D02*
X37137831Y-51372714D01*
X37137831Y-51372714D02*
X36852117Y-51372714D01*
X37780688Y-51001285D02*
X37780688Y-52041285D01*
X37780688Y-51149857D02*
X37852117Y-51075571D01*
X37852117Y-51075571D02*
X37994974Y-51001285D01*
X37994974Y-51001285D02*
X38209260Y-51001285D01*
X38209260Y-51001285D02*
X38352117Y-51075571D01*
X38352117Y-51075571D02*
X38423546Y-51224142D01*
X38423546Y-51224142D02*
X38423546Y-52041285D01*
X39780689Y-52041285D02*
X39780689Y-50481285D01*
X39780689Y-51967000D02*
X39637831Y-52041285D01*
X39637831Y-52041285D02*
X39352117Y-52041285D01*
X39352117Y-52041285D02*
X39209260Y-51967000D01*
X39209260Y-51967000D02*
X39137831Y-51892714D01*
X39137831Y-51892714D02*
X39066403Y-51744142D01*
X39066403Y-51744142D02*
X39066403Y-51298428D01*
X39066403Y-51298428D02*
X39137831Y-51149857D01*
X39137831Y-51149857D02*
X39209260Y-51075571D01*
X39209260Y-51075571D02*
X39352117Y-51001285D01*
X39352117Y-51001285D02*
X39637831Y-51001285D01*
X39637831Y-51001285D02*
X39780689Y-51075571D01*
D10*
X110413895Y-41037219D02*
X110413895Y-41846742D01*
X110413895Y-41846742D02*
X110461514Y-41941980D01*
X110461514Y-41941980D02*
X110509133Y-41989600D01*
X110509133Y-41989600D02*
X110604371Y-42037219D01*
X110604371Y-42037219D02*
X110794847Y-42037219D01*
X110794847Y-42037219D02*
X110890085Y-41989600D01*
X110890085Y-41989600D02*
X110937704Y-41941980D01*
X110937704Y-41941980D02*
X110985323Y-41846742D01*
X110985323Y-41846742D02*
X110985323Y-41037219D01*
X111366276Y-41037219D02*
X111985323Y-41037219D01*
X111985323Y-41037219D02*
X111651990Y-41418171D01*
X111651990Y-41418171D02*
X111794847Y-41418171D01*
X111794847Y-41418171D02*
X111890085Y-41465790D01*
X111890085Y-41465790D02*
X111937704Y-41513409D01*
X111937704Y-41513409D02*
X111985323Y-41608647D01*
X111985323Y-41608647D02*
X111985323Y-41846742D01*
X111985323Y-41846742D02*
X111937704Y-41941980D01*
X111937704Y-41941980D02*
X111890085Y-41989600D01*
X111890085Y-41989600D02*
X111794847Y-42037219D01*
X111794847Y-42037219D02*
X111509133Y-42037219D01*
X111509133Y-42037219D02*
X111413895Y-41989600D01*
X111413895Y-41989600D02*
X111366276Y-41941980D01*
D12*
X107529088Y-26533377D02*
X108029088Y-26533377D01*
X108243374Y-27350520D02*
X107529088Y-27350520D01*
X107529088Y-27350520D02*
X107529088Y-25790520D01*
X107529088Y-25790520D02*
X108243374Y-25790520D01*
X108886231Y-26310520D02*
X108886231Y-27350520D01*
X108886231Y-26459092D02*
X108957660Y-26384806D01*
X108957660Y-26384806D02*
X109100517Y-26310520D01*
X109100517Y-26310520D02*
X109314803Y-26310520D01*
X109314803Y-26310520D02*
X109457660Y-26384806D01*
X109457660Y-26384806D02*
X109529089Y-26533377D01*
X109529089Y-26533377D02*
X109529089Y-27350520D01*
X106171947Y-28302033D02*
X106671947Y-29862033D01*
X106671947Y-29862033D02*
X107171947Y-28302033D01*
X108314804Y-29787748D02*
X108171946Y-29862033D01*
X108171946Y-29862033D02*
X107886232Y-29862033D01*
X107886232Y-29862033D02*
X107743375Y-29787748D01*
X107743375Y-29787748D02*
X107671946Y-29713462D01*
X107671946Y-29713462D02*
X107600518Y-29564890D01*
X107600518Y-29564890D02*
X107600518Y-29119176D01*
X107600518Y-29119176D02*
X107671946Y-28970605D01*
X107671946Y-28970605D02*
X107743375Y-28896319D01*
X107743375Y-28896319D02*
X107886232Y-28822033D01*
X107886232Y-28822033D02*
X108171946Y-28822033D01*
X108171946Y-28822033D02*
X108314804Y-28896319D01*
X109600518Y-29787748D02*
X109457660Y-29862033D01*
X109457660Y-29862033D02*
X109171946Y-29862033D01*
X109171946Y-29862033D02*
X109029089Y-29787748D01*
X109029089Y-29787748D02*
X108957660Y-29713462D01*
X108957660Y-29713462D02*
X108886232Y-29564890D01*
X108886232Y-29564890D02*
X108886232Y-29119176D01*
X108886232Y-29119176D02*
X108957660Y-28970605D01*
X108957660Y-28970605D02*
X109029089Y-28896319D01*
X109029089Y-28896319D02*
X109171946Y-28822033D01*
X109171946Y-28822033D02*
X109457660Y-28822033D01*
X109457660Y-28822033D02*
X109600518Y-28896319D01*
X106814803Y-30887832D02*
X106671946Y-30813546D01*
X106671946Y-30813546D02*
X106457660Y-30813546D01*
X106457660Y-30813546D02*
X106243374Y-30887832D01*
X106243374Y-30887832D02*
X106100517Y-31036403D01*
X106100517Y-31036403D02*
X106029088Y-31184975D01*
X106029088Y-31184975D02*
X105957660Y-31482118D01*
X105957660Y-31482118D02*
X105957660Y-31704975D01*
X105957660Y-31704975D02*
X106029088Y-32002118D01*
X106029088Y-32002118D02*
X106100517Y-32150689D01*
X106100517Y-32150689D02*
X106243374Y-32299261D01*
X106243374Y-32299261D02*
X106457660Y-32373546D01*
X106457660Y-32373546D02*
X106600517Y-32373546D01*
X106600517Y-32373546D02*
X106814803Y-32299261D01*
X106814803Y-32299261D02*
X106886231Y-32224975D01*
X106886231Y-32224975D02*
X106886231Y-31704975D01*
X106886231Y-31704975D02*
X106600517Y-31704975D01*
X107529088Y-31333546D02*
X107529088Y-32373546D01*
X107529088Y-31482118D02*
X107600517Y-31407832D01*
X107600517Y-31407832D02*
X107743374Y-31333546D01*
X107743374Y-31333546D02*
X107957660Y-31333546D01*
X107957660Y-31333546D02*
X108100517Y-31407832D01*
X108100517Y-31407832D02*
X108171946Y-31556403D01*
X108171946Y-31556403D02*
X108171946Y-32373546D01*
X109529089Y-32373546D02*
X109529089Y-30813546D01*
X109529089Y-32299261D02*
X109386231Y-32373546D01*
X109386231Y-32373546D02*
X109100517Y-32373546D01*
X109100517Y-32373546D02*
X108957660Y-32299261D01*
X108957660Y-32299261D02*
X108886231Y-32224975D01*
X108886231Y-32224975D02*
X108814803Y-32076403D01*
X108814803Y-32076403D02*
X108814803Y-31630689D01*
X108814803Y-31630689D02*
X108886231Y-31482118D01*
X108886231Y-31482118D02*
X108957660Y-31407832D01*
X108957660Y-31407832D02*
X109100517Y-31333546D01*
X109100517Y-31333546D02*
X109386231Y-31333546D01*
X109386231Y-31333546D02*
X109529089Y-31407832D01*
X107671946Y-33325059D02*
X108529089Y-33325059D01*
X108100517Y-34885059D02*
X108100517Y-33325059D01*
X108886231Y-34885059D02*
X109671946Y-33845059D01*
X108886231Y-33845059D02*
X109671946Y-34885059D01*
X108386231Y-37396572D02*
X107886231Y-36653715D01*
X107529088Y-37396572D02*
X107529088Y-35836572D01*
X107529088Y-35836572D02*
X108100517Y-35836572D01*
X108100517Y-35836572D02*
X108243374Y-35910858D01*
X108243374Y-35910858D02*
X108314803Y-35985144D01*
X108314803Y-35985144D02*
X108386231Y-36133715D01*
X108386231Y-36133715D02*
X108386231Y-36356572D01*
X108386231Y-36356572D02*
X108314803Y-36505144D01*
X108314803Y-36505144D02*
X108243374Y-36579429D01*
X108243374Y-36579429D02*
X108100517Y-36653715D01*
X108100517Y-36653715D02*
X107529088Y-36653715D01*
X108886231Y-37396572D02*
X109671946Y-36356572D01*
X108886231Y-36356572D02*
X109671946Y-37396572D01*
X104386232Y-39833800D02*
X104600518Y-39908085D01*
X104600518Y-39908085D02*
X104957660Y-39908085D01*
X104957660Y-39908085D02*
X105100518Y-39833800D01*
X105100518Y-39833800D02*
X105171946Y-39759514D01*
X105171946Y-39759514D02*
X105243375Y-39610942D01*
X105243375Y-39610942D02*
X105243375Y-39462371D01*
X105243375Y-39462371D02*
X105171946Y-39313800D01*
X105171946Y-39313800D02*
X105100518Y-39239514D01*
X105100518Y-39239514D02*
X104957660Y-39165228D01*
X104957660Y-39165228D02*
X104671946Y-39090942D01*
X104671946Y-39090942D02*
X104529089Y-39016657D01*
X104529089Y-39016657D02*
X104457660Y-38942371D01*
X104457660Y-38942371D02*
X104386232Y-38793800D01*
X104386232Y-38793800D02*
X104386232Y-38645228D01*
X104386232Y-38645228D02*
X104457660Y-38496657D01*
X104457660Y-38496657D02*
X104529089Y-38422371D01*
X104529089Y-38422371D02*
X104671946Y-38348085D01*
X104671946Y-38348085D02*
X105029089Y-38348085D01*
X105029089Y-38348085D02*
X105243375Y-38422371D01*
X105671946Y-38868085D02*
X106243374Y-38868085D01*
X105886231Y-38348085D02*
X105886231Y-39685228D01*
X105886231Y-39685228D02*
X105957660Y-39833800D01*
X105957660Y-39833800D02*
X106100517Y-39908085D01*
X106100517Y-39908085D02*
X106243374Y-39908085D01*
X107386232Y-39908085D02*
X107386232Y-39090942D01*
X107386232Y-39090942D02*
X107314803Y-38942371D01*
X107314803Y-38942371D02*
X107171946Y-38868085D01*
X107171946Y-38868085D02*
X106886232Y-38868085D01*
X106886232Y-38868085D02*
X106743374Y-38942371D01*
X107386232Y-39833800D02*
X107243374Y-39908085D01*
X107243374Y-39908085D02*
X106886232Y-39908085D01*
X106886232Y-39908085D02*
X106743374Y-39833800D01*
X106743374Y-39833800D02*
X106671946Y-39685228D01*
X106671946Y-39685228D02*
X106671946Y-39536657D01*
X106671946Y-39536657D02*
X106743374Y-39388085D01*
X106743374Y-39388085D02*
X106886232Y-39313800D01*
X106886232Y-39313800D02*
X107243374Y-39313800D01*
X107243374Y-39313800D02*
X107386232Y-39239514D01*
X107886232Y-38868085D02*
X108457660Y-38868085D01*
X108100517Y-38348085D02*
X108100517Y-39685228D01*
X108100517Y-39685228D02*
X108171946Y-39833800D01*
X108171946Y-39833800D02*
X108314803Y-39908085D01*
X108314803Y-39908085D02*
X108457660Y-39908085D01*
X109529089Y-39833800D02*
X109386232Y-39908085D01*
X109386232Y-39908085D02*
X109100518Y-39908085D01*
X109100518Y-39908085D02*
X108957660Y-39833800D01*
X108957660Y-39833800D02*
X108886232Y-39685228D01*
X108886232Y-39685228D02*
X108886232Y-39090942D01*
X108886232Y-39090942D02*
X108957660Y-38942371D01*
X108957660Y-38942371D02*
X109100518Y-38868085D01*
X109100518Y-38868085D02*
X109386232Y-38868085D01*
X109386232Y-38868085D02*
X109529089Y-38942371D01*
X109529089Y-38942371D02*
X109600518Y-39090942D01*
X109600518Y-39090942D02*
X109600518Y-39239514D01*
X109600518Y-39239514D02*
X108886232Y-39388085D01*
D13*
X121978819Y-34166666D02*
X121502628Y-34499999D01*
X121978819Y-34738094D02*
X120978819Y-34738094D01*
X120978819Y-34738094D02*
X120978819Y-34357142D01*
X120978819Y-34357142D02*
X121026438Y-34261904D01*
X121026438Y-34261904D02*
X121074057Y-34214285D01*
X121074057Y-34214285D02*
X121169295Y-34166666D01*
X121169295Y-34166666D02*
X121312152Y-34166666D01*
X121312152Y-34166666D02*
X121407390Y-34214285D01*
X121407390Y-34214285D02*
X121455009Y-34261904D01*
X121455009Y-34261904D02*
X121502628Y-34357142D01*
X121502628Y-34357142D02*
X121502628Y-34738094D01*
X121978819Y-33214285D02*
X121978819Y-33785713D01*
X121978819Y-33499999D02*
X120978819Y-33499999D01*
X120978819Y-33499999D02*
X121121676Y-33595237D01*
X121121676Y-33595237D02*
X121216914Y-33690475D01*
X121216914Y-33690475D02*
X121264533Y-33785713D01*
X100137933Y-89081780D02*
X100090314Y-89129400D01*
X100090314Y-89129400D02*
X99947457Y-89177019D01*
X99947457Y-89177019D02*
X99852219Y-89177019D01*
X99852219Y-89177019D02*
X99709362Y-89129400D01*
X99709362Y-89129400D02*
X99614124Y-89034161D01*
X99614124Y-89034161D02*
X99566505Y-88938923D01*
X99566505Y-88938923D02*
X99518886Y-88748447D01*
X99518886Y-88748447D02*
X99518886Y-88605590D01*
X99518886Y-88605590D02*
X99566505Y-88415114D01*
X99566505Y-88415114D02*
X99614124Y-88319876D01*
X99614124Y-88319876D02*
X99709362Y-88224638D01*
X99709362Y-88224638D02*
X99852219Y-88177019D01*
X99852219Y-88177019D02*
X99947457Y-88177019D01*
X99947457Y-88177019D02*
X100090314Y-88224638D01*
X100090314Y-88224638D02*
X100137933Y-88272257D01*
X101090314Y-89177019D02*
X100518886Y-89177019D01*
X100804600Y-89177019D02*
X100804600Y-88177019D01*
X100804600Y-88177019D02*
X100709362Y-88319876D01*
X100709362Y-88319876D02*
X100614124Y-88415114D01*
X100614124Y-88415114D02*
X100518886Y-88462733D01*
X55863733Y-52651180D02*
X55816114Y-52698800D01*
X55816114Y-52698800D02*
X55673257Y-52746419D01*
X55673257Y-52746419D02*
X55578019Y-52746419D01*
X55578019Y-52746419D02*
X55435162Y-52698800D01*
X55435162Y-52698800D02*
X55339924Y-52603561D01*
X55339924Y-52603561D02*
X55292305Y-52508323D01*
X55292305Y-52508323D02*
X55244686Y-52317847D01*
X55244686Y-52317847D02*
X55244686Y-52174990D01*
X55244686Y-52174990D02*
X55292305Y-51984514D01*
X55292305Y-51984514D02*
X55339924Y-51889276D01*
X55339924Y-51889276D02*
X55435162Y-51794038D01*
X55435162Y-51794038D02*
X55578019Y-51746419D01*
X55578019Y-51746419D02*
X55673257Y-51746419D01*
X55673257Y-51746419D02*
X55816114Y-51794038D01*
X55816114Y-51794038D02*
X55863733Y-51841657D01*
X56197067Y-51746419D02*
X56816114Y-51746419D01*
X56816114Y-51746419D02*
X56482781Y-52127371D01*
X56482781Y-52127371D02*
X56625638Y-52127371D01*
X56625638Y-52127371D02*
X56720876Y-52174990D01*
X56720876Y-52174990D02*
X56768495Y-52222609D01*
X56768495Y-52222609D02*
X56816114Y-52317847D01*
X56816114Y-52317847D02*
X56816114Y-52555942D01*
X56816114Y-52555942D02*
X56768495Y-52651180D01*
X56768495Y-52651180D02*
X56720876Y-52698800D01*
X56720876Y-52698800D02*
X56625638Y-52746419D01*
X56625638Y-52746419D02*
X56339924Y-52746419D01*
X56339924Y-52746419D02*
X56244686Y-52698800D01*
X56244686Y-52698800D02*
X56197067Y-52651180D01*
X55319705Y-35557619D02*
X55319705Y-34557619D01*
X55319705Y-34557619D02*
X55557800Y-34557619D01*
X55557800Y-34557619D02*
X55700657Y-34605238D01*
X55700657Y-34605238D02*
X55795895Y-34700476D01*
X55795895Y-34700476D02*
X55843514Y-34795714D01*
X55843514Y-34795714D02*
X55891133Y-34986190D01*
X55891133Y-34986190D02*
X55891133Y-35129047D01*
X55891133Y-35129047D02*
X55843514Y-35319523D01*
X55843514Y-35319523D02*
X55795895Y-35414761D01*
X55795895Y-35414761D02*
X55700657Y-35510000D01*
X55700657Y-35510000D02*
X55557800Y-35557619D01*
X55557800Y-35557619D02*
X55319705Y-35557619D01*
X56272086Y-34652857D02*
X56319705Y-34605238D01*
X56319705Y-34605238D02*
X56414943Y-34557619D01*
X56414943Y-34557619D02*
X56653038Y-34557619D01*
X56653038Y-34557619D02*
X56748276Y-34605238D01*
X56748276Y-34605238D02*
X56795895Y-34652857D01*
X56795895Y-34652857D02*
X56843514Y-34748095D01*
X56843514Y-34748095D02*
X56843514Y-34843333D01*
X56843514Y-34843333D02*
X56795895Y-34986190D01*
X56795895Y-34986190D02*
X56224467Y-35557619D01*
X56224467Y-35557619D02*
X56843514Y-35557619D01*
X94254533Y-58137219D02*
X93921200Y-57661028D01*
X93683105Y-58137219D02*
X93683105Y-57137219D01*
X93683105Y-57137219D02*
X94064057Y-57137219D01*
X94064057Y-57137219D02*
X94159295Y-57184838D01*
X94159295Y-57184838D02*
X94206914Y-57232457D01*
X94206914Y-57232457D02*
X94254533Y-57327695D01*
X94254533Y-57327695D02*
X94254533Y-57470552D01*
X94254533Y-57470552D02*
X94206914Y-57565790D01*
X94206914Y-57565790D02*
X94159295Y-57613409D01*
X94159295Y-57613409D02*
X94064057Y-57661028D01*
X94064057Y-57661028D02*
X93683105Y-57661028D01*
X95111676Y-57470552D02*
X95111676Y-58137219D01*
X94873581Y-57089600D02*
X94635486Y-57803885D01*
X94635486Y-57803885D02*
X95254533Y-57803885D01*
X33871067Y-91440800D02*
X34013924Y-91488419D01*
X34013924Y-91488419D02*
X34252019Y-91488419D01*
X34252019Y-91488419D02*
X34347257Y-91440800D01*
X34347257Y-91440800D02*
X34394876Y-91393180D01*
X34394876Y-91393180D02*
X34442495Y-91297942D01*
X34442495Y-91297942D02*
X34442495Y-91202704D01*
X34442495Y-91202704D02*
X34394876Y-91107466D01*
X34394876Y-91107466D02*
X34347257Y-91059847D01*
X34347257Y-91059847D02*
X34252019Y-91012228D01*
X34252019Y-91012228D02*
X34061543Y-90964609D01*
X34061543Y-90964609D02*
X33966305Y-90916990D01*
X33966305Y-90916990D02*
X33918686Y-90869371D01*
X33918686Y-90869371D02*
X33871067Y-90774133D01*
X33871067Y-90774133D02*
X33871067Y-90678895D01*
X33871067Y-90678895D02*
X33918686Y-90583657D01*
X33918686Y-90583657D02*
X33966305Y-90536038D01*
X33966305Y-90536038D02*
X34061543Y-90488419D01*
X34061543Y-90488419D02*
X34299638Y-90488419D01*
X34299638Y-90488419D02*
X34442495Y-90536038D01*
X34775829Y-90488419D02*
X35013924Y-91488419D01*
X35013924Y-91488419D02*
X35204400Y-90774133D01*
X35204400Y-90774133D02*
X35394876Y-91488419D01*
X35394876Y-91488419D02*
X35632972Y-90488419D01*
X36537733Y-91488419D02*
X35966305Y-91488419D01*
X36252019Y-91488419D02*
X36252019Y-90488419D01*
X36252019Y-90488419D02*
X36156781Y-90631276D01*
X36156781Y-90631276D02*
X36061543Y-90726514D01*
X36061543Y-90726514D02*
X35966305Y-90774133D01*
X118387019Y-108840494D02*
X117387019Y-108840494D01*
X117387019Y-108840494D02*
X117387019Y-108602399D01*
X117387019Y-108602399D02*
X117434638Y-108459542D01*
X117434638Y-108459542D02*
X117529876Y-108364304D01*
X117529876Y-108364304D02*
X117625114Y-108316685D01*
X117625114Y-108316685D02*
X117815590Y-108269066D01*
X117815590Y-108269066D02*
X117958447Y-108269066D01*
X117958447Y-108269066D02*
X118148923Y-108316685D01*
X118148923Y-108316685D02*
X118244161Y-108364304D01*
X118244161Y-108364304D02*
X118339400Y-108459542D01*
X118339400Y-108459542D02*
X118387019Y-108602399D01*
X118387019Y-108602399D02*
X118387019Y-108840494D01*
X117720352Y-107411923D02*
X118387019Y-107411923D01*
X117339400Y-107650018D02*
X118053685Y-107888113D01*
X118053685Y-107888113D02*
X118053685Y-107269066D01*
X113639695Y-61837219D02*
X113639695Y-62646742D01*
X113639695Y-62646742D02*
X113687314Y-62741980D01*
X113687314Y-62741980D02*
X113734933Y-62789600D01*
X113734933Y-62789600D02*
X113830171Y-62837219D01*
X113830171Y-62837219D02*
X114020647Y-62837219D01*
X114020647Y-62837219D02*
X114115885Y-62789600D01*
X114115885Y-62789600D02*
X114163504Y-62741980D01*
X114163504Y-62741980D02*
X114211123Y-62646742D01*
X114211123Y-62646742D02*
X114211123Y-61837219D01*
X115163504Y-61837219D02*
X114687314Y-61837219D01*
X114687314Y-61837219D02*
X114639695Y-62313409D01*
X114639695Y-62313409D02*
X114687314Y-62265790D01*
X114687314Y-62265790D02*
X114782552Y-62218171D01*
X114782552Y-62218171D02*
X115020647Y-62218171D01*
X115020647Y-62218171D02*
X115115885Y-62265790D01*
X115115885Y-62265790D02*
X115163504Y-62313409D01*
X115163504Y-62313409D02*
X115211123Y-62408647D01*
X115211123Y-62408647D02*
X115211123Y-62646742D01*
X115211123Y-62646742D02*
X115163504Y-62741980D01*
X115163504Y-62741980D02*
X115115885Y-62789600D01*
X115115885Y-62789600D02*
X115020647Y-62837219D01*
X115020647Y-62837219D02*
X114782552Y-62837219D01*
X114782552Y-62837219D02*
X114687314Y-62789600D01*
X114687314Y-62789600D02*
X114639695Y-62741980D01*
D12*
X110137503Y-64159832D02*
X109994646Y-64085546D01*
X109994646Y-64085546D02*
X109780360Y-64085546D01*
X109780360Y-64085546D02*
X109566074Y-64159832D01*
X109566074Y-64159832D02*
X109423217Y-64308403D01*
X109423217Y-64308403D02*
X109351788Y-64456975D01*
X109351788Y-64456975D02*
X109280360Y-64754118D01*
X109280360Y-64754118D02*
X109280360Y-64976975D01*
X109280360Y-64976975D02*
X109351788Y-65274118D01*
X109351788Y-65274118D02*
X109423217Y-65422689D01*
X109423217Y-65422689D02*
X109566074Y-65571261D01*
X109566074Y-65571261D02*
X109780360Y-65645546D01*
X109780360Y-65645546D02*
X109923217Y-65645546D01*
X109923217Y-65645546D02*
X110137503Y-65571261D01*
X110137503Y-65571261D02*
X110208931Y-65496975D01*
X110208931Y-65496975D02*
X110208931Y-64976975D01*
X110208931Y-64976975D02*
X109923217Y-64976975D01*
X110851788Y-64605546D02*
X110851788Y-65645546D01*
X110851788Y-64754118D02*
X110923217Y-64679832D01*
X110923217Y-64679832D02*
X111066074Y-64605546D01*
X111066074Y-64605546D02*
X111280360Y-64605546D01*
X111280360Y-64605546D02*
X111423217Y-64679832D01*
X111423217Y-64679832D02*
X111494646Y-64828403D01*
X111494646Y-64828403D02*
X111494646Y-65645546D01*
X112851789Y-65645546D02*
X112851789Y-64085546D01*
X112851789Y-65571261D02*
X112708931Y-65645546D01*
X112708931Y-65645546D02*
X112423217Y-65645546D01*
X112423217Y-65645546D02*
X112280360Y-65571261D01*
X112280360Y-65571261D02*
X112208931Y-65496975D01*
X112208931Y-65496975D02*
X112137503Y-65348403D01*
X112137503Y-65348403D02*
X112137503Y-64902689D01*
X112137503Y-64902689D02*
X112208931Y-64754118D01*
X112208931Y-64754118D02*
X112280360Y-64679832D01*
X112280360Y-64679832D02*
X112423217Y-64605546D01*
X112423217Y-64605546D02*
X112708931Y-64605546D01*
X112708931Y-64605546D02*
X112851789Y-64679832D01*
X108208931Y-67339916D02*
X108708931Y-67339916D01*
X108923217Y-68157059D02*
X108208931Y-68157059D01*
X108208931Y-68157059D02*
X108208931Y-66597059D01*
X108208931Y-66597059D02*
X108923217Y-66597059D01*
X110208932Y-68082774D02*
X110066074Y-68157059D01*
X110066074Y-68157059D02*
X109780360Y-68157059D01*
X109780360Y-68157059D02*
X109637503Y-68082774D01*
X109637503Y-68082774D02*
X109566074Y-68008488D01*
X109566074Y-68008488D02*
X109494646Y-67859916D01*
X109494646Y-67859916D02*
X109494646Y-67414202D01*
X109494646Y-67414202D02*
X109566074Y-67265631D01*
X109566074Y-67265631D02*
X109637503Y-67191345D01*
X109637503Y-67191345D02*
X109780360Y-67117059D01*
X109780360Y-67117059D02*
X110066074Y-67117059D01*
X110066074Y-67117059D02*
X110208932Y-67191345D01*
X110851788Y-68157059D02*
X110851788Y-66597059D01*
X111494646Y-68157059D02*
X111494646Y-67339916D01*
X111494646Y-67339916D02*
X111423217Y-67191345D01*
X111423217Y-67191345D02*
X111280360Y-67117059D01*
X111280360Y-67117059D02*
X111066074Y-67117059D01*
X111066074Y-67117059D02*
X110923217Y-67191345D01*
X110923217Y-67191345D02*
X110851788Y-67265631D01*
X112423217Y-68157059D02*
X112280360Y-68082774D01*
X112280360Y-68082774D02*
X112208931Y-68008488D01*
X112208931Y-68008488D02*
X112137503Y-67859916D01*
X112137503Y-67859916D02*
X112137503Y-67414202D01*
X112137503Y-67414202D02*
X112208931Y-67265631D01*
X112208931Y-67265631D02*
X112280360Y-67191345D01*
X112280360Y-67191345D02*
X112423217Y-67117059D01*
X112423217Y-67117059D02*
X112637503Y-67117059D01*
X112637503Y-67117059D02*
X112780360Y-67191345D01*
X112780360Y-67191345D02*
X112851789Y-67265631D01*
X112851789Y-67265631D02*
X112923217Y-67414202D01*
X112923217Y-67414202D02*
X112923217Y-67859916D01*
X112923217Y-67859916D02*
X112851789Y-68008488D01*
X112851789Y-68008488D02*
X112780360Y-68082774D01*
X112780360Y-68082774D02*
X112637503Y-68157059D01*
X112637503Y-68157059D02*
X112423217Y-68157059D01*
X109208932Y-69108572D02*
X110066075Y-69108572D01*
X109637503Y-70668572D02*
X109637503Y-69108572D01*
X110566074Y-70668572D02*
X110566074Y-69628572D01*
X110566074Y-69925715D02*
X110637503Y-69777144D01*
X110637503Y-69777144D02*
X110708932Y-69702858D01*
X110708932Y-69702858D02*
X110851789Y-69628572D01*
X110851789Y-69628572D02*
X110994646Y-69628572D01*
X111494645Y-70668572D02*
X111494645Y-69628572D01*
X111494645Y-69108572D02*
X111423217Y-69182858D01*
X111423217Y-69182858D02*
X111494645Y-69257144D01*
X111494645Y-69257144D02*
X111566074Y-69182858D01*
X111566074Y-69182858D02*
X111494645Y-69108572D01*
X111494645Y-69108572D02*
X111494645Y-69257144D01*
X112851789Y-69628572D02*
X112851789Y-70891429D01*
X112851789Y-70891429D02*
X112780360Y-71040001D01*
X112780360Y-71040001D02*
X112708931Y-71114287D01*
X112708931Y-71114287D02*
X112566074Y-71188572D01*
X112566074Y-71188572D02*
X112351789Y-71188572D01*
X112351789Y-71188572D02*
X112208931Y-71114287D01*
X112851789Y-70594287D02*
X112708931Y-70668572D01*
X112708931Y-70668572D02*
X112423217Y-70668572D01*
X112423217Y-70668572D02*
X112280360Y-70594287D01*
X112280360Y-70594287D02*
X112208931Y-70520001D01*
X112208931Y-70520001D02*
X112137503Y-70371429D01*
X112137503Y-70371429D02*
X112137503Y-69925715D01*
X112137503Y-69925715D02*
X112208931Y-69777144D01*
X112208931Y-69777144D02*
X112280360Y-69702858D01*
X112280360Y-69702858D02*
X112423217Y-69628572D01*
X112423217Y-69628572D02*
X112708931Y-69628572D01*
X112708931Y-69628572D02*
X112851789Y-69702858D01*
X109494647Y-71620085D02*
X109994647Y-73180085D01*
X109994647Y-73180085D02*
X110494647Y-71620085D01*
X111637504Y-73105800D02*
X111494646Y-73180085D01*
X111494646Y-73180085D02*
X111208932Y-73180085D01*
X111208932Y-73180085D02*
X111066075Y-73105800D01*
X111066075Y-73105800D02*
X110994646Y-73031514D01*
X110994646Y-73031514D02*
X110923218Y-72882942D01*
X110923218Y-72882942D02*
X110923218Y-72437228D01*
X110923218Y-72437228D02*
X110994646Y-72288657D01*
X110994646Y-72288657D02*
X111066075Y-72214371D01*
X111066075Y-72214371D02*
X111208932Y-72140085D01*
X111208932Y-72140085D02*
X111494646Y-72140085D01*
X111494646Y-72140085D02*
X111637504Y-72214371D01*
X112923218Y-73105800D02*
X112780360Y-73180085D01*
X112780360Y-73180085D02*
X112494646Y-73180085D01*
X112494646Y-73180085D02*
X112351789Y-73105800D01*
X112351789Y-73105800D02*
X112280360Y-73031514D01*
X112280360Y-73031514D02*
X112208932Y-72882942D01*
X112208932Y-72882942D02*
X112208932Y-72437228D01*
X112208932Y-72437228D02*
X112280360Y-72288657D01*
X112280360Y-72288657D02*
X112351789Y-72214371D01*
X112351789Y-72214371D02*
X112494646Y-72140085D01*
X112494646Y-72140085D02*
X112780360Y-72140085D01*
X112780360Y-72140085D02*
X112923218Y-72214371D01*
D10*
X85675319Y-29871904D02*
X86484842Y-29871904D01*
X86484842Y-29871904D02*
X86580080Y-29824285D01*
X86580080Y-29824285D02*
X86627700Y-29776666D01*
X86627700Y-29776666D02*
X86675319Y-29681428D01*
X86675319Y-29681428D02*
X86675319Y-29490952D01*
X86675319Y-29490952D02*
X86627700Y-29395714D01*
X86627700Y-29395714D02*
X86580080Y-29348095D01*
X86580080Y-29348095D02*
X86484842Y-29300476D01*
X86484842Y-29300476D02*
X85675319Y-29300476D01*
X86008652Y-28395714D02*
X86675319Y-28395714D01*
X85627700Y-28633809D02*
X86341985Y-28871904D01*
X86341985Y-28871904D02*
X86341985Y-28252857D01*
D12*
X87801232Y-33462596D02*
X87726946Y-33605454D01*
X87726946Y-33605454D02*
X87726946Y-33819739D01*
X87726946Y-33819739D02*
X87801232Y-34034025D01*
X87801232Y-34034025D02*
X87949803Y-34176882D01*
X87949803Y-34176882D02*
X88098375Y-34248311D01*
X88098375Y-34248311D02*
X88395518Y-34319739D01*
X88395518Y-34319739D02*
X88618375Y-34319739D01*
X88618375Y-34319739D02*
X88915518Y-34248311D01*
X88915518Y-34248311D02*
X89064089Y-34176882D01*
X89064089Y-34176882D02*
X89212661Y-34034025D01*
X89212661Y-34034025D02*
X89286946Y-33819739D01*
X89286946Y-33819739D02*
X89286946Y-33676882D01*
X89286946Y-33676882D02*
X89212661Y-33462596D01*
X89212661Y-33462596D02*
X89138375Y-33391168D01*
X89138375Y-33391168D02*
X88618375Y-33391168D01*
X88618375Y-33391168D02*
X88618375Y-33676882D01*
X88246946Y-32748311D02*
X89286946Y-32748311D01*
X88395518Y-32748311D02*
X88321232Y-32676882D01*
X88321232Y-32676882D02*
X88246946Y-32534025D01*
X88246946Y-32534025D02*
X88246946Y-32319739D01*
X88246946Y-32319739D02*
X88321232Y-32176882D01*
X88321232Y-32176882D02*
X88469803Y-32105454D01*
X88469803Y-32105454D02*
X89286946Y-32105454D01*
X89286946Y-30748311D02*
X87726946Y-30748311D01*
X89212661Y-30748311D02*
X89286946Y-30891168D01*
X89286946Y-30891168D02*
X89286946Y-31176882D01*
X89286946Y-31176882D02*
X89212661Y-31319739D01*
X89212661Y-31319739D02*
X89138375Y-31391168D01*
X89138375Y-31391168D02*
X88989803Y-31462596D01*
X88989803Y-31462596D02*
X88544089Y-31462596D01*
X88544089Y-31462596D02*
X88395518Y-31391168D01*
X88395518Y-31391168D02*
X88321232Y-31319739D01*
X88321232Y-31319739D02*
X88246946Y-31176882D01*
X88246946Y-31176882D02*
X88246946Y-30891168D01*
X88246946Y-30891168D02*
X88321232Y-30748311D01*
X90238459Y-34105452D02*
X91798459Y-33605452D01*
X91798459Y-33605452D02*
X90238459Y-33105452D01*
X91724174Y-31962596D02*
X91798459Y-32105453D01*
X91798459Y-32105453D02*
X91798459Y-32391167D01*
X91798459Y-32391167D02*
X91724174Y-32534024D01*
X91724174Y-32534024D02*
X91649888Y-32605453D01*
X91649888Y-32605453D02*
X91501316Y-32676881D01*
X91501316Y-32676881D02*
X91055602Y-32676881D01*
X91055602Y-32676881D02*
X90907031Y-32605453D01*
X90907031Y-32605453D02*
X90832745Y-32534024D01*
X90832745Y-32534024D02*
X90758459Y-32391167D01*
X90758459Y-32391167D02*
X90758459Y-32105453D01*
X90758459Y-32105453D02*
X90832745Y-31962596D01*
X91724174Y-30676882D02*
X91798459Y-30819739D01*
X91798459Y-30819739D02*
X91798459Y-31105453D01*
X91798459Y-31105453D02*
X91724174Y-31248310D01*
X91724174Y-31248310D02*
X91649888Y-31319739D01*
X91649888Y-31319739D02*
X91501316Y-31391167D01*
X91501316Y-31391167D02*
X91055602Y-31391167D01*
X91055602Y-31391167D02*
X90907031Y-31319739D01*
X90907031Y-31319739D02*
X90832745Y-31248310D01*
X90832745Y-31248310D02*
X90758459Y-31105453D01*
X90758459Y-31105453D02*
X90758459Y-30819739D01*
X90758459Y-30819739D02*
X90832745Y-30676882D01*
X94235687Y-34248310D02*
X94309972Y-34034025D01*
X94309972Y-34034025D02*
X94309972Y-33676882D01*
X94309972Y-33676882D02*
X94235687Y-33534025D01*
X94235687Y-33534025D02*
X94161401Y-33462596D01*
X94161401Y-33462596D02*
X94012829Y-33391167D01*
X94012829Y-33391167D02*
X93864258Y-33391167D01*
X93864258Y-33391167D02*
X93715687Y-33462596D01*
X93715687Y-33462596D02*
X93641401Y-33534025D01*
X93641401Y-33534025D02*
X93567115Y-33676882D01*
X93567115Y-33676882D02*
X93492829Y-33962596D01*
X93492829Y-33962596D02*
X93418544Y-34105453D01*
X93418544Y-34105453D02*
X93344258Y-34176882D01*
X93344258Y-34176882D02*
X93195687Y-34248310D01*
X93195687Y-34248310D02*
X93047115Y-34248310D01*
X93047115Y-34248310D02*
X92898544Y-34176882D01*
X92898544Y-34176882D02*
X92824258Y-34105453D01*
X92824258Y-34105453D02*
X92749972Y-33962596D01*
X92749972Y-33962596D02*
X92749972Y-33605453D01*
X92749972Y-33605453D02*
X92824258Y-33391167D01*
X94161401Y-31891168D02*
X94235687Y-31962596D01*
X94235687Y-31962596D02*
X94309972Y-32176882D01*
X94309972Y-32176882D02*
X94309972Y-32319739D01*
X94309972Y-32319739D02*
X94235687Y-32534025D01*
X94235687Y-32534025D02*
X94087115Y-32676882D01*
X94087115Y-32676882D02*
X93938544Y-32748311D01*
X93938544Y-32748311D02*
X93641401Y-32819739D01*
X93641401Y-32819739D02*
X93418544Y-32819739D01*
X93418544Y-32819739D02*
X93121401Y-32748311D01*
X93121401Y-32748311D02*
X92972829Y-32676882D01*
X92972829Y-32676882D02*
X92824258Y-32534025D01*
X92824258Y-32534025D02*
X92749972Y-32319739D01*
X92749972Y-32319739D02*
X92749972Y-32176882D01*
X92749972Y-32176882D02*
X92824258Y-31962596D01*
X92824258Y-31962596D02*
X92898544Y-31891168D01*
X94309972Y-30534025D02*
X94309972Y-31248311D01*
X94309972Y-31248311D02*
X92749972Y-31248311D01*
X96747200Y-34319738D02*
X96821485Y-34105453D01*
X96821485Y-34105453D02*
X96821485Y-33748310D01*
X96821485Y-33748310D02*
X96747200Y-33605453D01*
X96747200Y-33605453D02*
X96672914Y-33534024D01*
X96672914Y-33534024D02*
X96524342Y-33462595D01*
X96524342Y-33462595D02*
X96375771Y-33462595D01*
X96375771Y-33462595D02*
X96227200Y-33534024D01*
X96227200Y-33534024D02*
X96152914Y-33605453D01*
X96152914Y-33605453D02*
X96078628Y-33748310D01*
X96078628Y-33748310D02*
X96004342Y-34034024D01*
X96004342Y-34034024D02*
X95930057Y-34176881D01*
X95930057Y-34176881D02*
X95855771Y-34248310D01*
X95855771Y-34248310D02*
X95707200Y-34319738D01*
X95707200Y-34319738D02*
X95558628Y-34319738D01*
X95558628Y-34319738D02*
X95410057Y-34248310D01*
X95410057Y-34248310D02*
X95335771Y-34176881D01*
X95335771Y-34176881D02*
X95261485Y-34034024D01*
X95261485Y-34034024D02*
X95261485Y-33676881D01*
X95261485Y-33676881D02*
X95335771Y-33462595D01*
X96821485Y-32819739D02*
X95261485Y-32819739D01*
X95261485Y-32819739D02*
X95261485Y-32462596D01*
X95261485Y-32462596D02*
X95335771Y-32248310D01*
X95335771Y-32248310D02*
X95484342Y-32105453D01*
X95484342Y-32105453D02*
X95632914Y-32034024D01*
X95632914Y-32034024D02*
X95930057Y-31962596D01*
X95930057Y-31962596D02*
X96152914Y-31962596D01*
X96152914Y-31962596D02*
X96450057Y-32034024D01*
X96450057Y-32034024D02*
X96598628Y-32105453D01*
X96598628Y-32105453D02*
X96747200Y-32248310D01*
X96747200Y-32248310D02*
X96821485Y-32462596D01*
X96821485Y-32462596D02*
X96821485Y-32819739D01*
X96375771Y-31391167D02*
X96375771Y-30676882D01*
X96821485Y-31534024D02*
X95261485Y-31034024D01*
X95261485Y-31034024D02*
X96821485Y-30534024D01*
D13*
X100390833Y-73003580D02*
X100343214Y-73051200D01*
X100343214Y-73051200D02*
X100200357Y-73098819D01*
X100200357Y-73098819D02*
X100105119Y-73098819D01*
X100105119Y-73098819D02*
X99962262Y-73051200D01*
X99962262Y-73051200D02*
X99867024Y-72955961D01*
X99867024Y-72955961D02*
X99819405Y-72860723D01*
X99819405Y-72860723D02*
X99771786Y-72670247D01*
X99771786Y-72670247D02*
X99771786Y-72527390D01*
X99771786Y-72527390D02*
X99819405Y-72336914D01*
X99819405Y-72336914D02*
X99867024Y-72241676D01*
X99867024Y-72241676D02*
X99962262Y-72146438D01*
X99962262Y-72146438D02*
X100105119Y-72098819D01*
X100105119Y-72098819D02*
X100200357Y-72098819D01*
X100200357Y-72098819D02*
X100343214Y-72146438D01*
X100343214Y-72146438D02*
X100390833Y-72194057D01*
X100771786Y-72194057D02*
X100819405Y-72146438D01*
X100819405Y-72146438D02*
X100914643Y-72098819D01*
X100914643Y-72098819D02*
X101152738Y-72098819D01*
X101152738Y-72098819D02*
X101247976Y-72146438D01*
X101247976Y-72146438D02*
X101295595Y-72194057D01*
X101295595Y-72194057D02*
X101343214Y-72289295D01*
X101343214Y-72289295D02*
X101343214Y-72384533D01*
X101343214Y-72384533D02*
X101295595Y-72527390D01*
X101295595Y-72527390D02*
X100724167Y-73098819D01*
X100724167Y-73098819D02*
X101343214Y-73098819D01*
D10*
X110136504Y-90261180D02*
X110136504Y-89451657D01*
X110136504Y-89451657D02*
X110088885Y-89356419D01*
X110088885Y-89356419D02*
X110041266Y-89308800D01*
X110041266Y-89308800D02*
X109946028Y-89261180D01*
X109946028Y-89261180D02*
X109755552Y-89261180D01*
X109755552Y-89261180D02*
X109660314Y-89308800D01*
X109660314Y-89308800D02*
X109612695Y-89356419D01*
X109612695Y-89356419D02*
X109565076Y-89451657D01*
X109565076Y-89451657D02*
X109565076Y-90261180D01*
X108565076Y-89261180D02*
X109136504Y-89261180D01*
X108850790Y-89261180D02*
X108850790Y-90261180D01*
X108850790Y-90261180D02*
X108946028Y-90118323D01*
X108946028Y-90118323D02*
X109041266Y-90023085D01*
X109041266Y-90023085D02*
X109136504Y-89975466D01*
D13*
X102133219Y-32471666D02*
X101657028Y-32804999D01*
X102133219Y-33043094D02*
X101133219Y-33043094D01*
X101133219Y-33043094D02*
X101133219Y-32662142D01*
X101133219Y-32662142D02*
X101180838Y-32566904D01*
X101180838Y-32566904D02*
X101228457Y-32519285D01*
X101228457Y-32519285D02*
X101323695Y-32471666D01*
X101323695Y-32471666D02*
X101466552Y-32471666D01*
X101466552Y-32471666D02*
X101561790Y-32519285D01*
X101561790Y-32519285D02*
X101609409Y-32566904D01*
X101609409Y-32566904D02*
X101657028Y-32662142D01*
X101657028Y-32662142D02*
X101657028Y-33043094D01*
X101133219Y-32138332D02*
X101133219Y-31471666D01*
X101133219Y-31471666D02*
X102133219Y-31900237D01*
X57678805Y-30416419D02*
X57678805Y-29416419D01*
X57678805Y-29416419D02*
X57916900Y-29416419D01*
X57916900Y-29416419D02*
X58059757Y-29464038D01*
X58059757Y-29464038D02*
X58154995Y-29559276D01*
X58154995Y-29559276D02*
X58202614Y-29654514D01*
X58202614Y-29654514D02*
X58250233Y-29844990D01*
X58250233Y-29844990D02*
X58250233Y-29987847D01*
X58250233Y-29987847D02*
X58202614Y-30178323D01*
X58202614Y-30178323D02*
X58154995Y-30273561D01*
X58154995Y-30273561D02*
X58059757Y-30368800D01*
X58059757Y-30368800D02*
X57916900Y-30416419D01*
X57916900Y-30416419D02*
X57678805Y-30416419D01*
X58583567Y-29416419D02*
X59202614Y-29416419D01*
X59202614Y-29416419D02*
X58869281Y-29797371D01*
X58869281Y-29797371D02*
X59012138Y-29797371D01*
X59012138Y-29797371D02*
X59107376Y-29844990D01*
X59107376Y-29844990D02*
X59154995Y-29892609D01*
X59154995Y-29892609D02*
X59202614Y-29987847D01*
X59202614Y-29987847D02*
X59202614Y-30225942D01*
X59202614Y-30225942D02*
X59154995Y-30321180D01*
X59154995Y-30321180D02*
X59107376Y-30368800D01*
X59107376Y-30368800D02*
X59012138Y-30416419D01*
X59012138Y-30416419D02*
X58726424Y-30416419D01*
X58726424Y-30416419D02*
X58631186Y-30368800D01*
X58631186Y-30368800D02*
X58583567Y-30321180D01*
X76953804Y-68710085D02*
X76953804Y-68233895D01*
X77239519Y-68805323D02*
X76239519Y-68471990D01*
X76239519Y-68471990D02*
X77239519Y-68138657D01*
X77239519Y-67281514D02*
X77239519Y-67852942D01*
X77239519Y-67567228D02*
X76239519Y-67567228D01*
X76239519Y-67567228D02*
X76382376Y-67662466D01*
X76382376Y-67662466D02*
X76477614Y-67757704D01*
X76477614Y-67757704D02*
X76525233Y-67852942D01*
X104273819Y-66093904D02*
X105083342Y-66093904D01*
X105083342Y-66093904D02*
X105178580Y-66046285D01*
X105178580Y-66046285D02*
X105226200Y-65998666D01*
X105226200Y-65998666D02*
X105273819Y-65903428D01*
X105273819Y-65903428D02*
X105273819Y-65712952D01*
X105273819Y-65712952D02*
X105226200Y-65617714D01*
X105226200Y-65617714D02*
X105178580Y-65570095D01*
X105178580Y-65570095D02*
X105083342Y-65522476D01*
X105083342Y-65522476D02*
X104273819Y-65522476D01*
X104369057Y-65093904D02*
X104321438Y-65046285D01*
X104321438Y-65046285D02*
X104273819Y-64951047D01*
X104273819Y-64951047D02*
X104273819Y-64712952D01*
X104273819Y-64712952D02*
X104321438Y-64617714D01*
X104321438Y-64617714D02*
X104369057Y-64570095D01*
X104369057Y-64570095D02*
X104464295Y-64522476D01*
X104464295Y-64522476D02*
X104559533Y-64522476D01*
X104559533Y-64522476D02*
X104702390Y-64570095D01*
X104702390Y-64570095D02*
X105273819Y-65141523D01*
X105273819Y-65141523D02*
X105273819Y-64522476D01*
X118361619Y-102320966D02*
X117885428Y-102654299D01*
X118361619Y-102892394D02*
X117361619Y-102892394D01*
X117361619Y-102892394D02*
X117361619Y-102511442D01*
X117361619Y-102511442D02*
X117409238Y-102416204D01*
X117409238Y-102416204D02*
X117456857Y-102368585D01*
X117456857Y-102368585D02*
X117552095Y-102320966D01*
X117552095Y-102320966D02*
X117694952Y-102320966D01*
X117694952Y-102320966D02*
X117790190Y-102368585D01*
X117790190Y-102368585D02*
X117837809Y-102416204D01*
X117837809Y-102416204D02*
X117885428Y-102511442D01*
X117885428Y-102511442D02*
X117885428Y-102892394D01*
X117361619Y-101416204D02*
X117361619Y-101892394D01*
X117361619Y-101892394D02*
X117837809Y-101940013D01*
X117837809Y-101940013D02*
X117790190Y-101892394D01*
X117790190Y-101892394D02*
X117742571Y-101797156D01*
X117742571Y-101797156D02*
X117742571Y-101559061D01*
X117742571Y-101559061D02*
X117790190Y-101463823D01*
X117790190Y-101463823D02*
X117837809Y-101416204D01*
X117837809Y-101416204D02*
X117933047Y-101368585D01*
X117933047Y-101368585D02*
X118171142Y-101368585D01*
X118171142Y-101368585D02*
X118266380Y-101416204D01*
X118266380Y-101416204D02*
X118314000Y-101463823D01*
X118314000Y-101463823D02*
X118361619Y-101559061D01*
X118361619Y-101559061D02*
X118361619Y-101797156D01*
X118361619Y-101797156D02*
X118314000Y-101892394D01*
X118314000Y-101892394D02*
X118266380Y-101940013D01*
X43659466Y-40755219D02*
X43659466Y-41469504D01*
X43659466Y-41469504D02*
X43611847Y-41612361D01*
X43611847Y-41612361D02*
X43516609Y-41707600D01*
X43516609Y-41707600D02*
X43373752Y-41755219D01*
X43373752Y-41755219D02*
X43278514Y-41755219D01*
X44659466Y-41755219D02*
X44088038Y-41755219D01*
X44373752Y-41755219D02*
X44373752Y-40755219D01*
X44373752Y-40755219D02*
X44278514Y-40898076D01*
X44278514Y-40898076D02*
X44183276Y-40993314D01*
X44183276Y-40993314D02*
X44088038Y-41040933D01*
X121884819Y-28738094D02*
X120884819Y-28738094D01*
X120884819Y-28738094D02*
X120884819Y-28499999D01*
X120884819Y-28499999D02*
X120932438Y-28357142D01*
X120932438Y-28357142D02*
X121027676Y-28261904D01*
X121027676Y-28261904D02*
X121122914Y-28214285D01*
X121122914Y-28214285D02*
X121313390Y-28166666D01*
X121313390Y-28166666D02*
X121456247Y-28166666D01*
X121456247Y-28166666D02*
X121646723Y-28214285D01*
X121646723Y-28214285D02*
X121741961Y-28261904D01*
X121741961Y-28261904D02*
X121837200Y-28357142D01*
X121837200Y-28357142D02*
X121884819Y-28499999D01*
X121884819Y-28499999D02*
X121884819Y-28738094D01*
X121884819Y-27214285D02*
X121884819Y-27785713D01*
X121884819Y-27499999D02*
X120884819Y-27499999D01*
X120884819Y-27499999D02*
X121027676Y-27595237D01*
X121027676Y-27595237D02*
X121122914Y-27690475D01*
X121122914Y-27690475D02*
X121170533Y-27785713D01*
X105712419Y-68340266D02*
X105236228Y-68673599D01*
X105712419Y-68911694D02*
X104712419Y-68911694D01*
X104712419Y-68911694D02*
X104712419Y-68530742D01*
X104712419Y-68530742D02*
X104760038Y-68435504D01*
X104760038Y-68435504D02*
X104807657Y-68387885D01*
X104807657Y-68387885D02*
X104902895Y-68340266D01*
X104902895Y-68340266D02*
X105045752Y-68340266D01*
X105045752Y-68340266D02*
X105140990Y-68387885D01*
X105140990Y-68387885D02*
X105188609Y-68435504D01*
X105188609Y-68435504D02*
X105236228Y-68530742D01*
X105236228Y-68530742D02*
X105236228Y-68911694D01*
X104712419Y-68006932D02*
X104712419Y-67387885D01*
X104712419Y-67387885D02*
X105093371Y-67721218D01*
X105093371Y-67721218D02*
X105093371Y-67578361D01*
X105093371Y-67578361D02*
X105140990Y-67483123D01*
X105140990Y-67483123D02*
X105188609Y-67435504D01*
X105188609Y-67435504D02*
X105283847Y-67387885D01*
X105283847Y-67387885D02*
X105521942Y-67387885D01*
X105521942Y-67387885D02*
X105617180Y-67435504D01*
X105617180Y-67435504D02*
X105664800Y-67483123D01*
X105664800Y-67483123D02*
X105712419Y-67578361D01*
X105712419Y-67578361D02*
X105712419Y-67864075D01*
X105712419Y-67864075D02*
X105664800Y-67959313D01*
X105664800Y-67959313D02*
X105617180Y-68006932D01*
X54701063Y-89962209D02*
X54843920Y-90009828D01*
X54843920Y-90009828D02*
X54891539Y-90057447D01*
X54891539Y-90057447D02*
X54939158Y-90152685D01*
X54939158Y-90152685D02*
X54939158Y-90295542D01*
X54939158Y-90295542D02*
X54891539Y-90390780D01*
X54891539Y-90390780D02*
X54843920Y-90438400D01*
X54843920Y-90438400D02*
X54748682Y-90486019D01*
X54748682Y-90486019D02*
X54367730Y-90486019D01*
X54367730Y-90486019D02*
X54367730Y-89486019D01*
X54367730Y-89486019D02*
X54701063Y-89486019D01*
X54701063Y-89486019D02*
X54796301Y-89533638D01*
X54796301Y-89533638D02*
X54843920Y-89581257D01*
X54843920Y-89581257D02*
X54891539Y-89676495D01*
X54891539Y-89676495D02*
X54891539Y-89771733D01*
X54891539Y-89771733D02*
X54843920Y-89866971D01*
X54843920Y-89866971D02*
X54796301Y-89914590D01*
X54796301Y-89914590D02*
X54701063Y-89962209D01*
X54701063Y-89962209D02*
X54367730Y-89962209D01*
X55272492Y-89486019D02*
X55939158Y-89486019D01*
X55939158Y-89486019D02*
X55272492Y-90486019D01*
X55272492Y-90486019D02*
X55939158Y-90486019D01*
X56843920Y-90486019D02*
X56272492Y-90486019D01*
X56558206Y-90486019D02*
X56558206Y-89486019D01*
X56558206Y-89486019D02*
X56462968Y-89628876D01*
X56462968Y-89628876D02*
X56367730Y-89724114D01*
X56367730Y-89724114D02*
X56272492Y-89771733D01*
X51391064Y-94765066D02*
X52152969Y-94765066D01*
X51772016Y-95146019D02*
X51772016Y-94384114D01*
X52250233Y-30416419D02*
X51916900Y-29940228D01*
X51678805Y-30416419D02*
X51678805Y-29416419D01*
X51678805Y-29416419D02*
X52059757Y-29416419D01*
X52059757Y-29416419D02*
X52154995Y-29464038D01*
X52154995Y-29464038D02*
X52202614Y-29511657D01*
X52202614Y-29511657D02*
X52250233Y-29606895D01*
X52250233Y-29606895D02*
X52250233Y-29749752D01*
X52250233Y-29749752D02*
X52202614Y-29844990D01*
X52202614Y-29844990D02*
X52154995Y-29892609D01*
X52154995Y-29892609D02*
X52059757Y-29940228D01*
X52059757Y-29940228D02*
X51678805Y-29940228D01*
X52631186Y-29511657D02*
X52678805Y-29464038D01*
X52678805Y-29464038D02*
X52774043Y-29416419D01*
X52774043Y-29416419D02*
X53012138Y-29416419D01*
X53012138Y-29416419D02*
X53107376Y-29464038D01*
X53107376Y-29464038D02*
X53154995Y-29511657D01*
X53154995Y-29511657D02*
X53202614Y-29606895D01*
X53202614Y-29606895D02*
X53202614Y-29702133D01*
X53202614Y-29702133D02*
X53154995Y-29844990D01*
X53154995Y-29844990D02*
X52583567Y-30416419D01*
X52583567Y-30416419D02*
X53202614Y-30416419D01*
X81632466Y-80709419D02*
X81632466Y-81423704D01*
X81632466Y-81423704D02*
X81584847Y-81566561D01*
X81584847Y-81566561D02*
X81489609Y-81661800D01*
X81489609Y-81661800D02*
X81346752Y-81709419D01*
X81346752Y-81709419D02*
X81251514Y-81709419D01*
X82061038Y-80804657D02*
X82108657Y-80757038D01*
X82108657Y-80757038D02*
X82203895Y-80709419D01*
X82203895Y-80709419D02*
X82441990Y-80709419D01*
X82441990Y-80709419D02*
X82537228Y-80757038D01*
X82537228Y-80757038D02*
X82584847Y-80804657D01*
X82584847Y-80804657D02*
X82632466Y-80899895D01*
X82632466Y-80899895D02*
X82632466Y-80995133D01*
X82632466Y-80995133D02*
X82584847Y-81137990D01*
X82584847Y-81137990D02*
X82013419Y-81709419D01*
X82013419Y-81709419D02*
X82632466Y-81709419D01*
X81759466Y-54855419D02*
X81759466Y-55569704D01*
X81759466Y-55569704D02*
X81711847Y-55712561D01*
X81711847Y-55712561D02*
X81616609Y-55807800D01*
X81616609Y-55807800D02*
X81473752Y-55855419D01*
X81473752Y-55855419D02*
X81378514Y-55855419D01*
X82140419Y-54855419D02*
X82759466Y-54855419D01*
X82759466Y-54855419D02*
X82426133Y-55236371D01*
X82426133Y-55236371D02*
X82568990Y-55236371D01*
X82568990Y-55236371D02*
X82664228Y-55283990D01*
X82664228Y-55283990D02*
X82711847Y-55331609D01*
X82711847Y-55331609D02*
X82759466Y-55426847D01*
X82759466Y-55426847D02*
X82759466Y-55664942D01*
X82759466Y-55664942D02*
X82711847Y-55760180D01*
X82711847Y-55760180D02*
X82664228Y-55807800D01*
X82664228Y-55807800D02*
X82568990Y-55855419D01*
X82568990Y-55855419D02*
X82283276Y-55855419D01*
X82283276Y-55855419D02*
X82188038Y-55807800D01*
X82188038Y-55807800D02*
X82140419Y-55760180D01*
X64781133Y-83994180D02*
X64733514Y-84041800D01*
X64733514Y-84041800D02*
X64590657Y-84089419D01*
X64590657Y-84089419D02*
X64495419Y-84089419D01*
X64495419Y-84089419D02*
X64352562Y-84041800D01*
X64352562Y-84041800D02*
X64257324Y-83946561D01*
X64257324Y-83946561D02*
X64209705Y-83851323D01*
X64209705Y-83851323D02*
X64162086Y-83660847D01*
X64162086Y-83660847D02*
X64162086Y-83517990D01*
X64162086Y-83517990D02*
X64209705Y-83327514D01*
X64209705Y-83327514D02*
X64257324Y-83232276D01*
X64257324Y-83232276D02*
X64352562Y-83137038D01*
X64352562Y-83137038D02*
X64495419Y-83089419D01*
X64495419Y-83089419D02*
X64590657Y-83089419D01*
X64590657Y-83089419D02*
X64733514Y-83137038D01*
X64733514Y-83137038D02*
X64781133Y-83184657D01*
X65638276Y-83422752D02*
X65638276Y-84089419D01*
X65400181Y-83041800D02*
X65162086Y-83756085D01*
X65162086Y-83756085D02*
X65781133Y-83756085D01*
X102504419Y-35953366D02*
X102028228Y-36286699D01*
X102504419Y-36524794D02*
X101504419Y-36524794D01*
X101504419Y-36524794D02*
X101504419Y-36143842D01*
X101504419Y-36143842D02*
X101552038Y-36048604D01*
X101552038Y-36048604D02*
X101599657Y-36000985D01*
X101599657Y-36000985D02*
X101694895Y-35953366D01*
X101694895Y-35953366D02*
X101837752Y-35953366D01*
X101837752Y-35953366D02*
X101932990Y-36000985D01*
X101932990Y-36000985D02*
X101980609Y-36048604D01*
X101980609Y-36048604D02*
X102028228Y-36143842D01*
X102028228Y-36143842D02*
X102028228Y-36524794D01*
X101504419Y-35096223D02*
X101504419Y-35286699D01*
X101504419Y-35286699D02*
X101552038Y-35381937D01*
X101552038Y-35381937D02*
X101599657Y-35429556D01*
X101599657Y-35429556D02*
X101742514Y-35524794D01*
X101742514Y-35524794D02*
X101932990Y-35572413D01*
X101932990Y-35572413D02*
X102313942Y-35572413D01*
X102313942Y-35572413D02*
X102409180Y-35524794D01*
X102409180Y-35524794D02*
X102456800Y-35477175D01*
X102456800Y-35477175D02*
X102504419Y-35381937D01*
X102504419Y-35381937D02*
X102504419Y-35191461D01*
X102504419Y-35191461D02*
X102456800Y-35096223D01*
X102456800Y-35096223D02*
X102409180Y-35048604D01*
X102409180Y-35048604D02*
X102313942Y-35000985D01*
X102313942Y-35000985D02*
X102075847Y-35000985D01*
X102075847Y-35000985D02*
X101980609Y-35048604D01*
X101980609Y-35048604D02*
X101932990Y-35096223D01*
X101932990Y-35096223D02*
X101885371Y-35191461D01*
X101885371Y-35191461D02*
X101885371Y-35381937D01*
X101885371Y-35381937D02*
X101932990Y-35477175D01*
X101932990Y-35477175D02*
X101980609Y-35524794D01*
X101980609Y-35524794D02*
X102075847Y-35572413D01*
D14*
%TO.C,R1*%
X119477500Y-33745276D02*
X119477500Y-34254724D01*
X120522500Y-33745276D02*
X120522500Y-34254724D01*
%TO.C,C1*%
X94523200Y-80852800D02*
X95523200Y-80852800D01*
X95023200Y-80352800D02*
X95023200Y-81352800D01*
X95763200Y-80167237D02*
X95763200Y-81852800D01*
X95763200Y-80167237D02*
X96827637Y-79102800D01*
X95763200Y-86558363D02*
X95763200Y-84872800D01*
X95763200Y-86558363D02*
X96827637Y-87622800D01*
X96827637Y-79102800D02*
X104283200Y-79102800D01*
X96827637Y-87622800D02*
X104283200Y-87622800D01*
X104283200Y-79102800D02*
X104283200Y-81852800D01*
X104283200Y-87622800D02*
X104283200Y-84872800D01*
%TO.C,C3*%
X51770400Y-42831600D02*
X51770400Y-45581600D01*
X51770400Y-51351600D02*
X51770400Y-48601600D01*
X59225963Y-42831600D02*
X51770400Y-42831600D01*
X59225963Y-51351600D02*
X51770400Y-51351600D01*
X60290400Y-43896037D02*
X59225963Y-42831600D01*
X60290400Y-43896037D02*
X60290400Y-45581600D01*
X60290400Y-50287163D02*
X59225963Y-51351600D01*
X60290400Y-50287163D02*
X60290400Y-48601600D01*
X61030400Y-50101600D02*
X61030400Y-49101600D01*
X61530400Y-49601600D02*
X60530400Y-49601600D01*
%TO.C,D2*%
X61123600Y-36190400D02*
X53463600Y-36190400D01*
X61123600Y-40490400D02*
X53463600Y-40490400D01*
X61123600Y-40490400D02*
X61123600Y-36190400D01*
%TO.C,R4*%
X94648264Y-55297400D02*
X94194136Y-55297400D01*
X94648264Y-56767400D02*
X94194136Y-56767400D01*
%TO.C,SW1*%
X31654700Y-94617800D02*
X31654700Y-99117800D01*
X34154700Y-100367800D02*
X35654700Y-100367800D01*
X35654700Y-93367800D02*
X34154700Y-93367800D01*
X38154700Y-99117800D02*
X38154700Y-94617800D01*
%TO.C,D4*%
X118873600Y-107200000D02*
X118873600Y-109660000D01*
X118873600Y-109660000D02*
X120343600Y-109660000D01*
X120343600Y-109660000D02*
X120343600Y-107200000D01*
%TO.C,C2*%
X100411233Y-70610000D02*
X100703767Y-70610000D01*
X100411233Y-71630000D02*
X100703767Y-71630000D01*
%TO.C,R7*%
X102982500Y-31696576D02*
X102982500Y-32206024D01*
X104027500Y-31696576D02*
X104027500Y-32206024D01*
%TO.C,D3*%
X57779900Y-32332600D02*
X60239900Y-32332600D01*
X60239900Y-30862600D02*
X57779900Y-30862600D01*
X60239900Y-32332600D02*
X60239900Y-30862600D01*
%TO.C,A1*%
X29664700Y-64055800D02*
X40084700Y-64055800D01*
X29664700Y-71935800D02*
X29664700Y-64055800D01*
X32204700Y-58975800D02*
X32204700Y-64055800D01*
X32204700Y-77015800D02*
X32204700Y-71935800D01*
X32204700Y-77015800D02*
X75644700Y-77015800D01*
X34747700Y-78979800D02*
X34747700Y-81649800D01*
X34874700Y-56692800D02*
X34874700Y-54022800D01*
X34874700Y-61645800D02*
X34874700Y-58975800D01*
X34874700Y-74345800D02*
X34874700Y-77015800D01*
X40084700Y-64055800D02*
X40084700Y-71935800D01*
X40084700Y-71935800D02*
X29664700Y-71935800D01*
X70434700Y-54022800D02*
X34874700Y-54022800D01*
X70434700Y-54022800D02*
X72974700Y-54022800D01*
X70434700Y-56692800D02*
X34874700Y-56692800D01*
X70434700Y-56692800D02*
X70434700Y-54022800D01*
X70434700Y-56692800D02*
X72974700Y-56692800D01*
X70434700Y-58975800D02*
X32204700Y-58975800D01*
X70434700Y-61645800D02*
X34874700Y-61645800D01*
X70434700Y-61645800D02*
X70434700Y-58975800D01*
X70434700Y-61645800D02*
X72974700Y-61645800D01*
X72847700Y-78979800D02*
X34747700Y-78979800D01*
X72847700Y-78979800D02*
X72847700Y-81649800D01*
X72847700Y-81649800D02*
X34747700Y-81649800D01*
X72974700Y-56692800D02*
X72974700Y-54022800D01*
X72974700Y-61645800D02*
X72974700Y-58975800D01*
X72974700Y-74345800D02*
X34874700Y-74345800D01*
X72974700Y-74345800D02*
X72974700Y-77015800D01*
X75644700Y-58975800D02*
X72974700Y-58975800D01*
X75644700Y-77015800D02*
X75644700Y-58975800D01*
%TO.C,U2*%
X88459000Y-62097000D02*
X88459000Y-73647000D01*
X88459000Y-73647000D02*
X103819000Y-73647000D01*
X103819000Y-62097000D02*
X88459000Y-62097000D01*
X103819000Y-71412000D02*
X103819000Y-62097000D01*
X103819000Y-73647000D02*
X103819000Y-71412000D01*
%TO.C,R5*%
X119086100Y-102254724D02*
X119086100Y-101745276D01*
X120131100Y-102254724D02*
X120131100Y-101745276D01*
%TO.C,J1*%
X39928800Y-42418000D02*
X39928800Y-52578000D01*
X39928800Y-52578000D02*
X47548800Y-52578000D01*
X46278800Y-42418000D02*
X46278800Y-52578000D01*
X47548800Y-42418000D02*
X39928800Y-42418000D01*
X47548800Y-52578000D02*
X47548800Y-42418000D01*
%TO.C,D1*%
X119265000Y-26340000D02*
X119265000Y-28800000D01*
X120735000Y-26340000D02*
X119265000Y-26340000D01*
X120735000Y-28800000D02*
X120735000Y-26340000D01*
%TO.C,R3*%
X106173600Y-68006736D02*
X106173600Y-68460864D01*
X107643600Y-68006736D02*
X107643600Y-68460864D01*
%TO.C,BZ1*%
X61682016Y-97231200D02*
G75*
G02*
X49482016Y-97231200I-6100000J0D01*
G01*
X49482016Y-97231200D02*
G75*
G02*
X61682016Y-97231200I6100000J0D01*
G01*
%TO.C,R2*%
X52834624Y-31075100D02*
X52325176Y-31075100D01*
X52834624Y-32120100D02*
X52325176Y-32120100D01*
%TO.C,J2*%
X76936600Y-71910600D02*
X76936600Y-79530600D01*
X76936600Y-79530600D02*
X87096600Y-79530600D01*
X87096600Y-71910600D02*
X76936600Y-71910600D01*
X87096600Y-78260600D02*
X76936600Y-78260600D01*
X87096600Y-79530600D02*
X87096600Y-71910600D01*
%TO.C,J3*%
X77012800Y-56670600D02*
X77012800Y-64290600D01*
X77012800Y-64290600D02*
X87172800Y-64290600D01*
X87172800Y-56670600D02*
X77012800Y-56670600D01*
X87172800Y-63020600D02*
X77012800Y-63020600D01*
X87172800Y-64290600D02*
X87172800Y-56670600D01*
%TO.C,C4*%
X64801533Y-84554600D02*
X65094067Y-84554600D01*
X64801533Y-85574600D02*
X65094067Y-85574600D01*
%TO.C,R6*%
X102957100Y-36041424D02*
X102957100Y-35531976D01*
X104002100Y-36041424D02*
X104002100Y-35531976D01*
%TD*%
M02*
