M48
; DRILL file {KiCad 8.0.2} date 2024-09-22T08:40:07+0200
; FORMAT={-:-/ absolute / inch / decimal}
; #@! TF.CreationDate,2024-09-22T08:40:07+02:00
; #@! TF.GenerationSoftware,Kicad,Pcbnew,8.0.2
; #@! TF.FileFunction,Plated,1,2,PTH
FMAT,2
INCH
; #@! TA.AperFunction,Plated,PTH,ViaDrill
T1C0.0118
; #@! TA.AperFunction,Plated,PTH,ComponentDrill
T2C0.0315
; #@! TA.AperFunction,Plated,PTH,ComponentDrill
T3C0.0394
; #@! TA.AperFunction,Plated,PTH,ComponentDrill
T4C0.0433
; #@! TA.AperFunction,Plated,PTH,ComponentDrill
T5C0.0598
%
G90
G05
T1
X1.6Y-2.6
X1.6Y-2.7
X1.7Y-2.6
X1.7Y-2.7
X1.8Y-2.8
X1.9Y-2.13
X1.92Y-2.51
X1.98Y-2.19
X2.0Y-2.8
X2.2Y-2.5
X2.2Y-2.6
X2.3Y-1.8
X2.3Y-1.9
X2.3Y-2.5
X2.3Y-2.6
X2.4Y-1.9
X2.6Y-2.5
X2.7Y-2.5
X2.8Y-2.7
X2.9Y-2.7
X3.2Y-2.7
X3.2Y-3.54
X3.2Y-3.62
X3.24Y-2.7
X3.26Y-2.7
X3.3Y-2.7
X3.3Y-3.54
X3.3Y-3.62
X3.44Y-3.54
X3.44Y-3.62
X3.56Y-3.54
X3.56Y-3.62
X3.66Y-2.85
X3.8Y-3.04
X3.84Y-3.04
X3.88Y-3.04
X3.9Y-2.7
X3.94Y-2.62
X3.94Y-3.04
X3.98Y-2.62
X3.98Y-2.86
X4.0Y-2.2
X4.0Y-2.7
X4.0Y-2.86
X4.02Y-2.62
X4.02Y-3.28
X4.04Y-3.22
X4.04Y-3.32
X4.06Y-2.62
X4.06Y-3.08
X4.06Y-3.14
X4.1Y-2.2
X4.1Y-3.08
X4.1Y-3.22
X4.1Y-3.28
X4.14Y-3.14
X4.16Y-2.86
X4.18Y-3.2
X4.2Y-2.2
X4.2Y-2.5
X4.2Y-3.14
X4.22Y-2.78
X4.22Y-2.84
X4.22Y-2.88
X4.28Y-2.78
X4.28Y-2.84
X4.28Y-2.88
X4.4Y-1.7
X4.4Y-1.8
X4.4Y-2.4
X4.5Y-1.7
X4.5Y-1.8
X4.7Y-2.4
X4.7Y-3.78
X4.7Y-3.86
X4.7Y-3.92
X4.8Y-1.7
X4.8Y-1.8
T2
X3.535Y-2.3721
X3.535Y-2.9721
X3.635Y-2.3721
X3.635Y-2.9721
X3.735Y-2.3721
X3.735Y-2.9721
X3.835Y-2.3721
X3.835Y-2.9721
X3.935Y-2.3721
X3.935Y-2.9721
X4.035Y-2.3721
X4.035Y-2.9721
X4.5108Y-2.5372
X4.5108Y-2.6372
X4.5108Y-2.7372
X4.5108Y-2.8372
X4.8Y-2.0
X4.8Y-2.1
X4.8Y-2.2
X4.8Y-2.6
X4.8Y-2.7
X4.8Y-2.8
X4.8Y-3.2
X4.8Y-3.3
X4.8Y-3.4
X4.8Y-3.8
X4.8Y-3.9
X4.8Y-4.0
X4.8031Y-1.4
X4.8031Y-1.5
X4.8031Y-1.6
T3
X1.423Y-2.377
X1.423Y-2.977
X1.523Y-2.377
X1.523Y-2.977
X1.623Y-2.377
X1.623Y-2.977
X1.723Y-2.377
X1.723Y-2.977
X1.823Y-2.377
X1.823Y-2.977
X1.923Y-2.377
X1.923Y-2.977
X2.023Y-2.377
X2.023Y-2.977
X2.123Y-2.377
X2.123Y-2.977
X2.223Y-2.377
X2.223Y-2.977
X2.323Y-2.377
X2.323Y-2.977
X2.423Y-2.377
X2.423Y-2.977
X2.523Y-2.377
X2.523Y-2.977
X2.623Y-2.377
X2.623Y-2.977
X2.723Y-2.377
X2.723Y-2.977
X2.823Y-2.377
X2.823Y-2.977
T4
X1.2856Y-3.6857
X1.2856Y-3.9416
X1.4628Y-3.6857
X1.4628Y-3.9416
T5
X1.555Y-1.8371
X1.555Y-2.0371
X3.129Y-2.9811
X3.132Y-2.3811
X3.329Y-2.9811
X3.332Y-2.3811
M30
