%TF.GenerationSoftware,KiCad,Pcbnew,8.0.2*%
%TF.CreationDate,2024-09-22T08:40:02+02:00*%
%TF.ProjectId,FrenGP_robot,4672656e-4750-45f7-926f-626f742e6b69,rev?*%
%TF.SameCoordinates,Original*%
%TF.FileFunction,Copper,L1,Top*%
%TF.FilePolarity,Positive*%
%FSLAX46Y46*%
G04 Gerber Fmt 4.6, Leading zero omitted, Abs format (unit mm)*
G04 Created by KiCad (PCBNEW 8.0.2) date 2024-09-22 08:40:02*
%MOMM*%
%LPD*%
G01*
G04 APERTURE LIST*
G04 Aperture macros list*
%AMRoundRect*
0 Rectangle with rounded corners*
0 $1 Rounding radius*
0 $2 $3 $4 $5 $6 $7 $8 $9 X,Y pos of 4 corners*
0 Add a 4 corners polygon primitive as box body*
4,1,4,$2,$3,$4,$5,$6,$7,$8,$9,$2,$3,0*
0 Add four circle primitives for the rounded corners*
1,1,$1+$1,$2,$3*
1,1,$1+$1,$4,$5*
1,1,$1+$1,$6,$7*
1,1,$1+$1,$8,$9*
0 Add four rect primitives between the rounded corners*
20,1,$1+$1,$2,$3,$4,$5,0*
20,1,$1+$1,$4,$5,$6,$7,0*
20,1,$1+$1,$6,$7,$8,$9,0*
20,1,$1+$1,$8,$9,$2,$3,0*%
%AMOutline4P*
0 Free polygon, 4 corners , with rotation*
0 The origin of the aperture is its center*
0 number of corners: always 4*
0 $1 to $8 corner X, Y*
0 $9 Rotation angle, in degrees counterclockwise*
0 create outline with 4 corners*
4,1,4,$1,$2,$3,$4,$5,$6,$7,$8,$1,$2,$9*%
G04 Aperture macros list end*
%TA.AperFunction,SMDPad,CuDef*%
%ADD10RoundRect,0.237500X0.250000X0.237500X-0.250000X0.237500X-0.250000X-0.237500X0.250000X-0.237500X0*%
%TD*%
%TA.AperFunction,SMDPad,CuDef*%
%ADD11RoundRect,0.250000X1.750000X1.000000X-1.750000X1.000000X-1.750000X-1.000000X1.750000X-1.000000X0*%
%TD*%
%TA.AperFunction,SMDPad,CuDef*%
%ADD12Outline4P,-1.800000X-1.150000X1.800000X-0.550000X1.800000X0.550000X-1.800000X1.150000X180.000000*%
%TD*%
%TA.AperFunction,SMDPad,CuDef*%
%ADD13Outline4P,-1.800000X-1.150000X1.800000X-0.550000X1.800000X0.550000X-1.800000X1.150000X0.000000*%
%TD*%
%TA.AperFunction,SMDPad,CuDef*%
%ADD14RoundRect,0.250000X-1.750000X-1.000000X1.750000X-1.000000X1.750000X1.000000X-1.750000X1.000000X0*%
%TD*%
%TA.AperFunction,ComponentPad*%
%ADD15R,1.600000X1.600000*%
%TD*%
%TA.AperFunction,ComponentPad*%
%ADD16O,1.600000X1.600000*%
%TD*%
%TA.AperFunction,ComponentPad*%
%ADD17C,2.000000*%
%TD*%
%TA.AperFunction,SMDPad,CuDef*%
%ADD18RoundRect,0.237500X-0.300000X-0.237500X0.300000X-0.237500X0.300000X0.237500X-0.300000X0.237500X0*%
%TD*%
%TA.AperFunction,ComponentPad*%
%ADD19R,3.000000X3.000000*%
%TD*%
%TA.AperFunction,ComponentPad*%
%ADD20C,3.000000*%
%TD*%
%TA.AperFunction,SMDPad,CuDef*%
%ADD21RoundRect,0.237500X0.287500X0.237500X-0.287500X0.237500X-0.287500X-0.237500X0.287500X-0.237500X0*%
%TD*%
%TA.AperFunction,SMDPad,CuDef*%
%ADD22RoundRect,0.237500X0.300000X0.237500X-0.300000X0.237500X-0.300000X-0.237500X0.300000X-0.237500X0*%
%TD*%
%TA.AperFunction,ViaPad*%
%ADD23C,0.600000*%
%TD*%
%TA.AperFunction,Conductor*%
%ADD24C,1.500000*%
%TD*%
%TA.AperFunction,Conductor*%
%ADD25C,0.500000*%
%TD*%
G04 APERTURE END LIST*
D10*
%TO.P,R1,1*%
%TO.N,Net-(D1-A)*%
X36472500Y-83820000D03*
%TO.P,R1,2*%
%TO.N,Net-(A1-D12)*%
X34647500Y-83820000D03*
%TD*%
D11*
%TO.P,C3,1*%
%TO.N,+5V_MCU*%
X54916800Y-50751200D03*
%TO.P,C3,2*%
%TO.N,GND*%
X48816800Y-50751200D03*
%TD*%
D12*
%TO.P,D2,1,K*%
%TO.N,+5V_MCU*%
X54900000Y-42000000D03*
D13*
%TO.P,D2,2,A*%
%TO.N,+5V_bat*%
X49100000Y-42000000D03*
%TD*%
D14*
%TO.P,C1,1*%
%TO.N,+5V_bat*%
X92113000Y-82423000D03*
%TO.P,C1,2*%
%TO.N,GND*%
X98213000Y-82423000D03*
%TD*%
D15*
%TO.P,U1,1,Vcc*%
%TO.N,+5V_MCU*%
X122000000Y-35560000D03*
D16*
%TO.P,U1,2,GND*%
%TO.N,GND*%
X122000000Y-38100000D03*
%TO.P,U1,3,OUT*%
%TO.N,IR1*%
X122000000Y-40640000D03*
%TD*%
D17*
%TO.P,SW1,1,1*%
%TO.N,GND*%
X32654700Y-100117800D03*
X32654700Y-93617800D03*
%TO.P,SW1,2,2*%
%TO.N,Net-(A1-D2)*%
X37154700Y-100117800D03*
X37154700Y-93617800D03*
%TD*%
D15*
%TO.P,U5,1,Vcc*%
%TO.N,+5V_MCU*%
X114574700Y-64445800D03*
D16*
%TO.P,U5,2,Trig*%
%TO.N,Trig*%
X114574700Y-66985800D03*
%TO.P,U5,3,Echo*%
%TO.N,Echo*%
X114574700Y-69525800D03*
%TO.P,U5,4,GND*%
%TO.N,GND*%
X114574700Y-72065800D03*
%TD*%
D18*
%TO.P,C2,1*%
%TO.N,+5V_bat*%
X100737500Y-71374000D03*
%TO.P,C2,2*%
%TO.N,GND*%
X102462500Y-71374000D03*
%TD*%
D15*
%TO.P,U4,1,Vcc*%
%TO.N,+5V_MCU*%
X121920000Y-66040000D03*
D16*
%TO.P,U4,2,GND*%
%TO.N,GND*%
X121920000Y-68580000D03*
%TO.P,U4,3,OUT*%
%TO.N,IR3*%
X121920000Y-71120000D03*
%TD*%
D15*
%TO.P,A1,1,D1/TX*%
%TO.N,unconnected-(A1-D1{slash}TX-Pad1)*%
X71704700Y-60375800D03*
D16*
%TO.P,A1,2,D0/RX*%
%TO.N,unconnected-(A1-D0{slash}RX-Pad2)*%
X69164700Y-60375800D03*
%TO.P,A1,3,~{RESET}*%
%TO.N,unconnected-(A1-~{RESET}-Pad3)*%
X66624700Y-60375800D03*
%TO.P,A1,4,GND*%
%TO.N,GND*%
X64084700Y-60375800D03*
%TO.P,A1,5,D2*%
%TO.N,Net-(A1-D2)*%
X61544700Y-60375800D03*
%TO.P,A1,6,D3*%
%TO.N,AIN1*%
X59004700Y-60375800D03*
%TO.P,A1,7,D4*%
%TO.N,unconnected-(A1-D4-Pad7)*%
X56464700Y-60375800D03*
%TO.P,A1,8,D5*%
%TO.N,unconnected-(A1-D5-Pad8)*%
X53924700Y-60375800D03*
%TO.P,A1,9,D6*%
%TO.N,unconnected-(A1-D6-Pad9)*%
X51384700Y-60375800D03*
%TO.P,A1,10,D7*%
%TO.N,Trig*%
X48844700Y-60375800D03*
%TO.P,A1,11,D8*%
%TO.N,Echo*%
X46304700Y-60375800D03*
%TO.P,A1,12,D9*%
%TO.N,AIN2*%
X43764700Y-60375800D03*
%TO.P,A1,13,D10*%
%TO.N,BIN1*%
X41224700Y-60375800D03*
%TO.P,A1,14,D11*%
%TO.N,BIN2*%
X38684700Y-60375800D03*
%TO.P,A1,15,D12*%
%TO.N,Net-(A1-D12)*%
X36144700Y-60375800D03*
%TO.P,A1,16,D13*%
%TO.N,unconnected-(A1-D13-Pad16)*%
X36144700Y-75615800D03*
%TO.P,A1,17,3V3*%
%TO.N,unconnected-(A1-3V3-Pad17)*%
X38684700Y-75615800D03*
%TO.P,A1,18,AREF*%
%TO.N,unconnected-(A1-AREF-Pad18)*%
X41224700Y-75615800D03*
%TO.P,A1,19,A0*%
%TO.N,IR5*%
X43764700Y-75615800D03*
%TO.P,A1,20,A1*%
%TO.N,IR4*%
X46304700Y-75615800D03*
%TO.P,A1,21,A2*%
%TO.N,IR3*%
X48844700Y-75615800D03*
%TO.P,A1,22,A3*%
%TO.N,IR2*%
X51384700Y-75615800D03*
%TO.P,A1,23,A4*%
%TO.N,IR1*%
X53924700Y-75615800D03*
%TO.P,A1,24,A5*%
%TO.N,unconnected-(A1-A5-Pad24)*%
X56464700Y-75615800D03*
%TO.P,A1,25,A6*%
%TO.N,unconnected-(A1-A6-Pad25)*%
X59004700Y-75615800D03*
%TO.P,A1,26,A7*%
%TO.N,unconnected-(A1-A7-Pad26)*%
X61544700Y-75615800D03*
%TO.P,A1,27,+5V*%
%TO.N,+5V_MCU*%
X64084700Y-75615800D03*
%TO.P,A1,28,~{RESET}*%
%TO.N,unconnected-(A1-~{RESET}-Pad28)*%
X66624700Y-75615800D03*
%TO.P,A1,29,GND*%
%TO.N,GND*%
X69164700Y-75615800D03*
%TO.P,A1,30,VIN*%
%TO.N,unconnected-(A1-VIN-Pad30)*%
X71704700Y-75615800D03*
%TD*%
D15*
%TO.P,U6,1,Vcc*%
%TO.N,+5V_MCU*%
X121920000Y-81280000D03*
D16*
%TO.P,U6,2,GND*%
%TO.N,GND*%
X121920000Y-83820000D03*
%TO.P,U6,3,OUT*%
%TO.N,IR4*%
X121920000Y-86360000D03*
%TD*%
D15*
%TO.P,U2,1,Sleep*%
%TO.N,unconnected-(U2-Sleep-Pad1)*%
X102489000Y-60252000D03*
D16*
%TO.P,U2,2,OUT1*%
%TO.N,Net-(J2-Pin_1)*%
X99949000Y-60252000D03*
%TO.P,U2,3,OUT2*%
%TO.N,Net-(J2-Pin_2)*%
X97409000Y-60252000D03*
%TO.P,U2,4,OUT3*%
%TO.N,Net-(J3-Pin_1)*%
X94869000Y-60252000D03*
%TO.P,U2,5,OUT4*%
%TO.N,Net-(J3-Pin_2)*%
X92329000Y-60252000D03*
%TO.P,U2,6,Fault*%
%TO.N,unconnected-(U2-Fault-Pad6)*%
X89789000Y-60252000D03*
%TO.P,U2,7,IN1*%
%TO.N,AIN1*%
X89789000Y-75492000D03*
%TO.P,U2,8,IN2*%
%TO.N,AIN2*%
X92329000Y-75492000D03*
%TO.P,U2,9,Vcc*%
%TO.N,+5V_bat*%
X94869000Y-75492000D03*
%TO.P,U2,10,GND*%
%TO.N,GND*%
X97409000Y-75492000D03*
%TO.P,U2,11,IN3*%
%TO.N,BIN1*%
X99949000Y-75492000D03*
%TO.P,U2,12,IN4*%
%TO.N,BIN2*%
X102489000Y-75492000D03*
%TD*%
D19*
%TO.P,J1,1,Pin_1*%
%TO.N,GND*%
X39497000Y-51743000D03*
D20*
%TO.P,J1,2,Pin_2*%
%TO.N,+5V_bat*%
X39497000Y-46663000D03*
%TD*%
D15*
%TO.P,U7,1,Vcc*%
%TO.N,+5V_MCU*%
X121920000Y-96520000D03*
D16*
%TO.P,U7,2,GND*%
%TO.N,GND*%
X121920000Y-99060000D03*
%TO.P,U7,3,OUT*%
%TO.N,IR5*%
X121920000Y-101600000D03*
%TD*%
D21*
%TO.P,D1,1,K*%
%TO.N,GND*%
X40640000Y-83820000D03*
%TO.P,D1,2,A*%
%TO.N,Net-(D1-A)*%
X38890000Y-83820000D03*
%TD*%
D19*
%TO.P,J2,1,Pin_1*%
%TO.N,Net-(J2-Pin_1)*%
X79476600Y-75720600D03*
D20*
%TO.P,J2,2,Pin_2*%
%TO.N,Net-(J2-Pin_2)*%
X84556600Y-75720600D03*
%TD*%
D19*
%TO.P,J3,1,Pin_1*%
%TO.N,Net-(J3-Pin_1)*%
X79552800Y-60480600D03*
D20*
%TO.P,J3,2,Pin_2*%
%TO.N,Net-(J3-Pin_2)*%
X84632800Y-60480600D03*
%TD*%
D15*
%TO.P,U3,1,Vcc*%
%TO.N,+5V_MCU*%
X121920000Y-50800000D03*
D16*
%TO.P,U3,2,GND*%
%TO.N,GND*%
X121920000Y-53340000D03*
%TO.P,U3,3,OUT*%
%TO.N,IR2*%
X121920000Y-55880000D03*
%TD*%
D22*
%TO.P,C4,1*%
%TO.N,+5V_MCU*%
X62432100Y-68025100D03*
%TO.P,C4,2*%
%TO.N,GND*%
X60707100Y-68025100D03*
%TD*%
D23*
%TO.N,GND*%
X98552000Y-77216000D03*
X119380000Y-99568000D03*
X58420000Y-45720000D03*
X90424000Y-91948000D03*
X101600000Y-68580000D03*
X111760000Y-45720000D03*
X90424000Y-89916000D03*
X100076000Y-77216000D03*
X104140000Y-83312000D03*
X102108000Y-83312000D03*
X96520000Y-77216000D03*
X43180000Y-68580000D03*
X73660000Y-68580000D03*
X40640000Y-66040000D03*
X108712000Y-72136000D03*
X104140000Y-78232000D03*
X102108000Y-66548000D03*
X106680000Y-63500000D03*
X82804000Y-68580000D03*
X58420000Y-48260000D03*
X107188000Y-73152000D03*
X50800000Y-71120000D03*
X106680000Y-79756000D03*
X81280000Y-68580000D03*
X106680000Y-55880000D03*
X114300000Y-43180000D03*
X119380000Y-60960000D03*
X45720000Y-71120000D03*
X121920000Y-45720000D03*
X55880000Y-66040000D03*
X111760000Y-60960000D03*
X102616000Y-81788000D03*
X119380000Y-96012000D03*
X58420000Y-66040000D03*
X104140000Y-81788000D03*
X83820000Y-68580000D03*
X106172000Y-81280000D03*
X107188000Y-72136000D03*
X121920000Y-43180000D03*
X103124000Y-79756000D03*
X101600000Y-72644000D03*
X60960000Y-48260000D03*
X87376000Y-89916000D03*
X119380000Y-98044000D03*
X103124000Y-78232000D03*
X81280000Y-91948000D03*
X104140000Y-55880000D03*
X108712000Y-70612000D03*
X107188000Y-70612000D03*
X87376000Y-91948000D03*
X101600000Y-55880000D03*
X68580000Y-63500000D03*
X43180000Y-66040000D03*
X101092000Y-66548000D03*
X102616000Y-84328000D03*
X108712000Y-73152000D03*
X66040000Y-63500000D03*
X58420000Y-63500000D03*
X81280000Y-89916000D03*
X105664000Y-72644000D03*
X83820000Y-89916000D03*
X111760000Y-43180000D03*
X82296000Y-68580000D03*
X101092000Y-72644000D03*
X105156000Y-79756000D03*
X97536000Y-77216000D03*
X99060000Y-68580000D03*
X103124000Y-66548000D03*
X83820000Y-91948000D03*
X55880000Y-63500000D03*
X40640000Y-68580000D03*
X114300000Y-45720000D03*
X100076000Y-66548000D03*
X71120000Y-68580000D03*
%TO.N,AIN1*%
X92964000Y-72390000D03*
%TO.N,BIN1*%
X48768000Y-63754000D03*
%TO.N,Echo*%
X48260000Y-54102000D03*
%TO.N,Trig*%
X50292000Y-55626000D03*
%TD*%
D24*
%TO.N,+5V_MCU*%
X73454700Y-58625800D02*
X65580100Y-50751200D01*
X65580100Y-50751200D02*
X54916800Y-50751200D01*
X73454700Y-62125800D02*
X73454700Y-58625800D01*
X66401260Y-69179240D02*
X73454700Y-62125800D01*
X64084700Y-69179240D02*
X66401260Y-69179240D01*
X63586240Y-69179240D02*
X62432100Y-68025100D01*
X64084700Y-69179240D02*
X63586240Y-69179240D01*
D25*
%TO.N,IR1*%
X93954878Y-84328000D02*
X62636900Y-84328000D01*
X101239000Y-74291550D02*
X101239000Y-79743878D01*
X94996000Y-83286878D02*
X93954878Y-84328000D01*
X94996000Y-81893122D02*
X94996000Y-83286878D01*
X62636900Y-84328000D02*
X53924700Y-75615800D01*
X101239000Y-79743878D02*
X97145244Y-79743878D01*
X120350550Y-55180000D02*
X101239000Y-74291550D01*
X120350550Y-42289450D02*
X120350550Y-55180000D01*
X122000000Y-40640000D02*
X120350550Y-42289450D01*
X97145244Y-79743878D02*
X94996000Y-81893122D01*
%TO.N,Net-(A1-D12)*%
X37434700Y-77185700D02*
X37434700Y-61665800D01*
X34647500Y-79972900D02*
X34647500Y-83820000D01*
X37434700Y-61665800D02*
X36144700Y-60375800D01*
X37434700Y-77185700D02*
X34647500Y-79972900D01*
%TO.N,Net-(A1-D2)*%
X39974700Y-76133567D02*
X39974700Y-75098033D01*
X41615000Y-89157500D02*
X37154700Y-93617800D01*
X60198500Y-61722000D02*
X61544700Y-60375800D01*
X37154700Y-100117800D02*
X37154700Y-93617800D01*
X39974700Y-76133567D02*
X41615000Y-77773867D01*
X41615000Y-77773867D02*
X41615000Y-89157500D01*
X53350733Y-61722000D02*
X60198500Y-61722000D01*
X39974700Y-75098033D02*
X53350733Y-61722000D01*
%TO.N,AIN1*%
X89789000Y-75492000D02*
X89862000Y-75492000D01*
X89862000Y-75492000D02*
X92964000Y-72390000D01*
%TO.N,BIN1*%
X48768000Y-63754000D02*
X44602900Y-63754000D01*
X44602900Y-63754000D02*
X41224700Y-60375800D01*
%TO.N,IR2*%
X121920000Y-55880000D02*
X120640500Y-55880000D01*
X61112900Y-85344000D02*
X51384700Y-75615800D01*
X120640500Y-55880000D02*
X110245500Y-66275000D01*
X110245500Y-79746500D02*
X104648000Y-85344000D01*
X104648000Y-85344000D02*
X61112900Y-85344000D01*
X110245500Y-66275000D02*
X110245500Y-79746500D01*
%TO.N,IR4*%
X121920000Y-86360000D02*
X110744000Y-97536000D01*
X110744000Y-97536000D02*
X68224900Y-97536000D01*
X68224900Y-97536000D02*
X46304700Y-75615800D01*
%TO.N,+5V_MCU*%
X122437767Y-102850000D02*
X69231133Y-102850000D01*
X42514700Y-76133567D02*
X42514700Y-75098033D01*
X42514700Y-75098033D02*
X43444733Y-74168000D01*
X69231133Y-102850000D02*
X42514700Y-76133567D01*
X121920000Y-96520000D02*
X123170000Y-95270000D01*
X123170000Y-102117767D02*
X122437767Y-102850000D01*
X123170000Y-64790000D02*
X121920000Y-66040000D01*
X123170000Y-67290000D02*
X121920000Y-66040000D01*
X114574700Y-64445800D02*
X115824700Y-65695800D01*
D24*
X64084700Y-69179240D02*
X64084700Y-75615800D01*
D25*
X62636900Y-74168000D02*
X64084700Y-75615800D01*
X43444733Y-74168000D02*
X62636900Y-74168000D01*
X123170000Y-97770000D02*
X123170000Y-102117767D01*
X121920000Y-96520000D02*
X123170000Y-97770000D01*
X123170000Y-52050000D02*
X123170000Y-64790000D01*
X121920000Y-50800000D02*
X123170000Y-52050000D01*
X123170000Y-80030000D02*
X123170000Y-67290000D01*
X121920000Y-66040000D02*
X116168900Y-66040000D01*
X122000000Y-35560000D02*
X123250000Y-36810000D01*
X123250000Y-49470000D02*
X121920000Y-50800000D01*
X116168900Y-66040000D02*
X114574700Y-64445800D01*
X123170000Y-95270000D02*
X123170000Y-82530000D01*
X123250000Y-36810000D02*
X123250000Y-49470000D01*
X121920000Y-81280000D02*
X123170000Y-80030000D01*
D24*
X54900000Y-42000000D02*
X54900000Y-50734400D01*
D25*
X123170000Y-82530000D02*
X121920000Y-81280000D01*
D24*
X54900000Y-50734400D02*
X54916800Y-50751200D01*
D25*
%TO.N,IR5*%
X69748900Y-101600000D02*
X43764700Y-75615800D01*
X121920000Y-101600000D02*
X69748900Y-101600000D01*
%TO.N,IR3*%
X69240900Y-96012000D02*
X48844700Y-75615800D01*
X97028000Y-96012000D02*
X69240900Y-96012000D01*
X121920000Y-71120000D02*
X97028000Y-96012000D01*
%TO.N,Echo*%
X46304700Y-56057300D02*
X46304700Y-60375800D01*
X48260000Y-54102000D02*
X46304700Y-56057300D01*
%TO.N,Trig*%
X50292000Y-56388000D02*
X48844700Y-57835300D01*
X48844700Y-57835300D02*
X48844700Y-60375800D01*
X50292000Y-55626000D02*
X50292000Y-56388000D01*
%TO.N,Net-(D1-A)*%
X36472500Y-83820000D02*
X38890000Y-83820000D01*
D24*
%TO.N,Net-(J2-Pin_2)*%
X84556600Y-75720600D02*
X97409000Y-62868200D01*
X97409000Y-62868200D02*
X97409000Y-60252000D01*
%TO.N,Net-(J2-Pin_1)*%
X87006600Y-76735424D02*
X87006600Y-75674764D01*
X79476600Y-75720600D02*
X79784600Y-75720600D01*
X85571424Y-78170600D02*
X87006600Y-76735424D01*
X81926600Y-78170600D02*
X85571424Y-78170600D01*
X87006600Y-75674764D02*
X99949000Y-62732364D01*
X79476600Y-75720600D02*
X81926600Y-78170600D01*
X79784600Y-75720600D02*
X80264000Y-76200000D01*
X99949000Y-62732364D02*
X99949000Y-60252000D01*
%TO.N,Net-(J3-Pin_2)*%
X86611400Y-58502000D02*
X90579000Y-58502000D01*
X90579000Y-58502000D02*
X92329000Y-60252000D01*
X84632800Y-60480600D02*
X86611400Y-58502000D01*
%TO.N,Net-(J3-Pin_1)*%
X91419000Y-56802000D02*
X94869000Y-60252000D01*
X79552800Y-60480600D02*
X83231400Y-56802000D01*
X83231400Y-56802000D02*
X91419000Y-56802000D01*
%TO.N,+5V_bat*%
X98987000Y-71374000D02*
X100737500Y-71374000D01*
X44437000Y-46663000D02*
X49100000Y-42000000D01*
X39497000Y-46663000D02*
X44437000Y-46663000D01*
X81661000Y-82423000D02*
X76603800Y-77365800D01*
X51200000Y-39900000D02*
X49100000Y-42000000D01*
X76603800Y-77365800D02*
X76603800Y-59331800D01*
X57172000Y-39900000D02*
X51200000Y-39900000D01*
X94869000Y-79667000D02*
X92113000Y-82423000D01*
X94869000Y-75492000D02*
X94869000Y-79667000D01*
X76603800Y-59331800D02*
X57172000Y-39900000D01*
X94869000Y-75492000D02*
X98987000Y-71374000D01*
X92113000Y-82423000D02*
X81661000Y-82423000D01*
%TD*%
%TA.AperFunction,Conductor*%
%TO.N,GND*%
G36*
X123895039Y-24149685D02*
G01*
X123940794Y-24202489D01*
X123952000Y-24254000D01*
X123952000Y-36151270D01*
X123932315Y-36218309D01*
X123879511Y-36264064D01*
X123810353Y-36274008D01*
X123746797Y-36244983D01*
X123740319Y-36238951D01*
X123336818Y-35835450D01*
X123303333Y-35774127D01*
X123300499Y-35747769D01*
X123300499Y-34712129D01*
X123300498Y-34712123D01*
X123300497Y-34712116D01*
X123294091Y-34652517D01*
X123243796Y-34517669D01*
X123243795Y-34517668D01*
X123243793Y-34517664D01*
X123157547Y-34402455D01*
X123157544Y-34402452D01*
X123042335Y-34316206D01*
X123042328Y-34316202D01*
X122907482Y-34265908D01*
X122907483Y-34265908D01*
X122847883Y-34259501D01*
X122847881Y-34259500D01*
X122847873Y-34259500D01*
X122847864Y-34259500D01*
X121152129Y-34259500D01*
X121152123Y-34259501D01*
X121092516Y-34265908D01*
X120957671Y-34316202D01*
X120957664Y-34316206D01*
X120842455Y-34402452D01*
X120842452Y-34402455D01*
X120756206Y-34517664D01*
X120756202Y-34517671D01*
X120705908Y-34652517D01*
X120699501Y-34712116D01*
X120699501Y-34712123D01*
X120699500Y-34712135D01*
X120699500Y-36407870D01*
X120699501Y-36407876D01*
X120705908Y-36467483D01*
X120756202Y-36602328D01*
X120756206Y-36602335D01*
X120842452Y-36717544D01*
X120842455Y-36717547D01*
X120957664Y-36803793D01*
X120957671Y-36803797D01*
X121092513Y-36854090D01*
X121092514Y-36854090D01*
X121092517Y-36854091D01*
X121128353Y-36857944D01*
X121192901Y-36884679D01*
X121232751Y-36942070D01*
X121235246Y-37011896D01*
X121199595Y-37071985D01*
X121186223Y-37082805D01*
X121161182Y-37100339D01*
X121000342Y-37261179D01*
X120869865Y-37447517D01*
X120773734Y-37653673D01*
X120773730Y-37653682D01*
X120721127Y-37849999D01*
X120721128Y-37850000D01*
X121684314Y-37850000D01*
X121679920Y-37854394D01*
X121627259Y-37945606D01*
X121600000Y-38047339D01*
X121600000Y-38152661D01*
X121627259Y-38254394D01*
X121679920Y-38345606D01*
X121684314Y-38350000D01*
X120721128Y-38350000D01*
X120773730Y-38546317D01*
X120773734Y-38546326D01*
X120869865Y-38752482D01*
X121000342Y-38938820D01*
X121161179Y-39099657D01*
X121347518Y-39230134D01*
X121347520Y-39230135D01*
X121405865Y-39257342D01*
X121458305Y-39303514D01*
X121477457Y-39370707D01*
X121457242Y-39437589D01*
X121405867Y-39482105D01*
X121347266Y-39509432D01*
X121347264Y-39509433D01*
X121160858Y-39639954D01*
X120999954Y-39800858D01*
X120869432Y-39987265D01*
X120869431Y-39987267D01*
X120773261Y-40193502D01*
X120773258Y-40193511D01*
X120714366Y-40413302D01*
X120714364Y-40413313D01*
X120694532Y-40639998D01*
X120694532Y-40640003D01*
X120709129Y-40806861D01*
X120695362Y-40875360D01*
X120673282Y-40905348D01*
X119767600Y-41811031D01*
X119767594Y-41811039D01*
X119730377Y-41866738D01*
X119730378Y-41866739D01*
X119685463Y-41933958D01*
X119628893Y-42070532D01*
X119628890Y-42070542D01*
X119600050Y-42215529D01*
X119600050Y-54817769D01*
X119580365Y-54884808D01*
X119563731Y-54905450D01*
X103626851Y-70842329D01*
X103565528Y-70875814D01*
X103495836Y-70870830D01*
X103439903Y-70828958D01*
X103433631Y-70819745D01*
X103344943Y-70675960D01*
X103223038Y-70554055D01*
X103223034Y-70554052D01*
X103076311Y-70463551D01*
X103076300Y-70463546D01*
X102912652Y-70409319D01*
X102811654Y-70399000D01*
X102712500Y-70399000D01*
X102712500Y-71500000D01*
X102692815Y-71567039D01*
X102640011Y-71612794D01*
X102588500Y-71624000D01*
X102336500Y-71624000D01*
X102269461Y-71604315D01*
X102223706Y-71551511D01*
X102212500Y-71500000D01*
X102212500Y-70398999D01*
X102113360Y-70399000D01*
X102113344Y-70399001D01*
X102012347Y-70409319D01*
X101848699Y-70463546D01*
X101848694Y-70463548D01*
X101775556Y-70508661D01*
X101708163Y-70527101D01*
X101641500Y-70506178D01*
X101622778Y-70490804D01*
X101595520Y-70463546D01*
X101552146Y-70420172D01*
X101392905Y-70304476D01*
X101346552Y-70280858D01*
X101217529Y-70215117D01*
X101030326Y-70154290D01*
X100835922Y-70123500D01*
X100835917Y-70123500D01*
X99085416Y-70123500D01*
X98888583Y-70123500D01*
X98888578Y-70123500D01*
X98694172Y-70154291D01*
X98633348Y-70174053D01*
X98633348Y-70174054D01*
X98619499Y-70178554D01*
X98506970Y-70215117D01*
X98331591Y-70304478D01*
X98304979Y-70323812D01*
X98304980Y-70323813D01*
X98172352Y-70420173D01*
X98172351Y-70420174D01*
X94259509Y-74333015D01*
X94224242Y-74357712D01*
X94216264Y-74361432D01*
X94029858Y-74491954D01*
X93868954Y-74652858D01*
X93738432Y-74839265D01*
X93738431Y-74839267D01*
X93728738Y-74860054D01*
X93715969Y-74887439D01*
X93711382Y-74897275D01*
X93665209Y-74949714D01*
X93598016Y-74968866D01*
X93531135Y-74948650D01*
X93486618Y-74897275D01*
X93459568Y-74839266D01*
X93354053Y-74688574D01*
X93329045Y-74652858D01*
X93168141Y-74491954D01*
X92981734Y-74361432D01*
X92981732Y-74361431D01*
X92775497Y-74265261D01*
X92775488Y-74265258D01*
X92555697Y-74206366D01*
X92555688Y-74206364D01*
X92501796Y-74201649D01*
X92436728Y-74176195D01*
X92395751Y-74119604D01*
X92391874Y-74049842D01*
X92424923Y-73990442D01*
X93272059Y-73143306D01*
X93308132Y-73120657D01*
X93307244Y-73118813D01*
X93313515Y-73115792D01*
X93313516Y-73115790D01*
X93313522Y-73115789D01*
X93466262Y-73019816D01*
X93593816Y-72892262D01*
X93689789Y-72739522D01*
X93749368Y-72569255D01*
X93753466Y-72532884D01*
X93769565Y-72390003D01*
X93769565Y-72389996D01*
X93749369Y-72210750D01*
X93749368Y-72210745D01*
X93689788Y-72040476D01*
X93650582Y-71978080D01*
X93593816Y-71887738D01*
X93466262Y-71760184D01*
X93443243Y-71745720D01*
X93313523Y-71664211D01*
X93143252Y-71604631D01*
X93131253Y-71603279D01*
X93066840Y-71576211D01*
X93027286Y-71518616D01*
X93025149Y-71448779D01*
X93057456Y-71392380D01*
X100902829Y-63547009D01*
X101018524Y-63387769D01*
X101107884Y-63212390D01*
X101168709Y-63025190D01*
X101182131Y-62940445D01*
X101199500Y-62830785D01*
X101199500Y-61558487D01*
X101219185Y-61491448D01*
X101271989Y-61445693D01*
X101341147Y-61435749D01*
X101397810Y-61459220D01*
X101440861Y-61491448D01*
X101446668Y-61495795D01*
X101446671Y-61495797D01*
X101581517Y-61546091D01*
X101581516Y-61546091D01*
X101588444Y-61546835D01*
X101641127Y-61552500D01*
X103336872Y-61552499D01*
X103396483Y-61546091D01*
X103531331Y-61495796D01*
X103646546Y-61409546D01*
X103732796Y-61294331D01*
X103783091Y-61159483D01*
X103789500Y-61099873D01*
X103789500Y-60375798D01*
X104699090Y-60375798D01*
X104699090Y-60375801D01*
X104719504Y-60661233D01*
X104780328Y-60940837D01*
X104780330Y-60940843D01*
X104780331Y-60940846D01*
X104836389Y-61091142D01*
X104880335Y-61208966D01*
X105017470Y-61460109D01*
X105017475Y-61460117D01*
X105188954Y-61689187D01*
X105188970Y-61689205D01*
X105391294Y-61891529D01*
X105391312Y-61891545D01*
X105620382Y-62063024D01*
X105620390Y-62063029D01*
X105871533Y-62200164D01*
X105871532Y-62200164D01*
X105871536Y-62200165D01*
X105871539Y-62200167D01*
X106139654Y-62300169D01*
X106139660Y-62300170D01*
X106139662Y-62300171D01*
X106419266Y-62360995D01*
X106419268Y-62360995D01*
X106419272Y-62360996D01*
X106672920Y-62379137D01*
X106704699Y-62381410D01*
X106704700Y-62381410D01*
X106704701Y-62381410D01*
X106733295Y-62379364D01*
X106990128Y-62360996D01*
X107021420Y-62354189D01*
X107269737Y-62300171D01*
X107269737Y-62300170D01*
X107269746Y-62300169D01*
X107537861Y-62200167D01*
X107789015Y-62063026D01*
X108018095Y-61891539D01*
X108220439Y-61689195D01*
X108391926Y-61460115D01*
X108529067Y-61208961D01*
X108629069Y-60940846D01*
X108638659Y-60896760D01*
X108689895Y-60661233D01*
X108689895Y-60661232D01*
X108689896Y-60661228D01*
X108710310Y-60375800D01*
X108689896Y-60090372D01*
X108675743Y-60025313D01*
X108629071Y-59810762D01*
X108629070Y-59810760D01*
X108629069Y-59810754D01*
X108529067Y-59542639D01*
X108525976Y-59536979D01*
X108391929Y-59291490D01*
X108391924Y-59291482D01*
X108220445Y-59062412D01*
X108220429Y-59062394D01*
X108018105Y-58860070D01*
X108018087Y-58860054D01*
X107789017Y-58688575D01*
X107789009Y-58688570D01*
X107537866Y-58551435D01*
X107537867Y-58551435D01*
X107375346Y-58490818D01*
X107269746Y-58451431D01*
X107269743Y-58451430D01*
X107269737Y-58451428D01*
X106990133Y-58390604D01*
X106704701Y-58370190D01*
X106704699Y-58370190D01*
X106419266Y-58390604D01*
X106139662Y-58451428D01*
X105871533Y-58551435D01*
X105620390Y-58688570D01*
X105620382Y-58688575D01*
X105391312Y-58860054D01*
X105391294Y-58860070D01*
X105188970Y-59062394D01*
X105188954Y-59062412D01*
X105017475Y-59291482D01*
X105017470Y-59291490D01*
X104880335Y-59542633D01*
X104780328Y-59810762D01*
X104719504Y-60090366D01*
X104699090Y-60375798D01*
X103789500Y-60375798D01*
X103789499Y-59404128D01*
X103783091Y-59344517D01*
X103778970Y-59333469D01*
X103732797Y-59209671D01*
X103732793Y-59209664D01*
X103646547Y-59094455D01*
X103646544Y-59094452D01*
X103531335Y-59008206D01*
X103531328Y-59008202D01*
X103396482Y-58957908D01*
X103396483Y-58957908D01*
X103336883Y-58951501D01*
X103336881Y-58951500D01*
X103336873Y-58951500D01*
X103336864Y-58951500D01*
X101641129Y-58951500D01*
X101641123Y-58951501D01*
X101581516Y-58957908D01*
X101446671Y-59008202D01*
X101446664Y-59008206D01*
X101331455Y-59094452D01*
X101331452Y-59094455D01*
X101245206Y-59209664D01*
X101245202Y-59209671D01*
X101194908Y-59344516D01*
X101191137Y-59379596D01*
X101164398Y-59444146D01*
X101107006Y-59483994D01*
X101037180Y-59486487D01*
X100977092Y-59450834D01*
X100966273Y-59437462D01*
X100949045Y-59412858D01*
X100788141Y-59251954D01*
X100601734Y-59121432D01*
X100601732Y-59121431D01*
X100395497Y-59025261D01*
X100395488Y-59025258D01*
X100175697Y-58966366D01*
X100175693Y-58966365D01*
X100175692Y-58966365D01*
X100175691Y-58966364D01*
X100175686Y-58966364D01*
X99949002Y-58946532D01*
X99948998Y-58946532D01*
X99722313Y-58966364D01*
X99722302Y-58966366D01*
X99502511Y-59025258D01*
X99502502Y-59025261D01*
X99296267Y-59121431D01*
X99296265Y-59121432D01*
X99109858Y-59251954D01*
X98948954Y-59412858D01*
X98818432Y-59599265D01*
X98818431Y-59599267D01*
X98799310Y-59640272D01*
X98795969Y-59647439D01*
X98791382Y-59657275D01*
X98745209Y-59709714D01*
X98678016Y-59728866D01*
X98611135Y-59708650D01*
X98566618Y-59657275D01*
X98539568Y-59599266D01*
X98426273Y-59437462D01*
X98409045Y-59412858D01*
X98248141Y-59251954D01*
X98061734Y-59121432D01*
X98061732Y-59121431D01*
X97855497Y-59025261D01*
X97855488Y-59025258D01*
X97635697Y-58966366D01*
X97635693Y-58966365D01*
X97635692Y-58966365D01*
X97635691Y-58966364D01*
X97635686Y-58966364D01*
X97409002Y-58946532D01*
X97408998Y-58946532D01*
X97182313Y-58966364D01*
X97182302Y-58966366D01*
X96962511Y-59025258D01*
X96962502Y-59025261D01*
X96756267Y-59121431D01*
X96756265Y-59121432D01*
X96569858Y-59251954D01*
X96408954Y-59412858D01*
X96278432Y-59599265D01*
X96278431Y-59599267D01*
X96259310Y-59640272D01*
X96255969Y-59647439D01*
X96251382Y-59657275D01*
X96205209Y-59709714D01*
X96138016Y-59728866D01*
X96071135Y-59708650D01*
X96026618Y-59657275D01*
X95999568Y-59599266D01*
X95886273Y-59437462D01*
X95869045Y-59412858D01*
X95708141Y-59251954D01*
X95521734Y-59121432D01*
X95513760Y-59117713D01*
X95478490Y-59093015D01*
X92233648Y-55848174D01*
X92233646Y-55848172D01*
X92074405Y-55732476D01*
X92014210Y-55701805D01*
X91899030Y-55643117D01*
X91711826Y-55582290D01*
X91517422Y-55551500D01*
X91517417Y-55551500D01*
X83329817Y-55551500D01*
X83132983Y-55551500D01*
X83132978Y-55551500D01*
X82938573Y-55582290D01*
X82751369Y-55643117D01*
X82575994Y-55732476D01*
X82485141Y-55798485D01*
X82416754Y-55848172D01*
X82416752Y-55848174D01*
X82416751Y-55848174D01*
X79821143Y-58443781D01*
X79759820Y-58477266D01*
X79733462Y-58480100D01*
X78004929Y-58480100D01*
X78004923Y-58480101D01*
X77945316Y-58486508D01*
X77810471Y-58536802D01*
X77810469Y-58536803D01*
X77756642Y-58577099D01*
X77691178Y-58601516D01*
X77622905Y-58586665D01*
X77582013Y-58550717D01*
X77557630Y-58517157D01*
X77557625Y-58517151D01*
X69040472Y-49999998D01*
X112994390Y-49999998D01*
X112994390Y-50000001D01*
X113014804Y-50285433D01*
X113075628Y-50565037D01*
X113175635Y-50833166D01*
X113312770Y-51084309D01*
X113312775Y-51084317D01*
X113484254Y-51313387D01*
X113484270Y-51313405D01*
X113686594Y-51515729D01*
X113686612Y-51515745D01*
X113915682Y-51687224D01*
X113915690Y-51687229D01*
X114166833Y-51824364D01*
X114166832Y-51824364D01*
X114166836Y-51824365D01*
X114166839Y-51824367D01*
X114434954Y-51924369D01*
X114434960Y-51924370D01*
X114434962Y-51924371D01*
X114714566Y-51985195D01*
X114714568Y-51985195D01*
X114714572Y-51985196D01*
X114968220Y-52003337D01*
X114999999Y-52005610D01*
X115000000Y-52005610D01*
X115000001Y-52005610D01*
X115028595Y-52003564D01*
X115285428Y-51985196D01*
X115379721Y-51964684D01*
X115565037Y-51924371D01*
X115565037Y-51924370D01*
X115565046Y-51924369D01*
X115833161Y-51824367D01*
X116084315Y-51687226D01*
X116313395Y-51515739D01*
X116515739Y-51313395D01*
X116687226Y-51084315D01*
X116824367Y-50833161D01*
X116924369Y-50565046D01*
X116985196Y-50285428D01*
X117005610Y-50000000D01*
X116985196Y-49714572D01*
X116982293Y-49701228D01*
X116924371Y-49434962D01*
X116924370Y-49434960D01*
X116924369Y-49434954D01*
X116824367Y-49166839D01*
X116820023Y-49158884D01*
X116687229Y-48915690D01*
X116687224Y-48915682D01*
X116515745Y-48686612D01*
X116515729Y-48686594D01*
X116313405Y-48484270D01*
X116313387Y-48484254D01*
X116084317Y-48312775D01*
X116084309Y-48312770D01*
X115833166Y-48175635D01*
X115833167Y-48175635D01*
X115725915Y-48135632D01*
X115565046Y-48075631D01*
X115565043Y-48075630D01*
X115565037Y-48075628D01*
X115285433Y-48014804D01*
X115000001Y-47994390D01*
X114999999Y-47994390D01*
X114714566Y-48014804D01*
X114434962Y-48075628D01*
X114166833Y-48175635D01*
X113915690Y-48312770D01*
X113915682Y-48312775D01*
X113686612Y-48484254D01*
X113686594Y-48484270D01*
X113484270Y-48686594D01*
X113484254Y-48686612D01*
X113312775Y-48915682D01*
X113312770Y-48915690D01*
X113175635Y-49166833D01*
X113075628Y-49434962D01*
X113014804Y-49714566D01*
X112994390Y-49999998D01*
X69040472Y-49999998D01*
X64598472Y-45557998D01*
X72994390Y-45557998D01*
X72994390Y-45558001D01*
X73014804Y-45843433D01*
X73075628Y-46123037D01*
X73075630Y-46123043D01*
X73075631Y-46123046D01*
X73170562Y-46377566D01*
X73175635Y-46391166D01*
X73312770Y-46642309D01*
X73312775Y-46642317D01*
X73484254Y-46871387D01*
X73484270Y-46871405D01*
X73686594Y-47073729D01*
X73686612Y-47073745D01*
X73915682Y-47245224D01*
X73915690Y-47245229D01*
X74166833Y-47382364D01*
X74166832Y-47382364D01*
X74166836Y-47382365D01*
X74166839Y-47382367D01*
X74434954Y-47482369D01*
X74434960Y-47482370D01*
X74434962Y-47482371D01*
X74714566Y-47543195D01*
X74714568Y-47543195D01*
X74714572Y-47543196D01*
X74968220Y-47561337D01*
X74999999Y-47563610D01*
X75000000Y-47563610D01*
X75000001Y-47563610D01*
X75028595Y-47561564D01*
X75285428Y-47543196D01*
X75565046Y-47482369D01*
X75833161Y-47382367D01*
X76084315Y-47245226D01*
X76313395Y-47073739D01*
X76515739Y-46871395D01*
X76687226Y-46642315D01*
X76824367Y-46391161D01*
X76924369Y-46123046D01*
X76929827Y-46097954D01*
X76985195Y-45843433D01*
X76985195Y-45843432D01*
X76985196Y-45843428D01*
X77005610Y-45558000D01*
X76985196Y-45272572D01*
X76957938Y-45147270D01*
X76924371Y-44992962D01*
X76924370Y-44992960D01*
X76924369Y-44992954D01*
X76824367Y-44724839D01*
X76744025Y-44577705D01*
X76687229Y-44473690D01*
X76687224Y-44473682D01*
X76515745Y-44244612D01*
X76515729Y-44244594D01*
X76313405Y-44042270D01*
X76313387Y-44042254D01*
X76084317Y-43870775D01*
X76084309Y-43870770D01*
X75833166Y-43733635D01*
X75833167Y-43733635D01*
X75623987Y-43655615D01*
X75565046Y-43633631D01*
X75565043Y-43633630D01*
X75565037Y-43633628D01*
X75285433Y-43572804D01*
X75000001Y-43552390D01*
X74999999Y-43552390D01*
X74714566Y-43572804D01*
X74434962Y-43633628D01*
X74166833Y-43733635D01*
X73915690Y-43870770D01*
X73915682Y-43870775D01*
X73686612Y-44042254D01*
X73686594Y-44042270D01*
X73484270Y-44244594D01*
X73484254Y-44244612D01*
X73312775Y-44473682D01*
X73312770Y-44473690D01*
X73175635Y-44724833D01*
X73075628Y-44992962D01*
X73014804Y-45272566D01*
X72994390Y-45557998D01*
X64598472Y-45557998D01*
X57986648Y-38946174D01*
X57986647Y-38946173D01*
X57986646Y-38946172D01*
X57827405Y-38830476D01*
X57652030Y-38741117D01*
X57464826Y-38680290D01*
X57270422Y-38649500D01*
X57270417Y-38649500D01*
X51298416Y-38649500D01*
X51101583Y-38649500D01*
X51101578Y-38649500D01*
X50907172Y-38680291D01*
X50846348Y-38700053D01*
X50846348Y-38700054D01*
X50803103Y-38714105D01*
X50719970Y-38741117D01*
X50586799Y-38808972D01*
X50544595Y-38830476D01*
X50544594Y-38830477D01*
X50536696Y-38836215D01*
X50536691Y-38836217D01*
X50385352Y-38946173D01*
X50385351Y-38946174D01*
X48792776Y-40538748D01*
X48731453Y-40572233D01*
X48684710Y-40573380D01*
X47316467Y-40345340D01*
X47316464Y-40345339D01*
X47305656Y-40344385D01*
X47305643Y-40344385D01*
X47162976Y-40363273D01*
X47162968Y-40363275D01*
X47031396Y-40421594D01*
X46921580Y-40514623D01*
X46842422Y-40634821D01*
X46842421Y-40634821D01*
X46800337Y-40772441D01*
X46800335Y-40772451D01*
X46799500Y-40783280D01*
X46799500Y-42480664D01*
X46779815Y-42547703D01*
X46763181Y-42568345D01*
X43955345Y-45376181D01*
X43894022Y-45409666D01*
X43867664Y-45412500D01*
X41121892Y-45412500D01*
X41054853Y-45392815D01*
X41022626Y-45362812D01*
X41012742Y-45349609D01*
X41012729Y-45349594D01*
X40810405Y-45147270D01*
X40810387Y-45147254D01*
X40581317Y-44975775D01*
X40581309Y-44975770D01*
X40330166Y-44838635D01*
X40330167Y-44838635D01*
X40222915Y-44798632D01*
X40062046Y-44738631D01*
X40062043Y-44738630D01*
X40062037Y-44738628D01*
X39782433Y-44677804D01*
X39497001Y-44657390D01*
X39496999Y-44657390D01*
X39211566Y-44677804D01*
X38931962Y-44738628D01*
X38663833Y-44838635D01*
X38412690Y-44975770D01*
X38412682Y-44975775D01*
X38183612Y-45147254D01*
X38183594Y-45147270D01*
X37981270Y-45349594D01*
X37981254Y-45349612D01*
X37809775Y-45578682D01*
X37809770Y-45578690D01*
X37672635Y-45829833D01*
X37572628Y-46097962D01*
X37511804Y-46377566D01*
X37491390Y-46662998D01*
X37491390Y-46663001D01*
X37511804Y-46948433D01*
X37572628Y-47228037D01*
X37672635Y-47496166D01*
X37809770Y-47747309D01*
X37809775Y-47747317D01*
X37981254Y-47976387D01*
X37981270Y-47976405D01*
X38183594Y-48178729D01*
X38183612Y-48178745D01*
X38412682Y-48350224D01*
X38412690Y-48350229D01*
X38663833Y-48487364D01*
X38663832Y-48487364D01*
X38663836Y-48487365D01*
X38663839Y-48487367D01*
X38931954Y-48587369D01*
X38931960Y-48587370D01*
X38931962Y-48587371D01*
X39211566Y-48648195D01*
X39211568Y-48648195D01*
X39211572Y-48648196D01*
X39465220Y-48666337D01*
X39496999Y-48668610D01*
X39497000Y-48668610D01*
X39497001Y-48668610D01*
X39525595Y-48666564D01*
X39782428Y-48648196D01*
X40062046Y-48587369D01*
X40330161Y-48487367D01*
X40581315Y-48350226D01*
X40810395Y-48178739D01*
X41012739Y-47976395D01*
X41022626Y-47963188D01*
X41078560Y-47921318D01*
X41121892Y-47913500D01*
X44535422Y-47913500D01*
X44729826Y-47882709D01*
X44917026Y-47821884D01*
X45092405Y-47732524D01*
X45251646Y-47616828D01*
X49565185Y-43303287D01*
X49626506Y-43269804D01*
X49632464Y-43268659D01*
X51019050Y-43037563D01*
X51115180Y-43007577D01*
X51235378Y-42928419D01*
X51328406Y-42818603D01*
X51386726Y-42687027D01*
X51393016Y-42641470D01*
X51400499Y-42587287D01*
X51400500Y-42587274D01*
X51400500Y-41519335D01*
X51420185Y-41452296D01*
X51436819Y-41431654D01*
X51681655Y-41186819D01*
X51742978Y-41153334D01*
X51769336Y-41150500D01*
X52495299Y-41150500D01*
X52562338Y-41170185D01*
X52608093Y-41222989D01*
X52618037Y-41292147D01*
X52614566Y-41308434D01*
X52613273Y-41312978D01*
X52599500Y-41412712D01*
X52599499Y-41412725D01*
X52599499Y-42587281D01*
X52613273Y-42687024D01*
X52671595Y-42818605D01*
X52764619Y-42928415D01*
X52764627Y-42928422D01*
X52884813Y-43007573D01*
X52884820Y-43007577D01*
X52980949Y-43037562D01*
X53545887Y-43131718D01*
X53608777Y-43162155D01*
X53645228Y-43221763D01*
X53649500Y-43254030D01*
X53649500Y-48876700D01*
X53629815Y-48943739D01*
X53577011Y-48989494D01*
X53525500Y-49000700D01*
X53116798Y-49000700D01*
X53116780Y-49000701D01*
X53014003Y-49011200D01*
X53014000Y-49011201D01*
X52847468Y-49066385D01*
X52847463Y-49066387D01*
X52698142Y-49158489D01*
X52574089Y-49282542D01*
X52481987Y-49431863D01*
X52481985Y-49431868D01*
X52460513Y-49496666D01*
X52426801Y-49598403D01*
X52426801Y-49598404D01*
X52426800Y-49598404D01*
X52416300Y-49701183D01*
X52416300Y-51801201D01*
X52416301Y-51801218D01*
X52426800Y-51903996D01*
X52426801Y-51903999D01*
X52479949Y-52064387D01*
X52481986Y-52070534D01*
X52574088Y-52219856D01*
X52698144Y-52343912D01*
X52847466Y-52436014D01*
X53014003Y-52491199D01*
X53116791Y-52501700D01*
X56716808Y-52501699D01*
X56819597Y-52491199D01*
X56986134Y-52436014D01*
X57135456Y-52343912D01*
X57259512Y-52219856D01*
X57351614Y-52070534D01*
X57351615Y-52070531D01*
X57355405Y-52064387D01*
X57357199Y-52065493D01*
X57396487Y-52020863D01*
X57462708Y-52001700D01*
X65010764Y-52001700D01*
X65077803Y-52021385D01*
X65098445Y-52038019D01*
X71924045Y-58863619D01*
X71957530Y-58924942D01*
X71952546Y-58994634D01*
X71910674Y-59050567D01*
X71845210Y-59074984D01*
X71836364Y-59075300D01*
X70856829Y-59075300D01*
X70856823Y-59075301D01*
X70797216Y-59081708D01*
X70662371Y-59132002D01*
X70662364Y-59132006D01*
X70547155Y-59218252D01*
X70547152Y-59218255D01*
X70460906Y-59333464D01*
X70460902Y-59333471D01*
X70410608Y-59468316D01*
X70406837Y-59503396D01*
X70380098Y-59567946D01*
X70322706Y-59607794D01*
X70252880Y-59610287D01*
X70192792Y-59574634D01*
X70181973Y-59561262D01*
X70164745Y-59536658D01*
X70003841Y-59375754D01*
X69817434Y-59245232D01*
X69817432Y-59245231D01*
X69611197Y-59149061D01*
X69611188Y-59149058D01*
X69391397Y-59090166D01*
X69391393Y-59090165D01*
X69391392Y-59090165D01*
X69391391Y-59090164D01*
X69391386Y-59090164D01*
X69164702Y-59070332D01*
X69164698Y-59070332D01*
X68938013Y-59090164D01*
X68938002Y-59090166D01*
X68718211Y-59149058D01*
X68718202Y-59149061D01*
X68511967Y-59245231D01*
X68511965Y-59245232D01*
X68325558Y-59375754D01*
X68164654Y-59536658D01*
X68034132Y-59723065D01*
X68034131Y-59723067D01*
X68007082Y-59781075D01*
X67960909Y-59833514D01*
X67893716Y-59852666D01*
X67826835Y-59832450D01*
X67782318Y-59781075D01*
X67755268Y-59723066D01*
X67624747Y-59536661D01*
X67624745Y-59536658D01*
X67463841Y-59375754D01*
X67277434Y-59245232D01*
X67277432Y-59245231D01*
X67071197Y-59149061D01*
X67071188Y-59149058D01*
X66851397Y-59090166D01*
X66851393Y-59090165D01*
X66851392Y-59090165D01*
X66851391Y-59090164D01*
X66851386Y-59090164D01*
X66624702Y-59070332D01*
X66624698Y-59070332D01*
X66398013Y-59090164D01*
X66398002Y-59090166D01*
X66178211Y-59149058D01*
X66178202Y-59149061D01*
X65971967Y-59245231D01*
X65971965Y-59245232D01*
X65785558Y-59375754D01*
X65624654Y-59536658D01*
X65531956Y-59669047D01*
X65494132Y-59723066D01*
X65471228Y-59772185D01*
X65466806Y-59781667D01*
X65420633Y-59834106D01*
X65353439Y-59853257D01*
X65286558Y-59833041D01*
X65242042Y-59781665D01*
X65214835Y-59723320D01*
X65214834Y-59723318D01*
X65084357Y-59536979D01*
X64923520Y-59376142D01*
X64737182Y-59245665D01*
X64531028Y-59149534D01*
X64334700Y-59096927D01*
X64334700Y-59942788D01*
X64277693Y-59909875D01*
X64150526Y-59875800D01*
X64018874Y-59875800D01*
X63891707Y-59909875D01*
X63834700Y-59942788D01*
X63834700Y-59096927D01*
X63638371Y-59149534D01*
X63432217Y-59245665D01*
X63245879Y-59376142D01*
X63085042Y-59536979D01*
X62954567Y-59723315D01*
X62927357Y-59781667D01*
X62881184Y-59834106D01*
X62813990Y-59853257D01*
X62747109Y-59833041D01*
X62702593Y-59781665D01*
X62698172Y-59772185D01*
X62675268Y-59723066D01*
X62544747Y-59536661D01*
X62544745Y-59536658D01*
X62383841Y-59375754D01*
X62197434Y-59245232D01*
X62197432Y-59245231D01*
X61991197Y-59149061D01*
X61991188Y-59149058D01*
X61771397Y-59090166D01*
X61771393Y-59090165D01*
X61771392Y-59090165D01*
X61771391Y-59090164D01*
X61771386Y-59090164D01*
X61544702Y-59070332D01*
X61544698Y-59070332D01*
X61318013Y-59090164D01*
X61318002Y-59090166D01*
X61098211Y-59149058D01*
X61098202Y-59149061D01*
X60891967Y-59245231D01*
X60891965Y-59245232D01*
X60705558Y-59375754D01*
X60544654Y-59536658D01*
X60414132Y-59723065D01*
X60414131Y-59723067D01*
X60387082Y-59781075D01*
X60340909Y-59833514D01*
X60273716Y-59852666D01*
X60206835Y-59832450D01*
X60162318Y-59781075D01*
X60135268Y-59723066D01*
X60004747Y-59536661D01*
X60004745Y-59536658D01*
X59843841Y-59375754D01*
X59657434Y-59245232D01*
X59657432Y-59245231D01*
X59451197Y-59149061D01*
X59451188Y-59149058D01*
X59231397Y-59090166D01*
X59231393Y-59090165D01*
X59231392Y-59090165D01*
X59231391Y-59090164D01*
X59231386Y-59090164D01*
X59004702Y-59070332D01*
X59004698Y-59070332D01*
X58778013Y-59090164D01*
X58778002Y-59090166D01*
X58558211Y-59149058D01*
X58558202Y-59149061D01*
X58351967Y-59245231D01*
X58351965Y-59245232D01*
X58165558Y-59375754D01*
X58004654Y-59536658D01*
X57874132Y-59723065D01*
X57874131Y-59723067D01*
X57847082Y-59781075D01*
X57800909Y-59833514D01*
X57733716Y-59852666D01*
X57666835Y-59832450D01*
X57622318Y-59781075D01*
X57595268Y-59723066D01*
X57464747Y-59536661D01*
X57464745Y-59536658D01*
X57303841Y-59375754D01*
X57117434Y-59245232D01*
X57117432Y-59245231D01*
X56911197Y-59149061D01*
X56911188Y-59149058D01*
X56691397Y-59090166D01*
X56691393Y-59090165D01*
X56691392Y-59090165D01*
X56691391Y-59090164D01*
X56691386Y-59090164D01*
X56464702Y-59070332D01*
X56464698Y-59070332D01*
X56238013Y-59090164D01*
X56238002Y-59090166D01*
X56018211Y-59149058D01*
X56018202Y-59149061D01*
X55811967Y-59245231D01*
X55811965Y-59245232D01*
X55625558Y-59375754D01*
X55464654Y-59536658D01*
X55334132Y-59723065D01*
X55334131Y-59723067D01*
X55307082Y-59781075D01*
X55260909Y-59833514D01*
X55193716Y-59852666D01*
X55126835Y-59832450D01*
X55082318Y-59781075D01*
X55055268Y-59723066D01*
X54924747Y-59536661D01*
X54924745Y-59536658D01*
X54763841Y-59375754D01*
X54577434Y-59245232D01*
X54577432Y-59245231D01*
X54371197Y-59149061D01*
X54371188Y-59149058D01*
X54151397Y-59090166D01*
X54151393Y-59090165D01*
X54151392Y-59090165D01*
X54151391Y-59090164D01*
X54151386Y-59090164D01*
X53924702Y-59070332D01*
X53924698Y-59070332D01*
X53698013Y-59090164D01*
X53698002Y-59090166D01*
X53478211Y-59149058D01*
X53478202Y-59149061D01*
X53271967Y-59245231D01*
X53271965Y-59245232D01*
X53085558Y-59375754D01*
X52924654Y-59536658D01*
X52794132Y-59723065D01*
X52794131Y-59723067D01*
X52767082Y-59781075D01*
X52720909Y-59833514D01*
X52653716Y-59852666D01*
X52586835Y-59832450D01*
X52542318Y-59781075D01*
X52515268Y-59723066D01*
X52384747Y-59536661D01*
X52384745Y-59536658D01*
X52223841Y-59375754D01*
X52037434Y-59245232D01*
X52037432Y-59245231D01*
X51831197Y-59149061D01*
X51831188Y-59149058D01*
X51611397Y-59090166D01*
X51611393Y-59090165D01*
X51611392Y-59090165D01*
X51611391Y-59090164D01*
X51611386Y-59090164D01*
X51384702Y-59070332D01*
X51384698Y-59070332D01*
X51158013Y-59090164D01*
X51158002Y-59090166D01*
X50938211Y-59149058D01*
X50938202Y-59149061D01*
X50731967Y-59245231D01*
X50731965Y-59245232D01*
X50545558Y-59375754D01*
X50384654Y-59536658D01*
X50254132Y-59723065D01*
X50254131Y-59723067D01*
X50227082Y-59781075D01*
X50180909Y-59833514D01*
X50113716Y-59852666D01*
X50046835Y-59832450D01*
X50002318Y-59781075D01*
X49975268Y-59723066D01*
X49844747Y-59536661D01*
X49683839Y-59375753D01*
X49679073Y-59372415D01*
X49648075Y-59350710D01*
X49604451Y-59296132D01*
X49595200Y-59249136D01*
X49595200Y-58197529D01*
X49614885Y-58130490D01*
X49631519Y-58109848D01*
X50874948Y-56866419D01*
X50874951Y-56866416D01*
X50957084Y-56743495D01*
X51013658Y-56606913D01*
X51042500Y-56461918D01*
X51042500Y-56314083D01*
X51042500Y-55925972D01*
X51049458Y-55885017D01*
X51062350Y-55848174D01*
X51077368Y-55805255D01*
X51095637Y-55643117D01*
X51097565Y-55626001D01*
X51097565Y-55625996D01*
X51077369Y-55446750D01*
X51077368Y-55446745D01*
X51017788Y-55276476D01*
X50921815Y-55123737D01*
X50794262Y-54996184D01*
X50641523Y-54900211D01*
X50471254Y-54840631D01*
X50471249Y-54840630D01*
X50292004Y-54820435D01*
X50291996Y-54820435D01*
X50112750Y-54840630D01*
X50112745Y-54840631D01*
X49942476Y-54900211D01*
X49789737Y-54996184D01*
X49662184Y-55123737D01*
X49566211Y-55276476D01*
X49506631Y-55446745D01*
X49506630Y-55446750D01*
X49486435Y-55625996D01*
X49486435Y-55626001D01*
X49506630Y-55805249D01*
X49506631Y-55805254D01*
X49534542Y-55885017D01*
X49541500Y-55925972D01*
X49541500Y-56025770D01*
X49521815Y-56092809D01*
X49505181Y-56113451D01*
X48261747Y-57356884D01*
X48261745Y-57356886D01*
X48228872Y-57406088D01*
X48228870Y-57406091D01*
X48179619Y-57479798D01*
X48179612Y-57479811D01*
X48123043Y-57616382D01*
X48123040Y-57616392D01*
X48094200Y-57761379D01*
X48094200Y-59249136D01*
X48074515Y-59316175D01*
X48041325Y-59350710D01*
X48005563Y-59375751D01*
X47844651Y-59536662D01*
X47714132Y-59723065D01*
X47714131Y-59723067D01*
X47687082Y-59781075D01*
X47640909Y-59833514D01*
X47573716Y-59852666D01*
X47506835Y-59832450D01*
X47462318Y-59781075D01*
X47435268Y-59723066D01*
X47304747Y-59536661D01*
X47143839Y-59375753D01*
X47139073Y-59372415D01*
X47108075Y-59350710D01*
X47064451Y-59296132D01*
X47055200Y-59249136D01*
X47055200Y-56419529D01*
X47074885Y-56352490D01*
X47091514Y-56331853D01*
X48568061Y-54855305D01*
X48604134Y-54832655D01*
X48603246Y-54830811D01*
X48609518Y-54827790D01*
X48609522Y-54827789D01*
X48762262Y-54731816D01*
X48889816Y-54604262D01*
X48985789Y-54451522D01*
X49045368Y-54281255D01*
X49065565Y-54102000D01*
X49045368Y-53922745D01*
X48985789Y-53752478D01*
X48889816Y-53599738D01*
X48762262Y-53472184D01*
X48609523Y-53376211D01*
X48439254Y-53316631D01*
X48439249Y-53316630D01*
X48260004Y-53296435D01*
X48259996Y-53296435D01*
X48080750Y-53316630D01*
X48080745Y-53316631D01*
X47910476Y-53376211D01*
X47757737Y-53472184D01*
X47630184Y-53599737D01*
X47534211Y-53752478D01*
X47531188Y-53758756D01*
X47529362Y-53757876D01*
X47506693Y-53793937D01*
X45721747Y-55578884D01*
X45721745Y-55578886D01*
X45699244Y-55612563D01*
X45690267Y-55626000D01*
X45678831Y-55643116D01*
X45639614Y-55701807D01*
X45583043Y-55838382D01*
X45583040Y-55838392D01*
X45554200Y-55983379D01*
X45554200Y-59249136D01*
X45534515Y-59316175D01*
X45501325Y-59350710D01*
X45465563Y-59375751D01*
X45304651Y-59536662D01*
X45174132Y-59723065D01*
X45174131Y-59723067D01*
X45147082Y-59781075D01*
X45100909Y-59833514D01*
X45033716Y-59852666D01*
X44966835Y-59832450D01*
X44922318Y-59781075D01*
X44895268Y-59723066D01*
X44764747Y-59536661D01*
X44764745Y-59536658D01*
X44603841Y-59375754D01*
X44417434Y-59245232D01*
X44417432Y-59245231D01*
X44211197Y-59149061D01*
X44211188Y-59149058D01*
X43991397Y-59090166D01*
X43991393Y-59090165D01*
X43991392Y-59090165D01*
X43991391Y-59090164D01*
X43991386Y-59090164D01*
X43764702Y-59070332D01*
X43764698Y-59070332D01*
X43538013Y-59090164D01*
X43538002Y-59090166D01*
X43318211Y-59149058D01*
X43318202Y-59149061D01*
X43111967Y-59245231D01*
X43111965Y-59245232D01*
X42925558Y-59375754D01*
X42764654Y-59536658D01*
X42634132Y-59723065D01*
X42634131Y-59723067D01*
X42607082Y-59781075D01*
X42560909Y-59833514D01*
X42493716Y-59852666D01*
X42426835Y-59832450D01*
X42382318Y-59781075D01*
X42355268Y-59723066D01*
X42224747Y-59536661D01*
X42224745Y-59536658D01*
X42063841Y-59375754D01*
X41877434Y-59245232D01*
X41877432Y-59245231D01*
X41671197Y-59149061D01*
X41671188Y-59149058D01*
X41451397Y-59090166D01*
X41451393Y-59090165D01*
X41451392Y-59090165D01*
X41451391Y-59090164D01*
X41451386Y-59090164D01*
X41224702Y-59070332D01*
X41224698Y-59070332D01*
X40998013Y-59090164D01*
X40998002Y-59090166D01*
X40778211Y-59149058D01*
X40778202Y-59149061D01*
X40571967Y-59245231D01*
X40571965Y-59245232D01*
X40385558Y-59375754D01*
X40224654Y-59536658D01*
X40094132Y-59723065D01*
X40094131Y-59723067D01*
X40067082Y-59781075D01*
X40020909Y-59833514D01*
X39953716Y-59852666D01*
X39886835Y-59832450D01*
X39842318Y-59781075D01*
X39815268Y-59723066D01*
X39684747Y-59536661D01*
X39684745Y-59536658D01*
X39523841Y-59375754D01*
X39337434Y-59245232D01*
X39337432Y-59245231D01*
X39131197Y-59149061D01*
X39131188Y-59149058D01*
X38911397Y-59090166D01*
X38911393Y-59090165D01*
X38911392Y-59090165D01*
X38911391Y-59090164D01*
X38911386Y-59090164D01*
X38684702Y-59070332D01*
X38684698Y-59070332D01*
X38458013Y-59090164D01*
X38458002Y-59090166D01*
X38238211Y-59149058D01*
X38238202Y-59149061D01*
X38031967Y-59245231D01*
X38031965Y-59245232D01*
X37845558Y-59375754D01*
X37684654Y-59536658D01*
X37554132Y-59723065D01*
X37554131Y-59723067D01*
X37527082Y-59781075D01*
X37480909Y-59833514D01*
X37413716Y-59852666D01*
X37346835Y-59832450D01*
X37302318Y-59781075D01*
X37275268Y-59723066D01*
X37144747Y-59536661D01*
X37144745Y-59536658D01*
X36983841Y-59375754D01*
X36797434Y-59245232D01*
X36797432Y-59245231D01*
X36591197Y-59149061D01*
X36591188Y-59149058D01*
X36371397Y-59090166D01*
X36371393Y-59090165D01*
X36371392Y-59090165D01*
X36371391Y-59090164D01*
X36371386Y-59090164D01*
X36144702Y-59070332D01*
X36144698Y-59070332D01*
X35918013Y-59090164D01*
X35918002Y-59090166D01*
X35698211Y-59149058D01*
X35698202Y-59149061D01*
X35491967Y-59245231D01*
X35491965Y-59245232D01*
X35305558Y-59375754D01*
X35144654Y-59536658D01*
X35014132Y-59723065D01*
X35014131Y-59723067D01*
X34917961Y-59929302D01*
X34917958Y-59929311D01*
X34859066Y-60149102D01*
X34859064Y-60149113D01*
X34839232Y-60375798D01*
X34839232Y-60375801D01*
X34859064Y-60602486D01*
X34859066Y-60602497D01*
X34917958Y-60822288D01*
X34917961Y-60822297D01*
X35014131Y-61028532D01*
X35014132Y-61028534D01*
X35144654Y-61214941D01*
X35305558Y-61375845D01*
X35305561Y-61375847D01*
X35491966Y-61506368D01*
X35698204Y-61602539D01*
X35918008Y-61661435D01*
X36079930Y-61675601D01*
X36144698Y-61681268D01*
X36144700Y-61681268D01*
X36144701Y-61681268D01*
X36164762Y-61679512D01*
X36311561Y-61666669D01*
X36380059Y-61680435D01*
X36410048Y-61702516D01*
X36647881Y-61940348D01*
X36681366Y-62001671D01*
X36684200Y-62028029D01*
X36684200Y-74252381D01*
X36664515Y-74319420D01*
X36611711Y-74365175D01*
X36542553Y-74375119D01*
X36528107Y-74372156D01*
X36371397Y-74330166D01*
X36371393Y-74330165D01*
X36371392Y-74330165D01*
X36371391Y-74330164D01*
X36371386Y-74330164D01*
X36144702Y-74310332D01*
X36144698Y-74310332D01*
X35918013Y-74330164D01*
X35918002Y-74330166D01*
X35698211Y-74389058D01*
X35698202Y-74389061D01*
X35491967Y-74485231D01*
X35491965Y-74485232D01*
X35305558Y-74615754D01*
X35144654Y-74776658D01*
X35014132Y-74963065D01*
X35014131Y-74963067D01*
X34917961Y-75169302D01*
X34917958Y-75169311D01*
X34859066Y-75389102D01*
X34859064Y-75389113D01*
X34839232Y-75615798D01*
X34839232Y-75615801D01*
X34859064Y-75842486D01*
X34859066Y-75842497D01*
X34917958Y-76062288D01*
X34917961Y-76062297D01*
X35014131Y-76268532D01*
X35014132Y-76268534D01*
X35144654Y-76454941D01*
X35305558Y-76615845D01*
X35305561Y-76615847D01*
X35491966Y-76746368D01*
X35698204Y-76842539D01*
X35918008Y-76901435D01*
X36079930Y-76915601D01*
X36144698Y-76921268D01*
X36144700Y-76921268D01*
X36144701Y-76921268D01*
X36175388Y-76918583D01*
X36345647Y-76903687D01*
X36414146Y-76917453D01*
X36464329Y-76966069D01*
X36480263Y-77034097D01*
X36456888Y-77099941D01*
X36444135Y-77114896D01*
X34064548Y-79494483D01*
X34045408Y-79523128D01*
X34026396Y-79551584D01*
X33982414Y-79617407D01*
X33925843Y-79753982D01*
X33925840Y-79753992D01*
X33897000Y-79898979D01*
X33897000Y-82987948D01*
X33877315Y-83054987D01*
X33860681Y-83075629D01*
X33814661Y-83121648D01*
X33724093Y-83268481D01*
X33724092Y-83268484D01*
X33669826Y-83432247D01*
X33669826Y-83432248D01*
X33669825Y-83432248D01*
X33659500Y-83533315D01*
X33659500Y-84106669D01*
X33659501Y-84106687D01*
X33669825Y-84207752D01*
X33724092Y-84371515D01*
X33724093Y-84371518D01*
X33758395Y-84427129D01*
X33814660Y-84518350D01*
X33936650Y-84640340D01*
X34083484Y-84730908D01*
X34247247Y-84785174D01*
X34348323Y-84795500D01*
X34946676Y-84795499D01*
X34946684Y-84795498D01*
X34946687Y-84795498D01*
X35002030Y-84789844D01*
X35047753Y-84785174D01*
X35211516Y-84730908D01*
X35358350Y-84640340D01*
X35472319Y-84526371D01*
X35533642Y-84492886D01*
X35603334Y-84497870D01*
X35647681Y-84526371D01*
X35761650Y-84640340D01*
X35908484Y-84730908D01*
X36072247Y-84785174D01*
X36173323Y-84795500D01*
X36771676Y-84795499D01*
X36771684Y-84795498D01*
X36771687Y-84795498D01*
X36827030Y-84789844D01*
X36872753Y-84785174D01*
X37036516Y-84730908D01*
X37183350Y-84640340D01*
X37216871Y-84606819D01*
X37278194Y-84573334D01*
X37304552Y-84570500D01*
X38020448Y-84570500D01*
X38087487Y-84590185D01*
X38108129Y-84606819D01*
X38141650Y-84640340D01*
X38288484Y-84730908D01*
X38452247Y-84785174D01*
X38553323Y-84795500D01*
X39226676Y-84795499D01*
X39226684Y-84795498D01*
X39226687Y-84795498D01*
X39282030Y-84789844D01*
X39327753Y-84785174D01*
X39491516Y-84730908D01*
X39638350Y-84640340D01*
X39677673Y-84601016D01*
X39738994Y-84567532D01*
X39808685Y-84572516D01*
X39853034Y-84601017D01*
X39891961Y-84639944D01*
X39891965Y-84639947D01*
X40038688Y-84730448D01*
X40038699Y-84730453D01*
X40202347Y-84784680D01*
X40303351Y-84794999D01*
X40390000Y-84794998D01*
X40390000Y-82845000D01*
X40389999Y-82844999D01*
X40303360Y-82845000D01*
X40303343Y-82845001D01*
X40202347Y-82855319D01*
X40038699Y-82909546D01*
X40038688Y-82909551D01*
X39891965Y-83000052D01*
X39891961Y-83000055D01*
X39853033Y-83038983D01*
X39791710Y-83072468D01*
X39722018Y-83067482D01*
X39677672Y-83038982D01*
X39638351Y-82999661D01*
X39638350Y-82999660D01*
X39547129Y-82943395D01*
X39491518Y-82909093D01*
X39491513Y-82909091D01*
X39490069Y-82908612D01*
X39327753Y-82854826D01*
X39327751Y-82854825D01*
X39226678Y-82844500D01*
X38553330Y-82844500D01*
X38553312Y-82844501D01*
X38452247Y-82854825D01*
X38288484Y-82909092D01*
X38288481Y-82909093D01*
X38141648Y-82999661D01*
X38108129Y-83033181D01*
X38046806Y-83066666D01*
X38020448Y-83069500D01*
X37304552Y-83069500D01*
X37237513Y-83049815D01*
X37216871Y-83033181D01*
X37183351Y-82999661D01*
X37183350Y-82999660D01*
X37092129Y-82943395D01*
X37036518Y-82909093D01*
X37036513Y-82909091D01*
X37035069Y-82908612D01*
X36872753Y-82854826D01*
X36872751Y-82854825D01*
X36771678Y-82844500D01*
X36173330Y-82844500D01*
X36173312Y-82844501D01*
X36072247Y-82854825D01*
X35908484Y-82909092D01*
X35908481Y-82909093D01*
X35761648Y-82999661D01*
X35647681Y-83113629D01*
X35586358Y-83147114D01*
X35516666Y-83142130D01*
X35472319Y-83113629D01*
X35434319Y-83075629D01*
X35400834Y-83014306D01*
X35398000Y-82987948D01*
X35398000Y-80335130D01*
X35417685Y-80268091D01*
X35434319Y-80247449D01*
X38017648Y-77664120D01*
X38017652Y-77664116D01*
X38075094Y-77578146D01*
X38099784Y-77541195D01*
X38156358Y-77404613D01*
X38178072Y-77295451D01*
X38185200Y-77259620D01*
X38185200Y-76989936D01*
X38204885Y-76922897D01*
X38257689Y-76877142D01*
X38326847Y-76867198D01*
X38341282Y-76870158D01*
X38458008Y-76901435D01*
X38619930Y-76915601D01*
X38684698Y-76921268D01*
X38684700Y-76921268D01*
X38684702Y-76921268D01*
X38741373Y-76916309D01*
X38911392Y-76901435D01*
X39131196Y-76842539D01*
X39337434Y-76746368D01*
X39363188Y-76728335D01*
X39429393Y-76706007D01*
X39497161Y-76723016D01*
X39521993Y-76742228D01*
X40828181Y-78048415D01*
X40861666Y-78109738D01*
X40864500Y-78136096D01*
X40864500Y-88795269D01*
X40844815Y-88862308D01*
X40828181Y-88882950D01*
X37593947Y-92117183D01*
X37532624Y-92150668D01*
X37485857Y-92151811D01*
X37279035Y-92117300D01*
X37030365Y-92117300D01*
X36785083Y-92158229D01*
X36549897Y-92238969D01*
X36549888Y-92238972D01*
X36331193Y-92357324D01*
X36134957Y-92510061D01*
X35966533Y-92693017D01*
X35830526Y-92901193D01*
X35730636Y-93128918D01*
X35669592Y-93369975D01*
X35669590Y-93369987D01*
X35649057Y-93617794D01*
X35649057Y-93617805D01*
X35669590Y-93865612D01*
X35669592Y-93865624D01*
X35730636Y-94106681D01*
X35830526Y-94334406D01*
X35966533Y-94542582D01*
X35966536Y-94542585D01*
X36134956Y-94725538D01*
X36257464Y-94820890D01*
X36330652Y-94877855D01*
X36331191Y-94878274D01*
X36339213Y-94882615D01*
X36388806Y-94931832D01*
X36404200Y-94991672D01*
X36404200Y-98743928D01*
X36384515Y-98810967D01*
X36339222Y-98852979D01*
X36331191Y-98857326D01*
X36269161Y-98905606D01*
X36134957Y-99010061D01*
X35966533Y-99193017D01*
X35830526Y-99401193D01*
X35730636Y-99628918D01*
X35669592Y-99869975D01*
X35669590Y-99869987D01*
X35649057Y-100117794D01*
X35649057Y-100117805D01*
X35669590Y-100365612D01*
X35669592Y-100365624D01*
X35730636Y-100606681D01*
X35830526Y-100834406D01*
X35966533Y-101042582D01*
X35966536Y-101042585D01*
X36134956Y-101225538D01*
X36331191Y-101378274D01*
X36331193Y-101378275D01*
X36549032Y-101496164D01*
X36549890Y-101496628D01*
X36768841Y-101571794D01*
X36783664Y-101576883D01*
X36785086Y-101577371D01*
X37030365Y-101618300D01*
X37279035Y-101618300D01*
X37524314Y-101577371D01*
X37759510Y-101496628D01*
X37978209Y-101378274D01*
X38174444Y-101225538D01*
X38342864Y-101042585D01*
X38478873Y-100834407D01*
X38578763Y-100606681D01*
X38639808Y-100365621D01*
X38654343Y-100190209D01*
X38660343Y-100117805D01*
X38660343Y-100117794D01*
X38639809Y-99869987D01*
X38639807Y-99869975D01*
X38578763Y-99628918D01*
X38478873Y-99401193D01*
X38342866Y-99193017D01*
X38268893Y-99112661D01*
X38174444Y-99010062D01*
X37978209Y-98857326D01*
X37970177Y-98852979D01*
X37920591Y-98803761D01*
X37905200Y-98743928D01*
X37905200Y-94991672D01*
X37924885Y-94924633D01*
X37970187Y-94882615D01*
X37978209Y-94878274D01*
X38174444Y-94725538D01*
X38342864Y-94542585D01*
X38478873Y-94334407D01*
X38578763Y-94106681D01*
X38639808Y-93865621D01*
X38660343Y-93617800D01*
X38639808Y-93369979D01*
X38639805Y-93369967D01*
X38621557Y-93297907D01*
X38624181Y-93228087D01*
X38654079Y-93179787D01*
X42197952Y-89635916D01*
X42247186Y-89562229D01*
X42280084Y-89512995D01*
X42309284Y-89442500D01*
X42336659Y-89376412D01*
X42365500Y-89231417D01*
X42365500Y-89083582D01*
X42365500Y-77699949D01*
X42354564Y-77644969D01*
X42336659Y-77554955D01*
X42293392Y-77450500D01*
X42280084Y-77418372D01*
X42280083Y-77418371D01*
X42280080Y-77418365D01*
X42197952Y-77295452D01*
X42162118Y-77259618D01*
X42093416Y-77190916D01*
X41846776Y-76944276D01*
X41813291Y-76882953D01*
X41818275Y-76813261D01*
X41860147Y-76757328D01*
X41873061Y-76749627D01*
X41872743Y-76749076D01*
X41877425Y-76746372D01*
X41877424Y-76746372D01*
X41877434Y-76746368D01*
X41903191Y-76728332D01*
X41969390Y-76706006D01*
X42037158Y-76723014D01*
X42061992Y-76742227D01*
X68752719Y-103432954D01*
X68782191Y-103452645D01*
X68826403Y-103482186D01*
X68875638Y-103515084D01*
X68875639Y-103515084D01*
X68875640Y-103515085D01*
X68875642Y-103515086D01*
X69012215Y-103571656D01*
X69012220Y-103571658D01*
X69012224Y-103571658D01*
X69012225Y-103571659D01*
X69157212Y-103600500D01*
X69157215Y-103600500D01*
X122511687Y-103600500D01*
X122609229Y-103581096D01*
X122656680Y-103571658D01*
X122793262Y-103515084D01*
X122842496Y-103482186D01*
X122842501Y-103482183D01*
X122866838Y-103465921D01*
X122916183Y-103432952D01*
X123740319Y-102608816D01*
X123801642Y-102575331D01*
X123871334Y-102580315D01*
X123927267Y-102622187D01*
X123951684Y-102687651D01*
X123952000Y-102696497D01*
X123952000Y-111636000D01*
X123932315Y-111703039D01*
X123879511Y-111748794D01*
X123828000Y-111760000D01*
X26286000Y-111760000D01*
X26218961Y-111740315D01*
X26173206Y-111687511D01*
X26162000Y-111636000D01*
X26162000Y-100117794D01*
X31149559Y-100117794D01*
X31149559Y-100117805D01*
X31170085Y-100365529D01*
X31170087Y-100365538D01*
X31231112Y-100606517D01*
X31330966Y-100834164D01*
X31431264Y-100987682D01*
X32130912Y-100288034D01*
X32142182Y-100330092D01*
X32214590Y-100455508D01*
X32316992Y-100557910D01*
X32442408Y-100630318D01*
X32484465Y-100641587D01*
X31784642Y-101341409D01*
X31831468Y-101377855D01*
X31831470Y-101377856D01*
X32050085Y-101496164D01*
X32050096Y-101496169D01*
X32285206Y-101576883D01*
X32530407Y-101617800D01*
X32778993Y-101617800D01*
X33024193Y-101576883D01*
X33259303Y-101496169D01*
X33259314Y-101496164D01*
X33477928Y-101377857D01*
X33477931Y-101377855D01*
X33524756Y-101341409D01*
X32824934Y-100641587D01*
X32866992Y-100630318D01*
X32992408Y-100557910D01*
X33094810Y-100455508D01*
X33167218Y-100330092D01*
X33178487Y-100288034D01*
X33878134Y-100987682D01*
X33978431Y-100834169D01*
X34078287Y-100606517D01*
X34139312Y-100365538D01*
X34139314Y-100365529D01*
X34159841Y-100117805D01*
X34159841Y-100117794D01*
X34139314Y-99870070D01*
X34139312Y-99870061D01*
X34078287Y-99629082D01*
X33978431Y-99401430D01*
X33878134Y-99247916D01*
X33178487Y-99947564D01*
X33167218Y-99905508D01*
X33094810Y-99780092D01*
X32992408Y-99677690D01*
X32866992Y-99605282D01*
X32824935Y-99594012D01*
X33524757Y-98894190D01*
X33524756Y-98894189D01*
X33477929Y-98857743D01*
X33259314Y-98739435D01*
X33259303Y-98739430D01*
X33024193Y-98658716D01*
X32778993Y-98617800D01*
X32530407Y-98617800D01*
X32285206Y-98658716D01*
X32050096Y-98739430D01*
X32050090Y-98739432D01*
X31831461Y-98857749D01*
X31784642Y-98894188D01*
X31784642Y-98894190D01*
X32484465Y-99594012D01*
X32442408Y-99605282D01*
X32316992Y-99677690D01*
X32214590Y-99780092D01*
X32142182Y-99905508D01*
X32130912Y-99947564D01*
X31431264Y-99247916D01*
X31330967Y-99401432D01*
X31231112Y-99629082D01*
X31170087Y-99870061D01*
X31170085Y-99870070D01*
X31149559Y-100117794D01*
X26162000Y-100117794D01*
X26162000Y-93617794D01*
X31149559Y-93617794D01*
X31149559Y-93617805D01*
X31170085Y-93865529D01*
X31170087Y-93865538D01*
X31231112Y-94106517D01*
X31330966Y-94334164D01*
X31431264Y-94487682D01*
X32130912Y-93788034D01*
X32142182Y-93830092D01*
X32214590Y-93955508D01*
X32316992Y-94057910D01*
X32442408Y-94130318D01*
X32484465Y-94141587D01*
X31784642Y-94841409D01*
X31831468Y-94877855D01*
X31831470Y-94877856D01*
X32050085Y-94996164D01*
X32050096Y-94996169D01*
X32285206Y-95076883D01*
X32530407Y-95117800D01*
X32778993Y-95117800D01*
X33024193Y-95076883D01*
X33259303Y-94996169D01*
X33259314Y-94996164D01*
X33477928Y-94877857D01*
X33477931Y-94877855D01*
X33524756Y-94841409D01*
X32824934Y-94141587D01*
X32866992Y-94130318D01*
X32992408Y-94057910D01*
X33094810Y-93955508D01*
X33167218Y-93830092D01*
X33178487Y-93788034D01*
X33878134Y-94487682D01*
X33978431Y-94334169D01*
X34078287Y-94106517D01*
X34139312Y-93865538D01*
X34139314Y-93865529D01*
X34159841Y-93617805D01*
X34159841Y-93617794D01*
X34139314Y-93370070D01*
X34139312Y-93370061D01*
X34078287Y-93129082D01*
X33978431Y-92901430D01*
X33878134Y-92747916D01*
X33178487Y-93447564D01*
X33167218Y-93405508D01*
X33094810Y-93280092D01*
X32992408Y-93177690D01*
X32866992Y-93105282D01*
X32824935Y-93094012D01*
X33524757Y-92394190D01*
X33524756Y-92394189D01*
X33477929Y-92357743D01*
X33259314Y-92239435D01*
X33259303Y-92239430D01*
X33024193Y-92158716D01*
X32778993Y-92117800D01*
X32530407Y-92117800D01*
X32285206Y-92158716D01*
X32050096Y-92239430D01*
X32050090Y-92239432D01*
X31831461Y-92357749D01*
X31784642Y-92394188D01*
X31784642Y-92394190D01*
X32484465Y-93094012D01*
X32442408Y-93105282D01*
X32316992Y-93177690D01*
X32214590Y-93280092D01*
X32142182Y-93405508D01*
X32130912Y-93447564D01*
X31431264Y-92747916D01*
X31330967Y-92901432D01*
X31231112Y-93129082D01*
X31170087Y-93370061D01*
X31170085Y-93370070D01*
X31149559Y-93617794D01*
X26162000Y-93617794D01*
X26162000Y-87999998D01*
X27994390Y-87999998D01*
X27994390Y-88000001D01*
X28014804Y-88285433D01*
X28075628Y-88565037D01*
X28075630Y-88565043D01*
X28075631Y-88565046D01*
X28161500Y-88795269D01*
X28175635Y-88833166D01*
X28312770Y-89084309D01*
X28312775Y-89084317D01*
X28484254Y-89313387D01*
X28484270Y-89313405D01*
X28686594Y-89515729D01*
X28686612Y-89515745D01*
X28915682Y-89687224D01*
X28915690Y-89687229D01*
X29166833Y-89824364D01*
X29166832Y-89824364D01*
X29166836Y-89824365D01*
X29166839Y-89824367D01*
X29434954Y-89924369D01*
X29434960Y-89924370D01*
X29434962Y-89924371D01*
X29714566Y-89985195D01*
X29714568Y-89985195D01*
X29714572Y-89985196D01*
X29968220Y-90003337D01*
X29999999Y-90005610D01*
X30000000Y-90005610D01*
X30000001Y-90005610D01*
X30028595Y-90003564D01*
X30285428Y-89985196D01*
X30565046Y-89924369D01*
X30833161Y-89824367D01*
X31084315Y-89687226D01*
X31313395Y-89515739D01*
X31515739Y-89313395D01*
X31687226Y-89084315D01*
X31824367Y-88833161D01*
X31924369Y-88565046D01*
X31926491Y-88555292D01*
X31985195Y-88285433D01*
X31985195Y-88285432D01*
X31985196Y-88285428D01*
X32005610Y-88000000D01*
X31985196Y-87714572D01*
X31979247Y-87687226D01*
X31924371Y-87434962D01*
X31924370Y-87434960D01*
X31924369Y-87434954D01*
X31824367Y-87166839D01*
X31779306Y-87084317D01*
X31687229Y-86915690D01*
X31687224Y-86915682D01*
X31515745Y-86686612D01*
X31515729Y-86686594D01*
X31313405Y-86484270D01*
X31313387Y-86484254D01*
X31084317Y-86312775D01*
X31084309Y-86312770D01*
X30833166Y-86175635D01*
X30833167Y-86175635D01*
X30719684Y-86133308D01*
X30565046Y-86075631D01*
X30565043Y-86075630D01*
X30565037Y-86075628D01*
X30285433Y-86014804D01*
X30000001Y-85994390D01*
X29999999Y-85994390D01*
X29714566Y-86014804D01*
X29434962Y-86075628D01*
X29166833Y-86175635D01*
X28915690Y-86312770D01*
X28915682Y-86312775D01*
X28686612Y-86484254D01*
X28686594Y-86484270D01*
X28484270Y-86686594D01*
X28484254Y-86686612D01*
X28312775Y-86915682D01*
X28312770Y-86915690D01*
X28175635Y-87166833D01*
X28075628Y-87434962D01*
X28014804Y-87714566D01*
X27994390Y-87999998D01*
X26162000Y-87999998D01*
X26162000Y-50195155D01*
X37497000Y-50195155D01*
X37497000Y-51493000D01*
X38777936Y-51493000D01*
X38766207Y-51521316D01*
X38737000Y-51668147D01*
X38737000Y-51817853D01*
X38766207Y-51964684D01*
X38777936Y-51993000D01*
X37497000Y-51993000D01*
X37497000Y-53290844D01*
X37503401Y-53350372D01*
X37503403Y-53350379D01*
X37553645Y-53485086D01*
X37553649Y-53485093D01*
X37639809Y-53600187D01*
X37639812Y-53600190D01*
X37754906Y-53686350D01*
X37754913Y-53686354D01*
X37889620Y-53736596D01*
X37889627Y-53736598D01*
X37949155Y-53742999D01*
X37949172Y-53743000D01*
X39247000Y-53743000D01*
X39247000Y-52462064D01*
X39275316Y-52473793D01*
X39422147Y-52503000D01*
X39571853Y-52503000D01*
X39718684Y-52473793D01*
X39747000Y-52462064D01*
X39747000Y-53743000D01*
X41044828Y-53743000D01*
X41044844Y-53742999D01*
X41104372Y-53736598D01*
X41104379Y-53736596D01*
X41239086Y-53686354D01*
X41239093Y-53686350D01*
X41354187Y-53600190D01*
X41354190Y-53600187D01*
X41440350Y-53485093D01*
X41440354Y-53485086D01*
X41490596Y-53350379D01*
X41490598Y-53350372D01*
X41496999Y-53290844D01*
X41497000Y-53290827D01*
X41497000Y-51993000D01*
X40216064Y-51993000D01*
X40227793Y-51964684D01*
X40257000Y-51817853D01*
X40257000Y-51801186D01*
X46316801Y-51801186D01*
X46327294Y-51903897D01*
X46382441Y-52070319D01*
X46382443Y-52070324D01*
X46474484Y-52219545D01*
X46598454Y-52343515D01*
X46747675Y-52435556D01*
X46747680Y-52435558D01*
X46914102Y-52490705D01*
X46914109Y-52490706D01*
X47016819Y-52501199D01*
X48566799Y-52501199D01*
X49066800Y-52501199D01*
X50616772Y-52501199D01*
X50616786Y-52501198D01*
X50719497Y-52490705D01*
X50885919Y-52435558D01*
X50885924Y-52435556D01*
X51035145Y-52343515D01*
X51159115Y-52219545D01*
X51251156Y-52070324D01*
X51251158Y-52070319D01*
X51306305Y-51903897D01*
X51306306Y-51903890D01*
X51316799Y-51801186D01*
X51316800Y-51801173D01*
X51316800Y-51001200D01*
X49066800Y-51001200D01*
X49066800Y-52501199D01*
X48566799Y-52501199D01*
X48566800Y-52501198D01*
X48566800Y-51001200D01*
X46316801Y-51001200D01*
X46316801Y-51801186D01*
X40257000Y-51801186D01*
X40257000Y-51668147D01*
X40227793Y-51521316D01*
X40216064Y-51493000D01*
X41497000Y-51493000D01*
X41497000Y-50195172D01*
X41496999Y-50195155D01*
X41490598Y-50135627D01*
X41490596Y-50135620D01*
X41440354Y-50000913D01*
X41440350Y-50000906D01*
X41354190Y-49885812D01*
X41354187Y-49885809D01*
X41239093Y-49799649D01*
X41239086Y-49799645D01*
X41104379Y-49749403D01*
X41104372Y-49749401D01*
X41044844Y-49743000D01*
X39747000Y-49743000D01*
X39747000Y-51023935D01*
X39718684Y-51012207D01*
X39571853Y-50983000D01*
X39422147Y-50983000D01*
X39275316Y-51012207D01*
X39247000Y-51023935D01*
X39247000Y-49743000D01*
X37949155Y-49743000D01*
X37889627Y-49749401D01*
X37889620Y-49749403D01*
X37754913Y-49799645D01*
X37754906Y-49799649D01*
X37639812Y-49885809D01*
X37639809Y-49885812D01*
X37553649Y-50000906D01*
X37553645Y-50000913D01*
X37503403Y-50135620D01*
X37503401Y-50135627D01*
X37497000Y-50195155D01*
X26162000Y-50195155D01*
X26162000Y-47999998D01*
X27994390Y-47999998D01*
X27994390Y-48000001D01*
X28014804Y-48285433D01*
X28075628Y-48565037D01*
X28075630Y-48565043D01*
X28075631Y-48565046D01*
X28120973Y-48686612D01*
X28175635Y-48833166D01*
X28312770Y-49084309D01*
X28312775Y-49084317D01*
X28484254Y-49313387D01*
X28484270Y-49313405D01*
X28686594Y-49515729D01*
X28686612Y-49515745D01*
X28915682Y-49687224D01*
X28915690Y-49687229D01*
X29166833Y-49824364D01*
X29166832Y-49824364D01*
X29166836Y-49824365D01*
X29166839Y-49824367D01*
X29434954Y-49924369D01*
X29434960Y-49924370D01*
X29434962Y-49924371D01*
X29714566Y-49985195D01*
X29714568Y-49985195D01*
X29714572Y-49985196D01*
X29968220Y-50003337D01*
X29999999Y-50005610D01*
X30000000Y-50005610D01*
X30000001Y-50005610D01*
X30028595Y-50003564D01*
X30285428Y-49985196D01*
X30454504Y-49948416D01*
X30565037Y-49924371D01*
X30565037Y-49924370D01*
X30565046Y-49924369D01*
X30833161Y-49824367D01*
X31058700Y-49701213D01*
X46316800Y-49701213D01*
X46316800Y-50501200D01*
X48566800Y-50501200D01*
X49066800Y-50501200D01*
X51316799Y-50501200D01*
X51316799Y-49701228D01*
X51316798Y-49701213D01*
X51306305Y-49598502D01*
X51251158Y-49432080D01*
X51251156Y-49432075D01*
X51159115Y-49282854D01*
X51035145Y-49158884D01*
X50885924Y-49066843D01*
X50885919Y-49066841D01*
X50719497Y-49011694D01*
X50719490Y-49011693D01*
X50616786Y-49001200D01*
X49066800Y-49001200D01*
X49066800Y-50501200D01*
X48566800Y-50501200D01*
X48566800Y-49001200D01*
X47016828Y-49001200D01*
X47016812Y-49001201D01*
X46914102Y-49011694D01*
X46747680Y-49066841D01*
X46747675Y-49066843D01*
X46598454Y-49158884D01*
X46474484Y-49282854D01*
X46382443Y-49432075D01*
X46382441Y-49432080D01*
X46327294Y-49598502D01*
X46327293Y-49598509D01*
X46316800Y-49701213D01*
X31058700Y-49701213D01*
X31084315Y-49687226D01*
X31313395Y-49515739D01*
X31515739Y-49313395D01*
X31687226Y-49084315D01*
X31824367Y-48833161D01*
X31924369Y-48565046D01*
X31964081Y-48382492D01*
X31985195Y-48285433D01*
X31985195Y-48285432D01*
X31985196Y-48285428D01*
X32005610Y-48000000D01*
X32003922Y-47976405D01*
X31991664Y-47805007D01*
X31985196Y-47714572D01*
X31952356Y-47563610D01*
X31924371Y-47434962D01*
X31924370Y-47434960D01*
X31924369Y-47434954D01*
X31824367Y-47166839D01*
X31773530Y-47073739D01*
X31687229Y-46915690D01*
X31687224Y-46915682D01*
X31515745Y-46686612D01*
X31515729Y-46686594D01*
X31313405Y-46484270D01*
X31313387Y-46484254D01*
X31084317Y-46312775D01*
X31084309Y-46312770D01*
X30833166Y-46175635D01*
X30833167Y-46175635D01*
X30692146Y-46123037D01*
X30565046Y-46075631D01*
X30565043Y-46075630D01*
X30565037Y-46075628D01*
X30285433Y-46014804D01*
X30000001Y-45994390D01*
X29999999Y-45994390D01*
X29714566Y-46014804D01*
X29434962Y-46075628D01*
X29166833Y-46175635D01*
X28915690Y-46312770D01*
X28915682Y-46312775D01*
X28686612Y-46484254D01*
X28686594Y-46484270D01*
X28484270Y-46686594D01*
X28484254Y-46686612D01*
X28312775Y-46915682D01*
X28312770Y-46915690D01*
X28175635Y-47166833D01*
X28075628Y-47434962D01*
X28014804Y-47714566D01*
X27994390Y-47999998D01*
X26162000Y-47999998D01*
X26162000Y-33999992D01*
X27494493Y-33999992D01*
X27494493Y-34000007D01*
X27514514Y-34547843D01*
X27514516Y-34547877D01*
X27574475Y-35092806D01*
X27574480Y-35092841D01*
X27674054Y-35631916D01*
X27812724Y-36162337D01*
X27812725Y-36162341D01*
X27989732Y-36681190D01*
X27989734Y-36681195D01*
X28204152Y-37185763D01*
X28204157Y-37185774D01*
X28454819Y-37673315D01*
X28454824Y-37673323D01*
X28454827Y-37673329D01*
X28740424Y-38141297D01*
X28740427Y-38141301D01*
X29059408Y-38587156D01*
X29059421Y-38587173D01*
X29266675Y-38836215D01*
X29410107Y-39008566D01*
X29497930Y-39099657D01*
X29790607Y-39403227D01*
X29790611Y-39403231D01*
X29790621Y-39403241D01*
X30198930Y-39769086D01*
X30454857Y-39966707D01*
X30632847Y-40104147D01*
X30632850Y-40104149D01*
X30632854Y-40104152D01*
X30871303Y-40261908D01*
X31090080Y-40406650D01*
X31282466Y-40514622D01*
X31568165Y-40674964D01*
X32064561Y-40907665D01*
X32576619Y-41103510D01*
X33101607Y-41261456D01*
X33101609Y-41261456D01*
X33101618Y-41261459D01*
X33487213Y-41347353D01*
X33636723Y-41380658D01*
X34179114Y-41460481D01*
X34512473Y-41484880D01*
X34725865Y-41500499D01*
X34725880Y-41500499D01*
X34725884Y-41500500D01*
X34725886Y-41500500D01*
X35274114Y-41500500D01*
X35274116Y-41500500D01*
X35274120Y-41500499D01*
X35274134Y-41500499D01*
X35447544Y-41487806D01*
X35820886Y-41460481D01*
X36363277Y-41380658D01*
X36687502Y-41308434D01*
X36898381Y-41261459D01*
X36898386Y-41261457D01*
X36898393Y-41261456D01*
X37423381Y-41103510D01*
X37935439Y-40907665D01*
X38431835Y-40674964D01*
X38909921Y-40406649D01*
X39367146Y-40104152D01*
X39801070Y-39769086D01*
X40209379Y-39403241D01*
X40589893Y-39008566D01*
X40940582Y-38587169D01*
X41259576Y-38141297D01*
X41545173Y-37673329D01*
X41795848Y-37185763D01*
X42010264Y-36681199D01*
X42187278Y-36162330D01*
X42325944Y-35631924D01*
X42372622Y-35379211D01*
X42425519Y-35092841D01*
X42425520Y-35092828D01*
X42425524Y-35092811D01*
X42485484Y-34547867D01*
X42486870Y-34509945D01*
X42505507Y-34000007D01*
X42505507Y-33999992D01*
X42485485Y-33452156D01*
X42485483Y-33452122D01*
X42425524Y-32907193D01*
X42425524Y-32907189D01*
X42425521Y-32907175D01*
X42425519Y-32907158D01*
X42325945Y-32368083D01*
X42325944Y-32368076D01*
X42187278Y-31837670D01*
X42010264Y-31318801D01*
X41795848Y-30814237D01*
X41795842Y-30814225D01*
X41545180Y-30326684D01*
X41545177Y-30326680D01*
X41545173Y-30326671D01*
X41259576Y-29858703D01*
X40940582Y-29412831D01*
X40589893Y-28991434D01*
X40209379Y-28596759D01*
X39801070Y-28230914D01*
X39645206Y-28110559D01*
X39367152Y-27895852D01*
X38909919Y-27593349D01*
X38431846Y-27325042D01*
X38431844Y-27325041D01*
X38431835Y-27325036D01*
X37935439Y-27092335D01*
X37935436Y-27092334D01*
X37935430Y-27092331D01*
X37423379Y-26896489D01*
X37423370Y-26896486D01*
X36898402Y-26738546D01*
X36898381Y-26738540D01*
X36363293Y-26619345D01*
X36363278Y-26619342D01*
X35820881Y-26539518D01*
X35820863Y-26539517D01*
X35274134Y-26499500D01*
X35274116Y-26499500D01*
X34725884Y-26499500D01*
X34725865Y-26499500D01*
X34179136Y-26539517D01*
X34179118Y-26539518D01*
X33636721Y-26619342D01*
X33636706Y-26619345D01*
X33101618Y-26738540D01*
X33101597Y-26738546D01*
X32576629Y-26896486D01*
X32576620Y-26896489D01*
X32064569Y-27092331D01*
X31866002Y-27185415D01*
X31568165Y-27325036D01*
X31568160Y-27325038D01*
X31568153Y-27325042D01*
X31090080Y-27593349D01*
X30632847Y-27895852D01*
X30198945Y-28230902D01*
X30198938Y-28230907D01*
X30198930Y-28230914D01*
X30198920Y-28230923D01*
X29790621Y-28596759D01*
X29790607Y-28596772D01*
X29410109Y-28991432D01*
X29410100Y-28991441D01*
X29059421Y-29412826D01*
X29059408Y-29412843D01*
X28740427Y-29858698D01*
X28454819Y-30326684D01*
X28204157Y-30814225D01*
X28204152Y-30814236D01*
X27989734Y-31318804D01*
X27989732Y-31318809D01*
X27812725Y-31837658D01*
X27812724Y-31837662D01*
X27674054Y-32368083D01*
X27574480Y-32907158D01*
X27574475Y-32907193D01*
X27514516Y-33452122D01*
X27514514Y-33452156D01*
X27494493Y-33999992D01*
X26162000Y-33999992D01*
X26162000Y-24254000D01*
X26181685Y-24186961D01*
X26234489Y-24141206D01*
X26286000Y-24130000D01*
X123828000Y-24130000D01*
X123895039Y-24149685D01*
G37*
%TD.AperFunction*%
%TA.AperFunction,Conductor*%
G36*
X46540060Y-76920436D02*
G01*
X46570048Y-76942516D01*
X67641949Y-98014416D01*
X67708401Y-98080868D01*
X67746485Y-98118952D01*
X67869398Y-98201080D01*
X67869411Y-98201087D01*
X68005982Y-98257656D01*
X68005987Y-98257658D01*
X68005991Y-98257658D01*
X68005992Y-98257659D01*
X68150979Y-98286500D01*
X68150982Y-98286500D01*
X110817920Y-98286500D01*
X110915462Y-98267096D01*
X110962913Y-98257658D01*
X111099495Y-98201084D01*
X111148729Y-98168186D01*
X111222416Y-98118952D01*
X121654652Y-87686714D01*
X121715973Y-87653231D01*
X121753135Y-87650869D01*
X121896366Y-87663400D01*
X121919999Y-87665468D01*
X121920000Y-87665468D01*
X121920002Y-87665468D01*
X121976673Y-87660509D01*
X122146692Y-87645635D01*
X122263408Y-87614361D01*
X122333256Y-87616024D01*
X122391119Y-87655186D01*
X122418623Y-87719415D01*
X122419500Y-87734136D01*
X122419500Y-94907769D01*
X122399815Y-94974808D01*
X122383181Y-94995450D01*
X122195450Y-95183181D01*
X122134127Y-95216666D01*
X122107769Y-95219500D01*
X121072129Y-95219500D01*
X121072123Y-95219501D01*
X121012516Y-95225908D01*
X120877671Y-95276202D01*
X120877664Y-95276206D01*
X120762455Y-95362452D01*
X120762452Y-95362455D01*
X120676206Y-95477664D01*
X120676202Y-95477671D01*
X120625908Y-95612517D01*
X120619501Y-95672116D01*
X120619500Y-95672135D01*
X120619500Y-97367870D01*
X120619501Y-97367876D01*
X120625908Y-97427483D01*
X120676202Y-97562328D01*
X120676206Y-97562335D01*
X120762452Y-97677544D01*
X120762455Y-97677547D01*
X120877664Y-97763793D01*
X120877671Y-97763797D01*
X121012513Y-97814090D01*
X121012514Y-97814090D01*
X121012517Y-97814091D01*
X121048353Y-97817944D01*
X121112901Y-97844679D01*
X121152751Y-97902070D01*
X121155246Y-97971896D01*
X121119595Y-98031985D01*
X121106223Y-98042805D01*
X121081182Y-98060339D01*
X120920342Y-98221179D01*
X120789865Y-98407517D01*
X120693734Y-98613673D01*
X120693730Y-98613682D01*
X120641127Y-98809999D01*
X120641128Y-98810000D01*
X121604314Y-98810000D01*
X121599920Y-98814394D01*
X121547259Y-98905606D01*
X121520000Y-99007339D01*
X121520000Y-99112661D01*
X121547259Y-99214394D01*
X121599920Y-99305606D01*
X121604314Y-99310000D01*
X120641128Y-99310000D01*
X120693730Y-99506317D01*
X120693734Y-99506326D01*
X120789865Y-99712482D01*
X120920342Y-99898820D01*
X121081179Y-100059657D01*
X121267518Y-100190134D01*
X121267520Y-100190135D01*
X121325865Y-100217342D01*
X121378305Y-100263514D01*
X121397457Y-100330707D01*
X121377242Y-100397589D01*
X121325867Y-100442105D01*
X121297126Y-100455508D01*
X121267264Y-100469433D01*
X121080858Y-100599954D01*
X120919954Y-100760858D01*
X120894912Y-100796623D01*
X120840335Y-100840248D01*
X120793337Y-100849500D01*
X70111130Y-100849500D01*
X70044091Y-100829815D01*
X70023449Y-100813181D01*
X46333499Y-77123231D01*
X46300014Y-77061908D01*
X46304998Y-76992216D01*
X46346870Y-76936283D01*
X46410370Y-76912022D01*
X46471561Y-76906669D01*
X46540060Y-76920436D01*
G37*
%TD.AperFunction*%
%TA.AperFunction,Conductor*%
G36*
X122333256Y-72376024D02*
G01*
X122391119Y-72415186D01*
X122418623Y-72479415D01*
X122419500Y-72494136D01*
X122419500Y-79667769D01*
X122399815Y-79734808D01*
X122383181Y-79755450D01*
X122195450Y-79943181D01*
X122134127Y-79976666D01*
X122107769Y-79979500D01*
X121072129Y-79979500D01*
X121072123Y-79979501D01*
X121012516Y-79985908D01*
X120877671Y-80036202D01*
X120877664Y-80036206D01*
X120762455Y-80122452D01*
X120762452Y-80122455D01*
X120676206Y-80237664D01*
X120676202Y-80237671D01*
X120625908Y-80372517D01*
X120619501Y-80432116D01*
X120619500Y-80432135D01*
X120619500Y-82127870D01*
X120619501Y-82127876D01*
X120625908Y-82187483D01*
X120676202Y-82322328D01*
X120676206Y-82322335D01*
X120762452Y-82437544D01*
X120762455Y-82437547D01*
X120877664Y-82523793D01*
X120877671Y-82523797D01*
X121012513Y-82574090D01*
X121012514Y-82574090D01*
X121012517Y-82574091D01*
X121048353Y-82577944D01*
X121112901Y-82604679D01*
X121152751Y-82662070D01*
X121155246Y-82731896D01*
X121119595Y-82791985D01*
X121106223Y-82802805D01*
X121081182Y-82820339D01*
X120920342Y-82981179D01*
X120789865Y-83167517D01*
X120693734Y-83373673D01*
X120693730Y-83373682D01*
X120641127Y-83569999D01*
X120641128Y-83570000D01*
X121604314Y-83570000D01*
X121599920Y-83574394D01*
X121547259Y-83665606D01*
X121520000Y-83767339D01*
X121520000Y-83872661D01*
X121547259Y-83974394D01*
X121599920Y-84065606D01*
X121604314Y-84070000D01*
X120641128Y-84070000D01*
X120693730Y-84266317D01*
X120693734Y-84266326D01*
X120789865Y-84472482D01*
X120920342Y-84658820D01*
X121081179Y-84819657D01*
X121267518Y-84950134D01*
X121267520Y-84950135D01*
X121325865Y-84977342D01*
X121378305Y-85023514D01*
X121397457Y-85090707D01*
X121377242Y-85157589D01*
X121325867Y-85202105D01*
X121267266Y-85229432D01*
X121267264Y-85229433D01*
X121080858Y-85359954D01*
X120919954Y-85520858D01*
X120789432Y-85707265D01*
X120789431Y-85707267D01*
X120693261Y-85913502D01*
X120693258Y-85913511D01*
X120634366Y-86133302D01*
X120634364Y-86133313D01*
X120614532Y-86359998D01*
X120614532Y-86360003D01*
X120629129Y-86526861D01*
X120615362Y-86595360D01*
X120593282Y-86625348D01*
X110469451Y-96749181D01*
X110408128Y-96782666D01*
X110381770Y-96785500D01*
X97615230Y-96785500D01*
X97548191Y-96765815D01*
X97502436Y-96713011D01*
X97492492Y-96643853D01*
X97521517Y-96580297D01*
X97527549Y-96573819D01*
X103464375Y-90636993D01*
X108101369Y-85999998D01*
X112994390Y-85999998D01*
X112994390Y-86000001D01*
X113014804Y-86285433D01*
X113075628Y-86565037D01*
X113075630Y-86565043D01*
X113075631Y-86565046D01*
X113120973Y-86686612D01*
X113175635Y-86833166D01*
X113312770Y-87084309D01*
X113312775Y-87084317D01*
X113484254Y-87313387D01*
X113484270Y-87313405D01*
X113686594Y-87515729D01*
X113686612Y-87515745D01*
X113915682Y-87687224D01*
X113915690Y-87687229D01*
X114166833Y-87824364D01*
X114166832Y-87824364D01*
X114166836Y-87824365D01*
X114166839Y-87824367D01*
X114434954Y-87924369D01*
X114434960Y-87924370D01*
X114434962Y-87924371D01*
X114714566Y-87985195D01*
X114714568Y-87985195D01*
X114714572Y-87985196D01*
X114968220Y-88003337D01*
X114999999Y-88005610D01*
X115000000Y-88005610D01*
X115000001Y-88005610D01*
X115028595Y-88003564D01*
X115285428Y-87985196D01*
X115565046Y-87924369D01*
X115833161Y-87824367D01*
X116084315Y-87687226D01*
X116313395Y-87515739D01*
X116515739Y-87313395D01*
X116687226Y-87084315D01*
X116824367Y-86833161D01*
X116924369Y-86565046D01*
X116985196Y-86285428D01*
X117005610Y-86000000D01*
X116985196Y-85714572D01*
X116983606Y-85707265D01*
X116924371Y-85434962D01*
X116924370Y-85434960D01*
X116924369Y-85434954D01*
X116824367Y-85166839D01*
X116763042Y-85054532D01*
X116687229Y-84915690D01*
X116687224Y-84915682D01*
X116515745Y-84686612D01*
X116515729Y-84686594D01*
X116313405Y-84484270D01*
X116313387Y-84484254D01*
X116084317Y-84312775D01*
X116084309Y-84312770D01*
X115833166Y-84175635D01*
X115833167Y-84175635D01*
X115650109Y-84107358D01*
X115565046Y-84075631D01*
X115565043Y-84075630D01*
X115565037Y-84075628D01*
X115285433Y-84014804D01*
X115000001Y-83994390D01*
X114999999Y-83994390D01*
X114714566Y-84014804D01*
X114434962Y-84075628D01*
X114166833Y-84175635D01*
X113915690Y-84312770D01*
X113915682Y-84312775D01*
X113686612Y-84484254D01*
X113686594Y-84484270D01*
X113484270Y-84686594D01*
X113484254Y-84686612D01*
X113312775Y-84915682D01*
X113312770Y-84915690D01*
X113175635Y-85166833D01*
X113075628Y-85434962D01*
X113014804Y-85714566D01*
X112994390Y-85999998D01*
X108101369Y-85999998D01*
X121654652Y-72446714D01*
X121715973Y-72413231D01*
X121753135Y-72410869D01*
X121896366Y-72423400D01*
X121919999Y-72425468D01*
X121920000Y-72425468D01*
X121920002Y-72425468D01*
X121976673Y-72420509D01*
X122146692Y-72405635D01*
X122263408Y-72374361D01*
X122333256Y-72376024D01*
G37*
%TD.AperFunction*%
%TA.AperFunction,Conductor*%
G36*
X113193534Y-64490846D02*
G01*
X113249467Y-64532718D01*
X113273884Y-64598182D01*
X113274200Y-64607028D01*
X113274200Y-65293670D01*
X113274201Y-65293676D01*
X113280608Y-65353283D01*
X113330902Y-65488128D01*
X113330906Y-65488135D01*
X113417152Y-65603344D01*
X113417155Y-65603347D01*
X113532364Y-65689593D01*
X113532371Y-65689597D01*
X113577318Y-65706361D01*
X113667217Y-65739891D01*
X113702296Y-65743662D01*
X113766844Y-65770399D01*
X113806693Y-65827791D01*
X113809188Y-65897616D01*
X113773536Y-65957705D01*
X113760164Y-65968525D01*
X113735558Y-65985754D01*
X113574654Y-66146658D01*
X113444132Y-66333065D01*
X113444131Y-66333067D01*
X113347961Y-66539302D01*
X113347958Y-66539311D01*
X113289066Y-66759102D01*
X113289064Y-66759113D01*
X113269232Y-66985798D01*
X113269232Y-66985801D01*
X113289064Y-67212486D01*
X113289066Y-67212497D01*
X113347958Y-67432288D01*
X113347961Y-67432297D01*
X113444131Y-67638532D01*
X113444132Y-67638534D01*
X113574654Y-67824941D01*
X113735558Y-67985845D01*
X113735561Y-67985847D01*
X113921966Y-68116368D01*
X113959096Y-68133682D01*
X113979975Y-68143418D01*
X114032414Y-68189591D01*
X114051566Y-68256784D01*
X114031350Y-68323665D01*
X113979975Y-68368182D01*
X113921967Y-68395231D01*
X113921965Y-68395232D01*
X113735558Y-68525754D01*
X113574654Y-68686658D01*
X113444132Y-68873065D01*
X113444131Y-68873067D01*
X113347961Y-69079302D01*
X113347958Y-69079311D01*
X113289066Y-69299102D01*
X113289064Y-69299113D01*
X113269232Y-69525798D01*
X113269232Y-69525801D01*
X113289064Y-69752486D01*
X113289066Y-69752497D01*
X113347958Y-69972288D01*
X113347961Y-69972297D01*
X113444131Y-70178532D01*
X113444132Y-70178534D01*
X113574654Y-70364941D01*
X113735558Y-70525845D01*
X113735561Y-70525847D01*
X113921966Y-70656368D01*
X113980565Y-70683693D01*
X114033005Y-70729865D01*
X114052157Y-70797058D01*
X114031942Y-70863939D01*
X113980567Y-70908457D01*
X113922215Y-70935667D01*
X113735879Y-71066142D01*
X113575042Y-71226979D01*
X113444565Y-71413317D01*
X113348434Y-71619473D01*
X113348430Y-71619482D01*
X113295827Y-71815799D01*
X113295828Y-71815800D01*
X114259014Y-71815800D01*
X114254620Y-71820194D01*
X114201959Y-71911406D01*
X114174700Y-72013139D01*
X114174700Y-72118461D01*
X114201959Y-72220194D01*
X114254620Y-72311406D01*
X114259014Y-72315800D01*
X113295828Y-72315800D01*
X113348430Y-72512117D01*
X113348434Y-72512126D01*
X113444565Y-72718282D01*
X113575042Y-72904620D01*
X113735879Y-73065457D01*
X113922217Y-73195934D01*
X114128373Y-73292065D01*
X114128382Y-73292069D01*
X114324699Y-73344672D01*
X114324700Y-73344671D01*
X114324700Y-72381486D01*
X114329094Y-72385880D01*
X114420306Y-72438541D01*
X114522039Y-72465800D01*
X114627361Y-72465800D01*
X114729094Y-72438541D01*
X114820306Y-72385880D01*
X114824700Y-72381486D01*
X114824700Y-73344672D01*
X115021017Y-73292069D01*
X115021026Y-73292065D01*
X115227182Y-73195934D01*
X115413520Y-73065457D01*
X115574357Y-72904620D01*
X115704834Y-72718282D01*
X115800965Y-72512126D01*
X115800969Y-72512117D01*
X115853572Y-72315800D01*
X114890386Y-72315800D01*
X114894780Y-72311406D01*
X114947441Y-72220194D01*
X114974700Y-72118461D01*
X114974700Y-72013139D01*
X114947441Y-71911406D01*
X114894780Y-71820194D01*
X114890386Y-71815800D01*
X115853572Y-71815800D01*
X115853572Y-71815799D01*
X115800969Y-71619482D01*
X115800965Y-71619473D01*
X115704834Y-71413317D01*
X115574357Y-71226979D01*
X115413520Y-71066142D01*
X115227182Y-70935665D01*
X115168833Y-70908457D01*
X115116394Y-70862284D01*
X115097242Y-70795091D01*
X115117458Y-70728210D01*
X115168829Y-70683695D01*
X115227434Y-70656368D01*
X115413839Y-70525847D01*
X115574747Y-70364939D01*
X115705268Y-70178534D01*
X115801439Y-69972296D01*
X115860335Y-69752492D01*
X115880168Y-69525800D01*
X115860335Y-69299108D01*
X115801439Y-69079304D01*
X115705268Y-68873066D01*
X115574747Y-68686661D01*
X115574745Y-68686658D01*
X115413841Y-68525754D01*
X115227434Y-68395232D01*
X115227428Y-68395229D01*
X115169425Y-68368182D01*
X115116985Y-68322010D01*
X115097833Y-68254817D01*
X115118048Y-68187935D01*
X115169425Y-68143418D01*
X115227434Y-68116368D01*
X115413839Y-67985847D01*
X115574747Y-67824939D01*
X115705268Y-67638534D01*
X115801439Y-67432296D01*
X115860335Y-67212492D01*
X115880168Y-66985800D01*
X115873381Y-66908227D01*
X115887147Y-66839729D01*
X115935762Y-66789546D01*
X116003791Y-66773612D01*
X116021101Y-66775804D01*
X116094979Y-66790500D01*
X116094982Y-66790500D01*
X116242817Y-66790500D01*
X120497649Y-66790500D01*
X120564688Y-66810185D01*
X120610443Y-66862989D01*
X120620939Y-66901248D01*
X120625908Y-66947483D01*
X120676202Y-67082328D01*
X120676206Y-67082335D01*
X120762452Y-67197544D01*
X120762455Y-67197547D01*
X120877664Y-67283793D01*
X120877671Y-67283797D01*
X121012513Y-67334090D01*
X121012514Y-67334090D01*
X121012517Y-67334091D01*
X121048353Y-67337944D01*
X121112901Y-67364679D01*
X121152751Y-67422070D01*
X121155246Y-67491896D01*
X121119595Y-67551985D01*
X121106223Y-67562805D01*
X121081182Y-67580339D01*
X120920342Y-67741179D01*
X120789865Y-67927517D01*
X120693734Y-68133673D01*
X120693730Y-68133682D01*
X120641127Y-68329999D01*
X120641128Y-68330000D01*
X121604314Y-68330000D01*
X121599920Y-68334394D01*
X121547259Y-68425606D01*
X121520000Y-68527339D01*
X121520000Y-68632661D01*
X121547259Y-68734394D01*
X121599920Y-68825606D01*
X121604314Y-68830000D01*
X120641128Y-68830000D01*
X120693730Y-69026317D01*
X120693734Y-69026326D01*
X120789865Y-69232482D01*
X120920342Y-69418820D01*
X121081179Y-69579657D01*
X121267518Y-69710134D01*
X121267520Y-69710135D01*
X121325865Y-69737342D01*
X121378305Y-69783514D01*
X121397457Y-69850707D01*
X121377242Y-69917589D01*
X121325867Y-69962105D01*
X121304014Y-69972296D01*
X121267264Y-69989433D01*
X121080858Y-70119954D01*
X120919954Y-70280858D01*
X120789432Y-70467265D01*
X120789431Y-70467267D01*
X120693261Y-70673502D01*
X120693258Y-70673511D01*
X120634366Y-70893302D01*
X120634364Y-70893313D01*
X120614532Y-71119998D01*
X120614532Y-71120003D01*
X120629129Y-71286861D01*
X120615362Y-71355360D01*
X120593282Y-71385348D01*
X96753451Y-95225181D01*
X96692128Y-95258666D01*
X96665770Y-95261500D01*
X69603129Y-95261500D01*
X69536090Y-95241815D01*
X69515448Y-95225181D01*
X64732265Y-90441998D01*
X72994390Y-90441998D01*
X72994390Y-90442001D01*
X73014804Y-90727433D01*
X73075628Y-91007037D01*
X73175635Y-91275166D01*
X73312770Y-91526309D01*
X73312775Y-91526317D01*
X73484254Y-91755387D01*
X73484270Y-91755405D01*
X73686594Y-91957729D01*
X73686612Y-91957745D01*
X73915682Y-92129224D01*
X73915690Y-92129229D01*
X74166833Y-92266364D01*
X74166832Y-92266364D01*
X74166836Y-92266365D01*
X74166839Y-92266367D01*
X74434954Y-92366369D01*
X74434960Y-92366370D01*
X74434962Y-92366371D01*
X74714566Y-92427195D01*
X74714568Y-92427195D01*
X74714572Y-92427196D01*
X74968220Y-92445337D01*
X74999999Y-92447610D01*
X75000000Y-92447610D01*
X75000001Y-92447610D01*
X75028595Y-92445564D01*
X75285428Y-92427196D01*
X75565046Y-92366369D01*
X75833161Y-92266367D01*
X76084315Y-92129226D01*
X76313395Y-91957739D01*
X76515739Y-91755395D01*
X76687226Y-91526315D01*
X76824367Y-91275161D01*
X76924369Y-91007046D01*
X76985196Y-90727428D01*
X77005610Y-90442000D01*
X76985196Y-90156572D01*
X76952356Y-90005610D01*
X76924371Y-89876962D01*
X76924370Y-89876960D01*
X76924369Y-89876954D01*
X76824367Y-89608839D01*
X76773530Y-89515739D01*
X76687229Y-89357690D01*
X76687224Y-89357682D01*
X76515745Y-89128612D01*
X76515729Y-89128594D01*
X76313405Y-88926270D01*
X76313387Y-88926254D01*
X76084317Y-88754775D01*
X76084309Y-88754770D01*
X75833166Y-88617635D01*
X75833167Y-88617635D01*
X75692146Y-88565037D01*
X75565046Y-88517631D01*
X75565043Y-88517630D01*
X75565037Y-88517628D01*
X75285433Y-88456804D01*
X75000001Y-88436390D01*
X74999999Y-88436390D01*
X74714566Y-88456804D01*
X74434962Y-88517628D01*
X74166833Y-88617635D01*
X73915690Y-88754770D01*
X73915682Y-88754775D01*
X73686612Y-88926254D01*
X73686594Y-88926270D01*
X73484270Y-89128594D01*
X73484254Y-89128612D01*
X73312775Y-89357682D01*
X73312770Y-89357690D01*
X73175635Y-89608833D01*
X73075628Y-89876962D01*
X73014804Y-90156566D01*
X72994390Y-90441998D01*
X64732265Y-90441998D01*
X51413499Y-77123231D01*
X51380014Y-77061908D01*
X51384998Y-76992216D01*
X51426870Y-76936283D01*
X51490370Y-76912022D01*
X51551561Y-76906669D01*
X51620060Y-76920436D01*
X51650048Y-76942516D01*
X56175302Y-81467769D01*
X60529948Y-85822415D01*
X60529949Y-85822416D01*
X60621035Y-85913502D01*
X60634485Y-85926952D01*
X60757398Y-86009080D01*
X60757411Y-86009087D01*
X60893982Y-86065656D01*
X60893987Y-86065658D01*
X60893991Y-86065658D01*
X60893992Y-86065659D01*
X61038979Y-86094500D01*
X61038982Y-86094500D01*
X104721920Y-86094500D01*
X104819462Y-86075096D01*
X104866913Y-86065658D01*
X105003495Y-86009084D01*
X105052729Y-85976186D01*
X105126416Y-85926952D01*
X110828451Y-80224916D01*
X110910584Y-80101995D01*
X110967158Y-79965413D01*
X110996000Y-79820418D01*
X110996000Y-79672583D01*
X110996000Y-66637229D01*
X111015685Y-66570190D01*
X111032314Y-66549553D01*
X113062521Y-64519345D01*
X113123842Y-64485862D01*
X113193534Y-64490846D01*
G37*
%TD.AperFunction*%
%TA.AperFunction,Conductor*%
G36*
X109414334Y-67280097D02*
G01*
X109470267Y-67321969D01*
X109494684Y-67387433D01*
X109495000Y-67396279D01*
X109495000Y-79384270D01*
X109475315Y-79451309D01*
X109458681Y-79471951D01*
X104373451Y-84557181D01*
X104312128Y-84590666D01*
X104285770Y-84593500D01*
X95050108Y-84593500D01*
X94983069Y-84573815D01*
X94937314Y-84521011D01*
X94927370Y-84451853D01*
X94956395Y-84388297D01*
X94962427Y-84381819D01*
X95268618Y-84075628D01*
X95578952Y-83765294D01*
X95582943Y-83759319D01*
X95636551Y-83714513D01*
X95705875Y-83705801D01*
X95768905Y-83735952D01*
X95791586Y-83763109D01*
X95870680Y-83891340D01*
X95870683Y-83891344D01*
X95994654Y-84015315D01*
X96143875Y-84107356D01*
X96143880Y-84107358D01*
X96310302Y-84162505D01*
X96310309Y-84162506D01*
X96413019Y-84172999D01*
X97962999Y-84172999D01*
X98463000Y-84172999D01*
X100012972Y-84172999D01*
X100012986Y-84172998D01*
X100115697Y-84162505D01*
X100282119Y-84107358D01*
X100282124Y-84107356D01*
X100431345Y-84015315D01*
X100555315Y-83891345D01*
X100647356Y-83742124D01*
X100647358Y-83742119D01*
X100702505Y-83575697D01*
X100702506Y-83575690D01*
X100712999Y-83472986D01*
X100713000Y-83472973D01*
X100713000Y-82673000D01*
X98463000Y-82673000D01*
X98463000Y-84172999D01*
X97962999Y-84172999D01*
X97963000Y-84172998D01*
X97963000Y-82297000D01*
X97982685Y-82229961D01*
X98035489Y-82184206D01*
X98087000Y-82173000D01*
X100712999Y-82173000D01*
X100712999Y-81373028D01*
X100712998Y-81373013D01*
X100702505Y-81270302D01*
X100647358Y-81103880D01*
X100647356Y-81103875D01*
X100555315Y-80954654D01*
X100431345Y-80830684D01*
X100282124Y-80738643D01*
X100282119Y-80738641D01*
X100274401Y-80736084D01*
X100216956Y-80696312D01*
X100190133Y-80631796D01*
X100202448Y-80563020D01*
X100249991Y-80511820D01*
X100313405Y-80494378D01*
X101312920Y-80494378D01*
X101410462Y-80474974D01*
X101457913Y-80465536D01*
X101594495Y-80408962D01*
X101717416Y-80326829D01*
X101821951Y-80222294D01*
X101904084Y-80099373D01*
X101960658Y-79962791D01*
X101988978Y-79820420D01*
X101989500Y-79817798D01*
X101989500Y-76866136D01*
X102009185Y-76799097D01*
X102061989Y-76753342D01*
X102131147Y-76743398D01*
X102145582Y-76746358D01*
X102262308Y-76777635D01*
X102424230Y-76791801D01*
X102488998Y-76797468D01*
X102489000Y-76797468D01*
X102489002Y-76797468D01*
X102545673Y-76792509D01*
X102715692Y-76777635D01*
X102935496Y-76718739D01*
X103141734Y-76622568D01*
X103328139Y-76492047D01*
X103444388Y-76375798D01*
X104699090Y-76375798D01*
X104699090Y-76375801D01*
X104719504Y-76661233D01*
X104780328Y-76940837D01*
X104780330Y-76940843D01*
X104780331Y-76940846D01*
X104848357Y-77123231D01*
X104880335Y-77208966D01*
X105017470Y-77460109D01*
X105017475Y-77460117D01*
X105188954Y-77689187D01*
X105188970Y-77689205D01*
X105391294Y-77891529D01*
X105391312Y-77891545D01*
X105620382Y-78063024D01*
X105620390Y-78063029D01*
X105871533Y-78200164D01*
X105871532Y-78200164D01*
X105871536Y-78200165D01*
X105871539Y-78200167D01*
X106139654Y-78300169D01*
X106139660Y-78300170D01*
X106139662Y-78300171D01*
X106419266Y-78360995D01*
X106419268Y-78360995D01*
X106419272Y-78360996D01*
X106672920Y-78379137D01*
X106704699Y-78381410D01*
X106704700Y-78381410D01*
X106704701Y-78381410D01*
X106733295Y-78379364D01*
X106990128Y-78360996D01*
X107269746Y-78300169D01*
X107537861Y-78200167D01*
X107789015Y-78063026D01*
X108018095Y-77891539D01*
X108220439Y-77689195D01*
X108391926Y-77460115D01*
X108529067Y-77208961D01*
X108629069Y-76940846D01*
X108652345Y-76833846D01*
X108689895Y-76661233D01*
X108689895Y-76661232D01*
X108689896Y-76661228D01*
X108710310Y-76375800D01*
X108689896Y-76090372D01*
X108683788Y-76062296D01*
X108629071Y-75810762D01*
X108629070Y-75810760D01*
X108629069Y-75810754D01*
X108529067Y-75542639D01*
X108501416Y-75492001D01*
X108391929Y-75291490D01*
X108391924Y-75291482D01*
X108220445Y-75062412D01*
X108220429Y-75062394D01*
X108018105Y-74860070D01*
X108018087Y-74860054D01*
X107789017Y-74688575D01*
X107789009Y-74688570D01*
X107537866Y-74551435D01*
X107537867Y-74551435D01*
X107378389Y-74491953D01*
X107269746Y-74451431D01*
X107269743Y-74451430D01*
X107269737Y-74451428D01*
X106990133Y-74390604D01*
X106704701Y-74370190D01*
X106704699Y-74370190D01*
X106419266Y-74390604D01*
X106139662Y-74451428D01*
X105871533Y-74551435D01*
X105620390Y-74688570D01*
X105620382Y-74688575D01*
X105391312Y-74860054D01*
X105391294Y-74860070D01*
X105188970Y-75062394D01*
X105188954Y-75062412D01*
X105017475Y-75291482D01*
X105017470Y-75291490D01*
X104880335Y-75542633D01*
X104780328Y-75810762D01*
X104719504Y-76090366D01*
X104699090Y-76375798D01*
X103444388Y-76375798D01*
X103489047Y-76331139D01*
X103619568Y-76144734D01*
X103715739Y-75938496D01*
X103774635Y-75718692D01*
X103794468Y-75492000D01*
X103774635Y-75265308D01*
X103723403Y-75074106D01*
X103715741Y-75045511D01*
X103715738Y-75045502D01*
X103619568Y-74839266D01*
X103514053Y-74688574D01*
X103489045Y-74652858D01*
X103328141Y-74491954D01*
X103141734Y-74361432D01*
X103141732Y-74361431D01*
X102935497Y-74265261D01*
X102935488Y-74265258D01*
X102715697Y-74206366D01*
X102715687Y-74206364D01*
X102677016Y-74202981D01*
X102611948Y-74177528D01*
X102570970Y-74120936D01*
X102567093Y-74051174D01*
X102600142Y-73991774D01*
X109283319Y-67308598D01*
X109344642Y-67275113D01*
X109414334Y-67280097D01*
G37*
%TD.AperFunction*%
%TA.AperFunction,Conductor*%
G36*
X74910403Y-59407323D02*
G01*
X74916881Y-59413355D01*
X75316981Y-59813455D01*
X75350466Y-59874778D01*
X75353300Y-59901136D01*
X75353300Y-77464222D01*
X75384090Y-77658626D01*
X75444917Y-77845830D01*
X75489221Y-77932780D01*
X75534276Y-78021205D01*
X75649972Y-78180446D01*
X75649974Y-78180448D01*
X80835345Y-83365819D01*
X80868830Y-83427142D01*
X80863846Y-83496834D01*
X80821974Y-83552767D01*
X80756510Y-83577184D01*
X80747664Y-83577500D01*
X62999129Y-83577500D01*
X62932090Y-83557815D01*
X62911448Y-83541181D01*
X56493499Y-77123231D01*
X56460014Y-77061908D01*
X56464998Y-76992216D01*
X56506870Y-76936283D01*
X56570370Y-76912023D01*
X56691392Y-76901435D01*
X56911196Y-76842539D01*
X57117434Y-76746368D01*
X57303839Y-76615847D01*
X57464747Y-76454939D01*
X57595268Y-76268534D01*
X57622318Y-76210524D01*
X57668490Y-76158085D01*
X57735683Y-76138933D01*
X57802565Y-76159148D01*
X57847082Y-76210525D01*
X57874129Y-76268528D01*
X57874132Y-76268534D01*
X58004654Y-76454941D01*
X58165558Y-76615845D01*
X58165561Y-76615847D01*
X58351966Y-76746368D01*
X58558204Y-76842539D01*
X58778008Y-76901435D01*
X58939930Y-76915601D01*
X59004698Y-76921268D01*
X59004700Y-76921268D01*
X59004702Y-76921268D01*
X59061373Y-76916309D01*
X59231392Y-76901435D01*
X59451196Y-76842539D01*
X59657434Y-76746368D01*
X59843839Y-76615847D01*
X60004747Y-76454939D01*
X60135268Y-76268534D01*
X60162318Y-76210524D01*
X60208490Y-76158085D01*
X60275683Y-76138933D01*
X60342565Y-76159148D01*
X60387082Y-76210525D01*
X60414129Y-76268528D01*
X60414132Y-76268534D01*
X60544654Y-76454941D01*
X60705558Y-76615845D01*
X60705561Y-76615847D01*
X60891966Y-76746368D01*
X61098204Y-76842539D01*
X61318008Y-76901435D01*
X61479930Y-76915601D01*
X61544698Y-76921268D01*
X61544700Y-76921268D01*
X61544702Y-76921268D01*
X61601373Y-76916309D01*
X61771392Y-76901435D01*
X61991196Y-76842539D01*
X62197434Y-76746368D01*
X62383839Y-76615847D01*
X62544747Y-76454939D01*
X62675268Y-76268534D01*
X62702318Y-76210524D01*
X62748490Y-76158085D01*
X62815683Y-76138933D01*
X62882565Y-76159148D01*
X62927082Y-76210525D01*
X62954129Y-76268528D01*
X62954132Y-76268534D01*
X63084654Y-76454941D01*
X63245558Y-76615845D01*
X63245561Y-76615847D01*
X63431966Y-76746368D01*
X63638204Y-76842539D01*
X63858008Y-76901435D01*
X64019930Y-76915601D01*
X64084698Y-76921268D01*
X64084700Y-76921268D01*
X64084702Y-76921268D01*
X64141373Y-76916309D01*
X64311392Y-76901435D01*
X64531196Y-76842539D01*
X64737434Y-76746368D01*
X64923839Y-76615847D01*
X65084747Y-76454939D01*
X65215268Y-76268534D01*
X65242318Y-76210524D01*
X65288490Y-76158085D01*
X65355683Y-76138933D01*
X65422565Y-76159148D01*
X65467082Y-76210525D01*
X65494129Y-76268528D01*
X65494132Y-76268534D01*
X65624654Y-76454941D01*
X65785558Y-76615845D01*
X65785561Y-76615847D01*
X65971966Y-76746368D01*
X66178204Y-76842539D01*
X66398008Y-76901435D01*
X66559930Y-76915601D01*
X66624698Y-76921268D01*
X66624700Y-76921268D01*
X66624702Y-76921268D01*
X66681373Y-76916309D01*
X66851392Y-76901435D01*
X67071196Y-76842539D01*
X67277434Y-76746368D01*
X67463839Y-76615847D01*
X67624747Y-76454939D01*
X67755268Y-76268534D01*
X67782595Y-76209929D01*
X67828764Y-76157495D01*
X67895957Y-76138342D01*
X67962839Y-76158557D01*
X68007357Y-76209933D01*
X68034565Y-76268282D01*
X68165042Y-76454620D01*
X68325879Y-76615457D01*
X68512217Y-76745934D01*
X68718373Y-76842065D01*
X68718382Y-76842069D01*
X68914699Y-76894672D01*
X68914700Y-76894671D01*
X68914700Y-76048812D01*
X68971707Y-76081725D01*
X69098874Y-76115800D01*
X69230526Y-76115800D01*
X69357693Y-76081725D01*
X69414700Y-76048812D01*
X69414700Y-76894672D01*
X69611017Y-76842069D01*
X69611026Y-76842065D01*
X69817182Y-76745934D01*
X70003520Y-76615457D01*
X70164357Y-76454620D01*
X70294832Y-76268284D01*
X70322041Y-76209934D01*
X70368213Y-76157495D01*
X70435407Y-76138342D01*
X70502288Y-76158557D01*
X70546806Y-76209933D01*
X70574131Y-76268532D01*
X70574132Y-76268534D01*
X70704654Y-76454941D01*
X70865558Y-76615845D01*
X70865561Y-76615847D01*
X71051966Y-76746368D01*
X71258204Y-76842539D01*
X71478008Y-76901435D01*
X71639930Y-76915601D01*
X71704698Y-76921268D01*
X71704700Y-76921268D01*
X71704702Y-76921268D01*
X71761373Y-76916309D01*
X71931392Y-76901435D01*
X72151196Y-76842539D01*
X72357434Y-76746368D01*
X72543839Y-76615847D01*
X72704747Y-76454939D01*
X72835268Y-76268534D01*
X72931439Y-76062296D01*
X72990335Y-75842492D01*
X73010168Y-75615800D01*
X72990335Y-75389108D01*
X72931439Y-75169304D01*
X72835268Y-74963066D01*
X72704747Y-74776661D01*
X72704745Y-74776658D01*
X72543841Y-74615754D01*
X72357434Y-74485232D01*
X72357432Y-74485231D01*
X72151197Y-74389061D01*
X72151188Y-74389058D01*
X71931397Y-74330166D01*
X71931393Y-74330165D01*
X71931392Y-74330165D01*
X71931391Y-74330164D01*
X71931386Y-74330164D01*
X71704702Y-74310332D01*
X71704698Y-74310332D01*
X71478013Y-74330164D01*
X71478002Y-74330166D01*
X71258211Y-74389058D01*
X71258202Y-74389061D01*
X71051967Y-74485231D01*
X71051965Y-74485232D01*
X70865558Y-74615754D01*
X70704654Y-74776658D01*
X70574133Y-74963064D01*
X70574132Y-74963066D01*
X70574015Y-74963318D01*
X70546806Y-75021667D01*
X70500633Y-75074106D01*
X70433439Y-75093257D01*
X70366558Y-75073041D01*
X70322042Y-75021665D01*
X70294835Y-74963320D01*
X70294834Y-74963318D01*
X70164357Y-74776979D01*
X70003520Y-74616142D01*
X69817182Y-74485665D01*
X69611028Y-74389534D01*
X69414700Y-74336927D01*
X69414700Y-75182788D01*
X69357693Y-75149875D01*
X69230526Y-75115800D01*
X69098874Y-75115800D01*
X68971707Y-75149875D01*
X68914700Y-75182788D01*
X68914700Y-74336927D01*
X68718371Y-74389534D01*
X68512217Y-74485665D01*
X68325879Y-74616142D01*
X68165042Y-74776979D01*
X68034567Y-74963315D01*
X68007357Y-75021667D01*
X67961184Y-75074106D01*
X67893990Y-75093257D01*
X67827109Y-75073041D01*
X67782593Y-75021665D01*
X67757972Y-74968866D01*
X67755268Y-74963066D01*
X67624747Y-74776661D01*
X67624745Y-74776658D01*
X67463841Y-74615754D01*
X67277434Y-74485232D01*
X67277432Y-74485231D01*
X67071197Y-74389061D01*
X67071188Y-74389058D01*
X66851397Y-74330166D01*
X66851393Y-74330165D01*
X66851392Y-74330165D01*
X66851391Y-74330164D01*
X66851386Y-74330164D01*
X66624702Y-74310332D01*
X66624698Y-74310332D01*
X66398013Y-74330164D01*
X66398002Y-74330166D01*
X66178211Y-74389058D01*
X66178202Y-74389061D01*
X65971967Y-74485231D01*
X65971965Y-74485232D01*
X65785558Y-74615754D01*
X65624654Y-74776658D01*
X65560775Y-74867889D01*
X65506199Y-74911514D01*
X65436700Y-74918708D01*
X65374345Y-74887186D01*
X65338931Y-74826956D01*
X65335200Y-74796766D01*
X65335200Y-70553740D01*
X65354885Y-70486701D01*
X65407689Y-70440946D01*
X65459200Y-70429740D01*
X66499682Y-70429740D01*
X66694086Y-70398949D01*
X66881286Y-70338124D01*
X67056665Y-70248764D01*
X67215906Y-70133068D01*
X74408529Y-62940445D01*
X74524224Y-62781205D01*
X74613584Y-62605825D01*
X74674409Y-62418626D01*
X74687156Y-62338144D01*
X74692413Y-62304952D01*
X74692413Y-62304951D01*
X74705200Y-62224216D01*
X74705200Y-59501036D01*
X74724885Y-59433997D01*
X74777689Y-59388242D01*
X74846847Y-59378298D01*
X74910403Y-59407323D01*
G37*
%TD.AperFunction*%
%TA.AperFunction,Conductor*%
G36*
X97659000Y-76770872D02*
G01*
X97855317Y-76718269D01*
X97855326Y-76718265D01*
X98061482Y-76622134D01*
X98247820Y-76491657D01*
X98408657Y-76330820D01*
X98539132Y-76144484D01*
X98566341Y-76086134D01*
X98612513Y-76033695D01*
X98679707Y-76014542D01*
X98746588Y-76034757D01*
X98791105Y-76086132D01*
X98804940Y-76115800D01*
X98818431Y-76144732D01*
X98818432Y-76144734D01*
X98948954Y-76331141D01*
X99109858Y-76492045D01*
X99109861Y-76492047D01*
X99296266Y-76622568D01*
X99502504Y-76718739D01*
X99502509Y-76718740D01*
X99502511Y-76718741D01*
X99518466Y-76723016D01*
X99722308Y-76777635D01*
X99884230Y-76791801D01*
X99948998Y-76797468D01*
X99949000Y-76797468D01*
X99949002Y-76797468D01*
X100005673Y-76792509D01*
X100175692Y-76777635D01*
X100332408Y-76735643D01*
X100402256Y-76737306D01*
X100460119Y-76776468D01*
X100487623Y-76840697D01*
X100488500Y-76855418D01*
X100488500Y-78869378D01*
X100468815Y-78936417D01*
X100416011Y-78982172D01*
X100364500Y-78993378D01*
X97071324Y-78993378D01*
X96926336Y-79022218D01*
X96926330Y-79022220D01*
X96789752Y-79078792D01*
X96789740Y-79078799D01*
X96740513Y-79111691D01*
X96666832Y-79160922D01*
X96666824Y-79160928D01*
X96331181Y-79496572D01*
X96269858Y-79530057D01*
X96200166Y-79525073D01*
X96144233Y-79483201D01*
X96119816Y-79417737D01*
X96119500Y-79408891D01*
X96119500Y-76310161D01*
X96139185Y-76243122D01*
X96191989Y-76197367D01*
X96261147Y-76187423D01*
X96324703Y-76216448D01*
X96345075Y-76239038D01*
X96409339Y-76330817D01*
X96570179Y-76491657D01*
X96756517Y-76622134D01*
X96962673Y-76718265D01*
X96962682Y-76718269D01*
X97158999Y-76770872D01*
X97159000Y-76770871D01*
X97159000Y-75807686D01*
X97163394Y-75812080D01*
X97254606Y-75864741D01*
X97356339Y-75892000D01*
X97461661Y-75892000D01*
X97563394Y-75864741D01*
X97654606Y-75812080D01*
X97659000Y-75807686D01*
X97659000Y-76770872D01*
G37*
%TD.AperFunction*%
%TA.AperFunction,Conductor*%
G36*
X85060103Y-58072185D02*
G01*
X85105858Y-58124989D01*
X85115802Y-58194147D01*
X85086777Y-58257703D01*
X85080765Y-58264160D01*
X84904976Y-58439948D01*
X84894149Y-58450776D01*
X84832825Y-58484260D01*
X84797622Y-58486778D01*
X84632801Y-58474990D01*
X84632799Y-58474990D01*
X84347366Y-58495404D01*
X84067762Y-58556228D01*
X83799633Y-58656235D01*
X83548490Y-58793370D01*
X83548482Y-58793375D01*
X83319412Y-58964854D01*
X83319394Y-58964870D01*
X83117070Y-59167194D01*
X83117054Y-59167212D01*
X82945575Y-59396282D01*
X82945570Y-59396290D01*
X82808435Y-59647433D01*
X82708428Y-59915562D01*
X82647604Y-60195166D01*
X82627190Y-60480598D01*
X82627190Y-60480601D01*
X82647604Y-60766033D01*
X82708428Y-61045637D01*
X82708430Y-61045643D01*
X82708431Y-61045646D01*
X82803009Y-61299218D01*
X82808435Y-61313766D01*
X82945570Y-61564909D01*
X82945575Y-61564917D01*
X83117054Y-61793987D01*
X83117070Y-61794005D01*
X83319394Y-61996329D01*
X83319412Y-61996345D01*
X83548482Y-62167824D01*
X83548490Y-62167829D01*
X83799633Y-62304964D01*
X83799632Y-62304964D01*
X83799636Y-62304965D01*
X83799639Y-62304967D01*
X84067754Y-62404969D01*
X84067760Y-62404970D01*
X84067762Y-62404971D01*
X84347366Y-62465795D01*
X84347368Y-62465795D01*
X84347372Y-62465796D01*
X84601020Y-62483937D01*
X84632799Y-62486210D01*
X84632800Y-62486210D01*
X84632801Y-62486210D01*
X84661395Y-62484164D01*
X84918228Y-62465796D01*
X85019991Y-62443659D01*
X85197837Y-62404971D01*
X85197837Y-62404970D01*
X85197846Y-62404969D01*
X85465961Y-62304967D01*
X85717115Y-62167826D01*
X85946195Y-61996339D01*
X86148539Y-61793995D01*
X86320026Y-61564915D01*
X86457167Y-61313761D01*
X86557169Y-61045646D01*
X86560891Y-61028535D01*
X86617995Y-60766033D01*
X86617995Y-60766032D01*
X86617996Y-60766028D01*
X86638410Y-60480600D01*
X86626621Y-60315776D01*
X86641473Y-60247504D01*
X86662624Y-60219249D01*
X87093055Y-59788819D01*
X87154378Y-59755334D01*
X87180736Y-59752500D01*
X88414863Y-59752500D01*
X88481902Y-59772185D01*
X88527657Y-59824989D01*
X88537601Y-59894147D01*
X88534638Y-59908593D01*
X88503366Y-60025302D01*
X88503364Y-60025313D01*
X88483532Y-60251998D01*
X88483532Y-60252001D01*
X88503364Y-60478686D01*
X88503366Y-60478697D01*
X88562258Y-60698488D01*
X88562261Y-60698497D01*
X88658431Y-60904732D01*
X88658432Y-60904734D01*
X88788954Y-61091141D01*
X88949858Y-61252045D01*
X88949861Y-61252047D01*
X89136266Y-61382568D01*
X89342504Y-61478739D01*
X89562308Y-61537635D01*
X89724230Y-61551801D01*
X89788998Y-61557468D01*
X89789000Y-61557468D01*
X89789002Y-61557468D01*
X89845807Y-61552498D01*
X90015692Y-61537635D01*
X90235496Y-61478739D01*
X90441734Y-61382568D01*
X90628139Y-61252047D01*
X90789047Y-61091139D01*
X90919568Y-60904734D01*
X90938125Y-60864937D01*
X90984295Y-60812500D01*
X91051488Y-60793347D01*
X91118369Y-60813562D01*
X91138187Y-60829662D01*
X91170015Y-60861490D01*
X91194713Y-60896760D01*
X91198432Y-60904734D01*
X91328954Y-61091141D01*
X91489858Y-61252045D01*
X91489861Y-61252047D01*
X91676266Y-61382568D01*
X91882504Y-61478739D01*
X92102308Y-61537635D01*
X92264230Y-61551801D01*
X92328998Y-61557468D01*
X92329000Y-61557468D01*
X92329002Y-61557468D01*
X92385807Y-61552498D01*
X92555692Y-61537635D01*
X92775496Y-61478739D01*
X92981734Y-61382568D01*
X93168139Y-61252047D01*
X93329047Y-61091139D01*
X93459568Y-60904734D01*
X93478125Y-60864937D01*
X93524295Y-60812500D01*
X93591488Y-60793347D01*
X93658369Y-60813562D01*
X93678187Y-60829662D01*
X93710015Y-60861490D01*
X93734713Y-60896760D01*
X93738432Y-60904734D01*
X93868954Y-61091141D01*
X94029858Y-61252045D01*
X94029861Y-61252047D01*
X94216266Y-61382568D01*
X94422504Y-61478739D01*
X94642308Y-61537635D01*
X94804230Y-61551801D01*
X94868998Y-61557468D01*
X94869000Y-61557468D01*
X94869002Y-61557468D01*
X94925807Y-61552498D01*
X95095692Y-61537635D01*
X95315496Y-61478739D01*
X95521734Y-61382568D01*
X95708139Y-61252047D01*
X95869047Y-61091139D01*
X95932926Y-60999909D01*
X95987501Y-60956285D01*
X96056999Y-60949091D01*
X96119354Y-60980613D01*
X96154769Y-61040842D01*
X96158500Y-61071033D01*
X96158500Y-62298863D01*
X96138815Y-62365902D01*
X96122181Y-62386544D01*
X84817949Y-73690775D01*
X84756626Y-73724260D01*
X84721422Y-73726778D01*
X84556601Y-73714990D01*
X84556599Y-73714990D01*
X84271166Y-73735404D01*
X83991562Y-73796228D01*
X83723433Y-73896235D01*
X83472290Y-74033370D01*
X83472282Y-74033375D01*
X83243212Y-74204854D01*
X83243194Y-74204870D01*
X83040870Y-74407194D01*
X83040854Y-74407212D01*
X82869375Y-74636282D01*
X82869370Y-74636290D01*
X82732235Y-74887433D01*
X82632228Y-75155562D01*
X82571404Y-75435166D01*
X82550990Y-75720598D01*
X82550990Y-75720601D01*
X82571404Y-76006033D01*
X82632228Y-76285637D01*
X82732235Y-76553767D01*
X82832110Y-76736673D01*
X82846962Y-76804946D01*
X82822545Y-76870410D01*
X82766612Y-76912282D01*
X82723278Y-76920100D01*
X82495936Y-76920100D01*
X82428897Y-76900415D01*
X82408255Y-76883781D01*
X81521995Y-75997521D01*
X81488510Y-75936198D01*
X81487208Y-75929268D01*
X81483709Y-75907174D01*
X81483168Y-75905509D01*
X81482894Y-75903782D01*
X81482571Y-75902435D01*
X81482677Y-75902409D01*
X81477099Y-75867191D01*
X81477099Y-74172729D01*
X81477098Y-74172723D01*
X81470691Y-74113116D01*
X81420397Y-73978271D01*
X81420393Y-73978264D01*
X81334147Y-73863055D01*
X81334144Y-73863052D01*
X81218935Y-73776806D01*
X81218928Y-73776802D01*
X81084082Y-73726508D01*
X81084083Y-73726508D01*
X81024483Y-73720101D01*
X81024481Y-73720100D01*
X81024473Y-73720100D01*
X81024465Y-73720100D01*
X77978300Y-73720100D01*
X77911261Y-73700415D01*
X77865506Y-73647611D01*
X77854300Y-73596100D01*
X77854300Y-62602951D01*
X77873985Y-62535912D01*
X77926789Y-62490157D01*
X77991555Y-62479662D01*
X78004927Y-62481100D01*
X81100672Y-62481099D01*
X81160283Y-62474691D01*
X81295131Y-62424396D01*
X81410346Y-62338146D01*
X81496596Y-62222931D01*
X81546891Y-62088083D01*
X81553300Y-62028473D01*
X81553299Y-60299934D01*
X81572984Y-60232896D01*
X81589613Y-60212259D01*
X83713055Y-58088819D01*
X83774378Y-58055334D01*
X83800736Y-58052500D01*
X84993064Y-58052500D01*
X85060103Y-58072185D01*
G37*
%TD.AperFunction*%
%TA.AperFunction,Conductor*%
G36*
X101753791Y-72228695D02*
G01*
X101775555Y-72239338D01*
X101848694Y-72284451D01*
X101848701Y-72284454D01*
X101910262Y-72304853D01*
X101967707Y-72344625D01*
X101994531Y-72409141D01*
X101982216Y-72477917D01*
X101958940Y-72510240D01*
X100656050Y-73813130D01*
X100656044Y-73813138D01*
X100606812Y-73886818D01*
X100606813Y-73886819D01*
X100573921Y-73936046D01*
X100573914Y-73936058D01*
X100517342Y-74072636D01*
X100517340Y-74072641D01*
X100500627Y-74156662D01*
X100468241Y-74218572D01*
X100407525Y-74253146D01*
X100346917Y-74252244D01*
X100175697Y-74206366D01*
X100175693Y-74206365D01*
X100175692Y-74206365D01*
X100175691Y-74206364D01*
X100175686Y-74206364D01*
X99949002Y-74186532D01*
X99948998Y-74186532D01*
X99722313Y-74206364D01*
X99722302Y-74206366D01*
X99502511Y-74265258D01*
X99502502Y-74265261D01*
X99296267Y-74361431D01*
X99296265Y-74361432D01*
X99109858Y-74491954D01*
X98948954Y-74652858D01*
X98827051Y-74826956D01*
X98818432Y-74839266D01*
X98795969Y-74887439D01*
X98791106Y-74897867D01*
X98744933Y-74950306D01*
X98677739Y-74969457D01*
X98610858Y-74949241D01*
X98566342Y-74897865D01*
X98539135Y-74839520D01*
X98539134Y-74839518D01*
X98408657Y-74653179D01*
X98247820Y-74492342D01*
X98061482Y-74361865D01*
X98021561Y-74343250D01*
X97969122Y-74297077D01*
X97949970Y-74229883D01*
X97970186Y-74163002D01*
X97986276Y-74143197D01*
X99468655Y-72660819D01*
X99529978Y-72627334D01*
X99556336Y-72624500D01*
X100835922Y-72624500D01*
X101030326Y-72593709D01*
X101217525Y-72532884D01*
X101392905Y-72443524D01*
X101552146Y-72327828D01*
X101622780Y-72257193D01*
X101684099Y-72223711D01*
X101753791Y-72228695D01*
G37*
%TD.AperFunction*%
%TA.AperFunction,Conductor*%
G36*
X50182565Y-60919148D02*
G01*
X50227081Y-60970524D01*
X50231786Y-60980613D01*
X50254129Y-61028528D01*
X50254132Y-61028534D01*
X50384654Y-61214941D01*
X50545558Y-61375845D01*
X50545561Y-61375847D01*
X50731966Y-61506368D01*
X50938204Y-61602539D01*
X51158008Y-61661435D01*
X51319930Y-61675601D01*
X51384698Y-61681268D01*
X51384700Y-61681268D01*
X51384702Y-61681268D01*
X51441507Y-61676298D01*
X51611392Y-61661435D01*
X51831196Y-61602539D01*
X52037434Y-61506368D01*
X52223839Y-61375847D01*
X52384747Y-61214939D01*
X52515268Y-61028534D01*
X52542319Y-60970521D01*
X52588488Y-60918087D01*
X52655682Y-60898934D01*
X52722563Y-60919149D01*
X52767081Y-60970524D01*
X52794132Y-61028535D01*
X52812166Y-61054290D01*
X52834493Y-61120496D01*
X52817481Y-61188263D01*
X52798271Y-61213093D01*
X39521992Y-74489371D01*
X39460669Y-74522856D01*
X39390977Y-74517872D01*
X39363191Y-74503267D01*
X39337434Y-74485232D01*
X39264942Y-74451428D01*
X39131197Y-74389061D01*
X39131188Y-74389058D01*
X38911397Y-74330166D01*
X38911393Y-74330165D01*
X38911392Y-74330165D01*
X38911391Y-74330164D01*
X38911386Y-74330164D01*
X38684702Y-74310332D01*
X38684698Y-74310332D01*
X38458013Y-74330164D01*
X38458002Y-74330166D01*
X38341293Y-74361438D01*
X38271443Y-74359775D01*
X38213581Y-74320612D01*
X38186077Y-74256383D01*
X38185200Y-74241663D01*
X38185200Y-61749936D01*
X38204885Y-61682897D01*
X38257689Y-61637142D01*
X38326847Y-61627198D01*
X38341282Y-61630158D01*
X38458008Y-61661435D01*
X38619930Y-61675601D01*
X38684698Y-61681268D01*
X38684700Y-61681268D01*
X38684702Y-61681268D01*
X38741507Y-61676298D01*
X38911392Y-61661435D01*
X39131196Y-61602539D01*
X39337434Y-61506368D01*
X39523839Y-61375847D01*
X39684747Y-61214939D01*
X39815268Y-61028534D01*
X39842318Y-60970524D01*
X39888490Y-60918085D01*
X39955683Y-60898933D01*
X40022565Y-60919148D01*
X40067081Y-60970524D01*
X40071786Y-60980613D01*
X40094129Y-61028528D01*
X40094132Y-61028534D01*
X40224654Y-61214941D01*
X40385558Y-61375845D01*
X40385561Y-61375847D01*
X40571966Y-61506368D01*
X40778204Y-61602539D01*
X40998008Y-61661435D01*
X41159930Y-61675601D01*
X41224698Y-61681268D01*
X41224700Y-61681268D01*
X41224701Y-61681268D01*
X41244762Y-61679512D01*
X41391561Y-61666669D01*
X41460059Y-61680435D01*
X41490048Y-61702516D01*
X44124480Y-64336948D01*
X44124484Y-64336951D01*
X44247398Y-64419080D01*
X44247411Y-64419087D01*
X44383982Y-64475656D01*
X44383987Y-64475658D01*
X44383991Y-64475658D01*
X44383992Y-64475659D01*
X44528979Y-64504500D01*
X44528982Y-64504500D01*
X44676817Y-64504500D01*
X48468028Y-64504500D01*
X48508983Y-64511458D01*
X48588745Y-64539368D01*
X48588750Y-64539369D01*
X48767996Y-64559565D01*
X48768000Y-64559565D01*
X48768004Y-64559565D01*
X48947249Y-64539369D01*
X48947252Y-64539368D01*
X48947255Y-64539368D01*
X49117522Y-64479789D01*
X49270262Y-64383816D01*
X49397816Y-64256262D01*
X49493789Y-64103522D01*
X49553368Y-63933255D01*
X49573565Y-63754000D01*
X49555980Y-63597929D01*
X49553369Y-63574750D01*
X49553368Y-63574745D01*
X49493788Y-63404476D01*
X49420761Y-63288255D01*
X49397816Y-63251738D01*
X49270262Y-63124184D01*
X49117523Y-63028211D01*
X48947254Y-62968631D01*
X48947249Y-62968630D01*
X48768004Y-62948435D01*
X48767996Y-62948435D01*
X48588750Y-62968630D01*
X48588745Y-62968631D01*
X48508983Y-62996542D01*
X48468028Y-63003500D01*
X44965129Y-63003500D01*
X44898090Y-62983815D01*
X44877448Y-62967181D01*
X43793498Y-61883231D01*
X43760013Y-61821908D01*
X43764997Y-61752216D01*
X43806869Y-61696283D01*
X43870368Y-61672023D01*
X43991392Y-61661435D01*
X44211196Y-61602539D01*
X44417434Y-61506368D01*
X44603839Y-61375847D01*
X44764747Y-61214939D01*
X44895268Y-61028534D01*
X44922318Y-60970524D01*
X44968490Y-60918085D01*
X45035683Y-60898933D01*
X45102565Y-60919148D01*
X45147081Y-60970524D01*
X45151786Y-60980613D01*
X45174129Y-61028528D01*
X45174132Y-61028534D01*
X45304654Y-61214941D01*
X45465558Y-61375845D01*
X45465561Y-61375847D01*
X45651966Y-61506368D01*
X45858204Y-61602539D01*
X46078008Y-61661435D01*
X46239930Y-61675601D01*
X46304698Y-61681268D01*
X46304700Y-61681268D01*
X46304702Y-61681268D01*
X46361507Y-61676298D01*
X46531392Y-61661435D01*
X46751196Y-61602539D01*
X46957434Y-61506368D01*
X47143839Y-61375847D01*
X47304747Y-61214939D01*
X47435268Y-61028534D01*
X47462318Y-60970524D01*
X47508490Y-60918085D01*
X47575683Y-60898933D01*
X47642565Y-60919148D01*
X47687081Y-60970524D01*
X47691786Y-60980613D01*
X47714129Y-61028528D01*
X47714132Y-61028534D01*
X47844654Y-61214941D01*
X48005558Y-61375845D01*
X48005561Y-61375847D01*
X48191966Y-61506368D01*
X48398204Y-61602539D01*
X48618008Y-61661435D01*
X48779930Y-61675601D01*
X48844698Y-61681268D01*
X48844700Y-61681268D01*
X48844702Y-61681268D01*
X48901507Y-61676298D01*
X49071392Y-61661435D01*
X49291196Y-61602539D01*
X49497434Y-61506368D01*
X49683839Y-61375847D01*
X49844747Y-61214939D01*
X49975268Y-61028534D01*
X50002318Y-60970524D01*
X50048490Y-60918085D01*
X50115683Y-60898933D01*
X50182565Y-60919148D01*
G37*
%TD.AperFunction*%
%TA.AperFunction,Conductor*%
G36*
X64334700Y-61654672D02*
G01*
X64531017Y-61602069D01*
X64531026Y-61602065D01*
X64737182Y-61505934D01*
X64923520Y-61375457D01*
X65084357Y-61214620D01*
X65214832Y-61028284D01*
X65242041Y-60969934D01*
X65288213Y-60917495D01*
X65355407Y-60898342D01*
X65422288Y-60918557D01*
X65466805Y-60969932D01*
X65471786Y-60980613D01*
X65494131Y-61028532D01*
X65494132Y-61028534D01*
X65624654Y-61214941D01*
X65785558Y-61375845D01*
X65785561Y-61375847D01*
X65971966Y-61506368D01*
X66178204Y-61602539D01*
X66398008Y-61661435D01*
X66559930Y-61675601D01*
X66624698Y-61681268D01*
X66624700Y-61681268D01*
X66624702Y-61681268D01*
X66681507Y-61676298D01*
X66851392Y-61661435D01*
X67071196Y-61602539D01*
X67277434Y-61506368D01*
X67463839Y-61375847D01*
X67624747Y-61214939D01*
X67755268Y-61028534D01*
X67782318Y-60970524D01*
X67828490Y-60918085D01*
X67895683Y-60898933D01*
X67962565Y-60919148D01*
X68007081Y-60970524D01*
X68011786Y-60980613D01*
X68034129Y-61028528D01*
X68034132Y-61028534D01*
X68164654Y-61214941D01*
X68325558Y-61375845D01*
X68325561Y-61375847D01*
X68511966Y-61506368D01*
X68718204Y-61602539D01*
X68938008Y-61661435D01*
X69099930Y-61675601D01*
X69164698Y-61681268D01*
X69164700Y-61681268D01*
X69164702Y-61681268D01*
X69221507Y-61676298D01*
X69391392Y-61661435D01*
X69611196Y-61602539D01*
X69817434Y-61506368D01*
X70003839Y-61375847D01*
X70164747Y-61214939D01*
X70181972Y-61190339D01*
X70236548Y-61146713D01*
X70306046Y-61139518D01*
X70368401Y-61171039D01*
X70403816Y-61231268D01*
X70406838Y-61248206D01*
X70410608Y-61283283D01*
X70460902Y-61418128D01*
X70460906Y-61418135D01*
X70547152Y-61533344D01*
X70547155Y-61533347D01*
X70662364Y-61619593D01*
X70662371Y-61619597D01*
X70797217Y-61669891D01*
X70797216Y-61669891D01*
X70804144Y-61670635D01*
X70856827Y-61676300D01*
X71836363Y-61676299D01*
X71903402Y-61695983D01*
X71949157Y-61748787D01*
X71959101Y-61817946D01*
X71930076Y-61881502D01*
X71924044Y-61887980D01*
X65919605Y-67892421D01*
X65858282Y-67925906D01*
X65831924Y-67928740D01*
X64155576Y-67928740D01*
X64088537Y-67909055D01*
X64067895Y-67892421D01*
X63246748Y-67071274D01*
X63246746Y-67071272D01*
X63087505Y-66955576D01*
X63046151Y-66934505D01*
X62912130Y-66866217D01*
X62724926Y-66805390D01*
X62530522Y-66774600D01*
X62530517Y-66774600D01*
X62333683Y-66774600D01*
X62333678Y-66774600D01*
X62139273Y-66805390D01*
X61952069Y-66866217D01*
X61776694Y-66955576D01*
X61617455Y-67071271D01*
X61546822Y-67141904D01*
X61485498Y-67175388D01*
X61415807Y-67170403D01*
X61394044Y-67159761D01*
X61320905Y-67114648D01*
X61320900Y-67114646D01*
X61157252Y-67060419D01*
X61056254Y-67050100D01*
X60957100Y-67050100D01*
X60957100Y-69000099D01*
X61056240Y-69000099D01*
X61056254Y-69000098D01*
X61157252Y-68989780D01*
X61320900Y-68935553D01*
X61320907Y-68935550D01*
X61394042Y-68890439D01*
X61461434Y-68871998D01*
X61528098Y-68892920D01*
X61546821Y-68908296D01*
X62164324Y-69525798D01*
X62632411Y-69993885D01*
X62632412Y-69993886D01*
X62771594Y-70133068D01*
X62783082Y-70141415D01*
X62825750Y-70196742D01*
X62834200Y-70241734D01*
X62834200Y-73293500D01*
X62814515Y-73360539D01*
X62761711Y-73406294D01*
X62710200Y-73417500D01*
X43370813Y-73417500D01*
X43225825Y-73446340D01*
X43225815Y-73446343D01*
X43089244Y-73502912D01*
X43089231Y-73502919D01*
X42966317Y-73585048D01*
X42966313Y-73585051D01*
X42061992Y-74489371D01*
X42000669Y-74522856D01*
X41930977Y-74517872D01*
X41903191Y-74503267D01*
X41877434Y-74485232D01*
X41877431Y-74485231D01*
X41877429Y-74485229D01*
X41872739Y-74482521D01*
X41873991Y-74480352D01*
X41829482Y-74441003D01*
X41810464Y-74373771D01*
X41830814Y-74306930D01*
X41846772Y-74287327D01*
X47822346Y-68311754D01*
X59669601Y-68311754D01*
X59679919Y-68412752D01*
X59734146Y-68576400D01*
X59734151Y-68576411D01*
X59824652Y-68723134D01*
X59824655Y-68723138D01*
X59946561Y-68845044D01*
X59946565Y-68845047D01*
X60093288Y-68935548D01*
X60093299Y-68935553D01*
X60256947Y-68989780D01*
X60357951Y-69000099D01*
X60457100Y-69000098D01*
X60457100Y-68275100D01*
X59669601Y-68275100D01*
X59669601Y-68311754D01*
X47822346Y-68311754D01*
X48395655Y-67738445D01*
X59669600Y-67738445D01*
X59669600Y-67775100D01*
X60457100Y-67775100D01*
X60457100Y-67050099D01*
X60357960Y-67050100D01*
X60357944Y-67050101D01*
X60256947Y-67060419D01*
X60093299Y-67114646D01*
X60093288Y-67114651D01*
X59946565Y-67205152D01*
X59946561Y-67205155D01*
X59824655Y-67327061D01*
X59824652Y-67327065D01*
X59734151Y-67473788D01*
X59734146Y-67473799D01*
X59679919Y-67637447D01*
X59669600Y-67738445D01*
X48395655Y-67738445D01*
X53625281Y-62508819D01*
X53686604Y-62475334D01*
X53712962Y-62472500D01*
X60272420Y-62472500D01*
X60369962Y-62453096D01*
X60417413Y-62443658D01*
X60553995Y-62387084D01*
X60603229Y-62354186D01*
X60676916Y-62304952D01*
X61279352Y-61702514D01*
X61340673Y-61669031D01*
X61377835Y-61666669D01*
X61521066Y-61679200D01*
X61544699Y-61681268D01*
X61544700Y-61681268D01*
X61544702Y-61681268D01*
X61601507Y-61676298D01*
X61771392Y-61661435D01*
X61991196Y-61602539D01*
X62197434Y-61506368D01*
X62383839Y-61375847D01*
X62544747Y-61214939D01*
X62675268Y-61028534D01*
X62702595Y-60969929D01*
X62748764Y-60917495D01*
X62815957Y-60898342D01*
X62882839Y-60918557D01*
X62927357Y-60969933D01*
X62954565Y-61028282D01*
X63085042Y-61214620D01*
X63245879Y-61375457D01*
X63432217Y-61505934D01*
X63638373Y-61602065D01*
X63638382Y-61602069D01*
X63834699Y-61654672D01*
X63834700Y-61654671D01*
X63834700Y-60808812D01*
X63891707Y-60841725D01*
X64018874Y-60875800D01*
X64150526Y-60875800D01*
X64277693Y-60841725D01*
X64334700Y-60808812D01*
X64334700Y-61654672D01*
G37*
%TD.AperFunction*%
%TA.AperFunction,Conductor*%
G36*
X120934674Y-56749707D02*
G01*
X120979021Y-56778208D01*
X121080858Y-56880045D01*
X121080861Y-56880047D01*
X121267266Y-57010568D01*
X121473504Y-57106739D01*
X121693308Y-57165635D01*
X121855230Y-57179801D01*
X121919998Y-57185468D01*
X121920000Y-57185468D01*
X121920002Y-57185468D01*
X121976673Y-57180509D01*
X122146692Y-57165635D01*
X122263408Y-57134361D01*
X122333256Y-57136024D01*
X122391119Y-57175186D01*
X122418623Y-57239415D01*
X122419500Y-57254136D01*
X122419500Y-64427769D01*
X122399815Y-64494808D01*
X122383181Y-64515450D01*
X122195450Y-64703181D01*
X122134127Y-64736666D01*
X122107769Y-64739500D01*
X121072129Y-64739500D01*
X121072123Y-64739501D01*
X121012516Y-64745908D01*
X120877671Y-64796202D01*
X120877664Y-64796206D01*
X120762455Y-64882452D01*
X120762452Y-64882455D01*
X120676206Y-64997664D01*
X120676202Y-64997671D01*
X120625910Y-65132513D01*
X120625909Y-65132517D01*
X120620937Y-65178757D01*
X120594201Y-65243306D01*
X120536809Y-65283154D01*
X120497649Y-65289500D01*
X116531129Y-65289500D01*
X116464090Y-65269815D01*
X116443448Y-65253181D01*
X116414722Y-65224455D01*
X116414720Y-65224452D01*
X115911518Y-64721250D01*
X115878033Y-64659927D01*
X115875199Y-64633569D01*
X115875199Y-63597929D01*
X115875198Y-63597923D01*
X115868791Y-63538316D01*
X115818497Y-63403471D01*
X115818493Y-63403464D01*
X115732247Y-63288255D01*
X115732244Y-63288252D01*
X115617035Y-63202006D01*
X115617028Y-63202002D01*
X115482182Y-63151708D01*
X115482183Y-63151708D01*
X115422583Y-63145301D01*
X115422581Y-63145300D01*
X115422573Y-63145300D01*
X115422565Y-63145300D01*
X114735929Y-63145300D01*
X114668890Y-63125615D01*
X114623135Y-63072811D01*
X114613191Y-63003653D01*
X114642216Y-62940097D01*
X114648248Y-62933619D01*
X120803659Y-56778208D01*
X120864982Y-56744723D01*
X120934674Y-56749707D01*
G37*
%TD.AperFunction*%
%TA.AperFunction,Conductor*%
G36*
X57405703Y-41902623D02*
G01*
X57412181Y-41908655D01*
X64792545Y-49289019D01*
X64826030Y-49350342D01*
X64821046Y-49420034D01*
X64779174Y-49475967D01*
X64713710Y-49500384D01*
X64704864Y-49500700D01*
X57462708Y-49500700D01*
X57395669Y-49481015D01*
X57357163Y-49436928D01*
X57355405Y-49438013D01*
X57348619Y-49427011D01*
X57259512Y-49282544D01*
X57135456Y-49158488D01*
X57015192Y-49084309D01*
X56986136Y-49066387D01*
X56986131Y-49066385D01*
X56984662Y-49065898D01*
X56819597Y-49011201D01*
X56819595Y-49011200D01*
X56716816Y-49000700D01*
X56716809Y-49000700D01*
X56274500Y-49000700D01*
X56207461Y-48981015D01*
X56161706Y-48928211D01*
X56150500Y-48876700D01*
X56150500Y-43712197D01*
X56170185Y-43645158D01*
X56222989Y-43599403D01*
X56292147Y-43589459D01*
X56294833Y-43589875D01*
X56683534Y-43654660D01*
X56694350Y-43655615D01*
X56837027Y-43636726D01*
X56968603Y-43578406D01*
X57078419Y-43485378D01*
X57157577Y-43365180D01*
X57176504Y-43303289D01*
X57199662Y-43227558D01*
X57199665Y-43227549D01*
X57200500Y-43216724D01*
X57200500Y-41996336D01*
X57220185Y-41929297D01*
X57272989Y-41883542D01*
X57342147Y-41873598D01*
X57405703Y-41902623D01*
G37*
%TD.AperFunction*%
%TA.AperFunction,Conductor*%
G36*
X122413256Y-41896024D02*
G01*
X122471119Y-41935186D01*
X122498623Y-41999415D01*
X122499500Y-42014136D01*
X122499500Y-49107769D01*
X122479815Y-49174808D01*
X122463181Y-49195450D01*
X122195450Y-49463181D01*
X122134127Y-49496666D01*
X122107769Y-49499500D01*
X121225050Y-49499500D01*
X121158011Y-49479815D01*
X121112256Y-49427011D01*
X121101050Y-49375500D01*
X121101050Y-42651679D01*
X121120735Y-42584640D01*
X121137369Y-42563998D01*
X121220703Y-42480664D01*
X121734652Y-41966714D01*
X121795973Y-41933231D01*
X121833135Y-41930869D01*
X121976366Y-41943400D01*
X121999999Y-41945468D01*
X122000000Y-41945468D01*
X122000002Y-41945468D01*
X122056673Y-41940509D01*
X122226692Y-41925635D01*
X122343408Y-41894361D01*
X122413256Y-41896024D01*
G37*
%TD.AperFunction*%
%TD*%
M02*
