M48
; DRILL file {KiCad 9.0.2} date 2025-06-10T12:02:39+0200
; FORMAT={-:-/ absolute / inch / decimal}
; #@! TF.CreationDate,2025-06-10T12:02:39+02:00
; #@! TF.GenerationSoftware,Kicad,Pcbnew,9.0.2
; #@! TF.FileFunction,Plated,1,2,PTH
FMAT,2
INCH
; #@! TA.AperFunction,Plated,PTH,ViaDrill
T1C0.0118
; #@! TA.AperFunction,Plated,PTH,ComponentDrill
T2C0.0315
; #@! TA.AperFunction,Plated,PTH,ComponentDrill
T3C0.0394
; #@! TA.AperFunction,Plated,PTH,ComponentDrill
T4C0.0433
; #@! TA.AperFunction,Plated,PTH,ComponentDrill
T5C0.0598
%
G90
G05
T1
X1.825Y-1.05
X1.951Y-2.055
X2.004Y-2.549
X2.05Y-1.05
X2.076Y-2.055
X2.105Y-2.634
X2.174Y-2.7275
X2.2056Y-2.7596
X2.217Y-3.24
X2.232Y-2.726
X2.249Y-3.315
X2.271Y-2.503
X2.273Y-2.463
X2.273Y-3.242
X2.275Y-1.05
X2.375Y-2.526
X2.376Y-2.471
X2.502Y-2.448
X2.525Y-2.075
X2.525Y-2.1
X2.526Y-2.748
X2.572Y-1.95
X2.604Y-1.5
X2.605Y-2.002
X2.632Y-2.746
X2.6335Y-1.4706
X2.642Y-2.493
X2.7Y-3.075
X2.716Y-2.495
X2.75Y-3.075
X2.814Y-2.496
X2.825Y-2.775
X3.125Y-1.4
X3.125Y-1.5
X3.147Y-2.738
X3.183Y-2.51
X3.2Y-1.4
X3.2Y-1.5
X3.272Y-2.738
X3.3Y-1.4
X3.3Y-1.5
X3.308Y-2.51
X3.322Y-3.323
X3.322Y-3.373
X3.3241Y-3.273
X3.493Y-3.123
X3.542Y-2.471
X3.638Y-2.884
X3.64Y-3.085
X3.667Y-2.471
X3.86Y-2.731
X3.866Y-2.55
X3.875Y-3.075
X3.9Y-1.925
X3.9Y-2.025
X3.912Y-2.55
X3.925Y-1.275
X3.925Y-1.35
X3.95Y-3.075
X3.971Y-1.149
X3.975Y-1.35
X4.025Y-3.075
X4.034Y-1.078
X4.044Y-2.867
X4.05Y-1.925
X4.05Y-2.025
X4.063Y-2.796
X4.075Y-3.075
X4.136Y-1.437
X4.15Y-1.078
X4.1537Y-1.3113
X4.175Y-1.925
X4.175Y-2.025
X4.19Y-1.466
X4.2Y-1.325
X4.242Y-1.754
X4.246Y-1.709
X4.25Y-2.875
X4.266Y-2.594
X4.3Y-2.875
X4.325Y-2.425
X4.325Y-2.475
X4.35Y-2.45
X4.375Y-2.425
X4.375Y-2.475
X4.475Y-1.275
X4.475Y-1.35
X4.55Y-1.3
X4.55Y-1.35
X4.706Y-3.88
T2
X3.4968Y-1.1417
X3.535Y-2.3721
X3.535Y-2.9721
X3.5968Y-1.1417
X3.635Y-2.3721
X3.635Y-2.9721
X3.6968Y-1.1417
X3.735Y-2.3721
X3.735Y-2.9721
X3.7968Y-1.1417
X3.835Y-2.3721
X3.835Y-2.9721
X3.935Y-2.3721
X3.935Y-2.9721
X4.035Y-2.3721
X4.035Y-2.9721
X4.304Y-3.662
X4.304Y-3.763
X4.304Y-3.863
X4.304Y-3.963
X4.304Y-4.063
X4.304Y-4.163
X4.304Y-4.263
X4.3778Y-1.0433
X4.3778Y-1.1433
X4.3778Y-1.2433
X4.3778Y-1.3433
X4.3778Y-1.4433
X4.3778Y-1.5433
X4.5108Y-2.5572
X4.5108Y-2.6572
X4.5108Y-2.7572
X4.5108Y-2.8572
T3
X1.418Y-3.1594
X1.423Y-2.182
X1.423Y-2.377
X1.423Y-2.977
X1.518Y-3.1594
X1.523Y-2.182
X1.523Y-2.377
X1.523Y-2.977
X1.618Y-3.1594
X1.623Y-2.182
X1.623Y-2.377
X1.623Y-2.977
X1.718Y-3.1594
X1.723Y-2.182
X1.723Y-2.377
X1.723Y-2.977
X1.818Y-3.1594
X1.823Y-2.182
X1.823Y-2.377
X1.823Y-2.977
X1.918Y-3.1594
X1.923Y-2.182
X1.923Y-2.377
X1.923Y-2.977
X2.018Y-3.1594
X2.023Y-2.182
X2.023Y-2.377
X2.023Y-2.977
X2.0387Y-3.828
X2.118Y-3.1594
X2.123Y-2.182
X2.123Y-2.377
X2.123Y-2.977
X2.218Y-3.1594
X2.223Y-2.182
X2.223Y-2.377
X2.223Y-2.977
X2.318Y-3.1594
X2.323Y-2.182
X2.323Y-2.377
X2.323Y-2.977
X2.3379Y-3.828
X2.418Y-3.1594
X2.423Y-2.182
X2.423Y-2.377
X2.423Y-2.977
X2.518Y-3.1594
X2.523Y-2.182
X2.523Y-2.377
X2.523Y-2.977
X2.618Y-3.1594
X2.623Y-2.182
X2.623Y-2.377
X2.623Y-2.977
X2.718Y-3.1594
X2.723Y-2.182
X2.723Y-2.377
X2.723Y-2.977
X2.818Y-3.1594
X2.823Y-2.182
X2.823Y-2.377
X2.823Y-2.977
T4
X1.2856Y-3.6857
X1.2856Y-3.9416
X1.4628Y-3.6857
X1.4628Y-3.9416
T5
X1.722Y-1.77
X1.722Y-1.97
X3.129Y-2.9811
X3.132Y-2.3811
X3.329Y-2.9811
X3.332Y-2.3811
M30
