%TF.GenerationSoftware,KiCad,Pcbnew,9.0.2*%
%TF.CreationDate,2025-06-10T12:02:56+02:00*%
%TF.ProjectId,FrenGP_robot,4672656e-4750-45f7-926f-626f742e6b69,rev?*%
%TF.SameCoordinates,Original*%
%TF.FileFunction,Copper,L2,Bot*%
%TF.FilePolarity,Positive*%
%FSLAX46Y46*%
G04 Gerber Fmt 4.6, Leading zero omitted, Abs format (unit mm)*
G04 Created by KiCad (PCBNEW 9.0.2) date 2025-06-10 12:02:56*
%MOMM*%
%LPD*%
G01*
G04 APERTURE LIST*
%TA.AperFunction,ComponentPad*%
%ADD10O,1.600000X1.600000*%
%TD*%
%TA.AperFunction,ComponentPad*%
%ADD11C,2.000000*%
%TD*%
%TA.AperFunction,ComponentPad*%
%ADD12R,1.600000X1.600000*%
%TD*%
%TA.AperFunction,ComponentPad*%
%ADD13R,3.000000X3.000000*%
%TD*%
%TA.AperFunction,ComponentPad*%
%ADD14C,3.000000*%
%TD*%
%TA.AperFunction,ComponentPad*%
%ADD15R,2.000000X2.000000*%
%TD*%
%TA.AperFunction,ViaPad*%
%ADD16C,0.600000*%
%TD*%
%TA.AperFunction,Conductor*%
%ADD17C,0.500000*%
%TD*%
G04 APERTURE END LIST*
D10*
%TO.P,U3,1,State*%
%TO.N,unconnected-(U3-State-Pad1)*%
X111196000Y-39199000D03*
%TO.P,U3,2,Rx*%
%TO.N,Net-(U3-Rx)*%
X111196000Y-36659000D03*
%TO.P,U3,3,Tx*%
%TO.N,Ard_Rx*%
X111196000Y-34119000D03*
%TO.P,U3,4,GND*%
%TO.N,GND*%
X111196000Y-31579000D03*
%TO.P,U3,5,Vcc*%
%TO.N,+5V_bat*%
X111196000Y-29039000D03*
%TO.P,U3,6,En*%
%TO.N,unconnected-(U3-En-Pad6)*%
X111196000Y-26499000D03*
%TD*%
D11*
%TO.P,SW1,1,1*%
%TO.N,GND*%
X32654700Y-100117800D03*
X32654700Y-93617800D03*
%TO.P,SW1,2,2*%
%TO.N,Net-(A1-D2)*%
X37154700Y-100117800D03*
X37154700Y-93617800D03*
%TD*%
D12*
%TO.P,U5,1,Vcc*%
%TO.N,+5V_MCU*%
X114574700Y-72573800D03*
D10*
%TO.P,U5,2,Trig*%
%TO.N,Trig*%
X114574700Y-70033800D03*
%TO.P,U5,3,Echo*%
%TO.N,Echo*%
X114574700Y-67493800D03*
%TO.P,U5,4,GND*%
%TO.N,GND*%
X114574700Y-64953800D03*
%TD*%
D12*
%TO.P,U4,1,Gnd*%
%TO.N,GND*%
X88817900Y-29000000D03*
D10*
%TO.P,U4,2,Vdd*%
%TO.N,+5V_MCU*%
X91357900Y-29000000D03*
%TO.P,U4,3,SCK*%
%TO.N,SCL*%
X93897900Y-29000000D03*
%TO.P,U4,4,SDA*%
%TO.N,SDA*%
X96437900Y-29000000D03*
%TD*%
%TO.P,U1,1,Vcc*%
%TO.N,+5V_MCU*%
X109321600Y-108280200D03*
%TO.P,U1,2,IR1*%
%TO.N,IR1*%
X109321600Y-105740200D03*
%TO.P,U1,3,IR2*%
%TO.N,IR2*%
X109321600Y-103200200D03*
%TO.P,U1,4,IR3*%
%TO.N,IR3*%
X109321600Y-100660200D03*
%TO.P,U1,5,IR4*%
%TO.N,IR4*%
X109321600Y-98120200D03*
%TO.P,U1,6,IR5*%
%TO.N,IR5*%
X109321600Y-95580200D03*
%TO.P,U1,7,GND*%
%TO.N,GND*%
X109321600Y-93014200D03*
%TD*%
D12*
%TO.P,A1,1,D1/TX*%
%TO.N,Ard_Tx*%
X71704700Y-55422800D03*
X71704700Y-60375800D03*
D10*
%TO.P,A1,2,D0/RX*%
%TO.N,Ard_Rx*%
X69164700Y-55422800D03*
X69164700Y-60375800D03*
%TO.P,A1,3,~{RESET}*%
%TO.N,unconnected-(A1-~{RESET}-Pad3)*%
X66624700Y-55422800D03*
X66624700Y-60375800D03*
%TO.P,A1,4,GND*%
%TO.N,GND*%
X64084700Y-55422800D03*
X64084700Y-60375800D03*
%TO.P,A1,5,D2*%
%TO.N,Net-(A1-D2)*%
X61544700Y-55422800D03*
X61544700Y-60375800D03*
%TO.P,A1,6,D3*%
%TO.N,AIN1*%
X59004700Y-55422800D03*
X59004700Y-60375800D03*
%TO.P,A1,7,D4*%
%TO.N,Buzzer*%
X56464700Y-55422800D03*
X56464700Y-60375800D03*
%TO.P,A1,8,D5*%
%TO.N,Blinker_L*%
X53924700Y-55422800D03*
X53924700Y-60375800D03*
%TO.P,A1,9,D6*%
%TO.N,Blinker_R*%
X51384700Y-55422800D03*
X51384700Y-60375800D03*
%TO.P,A1,10,D7*%
%TO.N,Trig*%
X48844700Y-55422800D03*
X48844700Y-60375800D03*
%TO.P,A1,11,D8*%
%TO.N,Echo*%
X46304700Y-55422800D03*
X46304700Y-60375800D03*
%TO.P,A1,12,D9*%
%TO.N,AIN2*%
X43764700Y-55422800D03*
X43764700Y-60375800D03*
%TO.P,A1,13,D10*%
%TO.N,BIN1*%
X41224700Y-55422800D03*
X41224700Y-60375800D03*
%TO.P,A1,14,D11*%
%TO.N,BIN2*%
X38684700Y-55422800D03*
X38684700Y-60375800D03*
%TO.P,A1,15,D12*%
%TO.N,unconnected-(A1-D12-Pad15)*%
X36144700Y-55422800D03*
X36144700Y-60375800D03*
%TO.P,A1,16,D13*%
%TO.N,unconnected-(A1-D13-Pad16)*%
X36144700Y-75615800D03*
X36017700Y-80249800D03*
%TO.P,A1,17,3V3*%
%TO.N,unconnected-(A1-3V3-Pad17)*%
X38684700Y-75615800D03*
X38557700Y-80249800D03*
%TO.P,A1,18,AREF*%
%TO.N,unconnected-(A1-AREF-Pad18)*%
X41224700Y-75615800D03*
X41097700Y-80249800D03*
%TO.P,A1,19,A0*%
%TO.N,IR1*%
X43764700Y-75615800D03*
X43637700Y-80249800D03*
%TO.P,A1,20,A1*%
%TO.N,IR2*%
X46304700Y-75615800D03*
X46177700Y-80249800D03*
%TO.P,A1,21,A2*%
%TO.N,IR3*%
X48844700Y-75615800D03*
X48717700Y-80249800D03*
%TO.P,A1,22,A3*%
%TO.N,IR4*%
X51384700Y-75615800D03*
X51257700Y-80249800D03*
%TO.P,A1,23,A4*%
%TO.N,SDA*%
X53924700Y-75615800D03*
X53797700Y-80249800D03*
%TO.P,A1,24,A5*%
%TO.N,SCL*%
X56464700Y-75615800D03*
X56337700Y-80249800D03*
%TO.P,A1,25,A6*%
%TO.N,IR5*%
X59004700Y-75615800D03*
X58877700Y-80249800D03*
%TO.P,A1,26,A7*%
%TO.N,unconnected-(A1-A7-Pad26)*%
X61544700Y-75615800D03*
X61417700Y-80249800D03*
%TO.P,A1,27,+5V*%
%TO.N,+5V_MCU*%
X64084700Y-75615800D03*
X63957700Y-80249800D03*
%TO.P,A1,28,~{RESET}*%
%TO.N,unconnected-(A1-~{RESET}-Pad28)*%
X66624700Y-75615800D03*
X66497700Y-80249800D03*
%TO.P,A1,29,GND*%
%TO.N,GND*%
X69164700Y-75615800D03*
X69037700Y-80249800D03*
%TO.P,A1,30,VIN*%
%TO.N,unconnected-(A1-VIN-Pad30)*%
X71704700Y-75615800D03*
X71577700Y-80249800D03*
%TD*%
D12*
%TO.P,U2,1,Sleep*%
%TO.N,unconnected-(U2-Sleep-Pad1)*%
X102489000Y-60252000D03*
D10*
%TO.P,U2,2,OUT1*%
%TO.N,Net-(U2-OUT1)*%
X99949000Y-60252000D03*
%TO.P,U2,3,OUT2*%
%TO.N,Net-(J2-Pin_2)*%
X97409000Y-60252000D03*
%TO.P,U2,4,OUT3*%
%TO.N,Net-(U2-OUT3)*%
X94869000Y-60252000D03*
%TO.P,U2,5,OUT4*%
%TO.N,Net-(J3-Pin_2)*%
X92329000Y-60252000D03*
%TO.P,U2,6,Fault*%
%TO.N,unconnected-(U2-Fault-Pad6)*%
X89789000Y-60252000D03*
%TO.P,U2,7,IN1*%
%TO.N,AIN1*%
X89789000Y-75492000D03*
%TO.P,U2,8,IN2*%
%TO.N,AIN2*%
X92329000Y-75492000D03*
%TO.P,U2,9,Vcc*%
%TO.N,+5V_bat*%
X94869000Y-75492000D03*
%TO.P,U2,10,GND*%
%TO.N,GND*%
X97409000Y-75492000D03*
%TO.P,U2,11,IN3*%
%TO.N,BIN1*%
X99949000Y-75492000D03*
%TO.P,U2,12,IN4*%
%TO.N,BIN2*%
X102489000Y-75492000D03*
%TD*%
D13*
%TO.P,J1,1,Pin_1*%
%TO.N,GND*%
X43738800Y-50038000D03*
D14*
%TO.P,J1,2,Pin_2*%
%TO.N,+5V_bat*%
X43738800Y-44958000D03*
%TD*%
D15*
%TO.P,BZ1,1,+*%
%TO.N,Buzzer*%
X51782016Y-97231200D03*
D11*
%TO.P,BZ1,2,-*%
%TO.N,GND*%
X59382016Y-97231200D03*
%TD*%
D13*
%TO.P,J2,1,Pin_1*%
%TO.N,Net-(J2-Pin_1)*%
X79476600Y-75720600D03*
D14*
%TO.P,J2,2,Pin_2*%
%TO.N,Net-(J2-Pin_2)*%
X84556600Y-75720600D03*
%TD*%
D13*
%TO.P,J3,1,Pin_1*%
%TO.N,Net-(J3-Pin_1)*%
X79552800Y-60480600D03*
D14*
%TO.P,J3,2,Pin_2*%
%TO.N,Net-(J3-Pin_2)*%
X84632800Y-60480600D03*
%TD*%
D16*
%TO.N,BIN2*%
X108356400Y-65887600D03*
%TO.N,GND*%
X64160400Y-69799200D03*
X110490000Y-62230000D03*
X99364800Y-64770000D03*
X71475600Y-63398400D03*
X88722200Y-79324200D03*
X92456000Y-78359000D03*
X57124600Y-84201000D03*
X106426000Y-37236400D03*
X100965000Y-34290000D03*
X60350400Y-62763400D03*
X46355000Y-26670000D03*
X99060000Y-51435000D03*
X109220000Y-73025000D03*
X84023200Y-63754000D03*
X103200200Y-71018400D03*
X79375000Y-35560000D03*
X64135000Y-52705000D03*
X106680000Y-33655000D03*
X89966800Y-62763400D03*
X100330000Y-78105000D03*
X106045000Y-51435000D03*
X57734200Y-82346800D03*
X109855000Y-62865000D03*
X102235000Y-78105000D03*
X64135000Y-53340000D03*
X69850000Y-78105000D03*
X83820000Y-35560000D03*
X92405200Y-73253600D03*
X102717600Y-72821800D03*
X109855000Y-61595000D03*
X113665000Y-34290000D03*
X50901600Y-64744600D03*
X84378800Y-85674200D03*
X113665000Y-32385000D03*
X60325000Y-64160400D03*
X115570000Y-33020000D03*
X66852800Y-69748400D03*
X79375000Y-38100000D03*
X81280000Y-38100000D03*
X98425000Y-78105000D03*
X102870000Y-48895000D03*
X99695000Y-34290000D03*
X111125000Y-62865000D03*
X106045000Y-48895000D03*
X71755000Y-70485000D03*
X83820000Y-38100000D03*
X57734200Y-62560200D03*
X57785000Y-26670000D03*
X68580000Y-78105000D03*
X103505000Y-78105000D03*
X107950000Y-73025000D03*
X84378800Y-84404200D03*
X99060000Y-48895000D03*
X49555400Y-52197000D03*
X53467000Y-66903600D03*
X81280000Y-35560000D03*
X102463600Y-27381200D03*
X57683400Y-63576200D03*
X98044000Y-69367400D03*
X84433224Y-83134200D03*
X79933800Y-69545200D03*
X115570000Y-34290000D03*
X98196400Y-64770000D03*
X111125000Y-61595000D03*
X67106800Y-63322200D03*
X63550800Y-62179200D03*
X99695000Y-32385000D03*
X105054400Y-36499800D03*
X52070000Y-26670000D03*
X52730400Y-52197000D03*
X68986400Y-63373000D03*
X105410000Y-27381200D03*
X105503438Y-33306909D03*
X56311800Y-82296000D03*
X102870000Y-51435000D03*
X80848200Y-63754000D03*
X93141800Y-62763400D03*
X83108800Y-69545200D03*
%TO.N,SCL*%
X66167000Y-50850800D03*
X66891600Y-37353200D03*
%TO.N,AIN1*%
X56692800Y-69240400D03*
%TO.N,AIN2*%
X56022769Y-70094369D03*
%TO.N,Blinker_L*%
X100863400Y-29184600D03*
%TO.N,Ard_Rx*%
X107848400Y-43408600D03*
%TO.N,Blinker_R*%
X119532400Y-98552000D03*
%TO.N,Ard_Tx*%
X107746800Y-44551600D03*
%TO.N,Buzzer*%
X55219600Y-69277800D03*
%TO.N,SDA*%
X66141600Y-38100000D03*
X65328800Y-49530000D03*
%TD*%
D17*
%TO.N,BIN2*%
X57791918Y-66050200D02*
X52635700Y-60893982D01*
X52635700Y-59857618D02*
X51902882Y-59124800D01*
X51902882Y-59124800D02*
X39935700Y-59124800D01*
X106492000Y-66050200D02*
X57791918Y-66050200D01*
X106654600Y-65887600D02*
X106492000Y-66050200D01*
X52635700Y-60893982D02*
X52635700Y-59857618D01*
X39935700Y-59124800D02*
X38684700Y-60375800D01*
X108356400Y-65887600D02*
X106654600Y-65887600D01*
%TO.N,SCL*%
X66891600Y-37353200D02*
X66934361Y-37395961D01*
X66891600Y-37353200D02*
X66891600Y-48958564D01*
X66167000Y-49683164D02*
X66167000Y-50850800D01*
X66842600Y-49007564D02*
X66167000Y-49683164D01*
%TO.N,AIN1*%
X60187036Y-71973400D02*
X57454036Y-69240400D01*
X89789000Y-75492000D02*
X86270400Y-71973400D01*
X86270400Y-71973400D02*
X60187036Y-71973400D01*
X57454036Y-69240400D02*
X56692800Y-69240400D01*
%TO.N,AIN2*%
X90149400Y-77671600D02*
X77525600Y-77671600D01*
X77525600Y-77671600D02*
X77525600Y-76103200D01*
X57316641Y-70094369D02*
X56022769Y-70094369D01*
X92329000Y-75492000D02*
X90149400Y-77671600D01*
X59896672Y-72674400D02*
X57316641Y-70094369D01*
X74096800Y-72674400D02*
X59896672Y-72674400D01*
X77525600Y-76103200D02*
X74096800Y-72674400D01*
%TO.N,BIN1*%
X99949000Y-75492000D02*
X95729400Y-71272400D01*
X57581800Y-68376800D02*
X57123836Y-68376800D01*
X42494700Y-61645800D02*
X41224700Y-60375800D01*
X95729400Y-71272400D02*
X60477400Y-71272400D01*
X46482000Y-61620400D02*
X46456600Y-61645800D01*
X51775836Y-63028800D02*
X47890400Y-63028800D01*
X57123836Y-68376800D02*
X51775836Y-63028800D01*
X60477400Y-71272400D02*
X57581800Y-68376800D01*
X47890400Y-63028800D02*
X46482000Y-61620400D01*
X46456600Y-61645800D02*
X42494700Y-61645800D01*
%TO.N,Echo*%
X48256700Y-62327800D02*
X46304700Y-60375800D01*
X52066200Y-62327800D02*
X48256700Y-62327800D01*
X114574700Y-67493800D02*
X57232200Y-67493800D01*
X57232200Y-67493800D02*
X52066200Y-62327800D01*
%TO.N,Trig*%
X114574700Y-70033800D02*
X115825700Y-68782800D01*
X50095700Y-61626800D02*
X48844700Y-60375800D01*
X113548118Y-66751200D02*
X57501554Y-66751200D01*
X115825700Y-66975618D02*
X115092882Y-66242800D01*
X115092882Y-66242800D02*
X114056518Y-66242800D01*
X52377154Y-61626800D02*
X50095700Y-61626800D01*
X114056518Y-66242800D02*
X113548118Y-66751200D01*
X115825700Y-68782800D02*
X115825700Y-66975618D01*
X57501554Y-66751200D02*
X52377154Y-61626800D01*
%TO.N,Blinker_L*%
X76352400Y-26695400D02*
X65379600Y-37668200D01*
X65379600Y-37668200D02*
X65379600Y-38252400D01*
X100863400Y-29184600D02*
X98374200Y-26695400D01*
X65379600Y-47218600D02*
X59359800Y-53238400D01*
X59359800Y-53238400D02*
X54940200Y-53238400D01*
X98374200Y-26695400D02*
X76352400Y-26695400D01*
X53924700Y-54253900D02*
X53924700Y-55422800D01*
X65379600Y-38252400D02*
X65379600Y-47218600D01*
X54940200Y-53238400D02*
X53924700Y-54253900D01*
%TO.N,Ard_Rx*%
X107848400Y-43408600D02*
X81178900Y-43408600D01*
X81178900Y-43408600D02*
X69164700Y-55422800D01*
%TO.N,Blinker_R*%
X54026300Y-58064400D02*
X116255800Y-58064400D01*
X116255800Y-58064400D02*
X119532400Y-61341000D01*
X51384700Y-55422800D02*
X54026300Y-58064400D01*
X119532400Y-61341000D02*
X119532400Y-98552000D01*
%TO.N,Ard_Tx*%
X71704700Y-54990500D02*
X71704700Y-55422800D01*
X82143600Y-44551600D02*
X71704700Y-54990500D01*
X107746800Y-44551600D02*
X82143600Y-44551600D01*
%TO.N,Buzzer*%
X51782016Y-97231200D02*
X55086700Y-93926516D01*
X55213700Y-69283700D02*
X55219600Y-69277800D01*
X55086700Y-76260982D02*
X55213700Y-76133982D01*
X55086700Y-93926516D02*
X55086700Y-76260982D01*
X55213700Y-76133982D02*
X55213700Y-69932100D01*
X55213700Y-69932100D02*
X55213700Y-69283700D01*
%TO.N,SDA*%
X66141600Y-48717200D02*
X65328800Y-49530000D01*
X66141600Y-38100000D02*
X66141600Y-48717200D01*
%TD*%
%TA.AperFunction,Conductor*%
%TO.N,GND*%
G36*
X95434209Y-72042585D02*
G01*
X95454851Y-72059219D01*
X97011767Y-73616135D01*
X97622681Y-74227048D01*
X97656166Y-74288371D01*
X97659000Y-74314729D01*
X97659000Y-75176314D01*
X97654606Y-75171920D01*
X97563394Y-75119259D01*
X97461661Y-75092000D01*
X97356339Y-75092000D01*
X97254606Y-75119259D01*
X97163394Y-75171920D01*
X97159000Y-75176314D01*
X97159000Y-74215390D01*
X97104586Y-74224009D01*
X96909970Y-74287244D01*
X96727650Y-74380140D01*
X96562105Y-74500417D01*
X96562104Y-74500417D01*
X96417417Y-74645104D01*
X96417417Y-74645105D01*
X96297140Y-74810650D01*
X96249765Y-74903629D01*
X96201790Y-74954425D01*
X96133969Y-74971220D01*
X96067834Y-74948682D01*
X96028795Y-74903629D01*
X96010905Y-74868518D01*
X95981287Y-74810390D01*
X95950915Y-74768586D01*
X95860971Y-74644786D01*
X95716213Y-74500028D01*
X95550613Y-74379715D01*
X95550612Y-74379714D01*
X95550610Y-74379713D01*
X95487039Y-74347322D01*
X95368223Y-74286781D01*
X95173534Y-74223522D01*
X94998995Y-74195878D01*
X94971352Y-74191500D01*
X94766648Y-74191500D01*
X94742329Y-74195351D01*
X94564465Y-74223522D01*
X94369776Y-74286781D01*
X94187386Y-74379715D01*
X94021786Y-74500028D01*
X93877028Y-74644786D01*
X93756715Y-74810386D01*
X93709485Y-74903080D01*
X93661510Y-74953876D01*
X93593689Y-74970671D01*
X93527554Y-74948134D01*
X93488515Y-74903080D01*
X93487883Y-74901840D01*
X93441287Y-74810390D01*
X93410915Y-74768586D01*
X93320971Y-74644786D01*
X93176213Y-74500028D01*
X93010613Y-74379715D01*
X93010612Y-74379714D01*
X93010610Y-74379713D01*
X92947039Y-74347322D01*
X92828223Y-74286781D01*
X92633534Y-74223522D01*
X92458995Y-74195878D01*
X92431352Y-74191500D01*
X92226648Y-74191500D01*
X92202329Y-74195351D01*
X92024465Y-74223522D01*
X91829776Y-74286781D01*
X91647386Y-74379715D01*
X91481786Y-74500028D01*
X91337028Y-74644786D01*
X91216715Y-74810386D01*
X91169485Y-74903080D01*
X91121510Y-74953876D01*
X91053689Y-74970671D01*
X90987554Y-74948134D01*
X90948515Y-74903080D01*
X90947883Y-74901840D01*
X90901287Y-74810390D01*
X90870915Y-74768586D01*
X90780971Y-74644786D01*
X90636213Y-74500028D01*
X90470613Y-74379715D01*
X90470612Y-74379714D01*
X90470610Y-74379713D01*
X90407039Y-74347322D01*
X90288223Y-74286781D01*
X90093534Y-74223522D01*
X89918995Y-74195878D01*
X89891352Y-74191500D01*
X89686648Y-74191500D01*
X89630972Y-74200318D01*
X89561679Y-74191363D01*
X89523894Y-74165526D01*
X87592949Y-72234581D01*
X87559464Y-72173258D01*
X87564448Y-72103566D01*
X87606320Y-72047633D01*
X87671784Y-72023216D01*
X87680630Y-72022900D01*
X95367170Y-72022900D01*
X95434209Y-72042585D01*
G37*
%TD.AperFunction*%
%TA.AperFunction,Conductor*%
G36*
X124442539Y-23520185D02*
G01*
X124488294Y-23572989D01*
X124499500Y-23624500D01*
X124499500Y-112375500D01*
X124479815Y-112442539D01*
X124427011Y-112488294D01*
X124375500Y-112499500D01*
X25624500Y-112499500D01*
X25557461Y-112479815D01*
X25511706Y-112427011D01*
X25500500Y-112375500D01*
X25500500Y-107868872D01*
X27999500Y-107868872D01*
X27999500Y-108131127D01*
X28020436Y-108290140D01*
X28033730Y-108391116D01*
X28055178Y-108471161D01*
X28101602Y-108644418D01*
X28101605Y-108644428D01*
X28201953Y-108886690D01*
X28201958Y-108886700D01*
X28333075Y-109113803D01*
X28492718Y-109321851D01*
X28492726Y-109321860D01*
X28678140Y-109507274D01*
X28678148Y-109507281D01*
X28886196Y-109666924D01*
X29113299Y-109798041D01*
X29113309Y-109798046D01*
X29355571Y-109898394D01*
X29355581Y-109898398D01*
X29608884Y-109966270D01*
X29868880Y-110000500D01*
X29868887Y-110000500D01*
X30131113Y-110000500D01*
X30131120Y-110000500D01*
X30391116Y-109966270D01*
X30644419Y-109898398D01*
X30886697Y-109798043D01*
X31113803Y-109666924D01*
X31321851Y-109507282D01*
X31321855Y-109507277D01*
X31321860Y-109507274D01*
X31507274Y-109321860D01*
X31507277Y-109321855D01*
X31507282Y-109321851D01*
X31666924Y-109113803D01*
X31798043Y-108886697D01*
X31898398Y-108644419D01*
X31966270Y-108391116D01*
X32000500Y-108131120D01*
X32000500Y-107868880D01*
X32000499Y-107868872D01*
X42999500Y-107868872D01*
X42999500Y-108131127D01*
X43020436Y-108290140D01*
X43033730Y-108391116D01*
X43055178Y-108471161D01*
X43101602Y-108644418D01*
X43101605Y-108644428D01*
X43201953Y-108886690D01*
X43201958Y-108886700D01*
X43333075Y-109113803D01*
X43492718Y-109321851D01*
X43492726Y-109321860D01*
X43678140Y-109507274D01*
X43678148Y-109507281D01*
X43886196Y-109666924D01*
X44113299Y-109798041D01*
X44113309Y-109798046D01*
X44355571Y-109898394D01*
X44355581Y-109898398D01*
X44608884Y-109966270D01*
X44868880Y-110000500D01*
X44868887Y-110000500D01*
X45131113Y-110000500D01*
X45131120Y-110000500D01*
X45391116Y-109966270D01*
X45644419Y-109898398D01*
X45886697Y-109798043D01*
X46113803Y-109666924D01*
X46321851Y-109507282D01*
X46321855Y-109507277D01*
X46321860Y-109507274D01*
X46507274Y-109321860D01*
X46507277Y-109321855D01*
X46507282Y-109321851D01*
X46666924Y-109113803D01*
X46798043Y-108886697D01*
X46898398Y-108644419D01*
X46966270Y-108391116D01*
X47000500Y-108131120D01*
X47000500Y-107868880D01*
X46966270Y-107608884D01*
X46898398Y-107355581D01*
X46870502Y-107288234D01*
X46798046Y-107113309D01*
X46798041Y-107113299D01*
X46666924Y-106886196D01*
X46507281Y-106678148D01*
X46507274Y-106678140D01*
X46321860Y-106492726D01*
X46321851Y-106492718D01*
X46113803Y-106333075D01*
X45886700Y-106201958D01*
X45886690Y-106201953D01*
X45644428Y-106101605D01*
X45644421Y-106101603D01*
X45644419Y-106101602D01*
X45391116Y-106033730D01*
X45333339Y-106026123D01*
X45131127Y-105999500D01*
X45131120Y-105999500D01*
X44868880Y-105999500D01*
X44868872Y-105999500D01*
X44637772Y-106029926D01*
X44608884Y-106033730D01*
X44355581Y-106101602D01*
X44355571Y-106101605D01*
X44113309Y-106201953D01*
X44113299Y-106201958D01*
X43886196Y-106333075D01*
X43678148Y-106492718D01*
X43492718Y-106678148D01*
X43333075Y-106886196D01*
X43201958Y-107113299D01*
X43201953Y-107113309D01*
X43101605Y-107355571D01*
X43101602Y-107355581D01*
X43036489Y-107598590D01*
X43033730Y-107608885D01*
X42999500Y-107868872D01*
X32000499Y-107868872D01*
X31966270Y-107608884D01*
X31898398Y-107355581D01*
X31870502Y-107288234D01*
X31798046Y-107113309D01*
X31798041Y-107113299D01*
X31666924Y-106886196D01*
X31507281Y-106678148D01*
X31507274Y-106678140D01*
X31321860Y-106492726D01*
X31321851Y-106492718D01*
X31113803Y-106333075D01*
X30886700Y-106201958D01*
X30886690Y-106201953D01*
X30644428Y-106101605D01*
X30644421Y-106101603D01*
X30644419Y-106101602D01*
X30391116Y-106033730D01*
X30333339Y-106026123D01*
X30131127Y-105999500D01*
X30131120Y-105999500D01*
X29868880Y-105999500D01*
X29868872Y-105999500D01*
X29637772Y-106029926D01*
X29608884Y-106033730D01*
X29355581Y-106101602D01*
X29355571Y-106101605D01*
X29113309Y-106201953D01*
X29113299Y-106201958D01*
X28886196Y-106333075D01*
X28678148Y-106492718D01*
X28492718Y-106678148D01*
X28333075Y-106886196D01*
X28201958Y-107113299D01*
X28201953Y-107113309D01*
X28101605Y-107355571D01*
X28101602Y-107355581D01*
X28036489Y-107598590D01*
X28033730Y-107608885D01*
X27999500Y-107868872D01*
X25500500Y-107868872D01*
X25500500Y-99999747D01*
X31154700Y-99999747D01*
X31154700Y-100235852D01*
X31191634Y-100469047D01*
X31264597Y-100693602D01*
X31371787Y-100903974D01*
X31432038Y-100986904D01*
X31432040Y-100986905D01*
X32130912Y-100288033D01*
X32142182Y-100330092D01*
X32214590Y-100455508D01*
X32316992Y-100557910D01*
X32442408Y-100630318D01*
X32484465Y-100641587D01*
X31785593Y-101340458D01*
X31868528Y-101400714D01*
X32078897Y-101507902D01*
X32303452Y-101580865D01*
X32303451Y-101580865D01*
X32536648Y-101617800D01*
X32772752Y-101617800D01*
X33005947Y-101580865D01*
X33230502Y-101507902D01*
X33440863Y-101400718D01*
X33440869Y-101400714D01*
X33523804Y-101340458D01*
X33523805Y-101340458D01*
X32824933Y-100641587D01*
X32866992Y-100630318D01*
X32992408Y-100557910D01*
X33094810Y-100455508D01*
X33167218Y-100330092D01*
X33178487Y-100288034D01*
X33877358Y-100986905D01*
X33877358Y-100986904D01*
X33937614Y-100903969D01*
X33937618Y-100903963D01*
X34044802Y-100693602D01*
X34117765Y-100469047D01*
X34154700Y-100235852D01*
X34154700Y-99999747D01*
X34154693Y-99999702D01*
X35654200Y-99999702D01*
X35654200Y-100235897D01*
X35691146Y-100469168D01*
X35764133Y-100693796D01*
X35871219Y-100903963D01*
X35871357Y-100904233D01*
X36010183Y-101095310D01*
X36177190Y-101262317D01*
X36368267Y-101401143D01*
X36467691Y-101451802D01*
X36578703Y-101508366D01*
X36578705Y-101508366D01*
X36578708Y-101508368D01*
X36699112Y-101547489D01*
X36803331Y-101581353D01*
X37036603Y-101618300D01*
X37036608Y-101618300D01*
X37272797Y-101618300D01*
X37506068Y-101581353D01*
X37507570Y-101580865D01*
X37730692Y-101508368D01*
X37941133Y-101401143D01*
X38132210Y-101262317D01*
X38299217Y-101095310D01*
X38438043Y-100904233D01*
X38545268Y-100693792D01*
X38618253Y-100469168D01*
X38636230Y-100355665D01*
X38655200Y-100235897D01*
X38655200Y-99999702D01*
X38618253Y-99766431D01*
X38547252Y-99547915D01*
X38545268Y-99541808D01*
X38545266Y-99541805D01*
X38545266Y-99541803D01*
X38465314Y-99384890D01*
X38438043Y-99331367D01*
X38299217Y-99140290D01*
X38132210Y-98973283D01*
X37941133Y-98834457D01*
X37877060Y-98801810D01*
X37730696Y-98727233D01*
X37506068Y-98654246D01*
X37272797Y-98617300D01*
X37272792Y-98617300D01*
X37036608Y-98617300D01*
X37036603Y-98617300D01*
X36803331Y-98654246D01*
X36578703Y-98727233D01*
X36368266Y-98834457D01*
X36284747Y-98895138D01*
X36177190Y-98973283D01*
X36177188Y-98973285D01*
X36177187Y-98973285D01*
X36010185Y-99140287D01*
X36010185Y-99140288D01*
X36010183Y-99140290D01*
X35950562Y-99222350D01*
X35871357Y-99331366D01*
X35764133Y-99541803D01*
X35691146Y-99766431D01*
X35654200Y-99999702D01*
X34154693Y-99999702D01*
X34117765Y-99766552D01*
X34044802Y-99541997D01*
X33937614Y-99331628D01*
X33877358Y-99248694D01*
X33877358Y-99248693D01*
X33178487Y-99947565D01*
X33167218Y-99905508D01*
X33094810Y-99780092D01*
X32992408Y-99677690D01*
X32866992Y-99605282D01*
X32824934Y-99594012D01*
X33523805Y-98895140D01*
X33523804Y-98895138D01*
X33440874Y-98834887D01*
X33230502Y-98727697D01*
X33005947Y-98654734D01*
X33005948Y-98654734D01*
X32772752Y-98617800D01*
X32536648Y-98617800D01*
X32303452Y-98654734D01*
X32078897Y-98727697D01*
X31868530Y-98834884D01*
X31785594Y-98895140D01*
X32484466Y-99594012D01*
X32442408Y-99605282D01*
X32316992Y-99677690D01*
X32214590Y-99780092D01*
X32142182Y-99905508D01*
X32130912Y-99947566D01*
X31432040Y-99248694D01*
X31371784Y-99331630D01*
X31264597Y-99541997D01*
X31191634Y-99766552D01*
X31154700Y-99999747D01*
X25500500Y-99999747D01*
X25500500Y-93499747D01*
X31154700Y-93499747D01*
X31154700Y-93735852D01*
X31191634Y-93969047D01*
X31264597Y-94193602D01*
X31371787Y-94403974D01*
X31432038Y-94486904D01*
X31432040Y-94486905D01*
X32130912Y-93788033D01*
X32142182Y-93830092D01*
X32214590Y-93955508D01*
X32316992Y-94057910D01*
X32442408Y-94130318D01*
X32484465Y-94141587D01*
X31785593Y-94840458D01*
X31868528Y-94900714D01*
X32078897Y-95007902D01*
X32303452Y-95080865D01*
X32303451Y-95080865D01*
X32536648Y-95117800D01*
X32772752Y-95117800D01*
X33005947Y-95080865D01*
X33230502Y-95007902D01*
X33440863Y-94900718D01*
X33440869Y-94900714D01*
X33523804Y-94840458D01*
X33523805Y-94840458D01*
X32824933Y-94141587D01*
X32866992Y-94130318D01*
X32992408Y-94057910D01*
X33094810Y-93955508D01*
X33167218Y-93830092D01*
X33178487Y-93788034D01*
X33877358Y-94486905D01*
X33877358Y-94486904D01*
X33937614Y-94403969D01*
X33937618Y-94403963D01*
X34044802Y-94193602D01*
X34117765Y-93969047D01*
X34154700Y-93735852D01*
X34154700Y-93499747D01*
X34154693Y-93499702D01*
X35654200Y-93499702D01*
X35654200Y-93735897D01*
X35691146Y-93969168D01*
X35764133Y-94193796D01*
X35848528Y-94359429D01*
X35871357Y-94404233D01*
X36010183Y-94595310D01*
X36177190Y-94762317D01*
X36368267Y-94901143D01*
X36467691Y-94951802D01*
X36578703Y-95008366D01*
X36578705Y-95008366D01*
X36578708Y-95008368D01*
X36699112Y-95047489D01*
X36803331Y-95081353D01*
X37036603Y-95118300D01*
X37036608Y-95118300D01*
X37272797Y-95118300D01*
X37506068Y-95081353D01*
X37507570Y-95080865D01*
X37730692Y-95008368D01*
X37941133Y-94901143D01*
X38132210Y-94762317D01*
X38299217Y-94595310D01*
X38438043Y-94404233D01*
X38545268Y-94193792D01*
X38618253Y-93969168D01*
X38635370Y-93861094D01*
X38655200Y-93735897D01*
X38655200Y-93499702D01*
X38618253Y-93266431D01*
X38545266Y-93041803D01*
X38438177Y-92831630D01*
X38438043Y-92831367D01*
X38299217Y-92640290D01*
X38132210Y-92473283D01*
X37941133Y-92334457D01*
X37937979Y-92332850D01*
X37730696Y-92227233D01*
X37506068Y-92154246D01*
X37272797Y-92117300D01*
X37272792Y-92117300D01*
X37036608Y-92117300D01*
X37036603Y-92117300D01*
X36803331Y-92154246D01*
X36578703Y-92227233D01*
X36368266Y-92334457D01*
X36284747Y-92395138D01*
X36177190Y-92473283D01*
X36177188Y-92473285D01*
X36177187Y-92473285D01*
X36010185Y-92640287D01*
X36010185Y-92640288D01*
X36010183Y-92640290D01*
X36009334Y-92641459D01*
X35871357Y-92831366D01*
X35764133Y-93041803D01*
X35691146Y-93266431D01*
X35654200Y-93499702D01*
X34154693Y-93499702D01*
X34117765Y-93266552D01*
X34044802Y-93041997D01*
X33937614Y-92831628D01*
X33877358Y-92748694D01*
X33877358Y-92748693D01*
X33178487Y-93447565D01*
X33167218Y-93405508D01*
X33094810Y-93280092D01*
X32992408Y-93177690D01*
X32866992Y-93105282D01*
X32824934Y-93094012D01*
X33523805Y-92395140D01*
X33523804Y-92395138D01*
X33440874Y-92334887D01*
X33230502Y-92227697D01*
X33005947Y-92154734D01*
X33005948Y-92154734D01*
X32772752Y-92117800D01*
X32536648Y-92117800D01*
X32303452Y-92154734D01*
X32078897Y-92227697D01*
X31868530Y-92334884D01*
X31785594Y-92395140D01*
X32484466Y-93094012D01*
X32442408Y-93105282D01*
X32316992Y-93177690D01*
X32214590Y-93280092D01*
X32142182Y-93405508D01*
X32130912Y-93447566D01*
X31432040Y-92748694D01*
X31371784Y-92831630D01*
X31264597Y-93041997D01*
X31191634Y-93266552D01*
X31154700Y-93499747D01*
X25500500Y-93499747D01*
X25500500Y-87868872D01*
X27999500Y-87868872D01*
X27999500Y-88131127D01*
X28013943Y-88240825D01*
X28033730Y-88391116D01*
X28101602Y-88644418D01*
X28101605Y-88644428D01*
X28201953Y-88886690D01*
X28201958Y-88886700D01*
X28333075Y-89113803D01*
X28492718Y-89321851D01*
X28492726Y-89321860D01*
X28678140Y-89507274D01*
X28678148Y-89507281D01*
X28886196Y-89666924D01*
X29113299Y-89798041D01*
X29113309Y-89798046D01*
X29355571Y-89898394D01*
X29355581Y-89898398D01*
X29608884Y-89966270D01*
X29868880Y-90000500D01*
X29868887Y-90000500D01*
X30131113Y-90000500D01*
X30131120Y-90000500D01*
X30391116Y-89966270D01*
X30644419Y-89898398D01*
X30886697Y-89798043D01*
X31113803Y-89666924D01*
X31321851Y-89507282D01*
X31321855Y-89507277D01*
X31321860Y-89507274D01*
X31507274Y-89321860D01*
X31507277Y-89321855D01*
X31507282Y-89321851D01*
X31666924Y-89113803D01*
X31798043Y-88886697D01*
X31898398Y-88644419D01*
X31966270Y-88391116D01*
X32000500Y-88131120D01*
X32000500Y-87868880D01*
X31966270Y-87608884D01*
X31898398Y-87355581D01*
X31884427Y-87321851D01*
X31798046Y-87113309D01*
X31798041Y-87113299D01*
X31666924Y-86886196D01*
X31507281Y-86678148D01*
X31507274Y-86678140D01*
X31321860Y-86492726D01*
X31321851Y-86492718D01*
X31113803Y-86333075D01*
X30886700Y-86201958D01*
X30886690Y-86201953D01*
X30644428Y-86101605D01*
X30644421Y-86101603D01*
X30644419Y-86101602D01*
X30391116Y-86033730D01*
X30333339Y-86026123D01*
X30131127Y-85999500D01*
X30131120Y-85999500D01*
X29868880Y-85999500D01*
X29868872Y-85999500D01*
X29637772Y-86029926D01*
X29608884Y-86033730D01*
X29369143Y-86097968D01*
X29355581Y-86101602D01*
X29355571Y-86101605D01*
X29113309Y-86201953D01*
X29113299Y-86201958D01*
X28886196Y-86333075D01*
X28678148Y-86492718D01*
X28492718Y-86678148D01*
X28333075Y-86886196D01*
X28201958Y-87113299D01*
X28201953Y-87113309D01*
X28101605Y-87355571D01*
X28101602Y-87355581D01*
X28033730Y-87608885D01*
X27999500Y-87868872D01*
X25500500Y-87868872D01*
X25500500Y-80147448D01*
X34717200Y-80147448D01*
X34717200Y-80352151D01*
X34749222Y-80554334D01*
X34812481Y-80749023D01*
X34905415Y-80931413D01*
X35025728Y-81097013D01*
X35170486Y-81241771D01*
X35325449Y-81354356D01*
X35336090Y-81362087D01*
X35452307Y-81421303D01*
X35518476Y-81455018D01*
X35518478Y-81455018D01*
X35518481Y-81455020D01*
X35622837Y-81488927D01*
X35713165Y-81518277D01*
X35814257Y-81534288D01*
X35915348Y-81550300D01*
X35915349Y-81550300D01*
X36120051Y-81550300D01*
X36120052Y-81550300D01*
X36322234Y-81518277D01*
X36516919Y-81455020D01*
X36699310Y-81362087D01*
X36792290Y-81294532D01*
X36864913Y-81241771D01*
X36864915Y-81241768D01*
X36864919Y-81241766D01*
X37009666Y-81097019D01*
X37009668Y-81097015D01*
X37009671Y-81097013D01*
X37129984Y-80931414D01*
X37129986Y-80931411D01*
X37129987Y-80931410D01*
X37177216Y-80838717D01*
X37225189Y-80787923D01*
X37293010Y-80771128D01*
X37359145Y-80793665D01*
X37398185Y-80838719D01*
X37445415Y-80931414D01*
X37565728Y-81097013D01*
X37710486Y-81241771D01*
X37865449Y-81354356D01*
X37876090Y-81362087D01*
X37992307Y-81421303D01*
X38058476Y-81455018D01*
X38058478Y-81455018D01*
X38058481Y-81455020D01*
X38162837Y-81488927D01*
X38253165Y-81518277D01*
X38354257Y-81534288D01*
X38455348Y-81550300D01*
X38455349Y-81550300D01*
X38660051Y-81550300D01*
X38660052Y-81550300D01*
X38862234Y-81518277D01*
X39056919Y-81455020D01*
X39239310Y-81362087D01*
X39332290Y-81294532D01*
X39404913Y-81241771D01*
X39404915Y-81241768D01*
X39404919Y-81241766D01*
X39549666Y-81097019D01*
X39549668Y-81097015D01*
X39549671Y-81097013D01*
X39669984Y-80931414D01*
X39669986Y-80931411D01*
X39669987Y-80931410D01*
X39717216Y-80838717D01*
X39765189Y-80787923D01*
X39833010Y-80771128D01*
X39899145Y-80793665D01*
X39938185Y-80838719D01*
X39985415Y-80931414D01*
X40105728Y-81097013D01*
X40250486Y-81241771D01*
X40405449Y-81354356D01*
X40416090Y-81362087D01*
X40532307Y-81421303D01*
X40598476Y-81455018D01*
X40598478Y-81455018D01*
X40598481Y-81455020D01*
X40702837Y-81488927D01*
X40793165Y-81518277D01*
X40894257Y-81534288D01*
X40995348Y-81550300D01*
X40995349Y-81550300D01*
X41200051Y-81550300D01*
X41200052Y-81550300D01*
X41402234Y-81518277D01*
X41596919Y-81455020D01*
X41779310Y-81362087D01*
X41872290Y-81294532D01*
X41944913Y-81241771D01*
X41944915Y-81241768D01*
X41944919Y-81241766D01*
X42089666Y-81097019D01*
X42089668Y-81097015D01*
X42089671Y-81097013D01*
X42209984Y-80931414D01*
X42209986Y-80931411D01*
X42209987Y-80931410D01*
X42257216Y-80838717D01*
X42305189Y-80787923D01*
X42373010Y-80771128D01*
X42439145Y-80793665D01*
X42478185Y-80838719D01*
X42525415Y-80931414D01*
X42645728Y-81097013D01*
X42790486Y-81241771D01*
X42945449Y-81354356D01*
X42956090Y-81362087D01*
X43072307Y-81421303D01*
X43138476Y-81455018D01*
X43138478Y-81455018D01*
X43138481Y-81455020D01*
X43242837Y-81488927D01*
X43333165Y-81518277D01*
X43434257Y-81534288D01*
X43535348Y-81550300D01*
X43535349Y-81550300D01*
X43740051Y-81550300D01*
X43740052Y-81550300D01*
X43942234Y-81518277D01*
X44136919Y-81455020D01*
X44319310Y-81362087D01*
X44412290Y-81294532D01*
X44484913Y-81241771D01*
X44484915Y-81241768D01*
X44484919Y-81241766D01*
X44629666Y-81097019D01*
X44629668Y-81097015D01*
X44629671Y-81097013D01*
X44749984Y-80931414D01*
X44749986Y-80931411D01*
X44749987Y-80931410D01*
X44797216Y-80838717D01*
X44845189Y-80787923D01*
X44913010Y-80771128D01*
X44979145Y-80793665D01*
X45018185Y-80838719D01*
X45065415Y-80931414D01*
X45185728Y-81097013D01*
X45330486Y-81241771D01*
X45485449Y-81354356D01*
X45496090Y-81362087D01*
X45612307Y-81421303D01*
X45678476Y-81455018D01*
X45678478Y-81455018D01*
X45678481Y-81455020D01*
X45782837Y-81488927D01*
X45873165Y-81518277D01*
X45974257Y-81534288D01*
X46075348Y-81550300D01*
X46075349Y-81550300D01*
X46280051Y-81550300D01*
X46280052Y-81550300D01*
X46482234Y-81518277D01*
X46676919Y-81455020D01*
X46859310Y-81362087D01*
X46952290Y-81294532D01*
X47024913Y-81241771D01*
X47024915Y-81241768D01*
X47024919Y-81241766D01*
X47169666Y-81097019D01*
X47169668Y-81097015D01*
X47169671Y-81097013D01*
X47289984Y-80931414D01*
X47289986Y-80931411D01*
X47289987Y-80931410D01*
X47337216Y-80838717D01*
X47385189Y-80787923D01*
X47453010Y-80771128D01*
X47519145Y-80793665D01*
X47558185Y-80838719D01*
X47605415Y-80931414D01*
X47725728Y-81097013D01*
X47870486Y-81241771D01*
X48025449Y-81354356D01*
X48036090Y-81362087D01*
X48152307Y-81421303D01*
X48218476Y-81455018D01*
X48218478Y-81455018D01*
X48218481Y-81455020D01*
X48322837Y-81488927D01*
X48413165Y-81518277D01*
X48514257Y-81534288D01*
X48615348Y-81550300D01*
X48615349Y-81550300D01*
X48820051Y-81550300D01*
X48820052Y-81550300D01*
X49022234Y-81518277D01*
X49216919Y-81455020D01*
X49399310Y-81362087D01*
X49492290Y-81294532D01*
X49564913Y-81241771D01*
X49564915Y-81241768D01*
X49564919Y-81241766D01*
X49709666Y-81097019D01*
X49709668Y-81097015D01*
X49709671Y-81097013D01*
X49829984Y-80931414D01*
X49829986Y-80931411D01*
X49829987Y-80931410D01*
X49877216Y-80838717D01*
X49925189Y-80787923D01*
X49993010Y-80771128D01*
X50059145Y-80793665D01*
X50098185Y-80838719D01*
X50145415Y-80931414D01*
X50265728Y-81097013D01*
X50410486Y-81241771D01*
X50565449Y-81354356D01*
X50576090Y-81362087D01*
X50692307Y-81421303D01*
X50758476Y-81455018D01*
X50758478Y-81455018D01*
X50758481Y-81455020D01*
X50862837Y-81488927D01*
X50953165Y-81518277D01*
X51054257Y-81534288D01*
X51155348Y-81550300D01*
X51155349Y-81550300D01*
X51360051Y-81550300D01*
X51360052Y-81550300D01*
X51562234Y-81518277D01*
X51756919Y-81455020D01*
X51939310Y-81362087D01*
X52032290Y-81294532D01*
X52104913Y-81241771D01*
X52104915Y-81241768D01*
X52104919Y-81241766D01*
X52249666Y-81097019D01*
X52249668Y-81097015D01*
X52249671Y-81097013D01*
X52369984Y-80931414D01*
X52369986Y-80931411D01*
X52369987Y-80931410D01*
X52417216Y-80838717D01*
X52465189Y-80787923D01*
X52533010Y-80771128D01*
X52599145Y-80793665D01*
X52638185Y-80838719D01*
X52685415Y-80931414D01*
X52805728Y-81097013D01*
X52950486Y-81241771D01*
X53105449Y-81354356D01*
X53116090Y-81362087D01*
X53232307Y-81421303D01*
X53298476Y-81455018D01*
X53298478Y-81455018D01*
X53298481Y-81455020D01*
X53402837Y-81488927D01*
X53493165Y-81518277D01*
X53594257Y-81534288D01*
X53695348Y-81550300D01*
X53695349Y-81550300D01*
X53900051Y-81550300D01*
X53900052Y-81550300D01*
X54102234Y-81518277D01*
X54173882Y-81494996D01*
X54243722Y-81493001D01*
X54303555Y-81529081D01*
X54334384Y-81591782D01*
X54336200Y-81612928D01*
X54336200Y-93564285D01*
X54316515Y-93631324D01*
X54299881Y-93651966D01*
X52257465Y-95694381D01*
X52196142Y-95727866D01*
X52169784Y-95730700D01*
X50734145Y-95730700D01*
X50734139Y-95730701D01*
X50674532Y-95737108D01*
X50539687Y-95787402D01*
X50539680Y-95787406D01*
X50424471Y-95873652D01*
X50424468Y-95873655D01*
X50338222Y-95988864D01*
X50338218Y-95988871D01*
X50287924Y-96123717D01*
X50281517Y-96183316D01*
X50281516Y-96183335D01*
X50281516Y-98279070D01*
X50281517Y-98279076D01*
X50287924Y-98338683D01*
X50338218Y-98473528D01*
X50338222Y-98473535D01*
X50424468Y-98588744D01*
X50424471Y-98588747D01*
X50539680Y-98674993D01*
X50539687Y-98674997D01*
X50674533Y-98725291D01*
X50674532Y-98725291D01*
X50681460Y-98726035D01*
X50734143Y-98731700D01*
X52829888Y-98731699D01*
X52889499Y-98725291D01*
X53024347Y-98674996D01*
X53139562Y-98588746D01*
X53225812Y-98473531D01*
X53276107Y-98338683D01*
X53282516Y-98279073D01*
X53282515Y-97113147D01*
X57882016Y-97113147D01*
X57882016Y-97349252D01*
X57918950Y-97582447D01*
X57991913Y-97807002D01*
X58099103Y-98017374D01*
X58159354Y-98100304D01*
X58159356Y-98100305D01*
X58899053Y-97360608D01*
X58916091Y-97424193D01*
X58981917Y-97538207D01*
X59075009Y-97631299D01*
X59189023Y-97697125D01*
X59252606Y-97714162D01*
X58512909Y-98453858D01*
X58595844Y-98514114D01*
X58806213Y-98621302D01*
X59030768Y-98694265D01*
X59030767Y-98694265D01*
X59263964Y-98731200D01*
X59500068Y-98731200D01*
X59733263Y-98694265D01*
X59957818Y-98621302D01*
X60168179Y-98514118D01*
X60168185Y-98514114D01*
X60251120Y-98453858D01*
X60251121Y-98453858D01*
X59511424Y-97714162D01*
X59575009Y-97697125D01*
X59689023Y-97631299D01*
X59782115Y-97538207D01*
X59847941Y-97424193D01*
X59864978Y-97360609D01*
X60604674Y-98100305D01*
X60604674Y-98100304D01*
X60664930Y-98017369D01*
X60664934Y-98017363D01*
X60772118Y-97807002D01*
X60845081Y-97582447D01*
X60882016Y-97349252D01*
X60882016Y-97113147D01*
X60845081Y-96879952D01*
X60772118Y-96655397D01*
X60664930Y-96445028D01*
X60604674Y-96362094D01*
X60604674Y-96362093D01*
X59864978Y-97101790D01*
X59847941Y-97038207D01*
X59782115Y-96924193D01*
X59689023Y-96831101D01*
X59575009Y-96765275D01*
X59511425Y-96748237D01*
X60251121Y-96008540D01*
X60251120Y-96008538D01*
X60168190Y-95948287D01*
X59957818Y-95841097D01*
X59733263Y-95768134D01*
X59733264Y-95768134D01*
X59500068Y-95731200D01*
X59263964Y-95731200D01*
X59030768Y-95768134D01*
X58806213Y-95841097D01*
X58595846Y-95948284D01*
X58512910Y-96008540D01*
X59252607Y-96748237D01*
X59189023Y-96765275D01*
X59075009Y-96831101D01*
X58981917Y-96924193D01*
X58916091Y-97038207D01*
X58899053Y-97101791D01*
X58159356Y-96362094D01*
X58099100Y-96445030D01*
X57991913Y-96655397D01*
X57918950Y-96879952D01*
X57882016Y-97113147D01*
X53282515Y-97113147D01*
X53282515Y-96843428D01*
X53302200Y-96776390D01*
X53318829Y-96755753D01*
X54596735Y-95477848D01*
X108021100Y-95477848D01*
X108021100Y-95682551D01*
X108053122Y-95884734D01*
X108116381Y-96079423D01*
X108209315Y-96261813D01*
X108329628Y-96427413D01*
X108474386Y-96572171D01*
X108629349Y-96684756D01*
X108639990Y-96692487D01*
X108731440Y-96739083D01*
X108732680Y-96739715D01*
X108783476Y-96787690D01*
X108800271Y-96855511D01*
X108777734Y-96921646D01*
X108732680Y-96960685D01*
X108639986Y-97007915D01*
X108474386Y-97128228D01*
X108329628Y-97272986D01*
X108209315Y-97438586D01*
X108116381Y-97620976D01*
X108053122Y-97815665D01*
X108021100Y-98017848D01*
X108021100Y-98222551D01*
X108053122Y-98424734D01*
X108116381Y-98619423D01*
X108209315Y-98801813D01*
X108329628Y-98967413D01*
X108474386Y-99112171D01*
X108559198Y-99173789D01*
X108639990Y-99232487D01*
X108731440Y-99279083D01*
X108732680Y-99279715D01*
X108783476Y-99327690D01*
X108800271Y-99395511D01*
X108777734Y-99461646D01*
X108732680Y-99500685D01*
X108639986Y-99547915D01*
X108474386Y-99668228D01*
X108329628Y-99812986D01*
X108209315Y-99978586D01*
X108116381Y-100160976D01*
X108053122Y-100355665D01*
X108021100Y-100557848D01*
X108021100Y-100762551D01*
X108053122Y-100964734D01*
X108116381Y-101159423D01*
X108168808Y-101262314D01*
X108208624Y-101340458D01*
X108209315Y-101341813D01*
X108329628Y-101507413D01*
X108474386Y-101652171D01*
X108629349Y-101764756D01*
X108639990Y-101772487D01*
X108731440Y-101819083D01*
X108732680Y-101819715D01*
X108783476Y-101867690D01*
X108800271Y-101935511D01*
X108777734Y-102001646D01*
X108732680Y-102040685D01*
X108639986Y-102087915D01*
X108474386Y-102208228D01*
X108329628Y-102352986D01*
X108209315Y-102518586D01*
X108116381Y-102700976D01*
X108053122Y-102895665D01*
X108021100Y-103097848D01*
X108021100Y-103302551D01*
X108053122Y-103504734D01*
X108116381Y-103699423D01*
X108209315Y-103881813D01*
X108329628Y-104047413D01*
X108474386Y-104192171D01*
X108629349Y-104304756D01*
X108639990Y-104312487D01*
X108731440Y-104359083D01*
X108732680Y-104359715D01*
X108783476Y-104407690D01*
X108800271Y-104475511D01*
X108777734Y-104541646D01*
X108732680Y-104580685D01*
X108639986Y-104627915D01*
X108474386Y-104748228D01*
X108329628Y-104892986D01*
X108209315Y-105058586D01*
X108116381Y-105240976D01*
X108053122Y-105435665D01*
X108021100Y-105637848D01*
X108021100Y-105842551D01*
X108053122Y-106044734D01*
X108116381Y-106239423D01*
X108209315Y-106421813D01*
X108329628Y-106587413D01*
X108474386Y-106732171D01*
X108629349Y-106844756D01*
X108639990Y-106852487D01*
X108731440Y-106899083D01*
X108732680Y-106899715D01*
X108783476Y-106947690D01*
X108800271Y-107015511D01*
X108777734Y-107081646D01*
X108732680Y-107120685D01*
X108639986Y-107167915D01*
X108474386Y-107288228D01*
X108329628Y-107432986D01*
X108209315Y-107598586D01*
X108116381Y-107780976D01*
X108053122Y-107975665D01*
X108028502Y-108131113D01*
X108021100Y-108177848D01*
X108021100Y-108382552D01*
X108025478Y-108410195D01*
X108053122Y-108584734D01*
X108116381Y-108779423D01*
X108209315Y-108961813D01*
X108329628Y-109127413D01*
X108474386Y-109272171D01*
X108629349Y-109384756D01*
X108639990Y-109392487D01*
X108756207Y-109451703D01*
X108822376Y-109485418D01*
X108822378Y-109485418D01*
X108822381Y-109485420D01*
X108926737Y-109519327D01*
X109017065Y-109548677D01*
X109118157Y-109564688D01*
X109219248Y-109580700D01*
X109219249Y-109580700D01*
X109423951Y-109580700D01*
X109423952Y-109580700D01*
X109626134Y-109548677D01*
X109820819Y-109485420D01*
X110003210Y-109392487D01*
X110100433Y-109321851D01*
X110168813Y-109272171D01*
X110168815Y-109272168D01*
X110168819Y-109272166D01*
X110313566Y-109127419D01*
X110313568Y-109127415D01*
X110313571Y-109127413D01*
X110366332Y-109054790D01*
X110433887Y-108961810D01*
X110526820Y-108779419D01*
X110590077Y-108584734D01*
X110622100Y-108382552D01*
X110622100Y-108177848D01*
X110590077Y-107975666D01*
X110526820Y-107780981D01*
X110526818Y-107780978D01*
X110526818Y-107780976D01*
X110490582Y-107709860D01*
X110433887Y-107598590D01*
X110426156Y-107587949D01*
X110313571Y-107432986D01*
X110168813Y-107288228D01*
X110003214Y-107167915D01*
X109996606Y-107164548D01*
X109910517Y-107120683D01*
X109859723Y-107072711D01*
X109842928Y-107004890D01*
X109865465Y-106938755D01*
X109910517Y-106899716D01*
X110003210Y-106852487D01*
X110024370Y-106837113D01*
X110168813Y-106732171D01*
X110168815Y-106732168D01*
X110168819Y-106732166D01*
X110313566Y-106587419D01*
X110313568Y-106587415D01*
X110313571Y-106587413D01*
X110382370Y-106492718D01*
X110433887Y-106421810D01*
X110526820Y-106239419D01*
X110590077Y-106044734D01*
X110622100Y-105842552D01*
X110622100Y-105637848D01*
X110590077Y-105435666D01*
X110526820Y-105240981D01*
X110526818Y-105240978D01*
X110526818Y-105240976D01*
X110493103Y-105174807D01*
X110433887Y-105058590D01*
X110426156Y-105047949D01*
X110313571Y-104892986D01*
X110168813Y-104748228D01*
X110003214Y-104627915D01*
X109996606Y-104624548D01*
X109910517Y-104580683D01*
X109859723Y-104532711D01*
X109842928Y-104464890D01*
X109865465Y-104398755D01*
X109910517Y-104359716D01*
X110003210Y-104312487D01*
X110024370Y-104297113D01*
X110168813Y-104192171D01*
X110168815Y-104192168D01*
X110168819Y-104192166D01*
X110313566Y-104047419D01*
X110313568Y-104047415D01*
X110313571Y-104047413D01*
X110366332Y-103974790D01*
X110433887Y-103881810D01*
X110526820Y-103699419D01*
X110590077Y-103504734D01*
X110622100Y-103302552D01*
X110622100Y-103097848D01*
X110590077Y-102895666D01*
X110526820Y-102700981D01*
X110526818Y-102700978D01*
X110526818Y-102700976D01*
X110493103Y-102634807D01*
X110433887Y-102518590D01*
X110426156Y-102507949D01*
X110313571Y-102352986D01*
X110168813Y-102208228D01*
X110003214Y-102087915D01*
X109996606Y-102084548D01*
X109910517Y-102040683D01*
X109859723Y-101992711D01*
X109842928Y-101924890D01*
X109865465Y-101858755D01*
X109910517Y-101819716D01*
X110003210Y-101772487D01*
X110024370Y-101757113D01*
X110168813Y-101652171D01*
X110168815Y-101652168D01*
X110168819Y-101652166D01*
X110313566Y-101507419D01*
X110313568Y-101507415D01*
X110313571Y-101507413D01*
X110391091Y-101400714D01*
X110433887Y-101341810D01*
X110526820Y-101159419D01*
X110590077Y-100964734D01*
X110622100Y-100762552D01*
X110622100Y-100557848D01*
X110590077Y-100355665D01*
X110551147Y-100235852D01*
X110526820Y-100160981D01*
X110526818Y-100160978D01*
X110526818Y-100160976D01*
X110493103Y-100094807D01*
X110433887Y-99978590D01*
X110426156Y-99967949D01*
X110313571Y-99812986D01*
X110168813Y-99668228D01*
X110003214Y-99547915D01*
X109991218Y-99541803D01*
X109910517Y-99500683D01*
X109859723Y-99452711D01*
X109842928Y-99384890D01*
X109865465Y-99318755D01*
X109910517Y-99279716D01*
X110003210Y-99232487D01*
X110084006Y-99173786D01*
X110168813Y-99112171D01*
X110168815Y-99112168D01*
X110168819Y-99112166D01*
X110313566Y-98967419D01*
X110313568Y-98967415D01*
X110313571Y-98967413D01*
X110409855Y-98834887D01*
X110433887Y-98801810D01*
X110526820Y-98619419D01*
X110590077Y-98424734D01*
X110622100Y-98222552D01*
X110622100Y-98017848D01*
X110590077Y-97815666D01*
X110526820Y-97620981D01*
X110526818Y-97620978D01*
X110526818Y-97620976D01*
X110484644Y-97538207D01*
X110433887Y-97438590D01*
X110368980Y-97349252D01*
X110313571Y-97272986D01*
X110168813Y-97128228D01*
X110003214Y-97007915D01*
X109996606Y-97004548D01*
X109910517Y-96960683D01*
X109859723Y-96912711D01*
X109842928Y-96844890D01*
X109865465Y-96778755D01*
X109910517Y-96739716D01*
X110003210Y-96692487D01*
X110024370Y-96677113D01*
X110168813Y-96572171D01*
X110168815Y-96572168D01*
X110168819Y-96572166D01*
X110313566Y-96427419D01*
X110313568Y-96427415D01*
X110313571Y-96427413D01*
X110366332Y-96354790D01*
X110433887Y-96261810D01*
X110526820Y-96079419D01*
X110590077Y-95884734D01*
X110622100Y-95682552D01*
X110622100Y-95477848D01*
X110590077Y-95275666D01*
X110526820Y-95080981D01*
X110526818Y-95080978D01*
X110526818Y-95080976D01*
X110489584Y-95007902D01*
X110433887Y-94898590D01*
X110391652Y-94840458D01*
X110313571Y-94732986D01*
X110168813Y-94588228D01*
X110003211Y-94467913D01*
X109884455Y-94407403D01*
X109833660Y-94359429D01*
X109816865Y-94291608D01*
X109839403Y-94225473D01*
X109884457Y-94186434D01*
X110002947Y-94126061D01*
X110168494Y-94005782D01*
X110168495Y-94005782D01*
X110313182Y-93861095D01*
X110313182Y-93861094D01*
X110433459Y-93695549D01*
X110526355Y-93513229D01*
X110589590Y-93318613D01*
X110598209Y-93264200D01*
X109637286Y-93264200D01*
X109641680Y-93259806D01*
X109694341Y-93168594D01*
X109721600Y-93066861D01*
X109721600Y-92961539D01*
X109694341Y-92859806D01*
X109641680Y-92768594D01*
X109637286Y-92764200D01*
X110598209Y-92764200D01*
X110589590Y-92709786D01*
X110526355Y-92515170D01*
X110433459Y-92332850D01*
X110313182Y-92167305D01*
X110313182Y-92167304D01*
X110168495Y-92022617D01*
X110002949Y-91902340D01*
X109820629Y-91809444D01*
X109626013Y-91746209D01*
X109571600Y-91737590D01*
X109571600Y-92698514D01*
X109567206Y-92694120D01*
X109475994Y-92641459D01*
X109374261Y-92614200D01*
X109268939Y-92614200D01*
X109167206Y-92641459D01*
X109075994Y-92694120D01*
X109071600Y-92698514D01*
X109071600Y-91737590D01*
X109017186Y-91746209D01*
X108822570Y-91809444D01*
X108640250Y-91902340D01*
X108474705Y-92022617D01*
X108474704Y-92022617D01*
X108330017Y-92167304D01*
X108330017Y-92167305D01*
X108209740Y-92332850D01*
X108116844Y-92515170D01*
X108053609Y-92709786D01*
X108044991Y-92764200D01*
X109005914Y-92764200D01*
X109001520Y-92768594D01*
X108948859Y-92859806D01*
X108921600Y-92961539D01*
X108921600Y-93066861D01*
X108948859Y-93168594D01*
X109001520Y-93259806D01*
X109005914Y-93264200D01*
X108044991Y-93264200D01*
X108053609Y-93318613D01*
X108116844Y-93513229D01*
X108209740Y-93695549D01*
X108330017Y-93861094D01*
X108330017Y-93861095D01*
X108474704Y-94005782D01*
X108640252Y-94126061D01*
X108758742Y-94186434D01*
X108809539Y-94234408D01*
X108826334Y-94302229D01*
X108803797Y-94368364D01*
X108758744Y-94407403D01*
X108639988Y-94467913D01*
X108474386Y-94588228D01*
X108329628Y-94732986D01*
X108209315Y-94898586D01*
X108116381Y-95080976D01*
X108053122Y-95275665D01*
X108021100Y-95477848D01*
X54596735Y-95477848D01*
X55669652Y-94404932D01*
X55748146Y-94287455D01*
X55751784Y-94282011D01*
X55808358Y-94145429D01*
X55825767Y-94057910D01*
X55837200Y-94000436D01*
X55837200Y-90310872D01*
X72999500Y-90310872D01*
X72999500Y-90573127D01*
X73020436Y-90732140D01*
X73033730Y-90833116D01*
X73055178Y-90913161D01*
X73101602Y-91086418D01*
X73101605Y-91086428D01*
X73201953Y-91328690D01*
X73201958Y-91328700D01*
X73333075Y-91555803D01*
X73492718Y-91763851D01*
X73492726Y-91763860D01*
X73678140Y-91949274D01*
X73678148Y-91949281D01*
X73886196Y-92108924D01*
X74113299Y-92240041D01*
X74113309Y-92240046D01*
X74341238Y-92334457D01*
X74355581Y-92340398D01*
X74608884Y-92408270D01*
X74868880Y-92442500D01*
X74868887Y-92442500D01*
X75131113Y-92442500D01*
X75131120Y-92442500D01*
X75391116Y-92408270D01*
X75644419Y-92340398D01*
X75886697Y-92240043D01*
X76113803Y-92108924D01*
X76321851Y-91949282D01*
X76321855Y-91949277D01*
X76321860Y-91949274D01*
X76507274Y-91763860D01*
X76507277Y-91763855D01*
X76507282Y-91763851D01*
X76666924Y-91555803D01*
X76798043Y-91328697D01*
X76898398Y-91086419D01*
X76966270Y-90833116D01*
X77000500Y-90573120D01*
X77000500Y-90310880D01*
X76966270Y-90050884D01*
X76898398Y-89797581D01*
X76800204Y-89560520D01*
X76798046Y-89555309D01*
X76798041Y-89555299D01*
X76666924Y-89328196D01*
X76507281Y-89120148D01*
X76507274Y-89120140D01*
X76321860Y-88934726D01*
X76321851Y-88934718D01*
X76113803Y-88775075D01*
X75886700Y-88643958D01*
X75886690Y-88643953D01*
X75644428Y-88543605D01*
X75644421Y-88543603D01*
X75644419Y-88543602D01*
X75391116Y-88475730D01*
X75333339Y-88468123D01*
X75131127Y-88441500D01*
X75131120Y-88441500D01*
X74868880Y-88441500D01*
X74868872Y-88441500D01*
X74643588Y-88471161D01*
X74608884Y-88475730D01*
X74355581Y-88543602D01*
X74355571Y-88543605D01*
X74113309Y-88643953D01*
X74113299Y-88643958D01*
X73886196Y-88775075D01*
X73678148Y-88934718D01*
X73492718Y-89120148D01*
X73333075Y-89328196D01*
X73201958Y-89555299D01*
X73201953Y-89555309D01*
X73101605Y-89797571D01*
X73101602Y-89797581D01*
X73047231Y-90000500D01*
X73033730Y-90050885D01*
X72999500Y-90310872D01*
X55837200Y-90310872D01*
X55837200Y-85831491D01*
X86999500Y-85831491D01*
X86999500Y-86168508D01*
X87037231Y-86503381D01*
X87037233Y-86503397D01*
X87112223Y-86831953D01*
X87112227Y-86831965D01*
X87223532Y-87150054D01*
X87369752Y-87453683D01*
X87369754Y-87453686D01*
X87549054Y-87739039D01*
X87759175Y-88002523D01*
X87997477Y-88240825D01*
X88260961Y-88450946D01*
X88546314Y-88630246D01*
X88546316Y-88630247D01*
X88575763Y-88644428D01*
X88849949Y-88776469D01*
X89088848Y-88860063D01*
X89168034Y-88887772D01*
X89168046Y-88887776D01*
X89496606Y-88962767D01*
X89831492Y-89000499D01*
X89831493Y-89000500D01*
X89831496Y-89000500D01*
X90168507Y-89000500D01*
X90168507Y-89000499D01*
X90503394Y-88962767D01*
X90831954Y-88887776D01*
X91150051Y-88776469D01*
X91453686Y-88630246D01*
X91739039Y-88450946D01*
X92002523Y-88240825D01*
X92240825Y-88002523D01*
X92450946Y-87739039D01*
X92630246Y-87453686D01*
X92776469Y-87150051D01*
X92887776Y-86831954D01*
X92962767Y-86503394D01*
X93000500Y-86168504D01*
X93000500Y-85868872D01*
X112999500Y-85868872D01*
X112999500Y-86131127D01*
X113008826Y-86201957D01*
X113033730Y-86391116D01*
X113098831Y-86634076D01*
X113101602Y-86644418D01*
X113101605Y-86644428D01*
X113201953Y-86886690D01*
X113201958Y-86886700D01*
X113333075Y-87113803D01*
X113492718Y-87321851D01*
X113492726Y-87321860D01*
X113678140Y-87507274D01*
X113678148Y-87507281D01*
X113678149Y-87507282D01*
X113726554Y-87544424D01*
X113886196Y-87666924D01*
X114113299Y-87798041D01*
X114113309Y-87798046D01*
X114343483Y-87893387D01*
X114355581Y-87898398D01*
X114608884Y-87966270D01*
X114868880Y-88000500D01*
X114868887Y-88000500D01*
X115131113Y-88000500D01*
X115131120Y-88000500D01*
X115391116Y-87966270D01*
X115644419Y-87898398D01*
X115886697Y-87798043D01*
X116113803Y-87666924D01*
X116321851Y-87507282D01*
X116321855Y-87507277D01*
X116321860Y-87507274D01*
X116507274Y-87321860D01*
X116507277Y-87321855D01*
X116507282Y-87321851D01*
X116666924Y-87113803D01*
X116798043Y-86886697D01*
X116898398Y-86644419D01*
X116966270Y-86391116D01*
X117000500Y-86131120D01*
X117000500Y-85868880D01*
X116966270Y-85608884D01*
X116898398Y-85355581D01*
X116845294Y-85227376D01*
X116798046Y-85113309D01*
X116798041Y-85113299D01*
X116666924Y-84886196D01*
X116507281Y-84678148D01*
X116507274Y-84678140D01*
X116321860Y-84492726D01*
X116321851Y-84492718D01*
X116113803Y-84333075D01*
X115886700Y-84201958D01*
X115886690Y-84201953D01*
X115644428Y-84101605D01*
X115644421Y-84101603D01*
X115644419Y-84101602D01*
X115391116Y-84033730D01*
X115333339Y-84026123D01*
X115131127Y-83999500D01*
X115131120Y-83999500D01*
X114868880Y-83999500D01*
X114868872Y-83999500D01*
X114637772Y-84029926D01*
X114608884Y-84033730D01*
X114589515Y-84038920D01*
X114355581Y-84101602D01*
X114355571Y-84101605D01*
X114113309Y-84201953D01*
X114113299Y-84201958D01*
X113886196Y-84333075D01*
X113678148Y-84492718D01*
X113492718Y-84678148D01*
X113333075Y-84886196D01*
X113201958Y-85113299D01*
X113201953Y-85113309D01*
X113101605Y-85355571D01*
X113101602Y-85355581D01*
X113063812Y-85496618D01*
X113033730Y-85608885D01*
X112999500Y-85868872D01*
X93000500Y-85868872D01*
X93000500Y-85831496D01*
X92962767Y-85496606D01*
X92887776Y-85168046D01*
X92776469Y-84849949D01*
X92630246Y-84546314D01*
X92450946Y-84260961D01*
X92240825Y-83997477D01*
X92002523Y-83759175D01*
X91739039Y-83549054D01*
X91453686Y-83369754D01*
X91453683Y-83369752D01*
X91150054Y-83223532D01*
X90831965Y-83112227D01*
X90831953Y-83112223D01*
X90503397Y-83037233D01*
X90503381Y-83037231D01*
X90168508Y-82999500D01*
X90168504Y-82999500D01*
X89831496Y-82999500D01*
X89831491Y-82999500D01*
X89496618Y-83037231D01*
X89496602Y-83037233D01*
X89168046Y-83112223D01*
X89168034Y-83112227D01*
X88849945Y-83223532D01*
X88546316Y-83369752D01*
X88260962Y-83549053D01*
X87997477Y-83759174D01*
X87759174Y-83997477D01*
X87549053Y-84260962D01*
X87369752Y-84546316D01*
X87223532Y-84849945D01*
X87112227Y-85168034D01*
X87112223Y-85168046D01*
X87037233Y-85496602D01*
X87037231Y-85496618D01*
X86999500Y-85831491D01*
X55837200Y-85831491D01*
X55837200Y-81625275D01*
X55856885Y-81558236D01*
X55909689Y-81512481D01*
X55978847Y-81502537D01*
X55999520Y-81507345D01*
X56033158Y-81518275D01*
X56033161Y-81518275D01*
X56033166Y-81518277D01*
X56235348Y-81550300D01*
X56235349Y-81550300D01*
X56440051Y-81550300D01*
X56440052Y-81550300D01*
X56642234Y-81518277D01*
X56836919Y-81455020D01*
X57019310Y-81362087D01*
X57112290Y-81294532D01*
X57184913Y-81241771D01*
X57184915Y-81241768D01*
X57184919Y-81241766D01*
X57329666Y-81097019D01*
X57329668Y-81097015D01*
X57329671Y-81097013D01*
X57449984Y-80931414D01*
X57449986Y-80931411D01*
X57449987Y-80931410D01*
X57497216Y-80838717D01*
X57545189Y-80787923D01*
X57613010Y-80771128D01*
X57679145Y-80793665D01*
X57718185Y-80838719D01*
X57765415Y-80931414D01*
X57885728Y-81097013D01*
X58030486Y-81241771D01*
X58185449Y-81354356D01*
X58196090Y-81362087D01*
X58312307Y-81421303D01*
X58378476Y-81455018D01*
X58378478Y-81455018D01*
X58378481Y-81455020D01*
X58482837Y-81488927D01*
X58573165Y-81518277D01*
X58674257Y-81534288D01*
X58775348Y-81550300D01*
X58775349Y-81550300D01*
X58980051Y-81550300D01*
X58980052Y-81550300D01*
X59182234Y-81518277D01*
X59376919Y-81455020D01*
X59559310Y-81362087D01*
X59652290Y-81294532D01*
X59724913Y-81241771D01*
X59724915Y-81241768D01*
X59724919Y-81241766D01*
X59869666Y-81097019D01*
X59869668Y-81097015D01*
X59869671Y-81097013D01*
X59989984Y-80931414D01*
X59989986Y-80931411D01*
X59989987Y-80931410D01*
X60037216Y-80838717D01*
X60085189Y-80787923D01*
X60153010Y-80771128D01*
X60219145Y-80793665D01*
X60258185Y-80838719D01*
X60305415Y-80931414D01*
X60425728Y-81097013D01*
X60570486Y-81241771D01*
X60725449Y-81354356D01*
X60736090Y-81362087D01*
X60852307Y-81421303D01*
X60918476Y-81455018D01*
X60918478Y-81455018D01*
X60918481Y-81455020D01*
X61022837Y-81488927D01*
X61113165Y-81518277D01*
X61214257Y-81534288D01*
X61315348Y-81550300D01*
X61315349Y-81550300D01*
X61520051Y-81550300D01*
X61520052Y-81550300D01*
X61722234Y-81518277D01*
X61916919Y-81455020D01*
X62099310Y-81362087D01*
X62192290Y-81294532D01*
X62264913Y-81241771D01*
X62264915Y-81241768D01*
X62264919Y-81241766D01*
X62409666Y-81097019D01*
X62409668Y-81097015D01*
X62409671Y-81097013D01*
X62529984Y-80931414D01*
X62529986Y-80931411D01*
X62529987Y-80931410D01*
X62577216Y-80838717D01*
X62625189Y-80787923D01*
X62693010Y-80771128D01*
X62759145Y-80793665D01*
X62798185Y-80838719D01*
X62845415Y-80931414D01*
X62965728Y-81097013D01*
X63110486Y-81241771D01*
X63265449Y-81354356D01*
X63276090Y-81362087D01*
X63392307Y-81421303D01*
X63458476Y-81455018D01*
X63458478Y-81455018D01*
X63458481Y-81455020D01*
X63562837Y-81488927D01*
X63653165Y-81518277D01*
X63754257Y-81534288D01*
X63855348Y-81550300D01*
X63855349Y-81550300D01*
X64060051Y-81550300D01*
X64060052Y-81550300D01*
X64262234Y-81518277D01*
X64456919Y-81455020D01*
X64639310Y-81362087D01*
X64732290Y-81294532D01*
X64804913Y-81241771D01*
X64804915Y-81241768D01*
X64804919Y-81241766D01*
X64949666Y-81097019D01*
X64949668Y-81097015D01*
X64949671Y-81097013D01*
X65069984Y-80931414D01*
X65069986Y-80931411D01*
X65069987Y-80931410D01*
X65117216Y-80838717D01*
X65165189Y-80787923D01*
X65233010Y-80771128D01*
X65299145Y-80793665D01*
X65338185Y-80838719D01*
X65385415Y-80931414D01*
X65505728Y-81097013D01*
X65650486Y-81241771D01*
X65805449Y-81354356D01*
X65816090Y-81362087D01*
X65932307Y-81421303D01*
X65998476Y-81455018D01*
X65998478Y-81455018D01*
X65998481Y-81455020D01*
X66102837Y-81488927D01*
X66193165Y-81518277D01*
X66294257Y-81534288D01*
X66395348Y-81550300D01*
X66395349Y-81550300D01*
X66600051Y-81550300D01*
X66600052Y-81550300D01*
X66802234Y-81518277D01*
X66996919Y-81455020D01*
X67179310Y-81362087D01*
X67272290Y-81294532D01*
X67344913Y-81241771D01*
X67344915Y-81241768D01*
X67344919Y-81241766D01*
X67489666Y-81097019D01*
X67489668Y-81097015D01*
X67489671Y-81097013D01*
X67609984Y-80931414D01*
X67609986Y-80931411D01*
X67609987Y-80931410D01*
X67657495Y-80838169D01*
X67705470Y-80787374D01*
X67773291Y-80770579D01*
X67839425Y-80793116D01*
X67878465Y-80838170D01*
X67925840Y-80931149D01*
X68046117Y-81096694D01*
X68046117Y-81096695D01*
X68190804Y-81241382D01*
X68356350Y-81361659D01*
X68538668Y-81454554D01*
X68733278Y-81517788D01*
X68787700Y-81526407D01*
X68787700Y-80682812D01*
X68844707Y-80715725D01*
X68971874Y-80749800D01*
X69103526Y-80749800D01*
X69230693Y-80715725D01*
X69287700Y-80682812D01*
X69287700Y-81526406D01*
X69342121Y-81517788D01*
X69536731Y-81454554D01*
X69719049Y-81361659D01*
X69884594Y-81241382D01*
X69884595Y-81241382D01*
X70029282Y-81096695D01*
X70029282Y-81096694D01*
X70149561Y-80931147D01*
X70196934Y-80838171D01*
X70244908Y-80787375D01*
X70312728Y-80770579D01*
X70378864Y-80793116D01*
X70417903Y-80838169D01*
X70465413Y-80931411D01*
X70585728Y-81097013D01*
X70730486Y-81241771D01*
X70885449Y-81354356D01*
X70896090Y-81362087D01*
X71012307Y-81421303D01*
X71078476Y-81455018D01*
X71078478Y-81455018D01*
X71078481Y-81455020D01*
X71182837Y-81488927D01*
X71273165Y-81518277D01*
X71374257Y-81534288D01*
X71475348Y-81550300D01*
X71475349Y-81550300D01*
X71680051Y-81550300D01*
X71680052Y-81550300D01*
X71882234Y-81518277D01*
X72076919Y-81455020D01*
X72259310Y-81362087D01*
X72352290Y-81294532D01*
X72424913Y-81241771D01*
X72424915Y-81241768D01*
X72424919Y-81241766D01*
X72569666Y-81097019D01*
X72569668Y-81097015D01*
X72569671Y-81097013D01*
X72622432Y-81024390D01*
X72689987Y-80931410D01*
X72782920Y-80749019D01*
X72846177Y-80554334D01*
X72878200Y-80352152D01*
X72878200Y-80147448D01*
X72846177Y-79945266D01*
X72845373Y-79942793D01*
X72782918Y-79750576D01*
X72690119Y-79568450D01*
X72689987Y-79568190D01*
X72682256Y-79557549D01*
X72569671Y-79402586D01*
X72424913Y-79257828D01*
X72259313Y-79137515D01*
X72259312Y-79137514D01*
X72259310Y-79137513D01*
X72202353Y-79108491D01*
X72076923Y-79044581D01*
X71882234Y-78981322D01*
X71707695Y-78953678D01*
X71680052Y-78949300D01*
X71475348Y-78949300D01*
X71451029Y-78953151D01*
X71273165Y-78981322D01*
X71078476Y-79044581D01*
X70896086Y-79137515D01*
X70730486Y-79257828D01*
X70585728Y-79402586D01*
X70465413Y-79568188D01*
X70417903Y-79661430D01*
X70369928Y-79712226D01*
X70302107Y-79729020D01*
X70235972Y-79706482D01*
X70196934Y-79661428D01*
X70149561Y-79568452D01*
X70029282Y-79402905D01*
X70029282Y-79402904D01*
X69884595Y-79258217D01*
X69719049Y-79137940D01*
X69536729Y-79045044D01*
X69342113Y-78981809D01*
X69287700Y-78973190D01*
X69287700Y-79816788D01*
X69230693Y-79783875D01*
X69103526Y-79749800D01*
X68971874Y-79749800D01*
X68844707Y-79783875D01*
X68787700Y-79816788D01*
X68787700Y-78973190D01*
X68733286Y-78981809D01*
X68538670Y-79045044D01*
X68356350Y-79137940D01*
X68190805Y-79258217D01*
X68190804Y-79258217D01*
X68046117Y-79402904D01*
X68046117Y-79402905D01*
X67925840Y-79568450D01*
X67878465Y-79661429D01*
X67830490Y-79712225D01*
X67762669Y-79729020D01*
X67696534Y-79706482D01*
X67657495Y-79661429D01*
X67610119Y-79568450D01*
X67609987Y-79568190D01*
X67602256Y-79557549D01*
X67489671Y-79402586D01*
X67344913Y-79257828D01*
X67179313Y-79137515D01*
X67179312Y-79137514D01*
X67179310Y-79137513D01*
X67122353Y-79108491D01*
X66996923Y-79044581D01*
X66802234Y-78981322D01*
X66627695Y-78953678D01*
X66600052Y-78949300D01*
X66395348Y-78949300D01*
X66371029Y-78953151D01*
X66193165Y-78981322D01*
X65998476Y-79044581D01*
X65816086Y-79137515D01*
X65650486Y-79257828D01*
X65505728Y-79402586D01*
X65385415Y-79568186D01*
X65338185Y-79660880D01*
X65290210Y-79711676D01*
X65222389Y-79728471D01*
X65156254Y-79705934D01*
X65117215Y-79660880D01*
X65070119Y-79568450D01*
X65069987Y-79568190D01*
X65062256Y-79557549D01*
X64949671Y-79402586D01*
X64804913Y-79257828D01*
X64639313Y-79137515D01*
X64639312Y-79137514D01*
X64639310Y-79137513D01*
X64582353Y-79108491D01*
X64456923Y-79044581D01*
X64262234Y-78981322D01*
X64087695Y-78953678D01*
X64060052Y-78949300D01*
X63855348Y-78949300D01*
X63831029Y-78953151D01*
X63653165Y-78981322D01*
X63458476Y-79044581D01*
X63276086Y-79137515D01*
X63110486Y-79257828D01*
X62965728Y-79402586D01*
X62845415Y-79568186D01*
X62798185Y-79660880D01*
X62750210Y-79711676D01*
X62682389Y-79728471D01*
X62616254Y-79705934D01*
X62577215Y-79660880D01*
X62530119Y-79568450D01*
X62529987Y-79568190D01*
X62522256Y-79557549D01*
X62409671Y-79402586D01*
X62264913Y-79257828D01*
X62099313Y-79137515D01*
X62099312Y-79137514D01*
X62099310Y-79137513D01*
X62042353Y-79108491D01*
X61916923Y-79044581D01*
X61722234Y-78981322D01*
X61547695Y-78953678D01*
X61520052Y-78949300D01*
X61315348Y-78949300D01*
X61291029Y-78953151D01*
X61113165Y-78981322D01*
X60918476Y-79044581D01*
X60736086Y-79137515D01*
X60570486Y-79257828D01*
X60425728Y-79402586D01*
X60305415Y-79568186D01*
X60258185Y-79660880D01*
X60210210Y-79711676D01*
X60142389Y-79728471D01*
X60076254Y-79705934D01*
X60037215Y-79660880D01*
X59990119Y-79568450D01*
X59989987Y-79568190D01*
X59982256Y-79557549D01*
X59869671Y-79402586D01*
X59724913Y-79257828D01*
X59559313Y-79137515D01*
X59559312Y-79137514D01*
X59559310Y-79137513D01*
X59502353Y-79108491D01*
X59376923Y-79044581D01*
X59182234Y-78981322D01*
X59007695Y-78953678D01*
X58980052Y-78949300D01*
X58775348Y-78949300D01*
X58751029Y-78953151D01*
X58573165Y-78981322D01*
X58378476Y-79044581D01*
X58196086Y-79137515D01*
X58030486Y-79257828D01*
X57885728Y-79402586D01*
X57765415Y-79568186D01*
X57718185Y-79660880D01*
X57670210Y-79711676D01*
X57602389Y-79728471D01*
X57536254Y-79705934D01*
X57497215Y-79660880D01*
X57450119Y-79568450D01*
X57449987Y-79568190D01*
X57442256Y-79557549D01*
X57329671Y-79402586D01*
X57184913Y-79257828D01*
X57019313Y-79137515D01*
X57019312Y-79137514D01*
X57019310Y-79137513D01*
X56962353Y-79108491D01*
X56836923Y-79044581D01*
X56642234Y-78981322D01*
X56467695Y-78953678D01*
X56440052Y-78949300D01*
X56235348Y-78949300D01*
X56207505Y-78953710D01*
X56033164Y-78981323D01*
X56033157Y-78981324D01*
X55999517Y-78992255D01*
X55929676Y-78994250D01*
X55869844Y-78958169D01*
X55839016Y-78895468D01*
X55837200Y-78874324D01*
X55837200Y-76950010D01*
X55856885Y-76882971D01*
X55909689Y-76837216D01*
X55978847Y-76827272D01*
X55999512Y-76832077D01*
X56104818Y-76866293D01*
X56160165Y-76884277D01*
X56253128Y-76899001D01*
X56362348Y-76916300D01*
X56362349Y-76916300D01*
X56567051Y-76916300D01*
X56567052Y-76916300D01*
X56769234Y-76884277D01*
X56963919Y-76821020D01*
X57146310Y-76728087D01*
X57239290Y-76660532D01*
X57311913Y-76607771D01*
X57311915Y-76607768D01*
X57311919Y-76607766D01*
X57456666Y-76463019D01*
X57456668Y-76463015D01*
X57456671Y-76463013D01*
X57576984Y-76297414D01*
X57576986Y-76297411D01*
X57576987Y-76297410D01*
X57624216Y-76204717D01*
X57672189Y-76153923D01*
X57740010Y-76137128D01*
X57806145Y-76159665D01*
X57845183Y-76204717D01*
X57889048Y-76290806D01*
X57892415Y-76297414D01*
X58012728Y-76463013D01*
X58157486Y-76607771D01*
X58312449Y-76720356D01*
X58323090Y-76728087D01*
X58432199Y-76783681D01*
X58505476Y-76821018D01*
X58505478Y-76821018D01*
X58505481Y-76821020D01*
X58593198Y-76849521D01*
X58700165Y-76884277D01*
X58793128Y-76899001D01*
X58902348Y-76916300D01*
X58902349Y-76916300D01*
X59107051Y-76916300D01*
X59107052Y-76916300D01*
X59309234Y-76884277D01*
X59503919Y-76821020D01*
X59686310Y-76728087D01*
X59779290Y-76660532D01*
X59851913Y-76607771D01*
X59851915Y-76607768D01*
X59851919Y-76607766D01*
X59996666Y-76463019D01*
X59996668Y-76463015D01*
X59996671Y-76463013D01*
X60116984Y-76297414D01*
X60116986Y-76297411D01*
X60116987Y-76297410D01*
X60164216Y-76204717D01*
X60212189Y-76153923D01*
X60280010Y-76137128D01*
X60346145Y-76159665D01*
X60385183Y-76204717D01*
X60429048Y-76290806D01*
X60432415Y-76297414D01*
X60552728Y-76463013D01*
X60697486Y-76607771D01*
X60852449Y-76720356D01*
X60863090Y-76728087D01*
X60972199Y-76783681D01*
X61045476Y-76821018D01*
X61045478Y-76821018D01*
X61045481Y-76821020D01*
X61133198Y-76849521D01*
X61240165Y-76884277D01*
X61333128Y-76899001D01*
X61442348Y-76916300D01*
X61442349Y-76916300D01*
X61647051Y-76916300D01*
X61647052Y-76916300D01*
X61849234Y-76884277D01*
X62043919Y-76821020D01*
X62226310Y-76728087D01*
X62319290Y-76660532D01*
X62391913Y-76607771D01*
X62391915Y-76607768D01*
X62391919Y-76607766D01*
X62536666Y-76463019D01*
X62536668Y-76463015D01*
X62536671Y-76463013D01*
X62656984Y-76297414D01*
X62656986Y-76297411D01*
X62656987Y-76297410D01*
X62704216Y-76204717D01*
X62752189Y-76153923D01*
X62820010Y-76137128D01*
X62886145Y-76159665D01*
X62925183Y-76204717D01*
X62969048Y-76290806D01*
X62972415Y-76297414D01*
X63092728Y-76463013D01*
X63237486Y-76607771D01*
X63392449Y-76720356D01*
X63403090Y-76728087D01*
X63512199Y-76783681D01*
X63585476Y-76821018D01*
X63585478Y-76821018D01*
X63585481Y-76821020D01*
X63673198Y-76849521D01*
X63780165Y-76884277D01*
X63873128Y-76899001D01*
X63982348Y-76916300D01*
X63982349Y-76916300D01*
X64187051Y-76916300D01*
X64187052Y-76916300D01*
X64389234Y-76884277D01*
X64583919Y-76821020D01*
X64766310Y-76728087D01*
X64859290Y-76660532D01*
X64931913Y-76607771D01*
X64931915Y-76607768D01*
X64931919Y-76607766D01*
X65076666Y-76463019D01*
X65076668Y-76463015D01*
X65076671Y-76463013D01*
X65196984Y-76297414D01*
X65196986Y-76297411D01*
X65196987Y-76297410D01*
X65244216Y-76204717D01*
X65292189Y-76153923D01*
X65360010Y-76137128D01*
X65426145Y-76159665D01*
X65465183Y-76204717D01*
X65509048Y-76290806D01*
X65512415Y-76297414D01*
X65632728Y-76463013D01*
X65777486Y-76607771D01*
X65932449Y-76720356D01*
X65943090Y-76728087D01*
X66052199Y-76783681D01*
X66125476Y-76821018D01*
X66125478Y-76821018D01*
X66125481Y-76821020D01*
X66213198Y-76849521D01*
X66320165Y-76884277D01*
X66413128Y-76899001D01*
X66522348Y-76916300D01*
X66522349Y-76916300D01*
X66727051Y-76916300D01*
X66727052Y-76916300D01*
X66929234Y-76884277D01*
X67123919Y-76821020D01*
X67306310Y-76728087D01*
X67399290Y-76660532D01*
X67471913Y-76607771D01*
X67471915Y-76607768D01*
X67471919Y-76607766D01*
X67616666Y-76463019D01*
X67616668Y-76463015D01*
X67616671Y-76463013D01*
X67736984Y-76297414D01*
X67736986Y-76297411D01*
X67736987Y-76297410D01*
X67784495Y-76204169D01*
X67832470Y-76153374D01*
X67900291Y-76136579D01*
X67966425Y-76159116D01*
X68005465Y-76204170D01*
X68052840Y-76297149D01*
X68173117Y-76462694D01*
X68173117Y-76462695D01*
X68317804Y-76607382D01*
X68483350Y-76727659D01*
X68665668Y-76820554D01*
X68860278Y-76883788D01*
X68914700Y-76892407D01*
X68914700Y-76048812D01*
X68971707Y-76081725D01*
X69098874Y-76115800D01*
X69230526Y-76115800D01*
X69357693Y-76081725D01*
X69414700Y-76048812D01*
X69414700Y-76892406D01*
X69469121Y-76883788D01*
X69663731Y-76820554D01*
X69846049Y-76727659D01*
X70011594Y-76607382D01*
X70011595Y-76607382D01*
X70156282Y-76462695D01*
X70156282Y-76462694D01*
X70276561Y-76297147D01*
X70323934Y-76204171D01*
X70371908Y-76153375D01*
X70439728Y-76136579D01*
X70505864Y-76159116D01*
X70544903Y-76204169D01*
X70592413Y-76297411D01*
X70712728Y-76463013D01*
X70857486Y-76607771D01*
X71012449Y-76720356D01*
X71023090Y-76728087D01*
X71132199Y-76783681D01*
X71205476Y-76821018D01*
X71205478Y-76821018D01*
X71205481Y-76821020D01*
X71293198Y-76849521D01*
X71400165Y-76884277D01*
X71493128Y-76899001D01*
X71602348Y-76916300D01*
X71602349Y-76916300D01*
X71807051Y-76916300D01*
X71807052Y-76916300D01*
X72009234Y-76884277D01*
X72203919Y-76821020D01*
X72386310Y-76728087D01*
X72479290Y-76660532D01*
X72551913Y-76607771D01*
X72551915Y-76607768D01*
X72551919Y-76607766D01*
X72696666Y-76463019D01*
X72696668Y-76463015D01*
X72696671Y-76463013D01*
X72749432Y-76390390D01*
X72816987Y-76297410D01*
X72909920Y-76115019D01*
X72973177Y-75920334D01*
X73005200Y-75718152D01*
X73005200Y-75513448D01*
X72976063Y-75329485D01*
X72973177Y-75311265D01*
X72932952Y-75187466D01*
X72909920Y-75116581D01*
X72909918Y-75116578D01*
X72909918Y-75116576D01*
X72864215Y-75026880D01*
X72816987Y-74934190D01*
X72794783Y-74903629D01*
X72696671Y-74768586D01*
X72551913Y-74623828D01*
X72386313Y-74503515D01*
X72386312Y-74503514D01*
X72386310Y-74503513D01*
X72329353Y-74474491D01*
X72203923Y-74410581D01*
X72009234Y-74347322D01*
X71834695Y-74319678D01*
X71807052Y-74315300D01*
X71602348Y-74315300D01*
X71578029Y-74319151D01*
X71400165Y-74347322D01*
X71205476Y-74410581D01*
X71023086Y-74503515D01*
X70857486Y-74623828D01*
X70712728Y-74768586D01*
X70592413Y-74934188D01*
X70544903Y-75027430D01*
X70496928Y-75078226D01*
X70429107Y-75095020D01*
X70362972Y-75072482D01*
X70323934Y-75027428D01*
X70276561Y-74934452D01*
X70156282Y-74768905D01*
X70156282Y-74768904D01*
X70011595Y-74624217D01*
X69846049Y-74503940D01*
X69663729Y-74411044D01*
X69469113Y-74347809D01*
X69414700Y-74339190D01*
X69414700Y-75182788D01*
X69357693Y-75149875D01*
X69230526Y-75115800D01*
X69098874Y-75115800D01*
X68971707Y-75149875D01*
X68914700Y-75182788D01*
X68914700Y-74339190D01*
X68860286Y-74347809D01*
X68665670Y-74411044D01*
X68483350Y-74503940D01*
X68317805Y-74624217D01*
X68317804Y-74624217D01*
X68173117Y-74768904D01*
X68173117Y-74768905D01*
X68052840Y-74934450D01*
X68005465Y-75027429D01*
X67957490Y-75078225D01*
X67889669Y-75095020D01*
X67823534Y-75072482D01*
X67784495Y-75027429D01*
X67773690Y-75006224D01*
X67736987Y-74934190D01*
X67714783Y-74903629D01*
X67616671Y-74768586D01*
X67471913Y-74623828D01*
X67306313Y-74503515D01*
X67306312Y-74503514D01*
X67306310Y-74503513D01*
X67249353Y-74474491D01*
X67123923Y-74410581D01*
X66929234Y-74347322D01*
X66754695Y-74319678D01*
X66727052Y-74315300D01*
X66522348Y-74315300D01*
X66498029Y-74319151D01*
X66320165Y-74347322D01*
X66125476Y-74410581D01*
X65943086Y-74503515D01*
X65777486Y-74623828D01*
X65632728Y-74768586D01*
X65512415Y-74934186D01*
X65465185Y-75026880D01*
X65417210Y-75077676D01*
X65349389Y-75094471D01*
X65283254Y-75071934D01*
X65244215Y-75026880D01*
X65243583Y-75025640D01*
X65196987Y-74934190D01*
X65174783Y-74903629D01*
X65076671Y-74768586D01*
X64931913Y-74623828D01*
X64766313Y-74503515D01*
X64766312Y-74503514D01*
X64766310Y-74503513D01*
X64709353Y-74474491D01*
X64583923Y-74410581D01*
X64389234Y-74347322D01*
X64214695Y-74319678D01*
X64187052Y-74315300D01*
X63982348Y-74315300D01*
X63958029Y-74319151D01*
X63780165Y-74347322D01*
X63585476Y-74410581D01*
X63403086Y-74503515D01*
X63237486Y-74623828D01*
X63092728Y-74768586D01*
X62972415Y-74934186D01*
X62925185Y-75026880D01*
X62877210Y-75077676D01*
X62809389Y-75094471D01*
X62743254Y-75071934D01*
X62704215Y-75026880D01*
X62703583Y-75025640D01*
X62656987Y-74934190D01*
X62634783Y-74903629D01*
X62536671Y-74768586D01*
X62391913Y-74623828D01*
X62226313Y-74503515D01*
X62226312Y-74503514D01*
X62226310Y-74503513D01*
X62169353Y-74474491D01*
X62043923Y-74410581D01*
X61849234Y-74347322D01*
X61674695Y-74319678D01*
X61647052Y-74315300D01*
X61442348Y-74315300D01*
X61418029Y-74319151D01*
X61240165Y-74347322D01*
X61045476Y-74410581D01*
X60863086Y-74503515D01*
X60697486Y-74623828D01*
X60552728Y-74768586D01*
X60432415Y-74934186D01*
X60385185Y-75026880D01*
X60337210Y-75077676D01*
X60269389Y-75094471D01*
X60203254Y-75071934D01*
X60164215Y-75026880D01*
X60163583Y-75025640D01*
X60116987Y-74934190D01*
X60094783Y-74903629D01*
X59996671Y-74768586D01*
X59851913Y-74623828D01*
X59686313Y-74503515D01*
X59686312Y-74503514D01*
X59686310Y-74503513D01*
X59629353Y-74474491D01*
X59503923Y-74410581D01*
X59309234Y-74347322D01*
X59134695Y-74319678D01*
X59107052Y-74315300D01*
X58902348Y-74315300D01*
X58878029Y-74319151D01*
X58700165Y-74347322D01*
X58505476Y-74410581D01*
X58323086Y-74503515D01*
X58157486Y-74623828D01*
X58012728Y-74768586D01*
X57892415Y-74934186D01*
X57845185Y-75026880D01*
X57797210Y-75077676D01*
X57729389Y-75094471D01*
X57663254Y-75071934D01*
X57624215Y-75026880D01*
X57623583Y-75025640D01*
X57576987Y-74934190D01*
X57554783Y-74903629D01*
X57456671Y-74768586D01*
X57311913Y-74623828D01*
X57146313Y-74503515D01*
X57146312Y-74503514D01*
X57146310Y-74503513D01*
X57089353Y-74474491D01*
X56963923Y-74410581D01*
X56769234Y-74347322D01*
X56594695Y-74319678D01*
X56567052Y-74315300D01*
X56362348Y-74315300D01*
X56334505Y-74319710D01*
X56160164Y-74347323D01*
X56160157Y-74347324D01*
X56126517Y-74358255D01*
X56056676Y-74360250D01*
X55996844Y-74324169D01*
X55966016Y-74261468D01*
X55964200Y-74240324D01*
X55964200Y-71018869D01*
X55983885Y-70951830D01*
X56036689Y-70906075D01*
X56062826Y-70897493D01*
X56075378Y-70894869D01*
X56101611Y-70894869D01*
X56256266Y-70864106D01*
X56290642Y-70849867D01*
X56301999Y-70847493D01*
X56310696Y-70848186D01*
X56327373Y-70844869D01*
X56954411Y-70844869D01*
X57021450Y-70864554D01*
X57042092Y-70881188D01*
X59418258Y-73257354D01*
X59447730Y-73277045D01*
X59491942Y-73306586D01*
X59541177Y-73339484D01*
X59541178Y-73339484D01*
X59541179Y-73339485D01*
X59541181Y-73339486D01*
X59677754Y-73396056D01*
X59677759Y-73396058D01*
X59677763Y-73396058D01*
X59677764Y-73396059D01*
X59822751Y-73424900D01*
X59822754Y-73424900D01*
X59822755Y-73424900D01*
X59970590Y-73424900D01*
X73734570Y-73424900D01*
X73801609Y-73444585D01*
X73822251Y-73461219D01*
X76738781Y-76377748D01*
X76772266Y-76439071D01*
X76775100Y-76465429D01*
X76775100Y-77745518D01*
X76775100Y-77745520D01*
X76775099Y-77745520D01*
X76803940Y-77890507D01*
X76803943Y-77890517D01*
X76860512Y-78027088D01*
X76860519Y-78027101D01*
X76942648Y-78150015D01*
X76942651Y-78150019D01*
X77047180Y-78254548D01*
X77047184Y-78254551D01*
X77170098Y-78336680D01*
X77170111Y-78336687D01*
X77306682Y-78393256D01*
X77306687Y-78393258D01*
X77306691Y-78393258D01*
X77306692Y-78393259D01*
X77451679Y-78422100D01*
X77451682Y-78422100D01*
X90223320Y-78422100D01*
X90320862Y-78402696D01*
X90368313Y-78393258D01*
X90504895Y-78336684D01*
X90554129Y-78303786D01*
X90627816Y-78254552D01*
X92063895Y-76818471D01*
X92125216Y-76784988D01*
X92170971Y-76783681D01*
X92226648Y-76792500D01*
X92226649Y-76792500D01*
X92431351Y-76792500D01*
X92431352Y-76792500D01*
X92633534Y-76760477D01*
X92828219Y-76697220D01*
X93010610Y-76604287D01*
X93144616Y-76506927D01*
X93176213Y-76483971D01*
X93176215Y-76483968D01*
X93176219Y-76483966D01*
X93320966Y-76339219D01*
X93320968Y-76339215D01*
X93320971Y-76339213D01*
X93441284Y-76173614D01*
X93441285Y-76173613D01*
X93441287Y-76173610D01*
X93488516Y-76080917D01*
X93536489Y-76030123D01*
X93604310Y-76013328D01*
X93670445Y-76035865D01*
X93709483Y-76080917D01*
X93746402Y-76153374D01*
X93756715Y-76173614D01*
X93877028Y-76339213D01*
X94021786Y-76483971D01*
X94176749Y-76596556D01*
X94187390Y-76604287D01*
X94303607Y-76663503D01*
X94369776Y-76697218D01*
X94369778Y-76697218D01*
X94369781Y-76697220D01*
X94463463Y-76727659D01*
X94564465Y-76760477D01*
X94648564Y-76773797D01*
X94766648Y-76792500D01*
X94766649Y-76792500D01*
X94971351Y-76792500D01*
X94971352Y-76792500D01*
X95173534Y-76760477D01*
X95368219Y-76697220D01*
X95550610Y-76604287D01*
X95684616Y-76506927D01*
X95716213Y-76483971D01*
X95716215Y-76483968D01*
X95716219Y-76483966D01*
X95860966Y-76339219D01*
X95860968Y-76339215D01*
X95860971Y-76339213D01*
X95981284Y-76173614D01*
X95981285Y-76173613D01*
X95981287Y-76173610D01*
X96028795Y-76080369D01*
X96076770Y-76029574D01*
X96144591Y-76012779D01*
X96210725Y-76035316D01*
X96249765Y-76080370D01*
X96297140Y-76173349D01*
X96417417Y-76338894D01*
X96417417Y-76338895D01*
X96562104Y-76483582D01*
X96727650Y-76603859D01*
X96909968Y-76696754D01*
X97104578Y-76759988D01*
X97159000Y-76768607D01*
X97159000Y-75807686D01*
X97163394Y-75812080D01*
X97254606Y-75864741D01*
X97356339Y-75892000D01*
X97461661Y-75892000D01*
X97563394Y-75864741D01*
X97654606Y-75812080D01*
X97659000Y-75807686D01*
X97659000Y-76768606D01*
X97713421Y-76759988D01*
X97908031Y-76696754D01*
X98090349Y-76603859D01*
X98255894Y-76483582D01*
X98255895Y-76483582D01*
X98400582Y-76338895D01*
X98400582Y-76338894D01*
X98520861Y-76173347D01*
X98568234Y-76080371D01*
X98616208Y-76029575D01*
X98684028Y-76012779D01*
X98750164Y-76035316D01*
X98789203Y-76080369D01*
X98836713Y-76173611D01*
X98957028Y-76339213D01*
X99101786Y-76483971D01*
X99256749Y-76596556D01*
X99267390Y-76604287D01*
X99383607Y-76663503D01*
X99449776Y-76697218D01*
X99449778Y-76697218D01*
X99449781Y-76697220D01*
X99543463Y-76727659D01*
X99644465Y-76760477D01*
X99728564Y-76773797D01*
X99846648Y-76792500D01*
X99846649Y-76792500D01*
X100051351Y-76792500D01*
X100051352Y-76792500D01*
X100253534Y-76760477D01*
X100448219Y-76697220D01*
X100630610Y-76604287D01*
X100764616Y-76506927D01*
X100796213Y-76483971D01*
X100796215Y-76483968D01*
X100796219Y-76483966D01*
X100940966Y-76339219D01*
X100940968Y-76339215D01*
X100940971Y-76339213D01*
X101061284Y-76173614D01*
X101061285Y-76173613D01*
X101061287Y-76173610D01*
X101108516Y-76080917D01*
X101156489Y-76030123D01*
X101224310Y-76013328D01*
X101290445Y-76035865D01*
X101329483Y-76080917D01*
X101366402Y-76153374D01*
X101376715Y-76173614D01*
X101497028Y-76339213D01*
X101641786Y-76483971D01*
X101796749Y-76596556D01*
X101807390Y-76604287D01*
X101923607Y-76663503D01*
X101989776Y-76697218D01*
X101989778Y-76697218D01*
X101989781Y-76697220D01*
X102083463Y-76727659D01*
X102184465Y-76760477D01*
X102268564Y-76773797D01*
X102386648Y-76792500D01*
X102386649Y-76792500D01*
X102591351Y-76792500D01*
X102591352Y-76792500D01*
X102793534Y-76760477D01*
X102988219Y-76697220D01*
X103170610Y-76604287D01*
X103304616Y-76506927D01*
X103336213Y-76483971D01*
X103336215Y-76483968D01*
X103336219Y-76483966D01*
X103480966Y-76339219D01*
X103480968Y-76339215D01*
X103480971Y-76339213D01*
X103549658Y-76244672D01*
X104704200Y-76244672D01*
X104704200Y-76506927D01*
X104725136Y-76665940D01*
X104738430Y-76766916D01*
X104787490Y-76950010D01*
X104806302Y-77020218D01*
X104806305Y-77020228D01*
X104906653Y-77262490D01*
X104906658Y-77262500D01*
X105037775Y-77489603D01*
X105197418Y-77697651D01*
X105197426Y-77697660D01*
X105382840Y-77883074D01*
X105382848Y-77883081D01*
X105382849Y-77883082D01*
X105431254Y-77920224D01*
X105590896Y-78042724D01*
X105817999Y-78173841D01*
X105818009Y-78173846D01*
X106012849Y-78254551D01*
X106060281Y-78274198D01*
X106313584Y-78342070D01*
X106573580Y-78376300D01*
X106573587Y-78376300D01*
X106835813Y-78376300D01*
X106835820Y-78376300D01*
X107095816Y-78342070D01*
X107349119Y-78274198D01*
X107591397Y-78173843D01*
X107818503Y-78042724D01*
X108026551Y-77883082D01*
X108026555Y-77883077D01*
X108026560Y-77883074D01*
X108211974Y-77697660D01*
X108211977Y-77697655D01*
X108211982Y-77697651D01*
X108371624Y-77489603D01*
X108502743Y-77262497D01*
X108603098Y-77020219D01*
X108670970Y-76766916D01*
X108705200Y-76506920D01*
X108705200Y-76244680D01*
X108670970Y-75984684D01*
X108603098Y-75731381D01*
X108603094Y-75731371D01*
X108502746Y-75489109D01*
X108502741Y-75489099D01*
X108371624Y-75261996D01*
X108241180Y-75092000D01*
X108211982Y-75053949D01*
X108211981Y-75053948D01*
X108211974Y-75053940D01*
X108026560Y-74868526D01*
X108026551Y-74868518D01*
X107818503Y-74708875D01*
X107591400Y-74577758D01*
X107591390Y-74577753D01*
X107349128Y-74477405D01*
X107349121Y-74477403D01*
X107349119Y-74477402D01*
X107095816Y-74409530D01*
X107038039Y-74401923D01*
X106835827Y-74375300D01*
X106835820Y-74375300D01*
X106573580Y-74375300D01*
X106573572Y-74375300D01*
X106342472Y-74405726D01*
X106313584Y-74409530D01*
X106234972Y-74430594D01*
X106060281Y-74477402D01*
X106060271Y-74477405D01*
X105818009Y-74577753D01*
X105817999Y-74577758D01*
X105590896Y-74708875D01*
X105382848Y-74868518D01*
X105197418Y-75053948D01*
X105037775Y-75261996D01*
X104906658Y-75489099D01*
X104906653Y-75489109D01*
X104806305Y-75731371D01*
X104806302Y-75731381D01*
X104755673Y-75920334D01*
X104738430Y-75984685D01*
X104704200Y-76244672D01*
X103549658Y-76244672D01*
X103601283Y-76173615D01*
X103601284Y-76173614D01*
X103601287Y-76173610D01*
X103694220Y-75991219D01*
X103757477Y-75796534D01*
X103789500Y-75594352D01*
X103789500Y-75389648D01*
X103769282Y-75261996D01*
X103757477Y-75187465D01*
X103694218Y-74992776D01*
X103648515Y-74903080D01*
X103601287Y-74810390D01*
X103570915Y-74768586D01*
X103480971Y-74644786D01*
X103336213Y-74500028D01*
X103170613Y-74379715D01*
X103170612Y-74379714D01*
X103170610Y-74379713D01*
X103107039Y-74347322D01*
X102988223Y-74286781D01*
X102793534Y-74223522D01*
X102618995Y-74195878D01*
X102591352Y-74191500D01*
X102386648Y-74191500D01*
X102362329Y-74195351D01*
X102184465Y-74223522D01*
X101989776Y-74286781D01*
X101807386Y-74379715D01*
X101641786Y-74500028D01*
X101497028Y-74644786D01*
X101376715Y-74810386D01*
X101329485Y-74903080D01*
X101281510Y-74953876D01*
X101213689Y-74970671D01*
X101147554Y-74948134D01*
X101108515Y-74903080D01*
X101107883Y-74901840D01*
X101061287Y-74810390D01*
X101030915Y-74768586D01*
X100940971Y-74644786D01*
X100796213Y-74500028D01*
X100630613Y-74379715D01*
X100630612Y-74379714D01*
X100630610Y-74379713D01*
X100567039Y-74347322D01*
X100448223Y-74286781D01*
X100253534Y-74223522D01*
X100078995Y-74195878D01*
X100051352Y-74191500D01*
X99846648Y-74191500D01*
X99790971Y-74200318D01*
X99721678Y-74191363D01*
X99683893Y-74165526D01*
X96207821Y-70689452D01*
X96207814Y-70689446D01*
X96134129Y-70640212D01*
X96134129Y-70640213D01*
X96084891Y-70607313D01*
X95948317Y-70550743D01*
X95948307Y-70550740D01*
X95803320Y-70521900D01*
X95803318Y-70521900D01*
X60839630Y-70521900D01*
X60772591Y-70502215D01*
X60751949Y-70485581D01*
X58722349Y-68455981D01*
X58688864Y-68394658D01*
X58693848Y-68324966D01*
X58735720Y-68269033D01*
X58801184Y-68244616D01*
X58810030Y-68244300D01*
X113449282Y-68244300D01*
X113516321Y-68263985D01*
X113549600Y-68295415D01*
X113582728Y-68341012D01*
X113582732Y-68341017D01*
X113727486Y-68485771D01*
X113845124Y-68571238D01*
X113893090Y-68606087D01*
X113984540Y-68652683D01*
X113985780Y-68653315D01*
X114036576Y-68701290D01*
X114053371Y-68769111D01*
X114030834Y-68835246D01*
X113985780Y-68874285D01*
X113893086Y-68921515D01*
X113727486Y-69041828D01*
X113582728Y-69186586D01*
X113462415Y-69352186D01*
X113369481Y-69534576D01*
X113306222Y-69729265D01*
X113274200Y-69931448D01*
X113274200Y-70136151D01*
X113306222Y-70338334D01*
X113369481Y-70533023D01*
X113462415Y-70715413D01*
X113582728Y-70881013D01*
X113727484Y-71025769D01*
X113763768Y-71052130D01*
X113806435Y-71107459D01*
X113812415Y-71177073D01*
X113779809Y-71238868D01*
X113718971Y-71273226D01*
X113704140Y-71275738D01*
X113667219Y-71279707D01*
X113532371Y-71330002D01*
X113532364Y-71330006D01*
X113417155Y-71416252D01*
X113417152Y-71416255D01*
X113330906Y-71531464D01*
X113330902Y-71531471D01*
X113280608Y-71666317D01*
X113274201Y-71725916D01*
X113274201Y-71725923D01*
X113274200Y-71725935D01*
X113274200Y-73421670D01*
X113274201Y-73421676D01*
X113280608Y-73481283D01*
X113330902Y-73616128D01*
X113330906Y-73616135D01*
X113417152Y-73731344D01*
X113417155Y-73731347D01*
X113532364Y-73817593D01*
X113532371Y-73817597D01*
X113667217Y-73867891D01*
X113667216Y-73867891D01*
X113674144Y-73868635D01*
X113726827Y-73874300D01*
X115422572Y-73874299D01*
X115482183Y-73867891D01*
X115617031Y-73817596D01*
X115732246Y-73731346D01*
X115818496Y-73616131D01*
X115868791Y-73481283D01*
X115875200Y-73421673D01*
X115875199Y-71725928D01*
X115868791Y-71666317D01*
X115818496Y-71531469D01*
X115818495Y-71531468D01*
X115818493Y-71531464D01*
X115732247Y-71416255D01*
X115732244Y-71416252D01*
X115617035Y-71330006D01*
X115617028Y-71330002D01*
X115482182Y-71279708D01*
X115482183Y-71279708D01*
X115445260Y-71275739D01*
X115380709Y-71249001D01*
X115340860Y-71191609D01*
X115338367Y-71121784D01*
X115374019Y-71061695D01*
X115385630Y-71052131D01*
X115421919Y-71025766D01*
X115566666Y-70881019D01*
X115566668Y-70881015D01*
X115566671Y-70881013D01*
X115619432Y-70808390D01*
X115686987Y-70715410D01*
X115779920Y-70533019D01*
X115843177Y-70338334D01*
X115875200Y-70136152D01*
X115875200Y-69931448D01*
X115866381Y-69875771D01*
X115875335Y-69806479D01*
X115901170Y-69768695D01*
X116408651Y-69261216D01*
X116490784Y-69138295D01*
X116547358Y-69001713D01*
X116572706Y-68874285D01*
X116576200Y-68856720D01*
X116576200Y-66901697D01*
X116547359Y-66756710D01*
X116547358Y-66756709D01*
X116547358Y-66756705D01*
X116547356Y-66756700D01*
X116490787Y-66620129D01*
X116490780Y-66620116D01*
X116408652Y-66497203D01*
X116408651Y-66497202D01*
X116304116Y-66392667D01*
X115702502Y-65791052D01*
X115669017Y-65729729D01*
X115674001Y-65660037D01*
X115684464Y-65638568D01*
X115686560Y-65635148D01*
X115779455Y-65452829D01*
X115842690Y-65258213D01*
X115851309Y-65203800D01*
X114890386Y-65203800D01*
X114894780Y-65199406D01*
X114947441Y-65108194D01*
X114974700Y-65006461D01*
X114974700Y-64901139D01*
X114947441Y-64799406D01*
X114894780Y-64708194D01*
X114890386Y-64703800D01*
X115851309Y-64703800D01*
X115842690Y-64649386D01*
X115779455Y-64454770D01*
X115686559Y-64272450D01*
X115566282Y-64106905D01*
X115566282Y-64106904D01*
X115421595Y-63962217D01*
X115256049Y-63841940D01*
X115073729Y-63749044D01*
X114879113Y-63685809D01*
X114824700Y-63677190D01*
X114824700Y-64638114D01*
X114820306Y-64633720D01*
X114729094Y-64581059D01*
X114627361Y-64553800D01*
X114522039Y-64553800D01*
X114420306Y-64581059D01*
X114329094Y-64633720D01*
X114324700Y-64638114D01*
X114324700Y-63677190D01*
X114270286Y-63685809D01*
X114075670Y-63749044D01*
X113893350Y-63841940D01*
X113727805Y-63962217D01*
X113727804Y-63962217D01*
X113583117Y-64106904D01*
X113583117Y-64106905D01*
X113462840Y-64272450D01*
X113369944Y-64454770D01*
X113306709Y-64649386D01*
X113298091Y-64703800D01*
X114259014Y-64703800D01*
X114254620Y-64708194D01*
X114201959Y-64799406D01*
X114174700Y-64901139D01*
X114174700Y-65006461D01*
X114201959Y-65108194D01*
X114254620Y-65199406D01*
X114259014Y-65203800D01*
X113298091Y-65203800D01*
X113306709Y-65258213D01*
X113369944Y-65452829D01*
X113462838Y-65635144D01*
X113464942Y-65638578D01*
X113472623Y-65666973D01*
X113482900Y-65694525D01*
X113481641Y-65700308D01*
X113483188Y-65706023D01*
X113474298Y-65734062D01*
X113468048Y-65762798D01*
X113463090Y-65769420D01*
X113462074Y-65772626D01*
X113446897Y-65791052D01*
X113273569Y-65964381D01*
X113212246Y-65997866D01*
X113185888Y-66000700D01*
X109280900Y-66000700D01*
X109213861Y-65981015D01*
X109168106Y-65928211D01*
X109156900Y-65876700D01*
X109156900Y-65808755D01*
X109156899Y-65808753D01*
X109141180Y-65729729D01*
X109126137Y-65654103D01*
X109126135Y-65654098D01*
X109065797Y-65508427D01*
X109065790Y-65508414D01*
X108978189Y-65377311D01*
X108978186Y-65377307D01*
X108866692Y-65265813D01*
X108866688Y-65265810D01*
X108735585Y-65178209D01*
X108735572Y-65178202D01*
X108589901Y-65117864D01*
X108589889Y-65117861D01*
X108435245Y-65087100D01*
X108435242Y-65087100D01*
X108277558Y-65087100D01*
X108277555Y-65087100D01*
X108122911Y-65117860D01*
X108122906Y-65117862D01*
X108122904Y-65117862D01*
X108122903Y-65117863D01*
X108099244Y-65127662D01*
X108051796Y-65137100D01*
X106580680Y-65137100D01*
X106435692Y-65165940D01*
X106435682Y-65165943D01*
X106299111Y-65222512D01*
X106299098Y-65222519D01*
X106214867Y-65278802D01*
X106148190Y-65299680D01*
X106145976Y-65299700D01*
X58154147Y-65299700D01*
X58087108Y-65280015D01*
X58066466Y-65263381D01*
X57631629Y-64828544D01*
X54518227Y-61715141D01*
X54484742Y-61653818D01*
X54489726Y-61584126D01*
X54531598Y-61528193D01*
X54549614Y-61516975D01*
X54591180Y-61495796D01*
X54606310Y-61488087D01*
X54655844Y-61452098D01*
X54771913Y-61367771D01*
X54771915Y-61367768D01*
X54771919Y-61367766D01*
X54916666Y-61223019D01*
X54916668Y-61223015D01*
X54916671Y-61223013D01*
X55036984Y-61057414D01*
X55036986Y-61057411D01*
X55036987Y-61057410D01*
X55084216Y-60964717D01*
X55132189Y-60913923D01*
X55200010Y-60897128D01*
X55266145Y-60919665D01*
X55305185Y-60964719D01*
X55352415Y-61057414D01*
X55472728Y-61223013D01*
X55617486Y-61367771D01*
X55772449Y-61480356D01*
X55783090Y-61488087D01*
X55871912Y-61533344D01*
X55965476Y-61581018D01*
X55965478Y-61581018D01*
X55965481Y-61581020D01*
X56006670Y-61594403D01*
X56160165Y-61644277D01*
X56244264Y-61657597D01*
X56362348Y-61676300D01*
X56362349Y-61676300D01*
X56567051Y-61676300D01*
X56567052Y-61676300D01*
X56769234Y-61644277D01*
X56963919Y-61581020D01*
X57146310Y-61488087D01*
X57254416Y-61409544D01*
X57311913Y-61367771D01*
X57311915Y-61367768D01*
X57311919Y-61367766D01*
X57456666Y-61223019D01*
X57456668Y-61223015D01*
X57456671Y-61223013D01*
X57576984Y-61057414D01*
X57576986Y-61057411D01*
X57576987Y-61057410D01*
X57624216Y-60964717D01*
X57672189Y-60913923D01*
X57740010Y-60897128D01*
X57806145Y-60919665D01*
X57845185Y-60964719D01*
X57892415Y-61057414D01*
X58012728Y-61223013D01*
X58157486Y-61367771D01*
X58312449Y-61480356D01*
X58323090Y-61488087D01*
X58411912Y-61533344D01*
X58505476Y-61581018D01*
X58505478Y-61581018D01*
X58505481Y-61581020D01*
X58546670Y-61594403D01*
X58700165Y-61644277D01*
X58784264Y-61657597D01*
X58902348Y-61676300D01*
X58902349Y-61676300D01*
X59107051Y-61676300D01*
X59107052Y-61676300D01*
X59309234Y-61644277D01*
X59503919Y-61581020D01*
X59686310Y-61488087D01*
X59794416Y-61409544D01*
X59851913Y-61367771D01*
X59851915Y-61367768D01*
X59851919Y-61367766D01*
X59996666Y-61223019D01*
X59996668Y-61223015D01*
X59996671Y-61223013D01*
X60116984Y-61057414D01*
X60116986Y-61057411D01*
X60116987Y-61057410D01*
X60164216Y-60964717D01*
X60212189Y-60913923D01*
X60280010Y-60897128D01*
X60346145Y-60919665D01*
X60385185Y-60964719D01*
X60432415Y-61057414D01*
X60552728Y-61223013D01*
X60697486Y-61367771D01*
X60852449Y-61480356D01*
X60863090Y-61488087D01*
X60951912Y-61533344D01*
X61045476Y-61581018D01*
X61045478Y-61581018D01*
X61045481Y-61581020D01*
X61086670Y-61594403D01*
X61240165Y-61644277D01*
X61324264Y-61657597D01*
X61442348Y-61676300D01*
X61442349Y-61676300D01*
X61647051Y-61676300D01*
X61647052Y-61676300D01*
X61849234Y-61644277D01*
X62043919Y-61581020D01*
X62226310Y-61488087D01*
X62334416Y-61409544D01*
X62391913Y-61367771D01*
X62391915Y-61367768D01*
X62391919Y-61367766D01*
X62536666Y-61223019D01*
X62536668Y-61223015D01*
X62536671Y-61223013D01*
X62656984Y-61057414D01*
X62656986Y-61057411D01*
X62656987Y-61057410D01*
X62704495Y-60964169D01*
X62752470Y-60913374D01*
X62820291Y-60896579D01*
X62886425Y-60919116D01*
X62925465Y-60964170D01*
X62972840Y-61057149D01*
X63093117Y-61222694D01*
X63093117Y-61222695D01*
X63237804Y-61367382D01*
X63403350Y-61487659D01*
X63585668Y-61580554D01*
X63780278Y-61643788D01*
X63834700Y-61652407D01*
X63834700Y-60808812D01*
X63891707Y-60841725D01*
X64018874Y-60875800D01*
X64150526Y-60875800D01*
X64277693Y-60841725D01*
X64334700Y-60808812D01*
X64334700Y-61652406D01*
X64389121Y-61643788D01*
X64583731Y-61580554D01*
X64766049Y-61487659D01*
X64931594Y-61367382D01*
X64931595Y-61367382D01*
X65076282Y-61222695D01*
X65076282Y-61222694D01*
X65196561Y-61057147D01*
X65243934Y-60964171D01*
X65291908Y-60913375D01*
X65359728Y-60896579D01*
X65425864Y-60919116D01*
X65464903Y-60964169D01*
X65512413Y-61057411D01*
X65632728Y-61223013D01*
X65777486Y-61367771D01*
X65932449Y-61480356D01*
X65943090Y-61488087D01*
X66031912Y-61533344D01*
X66125476Y-61581018D01*
X66125478Y-61581018D01*
X66125481Y-61581020D01*
X66166670Y-61594403D01*
X66320165Y-61644277D01*
X66404264Y-61657597D01*
X66522348Y-61676300D01*
X66522349Y-61676300D01*
X66727051Y-61676300D01*
X66727052Y-61676300D01*
X66929234Y-61644277D01*
X67123919Y-61581020D01*
X67306310Y-61488087D01*
X67414416Y-61409544D01*
X67471913Y-61367771D01*
X67471915Y-61367768D01*
X67471919Y-61367766D01*
X67616666Y-61223019D01*
X67616668Y-61223015D01*
X67616671Y-61223013D01*
X67736984Y-61057414D01*
X67736986Y-61057411D01*
X67736987Y-61057410D01*
X67784216Y-60964717D01*
X67832189Y-60913923D01*
X67900010Y-60897128D01*
X67966145Y-60919665D01*
X68005185Y-60964719D01*
X68052415Y-61057414D01*
X68172728Y-61223013D01*
X68317486Y-61367771D01*
X68472449Y-61480356D01*
X68483090Y-61488087D01*
X68571912Y-61533344D01*
X68665476Y-61581018D01*
X68665478Y-61581018D01*
X68665481Y-61581020D01*
X68706670Y-61594403D01*
X68860165Y-61644277D01*
X68944264Y-61657597D01*
X69062348Y-61676300D01*
X69062349Y-61676300D01*
X69267051Y-61676300D01*
X69267052Y-61676300D01*
X69469234Y-61644277D01*
X69663919Y-61581020D01*
X69846310Y-61488087D01*
X69954416Y-61409544D01*
X70011913Y-61367771D01*
X70011915Y-61367768D01*
X70011919Y-61367766D01*
X70156666Y-61223019D01*
X70183030Y-61186730D01*
X70238358Y-61144065D01*
X70307971Y-61138084D01*
X70369767Y-61170689D01*
X70404126Y-61231526D01*
X70406638Y-61246359D01*
X70410607Y-61283280D01*
X70460902Y-61418128D01*
X70460906Y-61418135D01*
X70547152Y-61533344D01*
X70547155Y-61533347D01*
X70662364Y-61619593D01*
X70662371Y-61619597D01*
X70797217Y-61669891D01*
X70797216Y-61669891D01*
X70804144Y-61670635D01*
X70856827Y-61676300D01*
X72552572Y-61676299D01*
X72612183Y-61669891D01*
X72747031Y-61619596D01*
X72862246Y-61533346D01*
X72948496Y-61418131D01*
X72998791Y-61283283D01*
X73005200Y-61223673D01*
X73005199Y-59527928D01*
X72998791Y-59468317D01*
X72992958Y-59452679D01*
X72948497Y-59333471D01*
X72948493Y-59333464D01*
X72862247Y-59218255D01*
X72862244Y-59218252D01*
X72747035Y-59132006D01*
X72747028Y-59132002D01*
X72612182Y-59081708D01*
X72612183Y-59081708D01*
X72552583Y-59075301D01*
X72552581Y-59075300D01*
X72552573Y-59075300D01*
X72552564Y-59075300D01*
X70856829Y-59075300D01*
X70856823Y-59075301D01*
X70797216Y-59081708D01*
X70662371Y-59132002D01*
X70662364Y-59132006D01*
X70547155Y-59218252D01*
X70547152Y-59218255D01*
X70460906Y-59333464D01*
X70460902Y-59333471D01*
X70410608Y-59468316D01*
X70406639Y-59505240D01*
X70379901Y-59569791D01*
X70322509Y-59609639D01*
X70252683Y-59612132D01*
X70192595Y-59576479D01*
X70183032Y-59564870D01*
X70156667Y-59528582D01*
X70011913Y-59383828D01*
X69846313Y-59263515D01*
X69846312Y-59263514D01*
X69846310Y-59263513D01*
X69789353Y-59234491D01*
X69663923Y-59170581D01*
X69469234Y-59107322D01*
X69294695Y-59079678D01*
X69267052Y-59075300D01*
X69062348Y-59075300D01*
X69038029Y-59079151D01*
X68860165Y-59107322D01*
X68665476Y-59170581D01*
X68483086Y-59263515D01*
X68317486Y-59383828D01*
X68172728Y-59528586D01*
X68052415Y-59694186D01*
X68005185Y-59786880D01*
X67957210Y-59837676D01*
X67889389Y-59854471D01*
X67823254Y-59831934D01*
X67784215Y-59786880D01*
X67783583Y-59785640D01*
X67736987Y-59694190D01*
X67729256Y-59683549D01*
X67616671Y-59528586D01*
X67471913Y-59383828D01*
X67306313Y-59263515D01*
X67306312Y-59263514D01*
X67306310Y-59263513D01*
X67249353Y-59234491D01*
X67123923Y-59170581D01*
X66929234Y-59107322D01*
X66754695Y-59079678D01*
X66727052Y-59075300D01*
X66522348Y-59075300D01*
X66498029Y-59079151D01*
X66320165Y-59107322D01*
X66125476Y-59170581D01*
X65943086Y-59263515D01*
X65777486Y-59383828D01*
X65632728Y-59528586D01*
X65512413Y-59694188D01*
X65464903Y-59787430D01*
X65416928Y-59838226D01*
X65349107Y-59855020D01*
X65282972Y-59832482D01*
X65243934Y-59787428D01*
X65196561Y-59694452D01*
X65076282Y-59528905D01*
X65076282Y-59528904D01*
X64931595Y-59384217D01*
X64766049Y-59263940D01*
X64583729Y-59171044D01*
X64389113Y-59107809D01*
X64334700Y-59099190D01*
X64334700Y-59942788D01*
X64277693Y-59909875D01*
X64150526Y-59875800D01*
X64018874Y-59875800D01*
X63891707Y-59909875D01*
X63834700Y-59942788D01*
X63834700Y-59099190D01*
X63780286Y-59107809D01*
X63585670Y-59171044D01*
X63403350Y-59263940D01*
X63237805Y-59384217D01*
X63237804Y-59384217D01*
X63093117Y-59528904D01*
X63093117Y-59528905D01*
X62972840Y-59694450D01*
X62925465Y-59787429D01*
X62877490Y-59838225D01*
X62809669Y-59855020D01*
X62743534Y-59832482D01*
X62704495Y-59787429D01*
X62693690Y-59766224D01*
X62656987Y-59694190D01*
X62649256Y-59683549D01*
X62536671Y-59528586D01*
X62391913Y-59383828D01*
X62226313Y-59263515D01*
X62226312Y-59263514D01*
X62226310Y-59263513D01*
X62169353Y-59234491D01*
X62043923Y-59170581D01*
X61849234Y-59107322D01*
X61674695Y-59079678D01*
X61647052Y-59075300D01*
X61442348Y-59075300D01*
X61418029Y-59079151D01*
X61240165Y-59107322D01*
X61045476Y-59170581D01*
X60863086Y-59263515D01*
X60697486Y-59383828D01*
X60552728Y-59528586D01*
X60432415Y-59694186D01*
X60385185Y-59786880D01*
X60337210Y-59837676D01*
X60269389Y-59854471D01*
X60203254Y-59831934D01*
X60164215Y-59786880D01*
X60163583Y-59785640D01*
X60116987Y-59694190D01*
X60109256Y-59683549D01*
X59996671Y-59528586D01*
X59851913Y-59383828D01*
X59686313Y-59263515D01*
X59686312Y-59263514D01*
X59686310Y-59263513D01*
X59629353Y-59234491D01*
X59503923Y-59170581D01*
X59309234Y-59107322D01*
X59134695Y-59079678D01*
X59107052Y-59075300D01*
X58902348Y-59075300D01*
X58878029Y-59079151D01*
X58700165Y-59107322D01*
X58505476Y-59170581D01*
X58323086Y-59263515D01*
X58157486Y-59383828D01*
X58012728Y-59528586D01*
X57892415Y-59694186D01*
X57845185Y-59786880D01*
X57797210Y-59837676D01*
X57729389Y-59854471D01*
X57663254Y-59831934D01*
X57624215Y-59786880D01*
X57623583Y-59785640D01*
X57576987Y-59694190D01*
X57569256Y-59683549D01*
X57456671Y-59528586D01*
X57311913Y-59383828D01*
X57146313Y-59263515D01*
X57146312Y-59263514D01*
X57146310Y-59263513D01*
X57089353Y-59234491D01*
X56963923Y-59170581D01*
X56769234Y-59107322D01*
X56594695Y-59079678D01*
X56567052Y-59075300D01*
X56362348Y-59075300D01*
X56338029Y-59079151D01*
X56160165Y-59107322D01*
X55965476Y-59170581D01*
X55783086Y-59263515D01*
X55617486Y-59383828D01*
X55472728Y-59528586D01*
X55352415Y-59694186D01*
X55305185Y-59786880D01*
X55257210Y-59837676D01*
X55189389Y-59854471D01*
X55123254Y-59831934D01*
X55084215Y-59786880D01*
X55083583Y-59785640D01*
X55036987Y-59694190D01*
X55029256Y-59683549D01*
X54916671Y-59528586D01*
X54771913Y-59383828D01*
X54606313Y-59263515D01*
X54606312Y-59263514D01*
X54606310Y-59263513D01*
X54549353Y-59234491D01*
X54423923Y-59170581D01*
X54229234Y-59107322D01*
X54054695Y-59079678D01*
X54027052Y-59075300D01*
X53822348Y-59075300D01*
X53798029Y-59079151D01*
X53620165Y-59107322D01*
X53425476Y-59170581D01*
X53243082Y-59263517D01*
X53239536Y-59265690D01*
X53172088Y-59283923D01*
X53105488Y-59262797D01*
X53087082Y-59247633D01*
X52381303Y-58541852D01*
X52381296Y-58541846D01*
X52307611Y-58492612D01*
X52307611Y-58492613D01*
X52258373Y-58459713D01*
X52121799Y-58403143D01*
X52121789Y-58403140D01*
X51976802Y-58374300D01*
X51976800Y-58374300D01*
X40009617Y-58374300D01*
X39861782Y-58374300D01*
X39861780Y-58374300D01*
X39716792Y-58403140D01*
X39716782Y-58403143D01*
X39580211Y-58459712D01*
X39580198Y-58459719D01*
X39457284Y-58541848D01*
X39457280Y-58541851D01*
X38949805Y-59049326D01*
X38888482Y-59082811D01*
X38842726Y-59084118D01*
X38787052Y-59075300D01*
X38582348Y-59075300D01*
X38558029Y-59079151D01*
X38380165Y-59107322D01*
X38185476Y-59170581D01*
X38003086Y-59263515D01*
X37837486Y-59383828D01*
X37692728Y-59528586D01*
X37572415Y-59694186D01*
X37525185Y-59786880D01*
X37477210Y-59837676D01*
X37409389Y-59854471D01*
X37343254Y-59831934D01*
X37304215Y-59786880D01*
X37303583Y-59785640D01*
X37256987Y-59694190D01*
X37249256Y-59683549D01*
X37136671Y-59528586D01*
X36991913Y-59383828D01*
X36826313Y-59263515D01*
X36826312Y-59263514D01*
X36826310Y-59263513D01*
X36769353Y-59234491D01*
X36643923Y-59170581D01*
X36449234Y-59107322D01*
X36274695Y-59079678D01*
X36247052Y-59075300D01*
X36042348Y-59075300D01*
X36018029Y-59079151D01*
X35840165Y-59107322D01*
X35645476Y-59170581D01*
X35463086Y-59263515D01*
X35297486Y-59383828D01*
X35152728Y-59528586D01*
X35032415Y-59694186D01*
X34939481Y-59876576D01*
X34876222Y-60071265D01*
X34844200Y-60273448D01*
X34844200Y-60478151D01*
X34876222Y-60680334D01*
X34939481Y-60875023D01*
X35003391Y-61000453D01*
X35027052Y-61046889D01*
X35032415Y-61057413D01*
X35152728Y-61223013D01*
X35297486Y-61367771D01*
X35452449Y-61480356D01*
X35463090Y-61488087D01*
X35551912Y-61533344D01*
X35645476Y-61581018D01*
X35645478Y-61581018D01*
X35645481Y-61581020D01*
X35686670Y-61594403D01*
X35840165Y-61644277D01*
X35924264Y-61657597D01*
X36042348Y-61676300D01*
X36042349Y-61676300D01*
X36247051Y-61676300D01*
X36247052Y-61676300D01*
X36449234Y-61644277D01*
X36643919Y-61581020D01*
X36826310Y-61488087D01*
X36934416Y-61409544D01*
X36991913Y-61367771D01*
X36991915Y-61367768D01*
X36991919Y-61367766D01*
X37136666Y-61223019D01*
X37136668Y-61223015D01*
X37136671Y-61223013D01*
X37256984Y-61057414D01*
X37256986Y-61057411D01*
X37256987Y-61057410D01*
X37304216Y-60964717D01*
X37352189Y-60913923D01*
X37420010Y-60897128D01*
X37486145Y-60919665D01*
X37525185Y-60964719D01*
X37572415Y-61057414D01*
X37692728Y-61223013D01*
X37837486Y-61367771D01*
X37992449Y-61480356D01*
X38003090Y-61488087D01*
X38091912Y-61533344D01*
X38185476Y-61581018D01*
X38185478Y-61581018D01*
X38185481Y-61581020D01*
X38226670Y-61594403D01*
X38380165Y-61644277D01*
X38464264Y-61657597D01*
X38582348Y-61676300D01*
X38582349Y-61676300D01*
X38787051Y-61676300D01*
X38787052Y-61676300D01*
X38989234Y-61644277D01*
X39183919Y-61581020D01*
X39366310Y-61488087D01*
X39474416Y-61409544D01*
X39531913Y-61367771D01*
X39531915Y-61367768D01*
X39531919Y-61367766D01*
X39676666Y-61223019D01*
X39676668Y-61223015D01*
X39676671Y-61223013D01*
X39796984Y-61057414D01*
X39796986Y-61057411D01*
X39796987Y-61057410D01*
X39844216Y-60964717D01*
X39892189Y-60913923D01*
X39960010Y-60897128D01*
X40026145Y-60919665D01*
X40065185Y-60964719D01*
X40112415Y-61057414D01*
X40232728Y-61223013D01*
X40377486Y-61367771D01*
X40532449Y-61480356D01*
X40543090Y-61488087D01*
X40631912Y-61533344D01*
X40725476Y-61581018D01*
X40725478Y-61581018D01*
X40725481Y-61581020D01*
X40766670Y-61594403D01*
X40920165Y-61644277D01*
X41004264Y-61657597D01*
X41122348Y-61676300D01*
X41122349Y-61676300D01*
X41327050Y-61676300D01*
X41327052Y-61676300D01*
X41382727Y-61667481D01*
X41452019Y-61676435D01*
X41489806Y-61702273D01*
X41911749Y-62124216D01*
X42010461Y-62222928D01*
X42016285Y-62228752D01*
X42139198Y-62310880D01*
X42139211Y-62310887D01*
X42275782Y-62367456D01*
X42275787Y-62367458D01*
X42275791Y-62367458D01*
X42275792Y-62367459D01*
X42420779Y-62396300D01*
X42420782Y-62396300D01*
X46145170Y-62396300D01*
X46212209Y-62415985D01*
X46232851Y-62432619D01*
X47411980Y-63611748D01*
X47411984Y-63611751D01*
X47534898Y-63693880D01*
X47534911Y-63693887D01*
X47668073Y-63749044D01*
X47671487Y-63750458D01*
X47671491Y-63750458D01*
X47671492Y-63750459D01*
X47816479Y-63779300D01*
X47816482Y-63779300D01*
X47964317Y-63779300D01*
X51413606Y-63779300D01*
X51480645Y-63798985D01*
X51501287Y-63815619D01*
X56155713Y-68470045D01*
X56158301Y-68474784D01*
X56162807Y-68477765D01*
X56174870Y-68505129D01*
X56189198Y-68531368D01*
X56188812Y-68536754D01*
X56190992Y-68541698D01*
X56186346Y-68571238D01*
X56184214Y-68601060D01*
X56180753Y-68606805D01*
X56180138Y-68610720D01*
X56168095Y-68627822D01*
X56160667Y-68640157D01*
X56158259Y-68642862D01*
X56071011Y-68730111D01*
X56042041Y-68773466D01*
X56036340Y-68779874D01*
X56013685Y-68794014D01*
X55993195Y-68811139D01*
X55984501Y-68812230D01*
X55977069Y-68816870D01*
X55950367Y-68816518D01*
X55923870Y-68819846D01*
X55915966Y-68816064D01*
X55907205Y-68815949D01*
X55884930Y-68801215D01*
X55860842Y-68789691D01*
X55851893Y-68779363D01*
X55848930Y-68777404D01*
X55847620Y-68774432D01*
X55845515Y-68772003D01*
X55845253Y-68772219D01*
X55841386Y-68767507D01*
X55729892Y-68656013D01*
X55729888Y-68656010D01*
X55598785Y-68568409D01*
X55598772Y-68568402D01*
X55453101Y-68508064D01*
X55453089Y-68508061D01*
X55298445Y-68477300D01*
X55298442Y-68477300D01*
X55140758Y-68477300D01*
X55140755Y-68477300D01*
X54986110Y-68508061D01*
X54986098Y-68508064D01*
X54840427Y-68568402D01*
X54840414Y-68568409D01*
X54709311Y-68656010D01*
X54709307Y-68656013D01*
X54597813Y-68767507D01*
X54597810Y-68767511D01*
X54510209Y-68898614D01*
X54510202Y-68898627D01*
X54449864Y-69044298D01*
X54449861Y-69044310D01*
X54419100Y-69198953D01*
X54419100Y-69356646D01*
X54449861Y-69511289D01*
X54449863Y-69511297D01*
X54453761Y-69520707D01*
X54463200Y-69568160D01*
X54463200Y-74252671D01*
X54443515Y-74319710D01*
X54390711Y-74365465D01*
X54321553Y-74375409D01*
X54300882Y-74370602D01*
X54229237Y-74347323D01*
X54054895Y-74319710D01*
X54027052Y-74315300D01*
X53822348Y-74315300D01*
X53798029Y-74319151D01*
X53620165Y-74347322D01*
X53425476Y-74410581D01*
X53243086Y-74503515D01*
X53077486Y-74623828D01*
X52932728Y-74768586D01*
X52812415Y-74934186D01*
X52765185Y-75026880D01*
X52717210Y-75077676D01*
X52649389Y-75094471D01*
X52583254Y-75071934D01*
X52544215Y-75026880D01*
X52543583Y-75025640D01*
X52496987Y-74934190D01*
X52474783Y-74903629D01*
X52376671Y-74768586D01*
X52231913Y-74623828D01*
X52066313Y-74503515D01*
X52066312Y-74503514D01*
X52066310Y-74503513D01*
X52009353Y-74474491D01*
X51883923Y-74410581D01*
X51689234Y-74347322D01*
X51514695Y-74319678D01*
X51487052Y-74315300D01*
X51282348Y-74315300D01*
X51258029Y-74319151D01*
X51080165Y-74347322D01*
X50885476Y-74410581D01*
X50703086Y-74503515D01*
X50537486Y-74623828D01*
X50392728Y-74768586D01*
X50272415Y-74934186D01*
X50225185Y-75026880D01*
X50177210Y-75077676D01*
X50109389Y-75094471D01*
X50043254Y-75071934D01*
X50004215Y-75026880D01*
X50003583Y-75025640D01*
X49956987Y-74934190D01*
X49934783Y-74903629D01*
X49836671Y-74768586D01*
X49691913Y-74623828D01*
X49526313Y-74503515D01*
X49526312Y-74503514D01*
X49526310Y-74503513D01*
X49469353Y-74474491D01*
X49343923Y-74410581D01*
X49149234Y-74347322D01*
X48974695Y-74319678D01*
X48947052Y-74315300D01*
X48742348Y-74315300D01*
X48718029Y-74319151D01*
X48540165Y-74347322D01*
X48345476Y-74410581D01*
X48163086Y-74503515D01*
X47997486Y-74623828D01*
X47852728Y-74768586D01*
X47732415Y-74934186D01*
X47685185Y-75026880D01*
X47637210Y-75077676D01*
X47569389Y-75094471D01*
X47503254Y-75071934D01*
X47464215Y-75026880D01*
X47463583Y-75025640D01*
X47416987Y-74934190D01*
X47394783Y-74903629D01*
X47296671Y-74768586D01*
X47151913Y-74623828D01*
X46986313Y-74503515D01*
X46986312Y-74503514D01*
X46986310Y-74503513D01*
X46929353Y-74474491D01*
X46803923Y-74410581D01*
X46609234Y-74347322D01*
X46434695Y-74319678D01*
X46407052Y-74315300D01*
X46202348Y-74315300D01*
X46178029Y-74319151D01*
X46000165Y-74347322D01*
X45805476Y-74410581D01*
X45623086Y-74503515D01*
X45457486Y-74623828D01*
X45312728Y-74768586D01*
X45192415Y-74934186D01*
X45145185Y-75026880D01*
X45097210Y-75077676D01*
X45029389Y-75094471D01*
X44963254Y-75071934D01*
X44924215Y-75026880D01*
X44923583Y-75025640D01*
X44876987Y-74934190D01*
X44854783Y-74903629D01*
X44756671Y-74768586D01*
X44611913Y-74623828D01*
X44446313Y-74503515D01*
X44446312Y-74503514D01*
X44446310Y-74503513D01*
X44389353Y-74474491D01*
X44263923Y-74410581D01*
X44069234Y-74347322D01*
X43894695Y-74319678D01*
X43867052Y-74315300D01*
X43662348Y-74315300D01*
X43638029Y-74319151D01*
X43460165Y-74347322D01*
X43265476Y-74410581D01*
X43083086Y-74503515D01*
X42917486Y-74623828D01*
X42772728Y-74768586D01*
X42652415Y-74934186D01*
X42605185Y-75026880D01*
X42557210Y-75077676D01*
X42489389Y-75094471D01*
X42423254Y-75071934D01*
X42384215Y-75026880D01*
X42383583Y-75025640D01*
X42336987Y-74934190D01*
X42314783Y-74903629D01*
X42216671Y-74768586D01*
X42071913Y-74623828D01*
X41906313Y-74503515D01*
X41906312Y-74503514D01*
X41906310Y-74503513D01*
X41849353Y-74474491D01*
X41723923Y-74410581D01*
X41529234Y-74347322D01*
X41354695Y-74319678D01*
X41327052Y-74315300D01*
X41122348Y-74315300D01*
X41098029Y-74319151D01*
X40920165Y-74347322D01*
X40725476Y-74410581D01*
X40543086Y-74503515D01*
X40377486Y-74623828D01*
X40232728Y-74768586D01*
X40112415Y-74934186D01*
X40065185Y-75026880D01*
X40017210Y-75077676D01*
X39949389Y-75094471D01*
X39883254Y-75071934D01*
X39844215Y-75026880D01*
X39843583Y-75025640D01*
X39796987Y-74934190D01*
X39774783Y-74903629D01*
X39676671Y-74768586D01*
X39531913Y-74623828D01*
X39366313Y-74503515D01*
X39366312Y-74503514D01*
X39366310Y-74503513D01*
X39309353Y-74474491D01*
X39183923Y-74410581D01*
X38989234Y-74347322D01*
X38814695Y-74319678D01*
X38787052Y-74315300D01*
X38582348Y-74315300D01*
X38558029Y-74319151D01*
X38380165Y-74347322D01*
X38185476Y-74410581D01*
X38003086Y-74503515D01*
X37837486Y-74623828D01*
X37692728Y-74768586D01*
X37572415Y-74934186D01*
X37525185Y-75026880D01*
X37477210Y-75077676D01*
X37409389Y-75094471D01*
X37343254Y-75071934D01*
X37304215Y-75026880D01*
X37303583Y-75025640D01*
X37256987Y-74934190D01*
X37234783Y-74903629D01*
X37136671Y-74768586D01*
X36991913Y-74623828D01*
X36826313Y-74503515D01*
X36826312Y-74503514D01*
X36826310Y-74503513D01*
X36769353Y-74474491D01*
X36643923Y-74410581D01*
X36449234Y-74347322D01*
X36274695Y-74319678D01*
X36247052Y-74315300D01*
X36042348Y-74315300D01*
X36018029Y-74319151D01*
X35840165Y-74347322D01*
X35645476Y-74410581D01*
X35463086Y-74503515D01*
X35297486Y-74623828D01*
X35152728Y-74768586D01*
X35032415Y-74934186D01*
X34939481Y-75116576D01*
X34876222Y-75311265D01*
X34848056Y-75489103D01*
X34844200Y-75513448D01*
X34844200Y-75718152D01*
X34848578Y-75745795D01*
X34876222Y-75920334D01*
X34939481Y-76115023D01*
X35003391Y-76240453D01*
X35022437Y-76277832D01*
X35032415Y-76297413D01*
X35152728Y-76463013D01*
X35297486Y-76607771D01*
X35452449Y-76720356D01*
X35463090Y-76728087D01*
X35572199Y-76783681D01*
X35645476Y-76821018D01*
X35645478Y-76821018D01*
X35645481Y-76821020D01*
X35733198Y-76849521D01*
X35840165Y-76884277D01*
X35933128Y-76899001D01*
X36042348Y-76916300D01*
X36042349Y-76916300D01*
X36247051Y-76916300D01*
X36247052Y-76916300D01*
X36449234Y-76884277D01*
X36643919Y-76821020D01*
X36826310Y-76728087D01*
X36919290Y-76660532D01*
X36991913Y-76607771D01*
X36991915Y-76607768D01*
X36991919Y-76607766D01*
X37136666Y-76463019D01*
X37136668Y-76463015D01*
X37136671Y-76463013D01*
X37256984Y-76297414D01*
X37256986Y-76297411D01*
X37256987Y-76297410D01*
X37304216Y-76204717D01*
X37352189Y-76153923D01*
X37420010Y-76137128D01*
X37486145Y-76159665D01*
X37525183Y-76204717D01*
X37569048Y-76290806D01*
X37572415Y-76297414D01*
X37692728Y-76463013D01*
X37837486Y-76607771D01*
X37992449Y-76720356D01*
X38003090Y-76728087D01*
X38112199Y-76783681D01*
X38185476Y-76821018D01*
X38185478Y-76821018D01*
X38185481Y-76821020D01*
X38273198Y-76849521D01*
X38380165Y-76884277D01*
X38473128Y-76899001D01*
X38582348Y-76916300D01*
X38582349Y-76916300D01*
X38787051Y-76916300D01*
X38787052Y-76916300D01*
X38989234Y-76884277D01*
X39183919Y-76821020D01*
X39366310Y-76728087D01*
X39459290Y-76660532D01*
X39531913Y-76607771D01*
X39531915Y-76607768D01*
X39531919Y-76607766D01*
X39676666Y-76463019D01*
X39676668Y-76463015D01*
X39676671Y-76463013D01*
X39796984Y-76297414D01*
X39796986Y-76297411D01*
X39796987Y-76297410D01*
X39844216Y-76204717D01*
X39892189Y-76153923D01*
X39960010Y-76137128D01*
X40026145Y-76159665D01*
X40065183Y-76204717D01*
X40109048Y-76290806D01*
X40112415Y-76297414D01*
X40232728Y-76463013D01*
X40377486Y-76607771D01*
X40532449Y-76720356D01*
X40543090Y-76728087D01*
X40652199Y-76783681D01*
X40725476Y-76821018D01*
X40725478Y-76821018D01*
X40725481Y-76821020D01*
X40813198Y-76849521D01*
X40920165Y-76884277D01*
X41013128Y-76899001D01*
X41122348Y-76916300D01*
X41122349Y-76916300D01*
X41327051Y-76916300D01*
X41327052Y-76916300D01*
X41529234Y-76884277D01*
X41723919Y-76821020D01*
X41906310Y-76728087D01*
X41999290Y-76660532D01*
X42071913Y-76607771D01*
X42071915Y-76607768D01*
X42071919Y-76607766D01*
X42216666Y-76463019D01*
X42216668Y-76463015D01*
X42216671Y-76463013D01*
X42336984Y-76297414D01*
X42336986Y-76297411D01*
X42336987Y-76297410D01*
X42384216Y-76204717D01*
X42432189Y-76153923D01*
X42500010Y-76137128D01*
X42566145Y-76159665D01*
X42605183Y-76204717D01*
X42649048Y-76290806D01*
X42652415Y-76297414D01*
X42772728Y-76463013D01*
X42917486Y-76607771D01*
X43072449Y-76720356D01*
X43083090Y-76728087D01*
X43192199Y-76783681D01*
X43265476Y-76821018D01*
X43265478Y-76821018D01*
X43265481Y-76821020D01*
X43353198Y-76849521D01*
X43460165Y-76884277D01*
X43553128Y-76899001D01*
X43662348Y-76916300D01*
X43662349Y-76916300D01*
X43867051Y-76916300D01*
X43867052Y-76916300D01*
X44069234Y-76884277D01*
X44263919Y-76821020D01*
X44446310Y-76728087D01*
X44539290Y-76660532D01*
X44611913Y-76607771D01*
X44611915Y-76607768D01*
X44611919Y-76607766D01*
X44756666Y-76463019D01*
X44756668Y-76463015D01*
X44756671Y-76463013D01*
X44876984Y-76297414D01*
X44876986Y-76297411D01*
X44876987Y-76297410D01*
X44924216Y-76204717D01*
X44972189Y-76153923D01*
X45040010Y-76137128D01*
X45106145Y-76159665D01*
X45145183Y-76204717D01*
X45189048Y-76290806D01*
X45192415Y-76297414D01*
X45312728Y-76463013D01*
X45457486Y-76607771D01*
X45612449Y-76720356D01*
X45623090Y-76728087D01*
X45732199Y-76783681D01*
X45805476Y-76821018D01*
X45805478Y-76821018D01*
X45805481Y-76821020D01*
X45893198Y-76849521D01*
X46000165Y-76884277D01*
X46093128Y-76899001D01*
X46202348Y-76916300D01*
X46202349Y-76916300D01*
X46407051Y-76916300D01*
X46407052Y-76916300D01*
X46609234Y-76884277D01*
X46803919Y-76821020D01*
X46986310Y-76728087D01*
X47079290Y-76660532D01*
X47151913Y-76607771D01*
X47151915Y-76607768D01*
X47151919Y-76607766D01*
X47296666Y-76463019D01*
X47296668Y-76463015D01*
X47296671Y-76463013D01*
X47416984Y-76297414D01*
X47416986Y-76297411D01*
X47416987Y-76297410D01*
X47464216Y-76204717D01*
X47512189Y-76153923D01*
X47580010Y-76137128D01*
X47646145Y-76159665D01*
X47685183Y-76204717D01*
X47729048Y-76290806D01*
X47732415Y-76297414D01*
X47852728Y-76463013D01*
X47997486Y-76607771D01*
X48152449Y-76720356D01*
X48163090Y-76728087D01*
X48272199Y-76783681D01*
X48345476Y-76821018D01*
X48345478Y-76821018D01*
X48345481Y-76821020D01*
X48433198Y-76849521D01*
X48540165Y-76884277D01*
X48633128Y-76899001D01*
X48742348Y-76916300D01*
X48742349Y-76916300D01*
X48947051Y-76916300D01*
X48947052Y-76916300D01*
X49149234Y-76884277D01*
X49343919Y-76821020D01*
X49526310Y-76728087D01*
X49619290Y-76660532D01*
X49691913Y-76607771D01*
X49691915Y-76607768D01*
X49691919Y-76607766D01*
X49836666Y-76463019D01*
X49836668Y-76463015D01*
X49836671Y-76463013D01*
X49956984Y-76297414D01*
X49956986Y-76297411D01*
X49956987Y-76297410D01*
X50004216Y-76204717D01*
X50052189Y-76153923D01*
X50120010Y-76137128D01*
X50186145Y-76159665D01*
X50225183Y-76204717D01*
X50269048Y-76290806D01*
X50272415Y-76297414D01*
X50392728Y-76463013D01*
X50537486Y-76607771D01*
X50692449Y-76720356D01*
X50703090Y-76728087D01*
X50812199Y-76783681D01*
X50885476Y-76821018D01*
X50885478Y-76821018D01*
X50885481Y-76821020D01*
X50973198Y-76849521D01*
X51080165Y-76884277D01*
X51173128Y-76899001D01*
X51282348Y-76916300D01*
X51282349Y-76916300D01*
X51487051Y-76916300D01*
X51487052Y-76916300D01*
X51689234Y-76884277D01*
X51883919Y-76821020D01*
X52066310Y-76728087D01*
X52159290Y-76660532D01*
X52231913Y-76607771D01*
X52231915Y-76607768D01*
X52231919Y-76607766D01*
X52376666Y-76463019D01*
X52376668Y-76463015D01*
X52376671Y-76463013D01*
X52496984Y-76297414D01*
X52496986Y-76297411D01*
X52496987Y-76297410D01*
X52544216Y-76204717D01*
X52592189Y-76153923D01*
X52660010Y-76137128D01*
X52726145Y-76159665D01*
X52765183Y-76204717D01*
X52809048Y-76290806D01*
X52812415Y-76297414D01*
X52932728Y-76463013D01*
X53077486Y-76607771D01*
X53232449Y-76720356D01*
X53243090Y-76728087D01*
X53352199Y-76783681D01*
X53425476Y-76821018D01*
X53425478Y-76821018D01*
X53425481Y-76821020D01*
X53513198Y-76849521D01*
X53620165Y-76884277D01*
X53713128Y-76899001D01*
X53822348Y-76916300D01*
X53822349Y-76916300D01*
X54027051Y-76916300D01*
X54027052Y-76916300D01*
X54192803Y-76890047D01*
X54262095Y-76899001D01*
X54315547Y-76943997D01*
X54336187Y-77010749D01*
X54336200Y-77012520D01*
X54336200Y-78886671D01*
X54316515Y-78953710D01*
X54263711Y-78999465D01*
X54194553Y-79009409D01*
X54173882Y-79004602D01*
X54102237Y-78981323D01*
X53927895Y-78953710D01*
X53900052Y-78949300D01*
X53695348Y-78949300D01*
X53671029Y-78953151D01*
X53493165Y-78981322D01*
X53298476Y-79044581D01*
X53116086Y-79137515D01*
X52950486Y-79257828D01*
X52805728Y-79402586D01*
X52685415Y-79568186D01*
X52638185Y-79660880D01*
X52590210Y-79711676D01*
X52522389Y-79728471D01*
X52456254Y-79705934D01*
X52417215Y-79660880D01*
X52370119Y-79568450D01*
X52369987Y-79568190D01*
X52362256Y-79557549D01*
X52249671Y-79402586D01*
X52104913Y-79257828D01*
X51939313Y-79137515D01*
X51939312Y-79137514D01*
X51939310Y-79137513D01*
X51882353Y-79108491D01*
X51756923Y-79044581D01*
X51562234Y-78981322D01*
X51387695Y-78953678D01*
X51360052Y-78949300D01*
X51155348Y-78949300D01*
X51131029Y-78953151D01*
X50953165Y-78981322D01*
X50758476Y-79044581D01*
X50576086Y-79137515D01*
X50410486Y-79257828D01*
X50265728Y-79402586D01*
X50145415Y-79568186D01*
X50098185Y-79660880D01*
X50050210Y-79711676D01*
X49982389Y-79728471D01*
X49916254Y-79705934D01*
X49877215Y-79660880D01*
X49830119Y-79568450D01*
X49829987Y-79568190D01*
X49822256Y-79557549D01*
X49709671Y-79402586D01*
X49564913Y-79257828D01*
X49399313Y-79137515D01*
X49399312Y-79137514D01*
X49399310Y-79137513D01*
X49342353Y-79108491D01*
X49216923Y-79044581D01*
X49022234Y-78981322D01*
X48847695Y-78953678D01*
X48820052Y-78949300D01*
X48615348Y-78949300D01*
X48591029Y-78953151D01*
X48413165Y-78981322D01*
X48218476Y-79044581D01*
X48036086Y-79137515D01*
X47870486Y-79257828D01*
X47725728Y-79402586D01*
X47605415Y-79568186D01*
X47558185Y-79660880D01*
X47510210Y-79711676D01*
X47442389Y-79728471D01*
X47376254Y-79705934D01*
X47337215Y-79660880D01*
X47290119Y-79568450D01*
X47289987Y-79568190D01*
X47282256Y-79557549D01*
X47169671Y-79402586D01*
X47024913Y-79257828D01*
X46859313Y-79137515D01*
X46859312Y-79137514D01*
X46859310Y-79137513D01*
X46802353Y-79108491D01*
X46676923Y-79044581D01*
X46482234Y-78981322D01*
X46307695Y-78953678D01*
X46280052Y-78949300D01*
X46075348Y-78949300D01*
X46051029Y-78953151D01*
X45873165Y-78981322D01*
X45678476Y-79044581D01*
X45496086Y-79137515D01*
X45330486Y-79257828D01*
X45185728Y-79402586D01*
X45065415Y-79568186D01*
X45018185Y-79660880D01*
X44970210Y-79711676D01*
X44902389Y-79728471D01*
X44836254Y-79705934D01*
X44797215Y-79660880D01*
X44750119Y-79568450D01*
X44749987Y-79568190D01*
X44742256Y-79557549D01*
X44629671Y-79402586D01*
X44484913Y-79257828D01*
X44319313Y-79137515D01*
X44319312Y-79137514D01*
X44319310Y-79137513D01*
X44262353Y-79108491D01*
X44136923Y-79044581D01*
X43942234Y-78981322D01*
X43767695Y-78953678D01*
X43740052Y-78949300D01*
X43535348Y-78949300D01*
X43511029Y-78953151D01*
X43333165Y-78981322D01*
X43138476Y-79044581D01*
X42956086Y-79137515D01*
X42790486Y-79257828D01*
X42645728Y-79402586D01*
X42525415Y-79568186D01*
X42478185Y-79660880D01*
X42430210Y-79711676D01*
X42362389Y-79728471D01*
X42296254Y-79705934D01*
X42257215Y-79660880D01*
X42210119Y-79568450D01*
X42209987Y-79568190D01*
X42202256Y-79557549D01*
X42089671Y-79402586D01*
X41944913Y-79257828D01*
X41779313Y-79137515D01*
X41779312Y-79137514D01*
X41779310Y-79137513D01*
X41722353Y-79108491D01*
X41596923Y-79044581D01*
X41402234Y-78981322D01*
X41227695Y-78953678D01*
X41200052Y-78949300D01*
X40995348Y-78949300D01*
X40971029Y-78953151D01*
X40793165Y-78981322D01*
X40598476Y-79044581D01*
X40416086Y-79137515D01*
X40250486Y-79257828D01*
X40105728Y-79402586D01*
X39985415Y-79568186D01*
X39938185Y-79660880D01*
X39890210Y-79711676D01*
X39822389Y-79728471D01*
X39756254Y-79705934D01*
X39717215Y-79660880D01*
X39670119Y-79568450D01*
X39669987Y-79568190D01*
X39662256Y-79557549D01*
X39549671Y-79402586D01*
X39404913Y-79257828D01*
X39239313Y-79137515D01*
X39239312Y-79137514D01*
X39239310Y-79137513D01*
X39182353Y-79108491D01*
X39056923Y-79044581D01*
X38862234Y-78981322D01*
X38687695Y-78953678D01*
X38660052Y-78949300D01*
X38455348Y-78949300D01*
X38431029Y-78953151D01*
X38253165Y-78981322D01*
X38058476Y-79044581D01*
X37876086Y-79137515D01*
X37710486Y-79257828D01*
X37565728Y-79402586D01*
X37445415Y-79568186D01*
X37398185Y-79660880D01*
X37350210Y-79711676D01*
X37282389Y-79728471D01*
X37216254Y-79705934D01*
X37177215Y-79660880D01*
X37130119Y-79568450D01*
X37129987Y-79568190D01*
X37122256Y-79557549D01*
X37009671Y-79402586D01*
X36864913Y-79257828D01*
X36699313Y-79137515D01*
X36699312Y-79137514D01*
X36699310Y-79137513D01*
X36642353Y-79108491D01*
X36516923Y-79044581D01*
X36322234Y-78981322D01*
X36147695Y-78953678D01*
X36120052Y-78949300D01*
X35915348Y-78949300D01*
X35891029Y-78953151D01*
X35713165Y-78981322D01*
X35518476Y-79044581D01*
X35336086Y-79137515D01*
X35170486Y-79257828D01*
X35025728Y-79402586D01*
X34905415Y-79568186D01*
X34812481Y-79750576D01*
X34749222Y-79945265D01*
X34717200Y-80147448D01*
X25500500Y-80147448D01*
X25500500Y-55320448D01*
X34844200Y-55320448D01*
X34844200Y-55525151D01*
X34876222Y-55727334D01*
X34939481Y-55922023D01*
X35032415Y-56104413D01*
X35152728Y-56270013D01*
X35297486Y-56414771D01*
X35452449Y-56527356D01*
X35463090Y-56535087D01*
X35551912Y-56580344D01*
X35645476Y-56628018D01*
X35645478Y-56628018D01*
X35645481Y-56628020D01*
X35749837Y-56661927D01*
X35840165Y-56691277D01*
X35924264Y-56704597D01*
X36042348Y-56723300D01*
X36042349Y-56723300D01*
X36247051Y-56723300D01*
X36247052Y-56723300D01*
X36449234Y-56691277D01*
X36643919Y-56628020D01*
X36826310Y-56535087D01*
X36922601Y-56465128D01*
X36991913Y-56414771D01*
X36991915Y-56414768D01*
X36991919Y-56414766D01*
X37136666Y-56270019D01*
X37136668Y-56270015D01*
X37136671Y-56270013D01*
X37256984Y-56104414D01*
X37256986Y-56104411D01*
X37256987Y-56104410D01*
X37304216Y-56011717D01*
X37352189Y-55960923D01*
X37420010Y-55944128D01*
X37486145Y-55966665D01*
X37525185Y-56011719D01*
X37572415Y-56104414D01*
X37692728Y-56270013D01*
X37837486Y-56414771D01*
X37992449Y-56527356D01*
X38003090Y-56535087D01*
X38091912Y-56580344D01*
X38185476Y-56628018D01*
X38185478Y-56628018D01*
X38185481Y-56628020D01*
X38289837Y-56661927D01*
X38380165Y-56691277D01*
X38464264Y-56704597D01*
X38582348Y-56723300D01*
X38582349Y-56723300D01*
X38787051Y-56723300D01*
X38787052Y-56723300D01*
X38989234Y-56691277D01*
X39183919Y-56628020D01*
X39366310Y-56535087D01*
X39462601Y-56465128D01*
X39531913Y-56414771D01*
X39531915Y-56414768D01*
X39531919Y-56414766D01*
X39676666Y-56270019D01*
X39676668Y-56270015D01*
X39676671Y-56270013D01*
X39796984Y-56104414D01*
X39796986Y-56104411D01*
X39796987Y-56104410D01*
X39844216Y-56011717D01*
X39892189Y-55960923D01*
X39960010Y-55944128D01*
X40026145Y-55966665D01*
X40065185Y-56011719D01*
X40112415Y-56104414D01*
X40232728Y-56270013D01*
X40377486Y-56414771D01*
X40532449Y-56527356D01*
X40543090Y-56535087D01*
X40631912Y-56580344D01*
X40725476Y-56628018D01*
X40725478Y-56628018D01*
X40725481Y-56628020D01*
X40829837Y-56661927D01*
X40920165Y-56691277D01*
X41004264Y-56704597D01*
X41122348Y-56723300D01*
X41122349Y-56723300D01*
X41327051Y-56723300D01*
X41327052Y-56723300D01*
X41529234Y-56691277D01*
X41723919Y-56628020D01*
X41906310Y-56535087D01*
X42002601Y-56465128D01*
X42071913Y-56414771D01*
X42071915Y-56414768D01*
X42071919Y-56414766D01*
X42216666Y-56270019D01*
X42216668Y-56270015D01*
X42216671Y-56270013D01*
X42336984Y-56104414D01*
X42336986Y-56104411D01*
X42336987Y-56104410D01*
X42384216Y-56011717D01*
X42432189Y-55960923D01*
X42500010Y-55944128D01*
X42566145Y-55966665D01*
X42605185Y-56011719D01*
X42652415Y-56104414D01*
X42772728Y-56270013D01*
X42917486Y-56414771D01*
X43072449Y-56527356D01*
X43083090Y-56535087D01*
X43171912Y-56580344D01*
X43265476Y-56628018D01*
X43265478Y-56628018D01*
X43265481Y-56628020D01*
X43369837Y-56661927D01*
X43460165Y-56691277D01*
X43544264Y-56704597D01*
X43662348Y-56723300D01*
X43662349Y-56723300D01*
X43867051Y-56723300D01*
X43867052Y-56723300D01*
X44069234Y-56691277D01*
X44263919Y-56628020D01*
X44446310Y-56535087D01*
X44542601Y-56465128D01*
X44611913Y-56414771D01*
X44611915Y-56414768D01*
X44611919Y-56414766D01*
X44756666Y-56270019D01*
X44756668Y-56270015D01*
X44756671Y-56270013D01*
X44876984Y-56104414D01*
X44876986Y-56104411D01*
X44876987Y-56104410D01*
X44924216Y-56011717D01*
X44972189Y-55960923D01*
X45040010Y-55944128D01*
X45106145Y-55966665D01*
X45145185Y-56011719D01*
X45192415Y-56104414D01*
X45312728Y-56270013D01*
X45457486Y-56414771D01*
X45612449Y-56527356D01*
X45623090Y-56535087D01*
X45711912Y-56580344D01*
X45805476Y-56628018D01*
X45805478Y-56628018D01*
X45805481Y-56628020D01*
X45909837Y-56661927D01*
X46000165Y-56691277D01*
X46084264Y-56704597D01*
X46202348Y-56723300D01*
X46202349Y-56723300D01*
X46407051Y-56723300D01*
X46407052Y-56723300D01*
X46609234Y-56691277D01*
X46803919Y-56628020D01*
X46986310Y-56535087D01*
X47082601Y-56465128D01*
X47151913Y-56414771D01*
X47151915Y-56414768D01*
X47151919Y-56414766D01*
X47296666Y-56270019D01*
X47296668Y-56270015D01*
X47296671Y-56270013D01*
X47416984Y-56104414D01*
X47416986Y-56104411D01*
X47416987Y-56104410D01*
X47464216Y-56011717D01*
X47512189Y-55960923D01*
X47580010Y-55944128D01*
X47646145Y-55966665D01*
X47685185Y-56011719D01*
X47732415Y-56104414D01*
X47852728Y-56270013D01*
X47997486Y-56414771D01*
X48152449Y-56527356D01*
X48163090Y-56535087D01*
X48251912Y-56580344D01*
X48345476Y-56628018D01*
X48345478Y-56628018D01*
X48345481Y-56628020D01*
X48449837Y-56661927D01*
X48540165Y-56691277D01*
X48624264Y-56704597D01*
X48742348Y-56723300D01*
X48742349Y-56723300D01*
X48947051Y-56723300D01*
X48947052Y-56723300D01*
X49149234Y-56691277D01*
X49343919Y-56628020D01*
X49526310Y-56535087D01*
X49622601Y-56465128D01*
X49691913Y-56414771D01*
X49691915Y-56414768D01*
X49691919Y-56414766D01*
X49836666Y-56270019D01*
X49836668Y-56270015D01*
X49836671Y-56270013D01*
X49956984Y-56104414D01*
X49956986Y-56104411D01*
X49956987Y-56104410D01*
X50004216Y-56011717D01*
X50052189Y-55960923D01*
X50120010Y-55944128D01*
X50186145Y-55966665D01*
X50225185Y-56011719D01*
X50272415Y-56104414D01*
X50392728Y-56270013D01*
X50537486Y-56414771D01*
X50692449Y-56527356D01*
X50703090Y-56535087D01*
X50791912Y-56580344D01*
X50885476Y-56628018D01*
X50885478Y-56628018D01*
X50885481Y-56628020D01*
X50989837Y-56661927D01*
X51080165Y-56691277D01*
X51164264Y-56704597D01*
X51282348Y-56723300D01*
X51282349Y-56723300D01*
X51487050Y-56723300D01*
X51487052Y-56723300D01*
X51542727Y-56714481D01*
X51612019Y-56723435D01*
X51649806Y-56749273D01*
X53443349Y-58542816D01*
X53547884Y-58647351D01*
X53547887Y-58647353D01*
X53547888Y-58647354D01*
X53670803Y-58729483D01*
X53670806Y-58729485D01*
X53720965Y-58750261D01*
X53727380Y-58752918D01*
X53807388Y-58786059D01*
X53923541Y-58809163D01*
X53946680Y-58813765D01*
X53952381Y-58814900D01*
X53952382Y-58814900D01*
X53952383Y-58814900D01*
X54100218Y-58814900D01*
X77428300Y-58814900D01*
X77495339Y-58834585D01*
X77541094Y-58887389D01*
X77552300Y-58938900D01*
X77552300Y-62028470D01*
X77552301Y-62028476D01*
X77558708Y-62088083D01*
X77609002Y-62222928D01*
X77609006Y-62222935D01*
X77695252Y-62338144D01*
X77695255Y-62338147D01*
X77810464Y-62424393D01*
X77810471Y-62424397D01*
X77945317Y-62474691D01*
X77945316Y-62474691D01*
X77952244Y-62475435D01*
X78004927Y-62481100D01*
X81100672Y-62481099D01*
X81160283Y-62474691D01*
X81295131Y-62424396D01*
X81410346Y-62338146D01*
X81496596Y-62222931D01*
X81546891Y-62088083D01*
X81553300Y-62028473D01*
X81553299Y-58938899D01*
X81572984Y-58871861D01*
X81625788Y-58826106D01*
X81677299Y-58814900D01*
X83170004Y-58814900D01*
X83237043Y-58834585D01*
X83282798Y-58887389D01*
X83292742Y-58956547D01*
X83263717Y-59020103D01*
X83257685Y-59026581D01*
X83125518Y-59158748D01*
X82965875Y-59366796D01*
X82834758Y-59593899D01*
X82834753Y-59593909D01*
X82734405Y-59836171D01*
X82734402Y-59836181D01*
X82671412Y-60071266D01*
X82666530Y-60089485D01*
X82632300Y-60349472D01*
X82632300Y-60611727D01*
X82653915Y-60775899D01*
X82666530Y-60871716D01*
X82733618Y-61122092D01*
X82734402Y-61125018D01*
X82734405Y-61125028D01*
X82834753Y-61367290D01*
X82834758Y-61367300D01*
X82965875Y-61594403D01*
X83125518Y-61802451D01*
X83125526Y-61802460D01*
X83310940Y-61987874D01*
X83310948Y-61987881D01*
X83518996Y-62147524D01*
X83746099Y-62278641D01*
X83746109Y-62278646D01*
X83960516Y-62367456D01*
X83988381Y-62378998D01*
X84241684Y-62446870D01*
X84489988Y-62479560D01*
X84501664Y-62481098D01*
X84501680Y-62481100D01*
X84501687Y-62481100D01*
X84763913Y-62481100D01*
X84763920Y-62481100D01*
X85023916Y-62446870D01*
X85277219Y-62378998D01*
X85519497Y-62278643D01*
X85746603Y-62147524D01*
X85954651Y-61987882D01*
X85954655Y-61987877D01*
X85954660Y-61987874D01*
X86140074Y-61802460D01*
X86140077Y-61802455D01*
X86140082Y-61802451D01*
X86299724Y-61594403D01*
X86430843Y-61367297D01*
X86531198Y-61125019D01*
X86599070Y-60871716D01*
X86633300Y-60611720D01*
X86633300Y-60349480D01*
X86599070Y-60089484D01*
X86531198Y-59836181D01*
X86496653Y-59752781D01*
X86430846Y-59593909D01*
X86430841Y-59593899D01*
X86299724Y-59366796D01*
X86140081Y-59158748D01*
X86140074Y-59158740D01*
X86007915Y-59026581D01*
X85974430Y-58965258D01*
X85979414Y-58895566D01*
X86021286Y-58839633D01*
X86086750Y-58815216D01*
X86095596Y-58814900D01*
X89228373Y-58814900D01*
X89295412Y-58834585D01*
X89341167Y-58887389D01*
X89351111Y-58956547D01*
X89322086Y-59020103D01*
X89284668Y-59049385D01*
X89107386Y-59139715D01*
X88941786Y-59260028D01*
X88797028Y-59404786D01*
X88676715Y-59570386D01*
X88583781Y-59752776D01*
X88520522Y-59947465D01*
X88488500Y-60149648D01*
X88488500Y-60354351D01*
X88520522Y-60556534D01*
X88583781Y-60751223D01*
X88629895Y-60841725D01*
X88666402Y-60913374D01*
X88676715Y-60933613D01*
X88797028Y-61099213D01*
X88941786Y-61243971D01*
X89063311Y-61332262D01*
X89107390Y-61364287D01*
X89223607Y-61423503D01*
X89289776Y-61457218D01*
X89289778Y-61457218D01*
X89289781Y-61457220D01*
X89383463Y-61487659D01*
X89484465Y-61520477D01*
X89585557Y-61536488D01*
X89686648Y-61552500D01*
X89686649Y-61552500D01*
X89891351Y-61552500D01*
X89891352Y-61552500D01*
X90093534Y-61520477D01*
X90288219Y-61457220D01*
X90470610Y-61364287D01*
X90566901Y-61294328D01*
X90636213Y-61243971D01*
X90636215Y-61243968D01*
X90636219Y-61243966D01*
X90780966Y-61099219D01*
X90780968Y-61099215D01*
X90780971Y-61099213D01*
X90901284Y-60933614D01*
X90901285Y-60933613D01*
X90901287Y-60933610D01*
X90948516Y-60840917D01*
X90996489Y-60790123D01*
X91064310Y-60773328D01*
X91130445Y-60795865D01*
X91169483Y-60840917D01*
X91206402Y-60913374D01*
X91216715Y-60933614D01*
X91337028Y-61099213D01*
X91481786Y-61243971D01*
X91603311Y-61332262D01*
X91647390Y-61364287D01*
X91763607Y-61423503D01*
X91829776Y-61457218D01*
X91829778Y-61457218D01*
X91829781Y-61457220D01*
X91923463Y-61487659D01*
X92024465Y-61520477D01*
X92125557Y-61536488D01*
X92226648Y-61552500D01*
X92226649Y-61552500D01*
X92431351Y-61552500D01*
X92431352Y-61552500D01*
X92633534Y-61520477D01*
X92828219Y-61457220D01*
X93010610Y-61364287D01*
X93106901Y-61294328D01*
X93176213Y-61243971D01*
X93176215Y-61243968D01*
X93176219Y-61243966D01*
X93320966Y-61099219D01*
X93320968Y-61099215D01*
X93320971Y-61099213D01*
X93441284Y-60933614D01*
X93441285Y-60933613D01*
X93441287Y-60933610D01*
X93488516Y-60840917D01*
X93536489Y-60790123D01*
X93604310Y-60773328D01*
X93670445Y-60795865D01*
X93709483Y-60840917D01*
X93746402Y-60913374D01*
X93756715Y-60933614D01*
X93877028Y-61099213D01*
X94021786Y-61243971D01*
X94143311Y-61332262D01*
X94187390Y-61364287D01*
X94303607Y-61423503D01*
X94369776Y-61457218D01*
X94369778Y-61457218D01*
X94369781Y-61457220D01*
X94463463Y-61487659D01*
X94564465Y-61520477D01*
X94665557Y-61536488D01*
X94766648Y-61552500D01*
X94766649Y-61552500D01*
X94971351Y-61552500D01*
X94971352Y-61552500D01*
X95173534Y-61520477D01*
X95368219Y-61457220D01*
X95550610Y-61364287D01*
X95646901Y-61294328D01*
X95716213Y-61243971D01*
X95716215Y-61243968D01*
X95716219Y-61243966D01*
X95860966Y-61099219D01*
X95860968Y-61099215D01*
X95860971Y-61099213D01*
X95981284Y-60933614D01*
X95981285Y-60933613D01*
X95981287Y-60933610D01*
X96028516Y-60840917D01*
X96076489Y-60790123D01*
X96144310Y-60773328D01*
X96210445Y-60795865D01*
X96249483Y-60840917D01*
X96286402Y-60913374D01*
X96296715Y-60933614D01*
X96417028Y-61099213D01*
X96561786Y-61243971D01*
X96683311Y-61332262D01*
X96727390Y-61364287D01*
X96843607Y-61423503D01*
X96909776Y-61457218D01*
X96909778Y-61457218D01*
X96909781Y-61457220D01*
X97003463Y-61487659D01*
X97104465Y-61520477D01*
X97205557Y-61536488D01*
X97306648Y-61552500D01*
X97306649Y-61552500D01*
X97511351Y-61552500D01*
X97511352Y-61552500D01*
X97713534Y-61520477D01*
X97908219Y-61457220D01*
X98090610Y-61364287D01*
X98186901Y-61294328D01*
X98256213Y-61243971D01*
X98256215Y-61243968D01*
X98256219Y-61243966D01*
X98400966Y-61099219D01*
X98400968Y-61099215D01*
X98400971Y-61099213D01*
X98521284Y-60933614D01*
X98521285Y-60933613D01*
X98521287Y-60933610D01*
X98568516Y-60840917D01*
X98616489Y-60790123D01*
X98684310Y-60773328D01*
X98750445Y-60795865D01*
X98789483Y-60840917D01*
X98826402Y-60913374D01*
X98836715Y-60933614D01*
X98957028Y-61099213D01*
X99101786Y-61243971D01*
X99223311Y-61332262D01*
X99267390Y-61364287D01*
X99383607Y-61423503D01*
X99449776Y-61457218D01*
X99449778Y-61457218D01*
X99449781Y-61457220D01*
X99543463Y-61487659D01*
X99644465Y-61520477D01*
X99745557Y-61536488D01*
X99846648Y-61552500D01*
X99846649Y-61552500D01*
X100051351Y-61552500D01*
X100051352Y-61552500D01*
X100253534Y-61520477D01*
X100448219Y-61457220D01*
X100630610Y-61364287D01*
X100726901Y-61294328D01*
X100796213Y-61243971D01*
X100796215Y-61243968D01*
X100796219Y-61243966D01*
X100940966Y-61099219D01*
X100967330Y-61062930D01*
X101022658Y-61020265D01*
X101092271Y-61014284D01*
X101154067Y-61046889D01*
X101188426Y-61107726D01*
X101190938Y-61122559D01*
X101194907Y-61159480D01*
X101245202Y-61294328D01*
X101245206Y-61294335D01*
X101331452Y-61409544D01*
X101331455Y-61409547D01*
X101446664Y-61495793D01*
X101446671Y-61495797D01*
X101581517Y-61546091D01*
X101581516Y-61546091D01*
X101588444Y-61546835D01*
X101641127Y-61552500D01*
X103336872Y-61552499D01*
X103396483Y-61546091D01*
X103531331Y-61495796D01*
X103646546Y-61409546D01*
X103732796Y-61294331D01*
X103783091Y-61159483D01*
X103789500Y-61099873D01*
X103789499Y-59404128D01*
X103783091Y-59344517D01*
X103778970Y-59333469D01*
X103732797Y-59209671D01*
X103732793Y-59209664D01*
X103646547Y-59094455D01*
X103646544Y-59094452D01*
X103571356Y-59038166D01*
X103529485Y-58982232D01*
X103524501Y-58912541D01*
X103557987Y-58851218D01*
X103619310Y-58817734D01*
X103645667Y-58814900D01*
X105137104Y-58814900D01*
X105204143Y-58834585D01*
X105249898Y-58887389D01*
X105259842Y-58956547D01*
X105230817Y-59020103D01*
X105224785Y-59026581D01*
X105197418Y-59053948D01*
X105037775Y-59261996D01*
X104906658Y-59489099D01*
X104906653Y-59489109D01*
X104806305Y-59731371D01*
X104806302Y-59731381D01*
X104748403Y-59947466D01*
X104738430Y-59984685D01*
X104704200Y-60244672D01*
X104704200Y-60506927D01*
X104730823Y-60709139D01*
X104738430Y-60766916D01*
X104797002Y-60985511D01*
X104806302Y-61020218D01*
X104806305Y-61020228D01*
X104906653Y-61262490D01*
X104906658Y-61262500D01*
X105037775Y-61489603D01*
X105197418Y-61697651D01*
X105197426Y-61697660D01*
X105382840Y-61883074D01*
X105382848Y-61883081D01*
X105590896Y-62042724D01*
X105817999Y-62173841D01*
X105818009Y-62173846D01*
X106060271Y-62274194D01*
X106060281Y-62274198D01*
X106313584Y-62342070D01*
X106573580Y-62376300D01*
X106573587Y-62376300D01*
X106835813Y-62376300D01*
X106835820Y-62376300D01*
X107095816Y-62342070D01*
X107349119Y-62274198D01*
X107591397Y-62173843D01*
X107818503Y-62042724D01*
X108026551Y-61883082D01*
X108026555Y-61883077D01*
X108026560Y-61883074D01*
X108211974Y-61697660D01*
X108211977Y-61697655D01*
X108211982Y-61697651D01*
X108371624Y-61489603D01*
X108502743Y-61262497D01*
X108603098Y-61020219D01*
X108670970Y-60766916D01*
X108705200Y-60506920D01*
X108705200Y-60244680D01*
X108670970Y-59984684D01*
X108603098Y-59731381D01*
X108593469Y-59708134D01*
X108502746Y-59489109D01*
X108502741Y-59489099D01*
X108371624Y-59261996D01*
X108211981Y-59053948D01*
X108211974Y-59053940D01*
X108184615Y-59026581D01*
X108151130Y-58965258D01*
X108156114Y-58895566D01*
X108197986Y-58839633D01*
X108263450Y-58815216D01*
X108272296Y-58814900D01*
X115893570Y-58814900D01*
X115960609Y-58834585D01*
X115981251Y-58851219D01*
X118745581Y-61615548D01*
X118779066Y-61676871D01*
X118781900Y-61703229D01*
X118781900Y-98247396D01*
X118772462Y-98294844D01*
X118762663Y-98318503D01*
X118762662Y-98318506D01*
X118762660Y-98318511D01*
X118731900Y-98473153D01*
X118731900Y-98630846D01*
X118762661Y-98785489D01*
X118762664Y-98785501D01*
X118823002Y-98931172D01*
X118823009Y-98931185D01*
X118910610Y-99062288D01*
X118910613Y-99062292D01*
X119022107Y-99173786D01*
X119022111Y-99173789D01*
X119153214Y-99261390D01*
X119153227Y-99261397D01*
X119291704Y-99318755D01*
X119298903Y-99321737D01*
X119453553Y-99352499D01*
X119453556Y-99352500D01*
X119453558Y-99352500D01*
X119611244Y-99352500D01*
X119611245Y-99352499D01*
X119765897Y-99321737D01*
X119911579Y-99261394D01*
X120042689Y-99173789D01*
X120154189Y-99062289D01*
X120241794Y-98931179D01*
X120302137Y-98785497D01*
X120332900Y-98630842D01*
X120332900Y-98473158D01*
X120332900Y-98473155D01*
X120332899Y-98473153D01*
X120302139Y-98318511D01*
X120302138Y-98318508D01*
X120302137Y-98318503D01*
X120292337Y-98294844D01*
X120282900Y-98247396D01*
X120282900Y-61267079D01*
X120254059Y-61122092D01*
X120254058Y-61122091D01*
X120254058Y-61122087D01*
X120254056Y-61122082D01*
X120197487Y-60985511D01*
X120197480Y-60985498D01*
X120115352Y-60862585D01*
X120093686Y-60840919D01*
X120010816Y-60758049D01*
X119200232Y-59947465D01*
X116734221Y-57481452D01*
X116734214Y-57481446D01*
X116660529Y-57432212D01*
X116660529Y-57432213D01*
X116611291Y-57399313D01*
X116474717Y-57342743D01*
X116474707Y-57342740D01*
X116329720Y-57313900D01*
X116329718Y-57313900D01*
X54388529Y-57313900D01*
X54321490Y-57294215D01*
X54300848Y-57277581D01*
X53957000Y-56933733D01*
X53923515Y-56872410D01*
X53928499Y-56802718D01*
X53970371Y-56746785D01*
X54025284Y-56723579D01*
X54027046Y-56723300D01*
X54027052Y-56723300D01*
X54229234Y-56691277D01*
X54423919Y-56628020D01*
X54606310Y-56535087D01*
X54702601Y-56465128D01*
X54771913Y-56414771D01*
X54771915Y-56414768D01*
X54771919Y-56414766D01*
X54916666Y-56270019D01*
X54916668Y-56270015D01*
X54916671Y-56270013D01*
X55036984Y-56104414D01*
X55036986Y-56104411D01*
X55036987Y-56104410D01*
X55084216Y-56011717D01*
X55132189Y-55960923D01*
X55200010Y-55944128D01*
X55266145Y-55966665D01*
X55305185Y-56011719D01*
X55352415Y-56104414D01*
X55472728Y-56270013D01*
X55617486Y-56414771D01*
X55772449Y-56527356D01*
X55783090Y-56535087D01*
X55871912Y-56580344D01*
X55965476Y-56628018D01*
X55965478Y-56628018D01*
X55965481Y-56628020D01*
X56069837Y-56661927D01*
X56160165Y-56691277D01*
X56244264Y-56704597D01*
X56362348Y-56723300D01*
X56362349Y-56723300D01*
X56567051Y-56723300D01*
X56567052Y-56723300D01*
X56769234Y-56691277D01*
X56963919Y-56628020D01*
X57146310Y-56535087D01*
X57242601Y-56465128D01*
X57311913Y-56414771D01*
X57311915Y-56414768D01*
X57311919Y-56414766D01*
X57456666Y-56270019D01*
X57456668Y-56270015D01*
X57456671Y-56270013D01*
X57576984Y-56104414D01*
X57576986Y-56104411D01*
X57576987Y-56104410D01*
X57624216Y-56011717D01*
X57672189Y-55960923D01*
X57740010Y-55944128D01*
X57806145Y-55966665D01*
X57845185Y-56011719D01*
X57892415Y-56104414D01*
X58012728Y-56270013D01*
X58157486Y-56414771D01*
X58312449Y-56527356D01*
X58323090Y-56535087D01*
X58411912Y-56580344D01*
X58505476Y-56628018D01*
X58505478Y-56628018D01*
X58505481Y-56628020D01*
X58609837Y-56661927D01*
X58700165Y-56691277D01*
X58784264Y-56704597D01*
X58902348Y-56723300D01*
X58902349Y-56723300D01*
X59107051Y-56723300D01*
X59107052Y-56723300D01*
X59309234Y-56691277D01*
X59503919Y-56628020D01*
X59686310Y-56535087D01*
X59782601Y-56465128D01*
X59851913Y-56414771D01*
X59851915Y-56414768D01*
X59851919Y-56414766D01*
X59996666Y-56270019D01*
X59996668Y-56270015D01*
X59996671Y-56270013D01*
X60116984Y-56104414D01*
X60116986Y-56104411D01*
X60116987Y-56104410D01*
X60164216Y-56011717D01*
X60212189Y-55960923D01*
X60280010Y-55944128D01*
X60346145Y-55966665D01*
X60385185Y-56011719D01*
X60432415Y-56104414D01*
X60552728Y-56270013D01*
X60697486Y-56414771D01*
X60852449Y-56527356D01*
X60863090Y-56535087D01*
X60951912Y-56580344D01*
X61045476Y-56628018D01*
X61045478Y-56628018D01*
X61045481Y-56628020D01*
X61149837Y-56661927D01*
X61240165Y-56691277D01*
X61324264Y-56704597D01*
X61442348Y-56723300D01*
X61442349Y-56723300D01*
X61647051Y-56723300D01*
X61647052Y-56723300D01*
X61849234Y-56691277D01*
X62043919Y-56628020D01*
X62226310Y-56535087D01*
X62322601Y-56465128D01*
X62391913Y-56414771D01*
X62391915Y-56414768D01*
X62391919Y-56414766D01*
X62536666Y-56270019D01*
X62536668Y-56270015D01*
X62536671Y-56270013D01*
X62656984Y-56104414D01*
X62656986Y-56104411D01*
X62656987Y-56104410D01*
X62704495Y-56011169D01*
X62752470Y-55960374D01*
X62820291Y-55943579D01*
X62886425Y-55966116D01*
X62925465Y-56011170D01*
X62972840Y-56104149D01*
X63093117Y-56269694D01*
X63093117Y-56269695D01*
X63237804Y-56414382D01*
X63403350Y-56534659D01*
X63585668Y-56627554D01*
X63780278Y-56690788D01*
X63834700Y-56699407D01*
X63834700Y-55855812D01*
X63891707Y-55888725D01*
X64018874Y-55922800D01*
X64150526Y-55922800D01*
X64277693Y-55888725D01*
X64334700Y-55855812D01*
X64334700Y-56699406D01*
X64389121Y-56690788D01*
X64583731Y-56627554D01*
X64766049Y-56534659D01*
X64931594Y-56414382D01*
X64931595Y-56414382D01*
X65076282Y-56269695D01*
X65076282Y-56269694D01*
X65196561Y-56104147D01*
X65243934Y-56011171D01*
X65291908Y-55960375D01*
X65359728Y-55943579D01*
X65425864Y-55966116D01*
X65464903Y-56011169D01*
X65512413Y-56104411D01*
X65632728Y-56270013D01*
X65777486Y-56414771D01*
X65932449Y-56527356D01*
X65943090Y-56535087D01*
X66031912Y-56580344D01*
X66125476Y-56628018D01*
X66125478Y-56628018D01*
X66125481Y-56628020D01*
X66229837Y-56661927D01*
X66320165Y-56691277D01*
X66404264Y-56704597D01*
X66522348Y-56723300D01*
X66522349Y-56723300D01*
X66727051Y-56723300D01*
X66727052Y-56723300D01*
X66929234Y-56691277D01*
X67123919Y-56628020D01*
X67306310Y-56535087D01*
X67402601Y-56465128D01*
X67471913Y-56414771D01*
X67471915Y-56414768D01*
X67471919Y-56414766D01*
X67616666Y-56270019D01*
X67616668Y-56270015D01*
X67616671Y-56270013D01*
X67736984Y-56104414D01*
X67736986Y-56104411D01*
X67736987Y-56104410D01*
X67784216Y-56011717D01*
X67832189Y-55960923D01*
X67900010Y-55944128D01*
X67966145Y-55966665D01*
X68005185Y-56011719D01*
X68052415Y-56104414D01*
X68172728Y-56270013D01*
X68317486Y-56414771D01*
X68472449Y-56527356D01*
X68483090Y-56535087D01*
X68571912Y-56580344D01*
X68665476Y-56628018D01*
X68665478Y-56628018D01*
X68665481Y-56628020D01*
X68769837Y-56661927D01*
X68860165Y-56691277D01*
X68944264Y-56704597D01*
X69062348Y-56723300D01*
X69062349Y-56723300D01*
X69267051Y-56723300D01*
X69267052Y-56723300D01*
X69469234Y-56691277D01*
X69663919Y-56628020D01*
X69846310Y-56535087D01*
X69942601Y-56465128D01*
X70011913Y-56414771D01*
X70011915Y-56414768D01*
X70011919Y-56414766D01*
X70156666Y-56270019D01*
X70183030Y-56233730D01*
X70238358Y-56191065D01*
X70307971Y-56185084D01*
X70369767Y-56217689D01*
X70404126Y-56278526D01*
X70406638Y-56293359D01*
X70410607Y-56330280D01*
X70460902Y-56465128D01*
X70460906Y-56465135D01*
X70547152Y-56580344D01*
X70547155Y-56580347D01*
X70662364Y-56666593D01*
X70662371Y-56666597D01*
X70797217Y-56716891D01*
X70797216Y-56716891D01*
X70804144Y-56717635D01*
X70856827Y-56723300D01*
X72552572Y-56723299D01*
X72612183Y-56716891D01*
X72747031Y-56666596D01*
X72862246Y-56580346D01*
X72948496Y-56465131D01*
X72998791Y-56330283D01*
X73005200Y-56270673D01*
X73005199Y-54802728D01*
X73024884Y-54735690D01*
X73041513Y-54715053D01*
X77925076Y-49831491D01*
X86999500Y-49831491D01*
X86999500Y-50168508D01*
X87037231Y-50503381D01*
X87037233Y-50503397D01*
X87112223Y-50831953D01*
X87112227Y-50831965D01*
X87223532Y-51150054D01*
X87369752Y-51453683D01*
X87369754Y-51453686D01*
X87549054Y-51739039D01*
X87759175Y-52002523D01*
X87997477Y-52240825D01*
X88260961Y-52450946D01*
X88546314Y-52630246D01*
X88849949Y-52776469D01*
X89088848Y-52860063D01*
X89168034Y-52887772D01*
X89168046Y-52887776D01*
X89496606Y-52962767D01*
X89831492Y-53000499D01*
X89831493Y-53000500D01*
X89831496Y-53000500D01*
X90168507Y-53000500D01*
X90168507Y-53000499D01*
X90503394Y-52962767D01*
X90831954Y-52887776D01*
X91150051Y-52776469D01*
X91453686Y-52630246D01*
X91739039Y-52450946D01*
X92002523Y-52240825D01*
X92240825Y-52002523D01*
X92450946Y-51739039D01*
X92630246Y-51453686D01*
X92776469Y-51150051D01*
X92887776Y-50831954D01*
X92962767Y-50503394D01*
X93000500Y-50168504D01*
X93000500Y-49868872D01*
X112999500Y-49868872D01*
X112999500Y-50131127D01*
X113025518Y-50328738D01*
X113033730Y-50391116D01*
X113097291Y-50628330D01*
X113101602Y-50644418D01*
X113101605Y-50644428D01*
X113201953Y-50886690D01*
X113201958Y-50886700D01*
X113333075Y-51113803D01*
X113492718Y-51321851D01*
X113492726Y-51321860D01*
X113678140Y-51507274D01*
X113678148Y-51507281D01*
X113886196Y-51666924D01*
X114113299Y-51798041D01*
X114113309Y-51798046D01*
X114343483Y-51893387D01*
X114355581Y-51898398D01*
X114608884Y-51966270D01*
X114868880Y-52000500D01*
X114868887Y-52000500D01*
X115131113Y-52000500D01*
X115131120Y-52000500D01*
X115391116Y-51966270D01*
X115644419Y-51898398D01*
X115886697Y-51798043D01*
X116113803Y-51666924D01*
X116321851Y-51507282D01*
X116321855Y-51507277D01*
X116321860Y-51507274D01*
X116507274Y-51321860D01*
X116507277Y-51321855D01*
X116507282Y-51321851D01*
X116666924Y-51113803D01*
X116798043Y-50886697D01*
X116898398Y-50644419D01*
X116966270Y-50391116D01*
X117000500Y-50131120D01*
X117000500Y-49868880D01*
X116966270Y-49608884D01*
X116898398Y-49355581D01*
X116884427Y-49321851D01*
X116798046Y-49113309D01*
X116798041Y-49113299D01*
X116666924Y-48886196D01*
X116507281Y-48678148D01*
X116507274Y-48678140D01*
X116321860Y-48492726D01*
X116321851Y-48492718D01*
X116113803Y-48333075D01*
X115886700Y-48201958D01*
X115886690Y-48201953D01*
X115644428Y-48101605D01*
X115644421Y-48101603D01*
X115644419Y-48101602D01*
X115391116Y-48033730D01*
X115333339Y-48026123D01*
X115131127Y-47999500D01*
X115131120Y-47999500D01*
X114868880Y-47999500D01*
X114868872Y-47999500D01*
X114637772Y-48029926D01*
X114608884Y-48033730D01*
X114569052Y-48044403D01*
X114355581Y-48101602D01*
X114355571Y-48101605D01*
X114113309Y-48201953D01*
X114113299Y-48201958D01*
X113886196Y-48333075D01*
X113678148Y-48492718D01*
X113492718Y-48678148D01*
X113333075Y-48886196D01*
X113201958Y-49113299D01*
X113201953Y-49113309D01*
X113101605Y-49355571D01*
X113101602Y-49355581D01*
X113033742Y-49608842D01*
X113033730Y-49608885D01*
X112999500Y-49868872D01*
X93000500Y-49868872D01*
X93000500Y-49831496D01*
X92962767Y-49496606D01*
X92887776Y-49168046D01*
X92776469Y-48849949D01*
X92630246Y-48546314D01*
X92450946Y-48260961D01*
X92240825Y-47997477D01*
X92002523Y-47759175D01*
X91739039Y-47549054D01*
X91453686Y-47369754D01*
X91453683Y-47369752D01*
X91150054Y-47223532D01*
X90831965Y-47112227D01*
X90831953Y-47112223D01*
X90503397Y-47037233D01*
X90503381Y-47037231D01*
X90168508Y-46999500D01*
X90168504Y-46999500D01*
X89831496Y-46999500D01*
X89831491Y-46999500D01*
X89496618Y-47037231D01*
X89496602Y-47037233D01*
X89168046Y-47112223D01*
X89168034Y-47112227D01*
X88849945Y-47223532D01*
X88546316Y-47369752D01*
X88260962Y-47549053D01*
X87997477Y-47759174D01*
X87759174Y-47997477D01*
X87549053Y-48260962D01*
X87369752Y-48546316D01*
X87223532Y-48849945D01*
X87112227Y-49168034D01*
X87112223Y-49168046D01*
X87037233Y-49496602D01*
X87037231Y-49496618D01*
X86999500Y-49831491D01*
X77925076Y-49831491D01*
X82418149Y-45338419D01*
X82479472Y-45304934D01*
X82505830Y-45302100D01*
X107442196Y-45302100D01*
X107489644Y-45311537D01*
X107513303Y-45321337D01*
X107513308Y-45321338D01*
X107513311Y-45321339D01*
X107667953Y-45352099D01*
X107667956Y-45352100D01*
X107667958Y-45352100D01*
X107825644Y-45352100D01*
X107825645Y-45352099D01*
X107980297Y-45321337D01*
X108125979Y-45260994D01*
X108257089Y-45173389D01*
X108368589Y-45061889D01*
X108456194Y-44930779D01*
X108516537Y-44785097D01*
X108547300Y-44630442D01*
X108547300Y-44472758D01*
X108547300Y-44472755D01*
X108547299Y-44472753D01*
X108516538Y-44318110D01*
X108516537Y-44318103D01*
X108482591Y-44236149D01*
X108456197Y-44172427D01*
X108456193Y-44172420D01*
X108416785Y-44113441D01*
X108395908Y-44046766D01*
X108414392Y-43979386D01*
X108432208Y-43956870D01*
X108470186Y-43918892D01*
X108470189Y-43918889D01*
X108557794Y-43787779D01*
X108618137Y-43642097D01*
X108648900Y-43487442D01*
X108648900Y-43329758D01*
X108648900Y-43329755D01*
X108648899Y-43329753D01*
X108618138Y-43175110D01*
X108618137Y-43175103D01*
X108570297Y-43059605D01*
X108557797Y-43029427D01*
X108557790Y-43029414D01*
X108470189Y-42898311D01*
X108470186Y-42898307D01*
X108358692Y-42786813D01*
X108358688Y-42786810D01*
X108227585Y-42699209D01*
X108227572Y-42699202D01*
X108081901Y-42638864D01*
X108081889Y-42638861D01*
X107927245Y-42608100D01*
X107927242Y-42608100D01*
X107769558Y-42608100D01*
X107769555Y-42608100D01*
X107614911Y-42638860D01*
X107614906Y-42638862D01*
X107614904Y-42638862D01*
X107614903Y-42638863D01*
X107591244Y-42648662D01*
X107543796Y-42658100D01*
X81104976Y-42658100D01*
X81076142Y-42663834D01*
X81076143Y-42663835D01*
X80959993Y-42686939D01*
X80959983Y-42686942D01*
X80879981Y-42720079D01*
X80879982Y-42720080D01*
X80823405Y-42743515D01*
X80761735Y-42784721D01*
X80758606Y-42786813D01*
X80741272Y-42798395D01*
X80700485Y-42825647D01*
X80700481Y-42825650D01*
X77038458Y-46487673D01*
X76977135Y-46521158D01*
X76907443Y-46516174D01*
X76851510Y-46474302D01*
X76827093Y-46408838D01*
X76836216Y-46352539D01*
X76844278Y-46333075D01*
X76898398Y-46202419D01*
X76966270Y-45949116D01*
X77000500Y-45689120D01*
X77000500Y-45426880D01*
X76966270Y-45166884D01*
X76898398Y-44913581D01*
X76800204Y-44676520D01*
X76798046Y-44671309D01*
X76798041Y-44671299D01*
X76666924Y-44444196D01*
X76507281Y-44236148D01*
X76507274Y-44236140D01*
X76321860Y-44050726D01*
X76321851Y-44050718D01*
X76113803Y-43891075D01*
X75886700Y-43759958D01*
X75886690Y-43759953D01*
X75644428Y-43659605D01*
X75644421Y-43659603D01*
X75644419Y-43659602D01*
X75391116Y-43591730D01*
X75333339Y-43584123D01*
X75131127Y-43557500D01*
X75131120Y-43557500D01*
X74868880Y-43557500D01*
X74868872Y-43557500D01*
X74637772Y-43587926D01*
X74608884Y-43591730D01*
X74420941Y-43642089D01*
X74355581Y-43659602D01*
X74355571Y-43659605D01*
X74113309Y-43759953D01*
X74113299Y-43759958D01*
X73886196Y-43891075D01*
X73678148Y-44050718D01*
X73492718Y-44236148D01*
X73333075Y-44444196D01*
X73201958Y-44671299D01*
X73201953Y-44671309D01*
X73101605Y-44913571D01*
X73101602Y-44913581D01*
X73061863Y-45061892D01*
X73033730Y-45166885D01*
X72999500Y-45426872D01*
X72999500Y-45689127D01*
X73019983Y-45844700D01*
X73033730Y-45949116D01*
X73101602Y-46202418D01*
X73101605Y-46202428D01*
X73201953Y-46444690D01*
X73201958Y-46444700D01*
X73333075Y-46671803D01*
X73492718Y-46879851D01*
X73492726Y-46879860D01*
X73678140Y-47065274D01*
X73678148Y-47065281D01*
X73886196Y-47224924D01*
X74113299Y-47356041D01*
X74113309Y-47356046D01*
X74262933Y-47418022D01*
X74355581Y-47456398D01*
X74608884Y-47524270D01*
X74868880Y-47558500D01*
X74868887Y-47558500D01*
X75131113Y-47558500D01*
X75131120Y-47558500D01*
X75391116Y-47524270D01*
X75644419Y-47456398D01*
X75794539Y-47394215D01*
X75864008Y-47386747D01*
X75926488Y-47418022D01*
X75962140Y-47478111D01*
X75959647Y-47547936D01*
X75929673Y-47596458D01*
X69429805Y-54096326D01*
X69368482Y-54129811D01*
X69322726Y-54131118D01*
X69267052Y-54122300D01*
X69062348Y-54122300D01*
X69038029Y-54126151D01*
X68860165Y-54154322D01*
X68665476Y-54217581D01*
X68483086Y-54310515D01*
X68317486Y-54430828D01*
X68172728Y-54575586D01*
X68052415Y-54741186D01*
X68005185Y-54833880D01*
X67957210Y-54884676D01*
X67889389Y-54901471D01*
X67823254Y-54878934D01*
X67784215Y-54833880D01*
X67783583Y-54832640D01*
X67736987Y-54741190D01*
X67717994Y-54715048D01*
X67616671Y-54575586D01*
X67471913Y-54430828D01*
X67306313Y-54310515D01*
X67306312Y-54310514D01*
X67306310Y-54310513D01*
X67249353Y-54281491D01*
X67123923Y-54217581D01*
X66929234Y-54154322D01*
X66754695Y-54126678D01*
X66727052Y-54122300D01*
X66522348Y-54122300D01*
X66498029Y-54126151D01*
X66320165Y-54154322D01*
X66125476Y-54217581D01*
X65943086Y-54310515D01*
X65777486Y-54430828D01*
X65632728Y-54575586D01*
X65512413Y-54741188D01*
X65464903Y-54834430D01*
X65416928Y-54885226D01*
X65349107Y-54902020D01*
X65282972Y-54879482D01*
X65243934Y-54834428D01*
X65196561Y-54741452D01*
X65076282Y-54575905D01*
X65076282Y-54575904D01*
X64931595Y-54431217D01*
X64766049Y-54310940D01*
X64583729Y-54218044D01*
X64389113Y-54154809D01*
X64334700Y-54146190D01*
X64334700Y-54989788D01*
X64277693Y-54956875D01*
X64150526Y-54922800D01*
X64018874Y-54922800D01*
X63891707Y-54956875D01*
X63834700Y-54989788D01*
X63834700Y-54146190D01*
X63780286Y-54154809D01*
X63585670Y-54218044D01*
X63403350Y-54310940D01*
X63237805Y-54431217D01*
X63237804Y-54431217D01*
X63093117Y-54575904D01*
X63093117Y-54575905D01*
X62972840Y-54741450D01*
X62925465Y-54834429D01*
X62877490Y-54885225D01*
X62809669Y-54902020D01*
X62743534Y-54879482D01*
X62704495Y-54834429D01*
X62688343Y-54802729D01*
X62656987Y-54741190D01*
X62637994Y-54715048D01*
X62536671Y-54575586D01*
X62391913Y-54430828D01*
X62226313Y-54310515D01*
X62226312Y-54310514D01*
X62226310Y-54310513D01*
X62169353Y-54281491D01*
X62043923Y-54217581D01*
X61849234Y-54154322D01*
X61674695Y-54126678D01*
X61647052Y-54122300D01*
X61442348Y-54122300D01*
X61418029Y-54126151D01*
X61240165Y-54154322D01*
X61045476Y-54217581D01*
X60863086Y-54310515D01*
X60697486Y-54430828D01*
X60552728Y-54575586D01*
X60432415Y-54741186D01*
X60385185Y-54833880D01*
X60337210Y-54884676D01*
X60269389Y-54901471D01*
X60203254Y-54878934D01*
X60164215Y-54833880D01*
X60163583Y-54832640D01*
X60116987Y-54741190D01*
X60097994Y-54715048D01*
X59996671Y-54575586D01*
X59851913Y-54430828D01*
X59686313Y-54310515D01*
X59686312Y-54310514D01*
X59686310Y-54310513D01*
X59503919Y-54217580D01*
X59492638Y-54213914D01*
X59434965Y-54174474D01*
X59407770Y-54110114D01*
X59419687Y-54041268D01*
X59466934Y-53989795D01*
X59506765Y-53974369D01*
X59578713Y-53960058D01*
X59715295Y-53903484D01*
X59764529Y-53870586D01*
X59838216Y-53821352D01*
X64318685Y-49340882D01*
X64380006Y-49307399D01*
X64449698Y-49312383D01*
X64505631Y-49354255D01*
X64530048Y-49419719D01*
X64528464Y-49445050D01*
X64528897Y-49445093D01*
X64528300Y-49451155D01*
X64528300Y-49608846D01*
X64559061Y-49763489D01*
X64559064Y-49763501D01*
X64619402Y-49909172D01*
X64619409Y-49909185D01*
X64707010Y-50040288D01*
X64707013Y-50040292D01*
X64818507Y-50151786D01*
X64818511Y-50151789D01*
X64949614Y-50239390D01*
X64949627Y-50239397D01*
X65095298Y-50299735D01*
X65095303Y-50299737D01*
X65241100Y-50328738D01*
X65249953Y-50330499D01*
X65249956Y-50330500D01*
X65292500Y-50330500D01*
X65301185Y-50333050D01*
X65310147Y-50331762D01*
X65334187Y-50342740D01*
X65359539Y-50350185D01*
X65365466Y-50357025D01*
X65373703Y-50360787D01*
X65387992Y-50383021D01*
X65405294Y-50402989D01*
X65407581Y-50413503D01*
X65411477Y-50419565D01*
X65416500Y-50454500D01*
X65416500Y-50546196D01*
X65407062Y-50593644D01*
X65397263Y-50617303D01*
X65397262Y-50617306D01*
X65397260Y-50617311D01*
X65366500Y-50771953D01*
X65366500Y-50929646D01*
X65397261Y-51084289D01*
X65397264Y-51084301D01*
X65457602Y-51229972D01*
X65457609Y-51229985D01*
X65545210Y-51361088D01*
X65545213Y-51361092D01*
X65656707Y-51472586D01*
X65656711Y-51472589D01*
X65787814Y-51560190D01*
X65787827Y-51560197D01*
X65933498Y-51620535D01*
X65933503Y-51620537D01*
X66088153Y-51651299D01*
X66088156Y-51651300D01*
X66088158Y-51651300D01*
X66245844Y-51651300D01*
X66245845Y-51651299D01*
X66400497Y-51620537D01*
X66546179Y-51560194D01*
X66677289Y-51472589D01*
X66788789Y-51361089D01*
X66876394Y-51229979D01*
X66936737Y-51084297D01*
X66967500Y-50929642D01*
X66967500Y-50771958D01*
X66967500Y-50771955D01*
X66967499Y-50771953D01*
X66936739Y-50617311D01*
X66936738Y-50617308D01*
X66936737Y-50617303D01*
X66926937Y-50593644D01*
X66917500Y-50546196D01*
X66917500Y-50045393D01*
X66937185Y-49978354D01*
X66953819Y-49957712D01*
X67474548Y-49436983D01*
X67474551Y-49436980D01*
X67556684Y-49314059D01*
X67613258Y-49177477D01*
X67642100Y-49032482D01*
X67642100Y-37673141D01*
X67645065Y-37646186D01*
X67647409Y-37635657D01*
X67656019Y-37614873D01*
X67684861Y-37469878D01*
X67684861Y-37468434D01*
X67692100Y-37432042D01*
X67692100Y-37274358D01*
X67692100Y-37274355D01*
X67692099Y-37274353D01*
X67661338Y-37119710D01*
X67661337Y-37119703D01*
X67661335Y-37119698D01*
X67600997Y-36974027D01*
X67600990Y-36974014D01*
X67513389Y-36842911D01*
X67513386Y-36842907D01*
X67477504Y-36807026D01*
X67444018Y-36745704D01*
X67449002Y-36676012D01*
X67477501Y-36631665D01*
X75957012Y-28152155D01*
X87517900Y-28152155D01*
X87517900Y-28750000D01*
X88502214Y-28750000D01*
X88497820Y-28754394D01*
X88445159Y-28845606D01*
X88417900Y-28947339D01*
X88417900Y-29052661D01*
X88445159Y-29154394D01*
X88497820Y-29245606D01*
X88502214Y-29250000D01*
X87517900Y-29250000D01*
X87517900Y-29847844D01*
X87524301Y-29907372D01*
X87524303Y-29907379D01*
X87574545Y-30042086D01*
X87574549Y-30042093D01*
X87660709Y-30157187D01*
X87660712Y-30157190D01*
X87775806Y-30243350D01*
X87775813Y-30243354D01*
X87910520Y-30293596D01*
X87910527Y-30293598D01*
X87970055Y-30299999D01*
X87970072Y-30300000D01*
X88567900Y-30300000D01*
X88567900Y-29315686D01*
X88572294Y-29320080D01*
X88663506Y-29372741D01*
X88765239Y-29400000D01*
X88870561Y-29400000D01*
X88972294Y-29372741D01*
X89063506Y-29320080D01*
X89067900Y-29315686D01*
X89067900Y-30300000D01*
X89665728Y-30300000D01*
X89665744Y-30299999D01*
X89725272Y-30293598D01*
X89725279Y-30293596D01*
X89859986Y-30243354D01*
X89859993Y-30243350D01*
X89975087Y-30157190D01*
X89975090Y-30157187D01*
X90061250Y-30042093D01*
X90061254Y-30042086D01*
X90111496Y-29907379D01*
X90115520Y-29869956D01*
X90142258Y-29805404D01*
X90199650Y-29765556D01*
X90269475Y-29763062D01*
X90329564Y-29798714D01*
X90339128Y-29810325D01*
X90365928Y-29847212D01*
X90365932Y-29847217D01*
X90510686Y-29991971D01*
X90615562Y-30068166D01*
X90676290Y-30112287D01*
X90764417Y-30157190D01*
X90858676Y-30205218D01*
X90858678Y-30205218D01*
X90858681Y-30205220D01*
X90959060Y-30237835D01*
X91053365Y-30268477D01*
X91154457Y-30284488D01*
X91255548Y-30300500D01*
X91255549Y-30300500D01*
X91460251Y-30300500D01*
X91460252Y-30300500D01*
X91662434Y-30268477D01*
X91857119Y-30205220D01*
X92039510Y-30112287D01*
X92151440Y-30030966D01*
X92205113Y-29991971D01*
X92205115Y-29991968D01*
X92205119Y-29991966D01*
X92349866Y-29847219D01*
X92349868Y-29847215D01*
X92349871Y-29847213D01*
X92470184Y-29681614D01*
X92470185Y-29681613D01*
X92470187Y-29681610D01*
X92517416Y-29588917D01*
X92565389Y-29538123D01*
X92633210Y-29521328D01*
X92699345Y-29543865D01*
X92738383Y-29588917D01*
X92782248Y-29675006D01*
X92785615Y-29681614D01*
X92905928Y-29847213D01*
X93050686Y-29991971D01*
X93155562Y-30068166D01*
X93216290Y-30112287D01*
X93304417Y-30157190D01*
X93398676Y-30205218D01*
X93398678Y-30205218D01*
X93398681Y-30205220D01*
X93499060Y-30237835D01*
X93593365Y-30268477D01*
X93694457Y-30284488D01*
X93795548Y-30300500D01*
X93795549Y-30300500D01*
X94000251Y-30300500D01*
X94000252Y-30300500D01*
X94202434Y-30268477D01*
X94397119Y-30205220D01*
X94579510Y-30112287D01*
X94691440Y-30030966D01*
X94745113Y-29991971D01*
X94745115Y-29991968D01*
X94745119Y-29991966D01*
X94889866Y-29847219D01*
X94889868Y-29847215D01*
X94889871Y-29847213D01*
X95010184Y-29681614D01*
X95010185Y-29681613D01*
X95010187Y-29681610D01*
X95057416Y-29588917D01*
X95105389Y-29538123D01*
X95173210Y-29521328D01*
X95239345Y-29543865D01*
X95278383Y-29588917D01*
X95322248Y-29675006D01*
X95325615Y-29681614D01*
X95445928Y-29847213D01*
X95590686Y-29991971D01*
X95695562Y-30068166D01*
X95756290Y-30112287D01*
X95844417Y-30157190D01*
X95938676Y-30205218D01*
X95938678Y-30205218D01*
X95938681Y-30205220D01*
X96039060Y-30237835D01*
X96133365Y-30268477D01*
X96234457Y-30284488D01*
X96335548Y-30300500D01*
X96335549Y-30300500D01*
X96540251Y-30300500D01*
X96540252Y-30300500D01*
X96742434Y-30268477D01*
X96937119Y-30205220D01*
X97119510Y-30112287D01*
X97231440Y-30030966D01*
X97285113Y-29991971D01*
X97285115Y-29991968D01*
X97285119Y-29991966D01*
X97429866Y-29847219D01*
X97429868Y-29847215D01*
X97429871Y-29847213D01*
X97491009Y-29763062D01*
X97550187Y-29681610D01*
X97643120Y-29499219D01*
X97706377Y-29304534D01*
X97738400Y-29102352D01*
X97738400Y-28897648D01*
X97723793Y-28805427D01*
X97706377Y-28695465D01*
X97643118Y-28500776D01*
X97597415Y-28411080D01*
X97550187Y-28318390D01*
X97542456Y-28307749D01*
X97429871Y-28152786D01*
X97285113Y-28008028D01*
X97119513Y-27887715D01*
X97119512Y-27887714D01*
X97119510Y-27887713D01*
X97031387Y-27842812D01*
X96937123Y-27794781D01*
X96742434Y-27731522D01*
X96567895Y-27703878D01*
X96540252Y-27699500D01*
X96335548Y-27699500D01*
X96311229Y-27703351D01*
X96133365Y-27731522D01*
X95938676Y-27794781D01*
X95756286Y-27887715D01*
X95590686Y-28008028D01*
X95445928Y-28152786D01*
X95325615Y-28318386D01*
X95278385Y-28411080D01*
X95230410Y-28461876D01*
X95162589Y-28478671D01*
X95096454Y-28456134D01*
X95057415Y-28411080D01*
X95056783Y-28409840D01*
X95010187Y-28318390D01*
X95002456Y-28307749D01*
X94889871Y-28152786D01*
X94745113Y-28008028D01*
X94579513Y-27887715D01*
X94579512Y-27887714D01*
X94579510Y-27887713D01*
X94491387Y-27842812D01*
X94397123Y-27794781D01*
X94202434Y-27731522D01*
X94027895Y-27703878D01*
X94000252Y-27699500D01*
X93795548Y-27699500D01*
X93771229Y-27703351D01*
X93593365Y-27731522D01*
X93398676Y-27794781D01*
X93216286Y-27887715D01*
X93050686Y-28008028D01*
X92905928Y-28152786D01*
X92785615Y-28318386D01*
X92738385Y-28411080D01*
X92690410Y-28461876D01*
X92622589Y-28478671D01*
X92556454Y-28456134D01*
X92517415Y-28411080D01*
X92516783Y-28409840D01*
X92470187Y-28318390D01*
X92462456Y-28307749D01*
X92349871Y-28152786D01*
X92205113Y-28008028D01*
X92039513Y-27887715D01*
X92039512Y-27887714D01*
X92039510Y-27887713D01*
X91951387Y-27842812D01*
X91857123Y-27794781D01*
X91662434Y-27731522D01*
X91487895Y-27703878D01*
X91460252Y-27699500D01*
X91255548Y-27699500D01*
X91231229Y-27703351D01*
X91053365Y-27731522D01*
X90858676Y-27794781D01*
X90676286Y-27887715D01*
X90510686Y-28008028D01*
X90365932Y-28152782D01*
X90365926Y-28152789D01*
X90339127Y-28189675D01*
X90283797Y-28232341D01*
X90214184Y-28238319D01*
X90152389Y-28205712D01*
X90118032Y-28144873D01*
X90115520Y-28130043D01*
X90111496Y-28092620D01*
X90061254Y-27957913D01*
X90061250Y-27957906D01*
X89975090Y-27842812D01*
X89975087Y-27842809D01*
X89859993Y-27756649D01*
X89859986Y-27756645D01*
X89725279Y-27706403D01*
X89725272Y-27706401D01*
X89665744Y-27700000D01*
X89067900Y-27700000D01*
X89067900Y-28684314D01*
X89063506Y-28679920D01*
X88972294Y-28627259D01*
X88870561Y-28600000D01*
X88765239Y-28600000D01*
X88663506Y-28627259D01*
X88572294Y-28679920D01*
X88567900Y-28684314D01*
X88567900Y-27700000D01*
X87970055Y-27700000D01*
X87910527Y-27706401D01*
X87910520Y-27706403D01*
X87775813Y-27756645D01*
X87775806Y-27756649D01*
X87660712Y-27842809D01*
X87660709Y-27842812D01*
X87574549Y-27957906D01*
X87574545Y-27957913D01*
X87524303Y-28092620D01*
X87524301Y-28092627D01*
X87517900Y-28152155D01*
X75957012Y-28152155D01*
X76626948Y-27482219D01*
X76688271Y-27448734D01*
X76714629Y-27445900D01*
X98011970Y-27445900D01*
X98079009Y-27465585D01*
X98099651Y-27482219D01*
X100117326Y-29499893D01*
X100144205Y-29540119D01*
X100154003Y-29563772D01*
X100154006Y-29563778D01*
X100154009Y-29563785D01*
X100241610Y-29694888D01*
X100241613Y-29694892D01*
X100353107Y-29806386D01*
X100353111Y-29806389D01*
X100484214Y-29893990D01*
X100484227Y-29893997D01*
X100629898Y-29954335D01*
X100629903Y-29954337D01*
X100784553Y-29985099D01*
X100784556Y-29985100D01*
X100784558Y-29985100D01*
X100942244Y-29985100D01*
X100942245Y-29985099D01*
X101096897Y-29954337D01*
X101242579Y-29893994D01*
X101373689Y-29806389D01*
X101485189Y-29694889D01*
X101572794Y-29563779D01*
X101633137Y-29418097D01*
X101663900Y-29263442D01*
X101663900Y-29105758D01*
X101663900Y-29105755D01*
X101663899Y-29105753D01*
X101633138Y-28951110D01*
X101633137Y-28951103D01*
X101627150Y-28936648D01*
X101572797Y-28805427D01*
X101572790Y-28805414D01*
X101485189Y-28674311D01*
X101485186Y-28674307D01*
X101373692Y-28562813D01*
X101373688Y-28562810D01*
X101242585Y-28475209D01*
X101242580Y-28475207D01*
X101242579Y-28475206D01*
X101218919Y-28465405D01*
X101178693Y-28438526D01*
X99219626Y-26479457D01*
X99136817Y-26396648D01*
X109895500Y-26396648D01*
X109895500Y-26601351D01*
X109927522Y-26803534D01*
X109990781Y-26998223D01*
X110083715Y-27180613D01*
X110204028Y-27346213D01*
X110348786Y-27490971D01*
X110503749Y-27603556D01*
X110514390Y-27611287D01*
X110605840Y-27657883D01*
X110607080Y-27658515D01*
X110657876Y-27706490D01*
X110674671Y-27774311D01*
X110652134Y-27840446D01*
X110607080Y-27879485D01*
X110514386Y-27926715D01*
X110348786Y-28047028D01*
X110204028Y-28191786D01*
X110083715Y-28357386D01*
X109990781Y-28539776D01*
X109927522Y-28734465D01*
X109895500Y-28936648D01*
X109895500Y-29141351D01*
X109927522Y-29343534D01*
X109990781Y-29538223D01*
X110054691Y-29663653D01*
X110070607Y-29694889D01*
X110083715Y-29720613D01*
X110204028Y-29886213D01*
X110348786Y-30030971D01*
X110503749Y-30143556D01*
X110514390Y-30151287D01*
X110586424Y-30187990D01*
X110607629Y-30198795D01*
X110658425Y-30246770D01*
X110675220Y-30314591D01*
X110652682Y-30380726D01*
X110607629Y-30419765D01*
X110514650Y-30467140D01*
X110349105Y-30587417D01*
X110349104Y-30587417D01*
X110204417Y-30732104D01*
X110204417Y-30732105D01*
X110084140Y-30897650D01*
X109991244Y-31079970D01*
X109928009Y-31274586D01*
X109919391Y-31329000D01*
X110880314Y-31329000D01*
X110875920Y-31333394D01*
X110823259Y-31424606D01*
X110796000Y-31526339D01*
X110796000Y-31631661D01*
X110823259Y-31733394D01*
X110875920Y-31824606D01*
X110880314Y-31829000D01*
X109919391Y-31829000D01*
X109928009Y-31883413D01*
X109991244Y-32078029D01*
X110084140Y-32260349D01*
X110204417Y-32425894D01*
X110204417Y-32425895D01*
X110349104Y-32570582D01*
X110514652Y-32690861D01*
X110607628Y-32738234D01*
X110658425Y-32786208D01*
X110675220Y-32854029D01*
X110652683Y-32920164D01*
X110607630Y-32959203D01*
X110514388Y-33006713D01*
X110348786Y-33127028D01*
X110204028Y-33271786D01*
X110083715Y-33437386D01*
X109990781Y-33619776D01*
X109927522Y-33814465D01*
X109895500Y-34016648D01*
X109895500Y-34221351D01*
X109927522Y-34423534D01*
X109990781Y-34618223D01*
X110083715Y-34800613D01*
X110204028Y-34966213D01*
X110348786Y-35110971D01*
X110456899Y-35189518D01*
X110514390Y-35231287D01*
X110605840Y-35277883D01*
X110607080Y-35278515D01*
X110657876Y-35326490D01*
X110674671Y-35394311D01*
X110652134Y-35460446D01*
X110607080Y-35499485D01*
X110514386Y-35546715D01*
X110348786Y-35667028D01*
X110204028Y-35811786D01*
X110083715Y-35977386D01*
X109990781Y-36159776D01*
X109927522Y-36354465D01*
X109895500Y-36556648D01*
X109895500Y-36761351D01*
X109927522Y-36963534D01*
X109990781Y-37158223D01*
X110083715Y-37340613D01*
X110204028Y-37506213D01*
X110348786Y-37650971D01*
X110503749Y-37763556D01*
X110514390Y-37771287D01*
X110605840Y-37817883D01*
X110607080Y-37818515D01*
X110657876Y-37866490D01*
X110674671Y-37934311D01*
X110652134Y-38000446D01*
X110607080Y-38039485D01*
X110514386Y-38086715D01*
X110348786Y-38207028D01*
X110204028Y-38351786D01*
X110083715Y-38517386D01*
X109990781Y-38699776D01*
X109927522Y-38894465D01*
X109895500Y-39096648D01*
X109895500Y-39301351D01*
X109927522Y-39503534D01*
X109990781Y-39698223D01*
X110083715Y-39880613D01*
X110204028Y-40046213D01*
X110348786Y-40190971D01*
X110503749Y-40303556D01*
X110514390Y-40311287D01*
X110630607Y-40370503D01*
X110696776Y-40404218D01*
X110696778Y-40404218D01*
X110696781Y-40404220D01*
X110801137Y-40438127D01*
X110891465Y-40467477D01*
X110992557Y-40483488D01*
X111093648Y-40499500D01*
X111093649Y-40499500D01*
X111298351Y-40499500D01*
X111298352Y-40499500D01*
X111500534Y-40467477D01*
X111695219Y-40404220D01*
X111877610Y-40311287D01*
X111970590Y-40243732D01*
X112043213Y-40190971D01*
X112043215Y-40190968D01*
X112043219Y-40190966D01*
X112187966Y-40046219D01*
X112187968Y-40046215D01*
X112187971Y-40046213D01*
X112240732Y-39973590D01*
X112308287Y-39880610D01*
X112401220Y-39698219D01*
X112464477Y-39503534D01*
X112496500Y-39301352D01*
X112496500Y-39096648D01*
X112464477Y-38894465D01*
X112401218Y-38699776D01*
X112367503Y-38633607D01*
X112308287Y-38517390D01*
X112300556Y-38506749D01*
X112187971Y-38351786D01*
X112043213Y-38207028D01*
X111877614Y-38086715D01*
X111871006Y-38083348D01*
X111784917Y-38039483D01*
X111734123Y-37991511D01*
X111717328Y-37923690D01*
X111739865Y-37857555D01*
X111784917Y-37818516D01*
X111877610Y-37771287D01*
X111898770Y-37755913D01*
X112043213Y-37650971D01*
X112043215Y-37650968D01*
X112043219Y-37650966D01*
X112187966Y-37506219D01*
X112187968Y-37506215D01*
X112187971Y-37506213D01*
X112251658Y-37418554D01*
X112308287Y-37340610D01*
X112401220Y-37158219D01*
X112464477Y-36963534D01*
X112496500Y-36761352D01*
X112496500Y-36556648D01*
X112464477Y-36354466D01*
X112401220Y-36159781D01*
X112401218Y-36159778D01*
X112401218Y-36159776D01*
X112367503Y-36093607D01*
X112308287Y-35977390D01*
X112256129Y-35905600D01*
X112187971Y-35811786D01*
X112043213Y-35667028D01*
X111877614Y-35546715D01*
X111871006Y-35543348D01*
X111784917Y-35499483D01*
X111734123Y-35451511D01*
X111717328Y-35383690D01*
X111739865Y-35317555D01*
X111784917Y-35278516D01*
X111877610Y-35231287D01*
X111935101Y-35189518D01*
X112043213Y-35110971D01*
X112043215Y-35110968D01*
X112043219Y-35110966D01*
X112187966Y-34966219D01*
X112187968Y-34966215D01*
X112187971Y-34966213D01*
X112291532Y-34823671D01*
X112308287Y-34800610D01*
X112401220Y-34618219D01*
X112464477Y-34423534D01*
X112496500Y-34221352D01*
X112496500Y-34016648D01*
X112464477Y-33814466D01*
X112401220Y-33619781D01*
X112401218Y-33619778D01*
X112401218Y-33619776D01*
X112367503Y-33553607D01*
X112308287Y-33437390D01*
X112300556Y-33426749D01*
X112187971Y-33271786D01*
X112043213Y-33127028D01*
X111877611Y-33006713D01*
X111784369Y-32959203D01*
X111733574Y-32911229D01*
X111716779Y-32843407D01*
X111739317Y-32777273D01*
X111784371Y-32738234D01*
X111877347Y-32690861D01*
X112042894Y-32570582D01*
X112042895Y-32570582D01*
X112187582Y-32425895D01*
X112187582Y-32425894D01*
X112307859Y-32260349D01*
X112400755Y-32078029D01*
X112463990Y-31883413D01*
X112472609Y-31829000D01*
X111511686Y-31829000D01*
X111516080Y-31824606D01*
X111568741Y-31733394D01*
X111596000Y-31631661D01*
X111596000Y-31526339D01*
X111568741Y-31424606D01*
X111516080Y-31333394D01*
X111511686Y-31329000D01*
X112472609Y-31329000D01*
X112463990Y-31274586D01*
X112400755Y-31079970D01*
X112307859Y-30897650D01*
X112187582Y-30732105D01*
X112187582Y-30732104D01*
X112042895Y-30587417D01*
X111877349Y-30467140D01*
X111784370Y-30419765D01*
X111733574Y-30371790D01*
X111716779Y-30303969D01*
X111739316Y-30237835D01*
X111784370Y-30198795D01*
X111877610Y-30151287D01*
X111898770Y-30135913D01*
X112043213Y-30030971D01*
X112043215Y-30030968D01*
X112043219Y-30030966D01*
X112187966Y-29886219D01*
X112187968Y-29886215D01*
X112187971Y-29886213D01*
X112246681Y-29805404D01*
X112308287Y-29720610D01*
X112401220Y-29538219D01*
X112464477Y-29343534D01*
X112496500Y-29141352D01*
X112496500Y-28936648D01*
X112467633Y-28754394D01*
X112464477Y-28734465D01*
X112420786Y-28600000D01*
X112401220Y-28539781D01*
X112401218Y-28539778D01*
X112401218Y-28539776D01*
X112335643Y-28411080D01*
X112308287Y-28357390D01*
X112279949Y-28318386D01*
X112187971Y-28191786D01*
X112043213Y-28047028D01*
X111877614Y-27926715D01*
X111871006Y-27923348D01*
X111784917Y-27879483D01*
X111734123Y-27831511D01*
X111717328Y-27763690D01*
X111739865Y-27697555D01*
X111784917Y-27658516D01*
X111877610Y-27611287D01*
X111898770Y-27595913D01*
X112043213Y-27490971D01*
X112043215Y-27490968D01*
X112043219Y-27490966D01*
X112187966Y-27346219D01*
X112187968Y-27346215D01*
X112187971Y-27346213D01*
X112240732Y-27273590D01*
X112308287Y-27180610D01*
X112401220Y-26998219D01*
X112464477Y-26803534D01*
X112496500Y-26601352D01*
X112496500Y-26396648D01*
X112464477Y-26194466D01*
X112401220Y-25999781D01*
X112401218Y-25999778D01*
X112401218Y-25999776D01*
X112367503Y-25933607D01*
X112308287Y-25817390D01*
X112300556Y-25806749D01*
X112187971Y-25651786D01*
X112043213Y-25507028D01*
X111877613Y-25386715D01*
X111877612Y-25386714D01*
X111877610Y-25386713D01*
X111820653Y-25357691D01*
X111695223Y-25293781D01*
X111500534Y-25230522D01*
X111325995Y-25202878D01*
X111298352Y-25198500D01*
X111093648Y-25198500D01*
X111069329Y-25202351D01*
X110891465Y-25230522D01*
X110696776Y-25293781D01*
X110514386Y-25386715D01*
X110348786Y-25507028D01*
X110204028Y-25651786D01*
X110083715Y-25817386D01*
X109990781Y-25999776D01*
X109927522Y-26194465D01*
X109895500Y-26396648D01*
X99136817Y-26396648D01*
X98852621Y-26112452D01*
X98852614Y-26112446D01*
X98778929Y-26063212D01*
X98778929Y-26063213D01*
X98729691Y-26030313D01*
X98593117Y-25973743D01*
X98593107Y-25973740D01*
X98448120Y-25944900D01*
X98448118Y-25944900D01*
X76278482Y-25944900D01*
X76278476Y-25944900D01*
X76249642Y-25950634D01*
X76249643Y-25950635D01*
X76133493Y-25973739D01*
X76133489Y-25973740D01*
X76070623Y-25999781D01*
X75996906Y-26030315D01*
X75914772Y-26085195D01*
X75873985Y-26112447D01*
X75873981Y-26112450D01*
X64796650Y-37189780D01*
X64796644Y-37189788D01*
X64747412Y-37263468D01*
X64747413Y-37263469D01*
X64714521Y-37312696D01*
X64714514Y-37312708D01*
X64657942Y-37449286D01*
X64657940Y-37449292D01*
X64629100Y-37594279D01*
X64629100Y-46856370D01*
X64609415Y-46923409D01*
X64592781Y-46944051D01*
X59085251Y-52451581D01*
X59023928Y-52485066D01*
X58997570Y-52487900D01*
X54866280Y-52487900D01*
X54721292Y-52516740D01*
X54721286Y-52516742D01*
X54584708Y-52573314D01*
X54584696Y-52573321D01*
X54535469Y-52606213D01*
X54461788Y-52655444D01*
X54461780Y-52655450D01*
X53341747Y-53775484D01*
X53341745Y-53775486D01*
X53311103Y-53821349D01*
X53311101Y-53821352D01*
X53259614Y-53898407D01*
X53203043Y-54034982D01*
X53203040Y-54034992D01*
X53174200Y-54179979D01*
X53174200Y-54297382D01*
X53154515Y-54364421D01*
X53123085Y-54397700D01*
X53077487Y-54430828D01*
X53077482Y-54430832D01*
X52932728Y-54575586D01*
X52812415Y-54741186D01*
X52765185Y-54833880D01*
X52717210Y-54884676D01*
X52649389Y-54901471D01*
X52583254Y-54878934D01*
X52544215Y-54833880D01*
X52543583Y-54832640D01*
X52496987Y-54741190D01*
X52477994Y-54715048D01*
X52376671Y-54575586D01*
X52231913Y-54430828D01*
X52066313Y-54310515D01*
X52066312Y-54310514D01*
X52066310Y-54310513D01*
X52009353Y-54281491D01*
X51883923Y-54217581D01*
X51689234Y-54154322D01*
X51514695Y-54126678D01*
X51487052Y-54122300D01*
X51282348Y-54122300D01*
X51258029Y-54126151D01*
X51080165Y-54154322D01*
X50885476Y-54217581D01*
X50703086Y-54310515D01*
X50537486Y-54430828D01*
X50392728Y-54575586D01*
X50272415Y-54741186D01*
X50225185Y-54833880D01*
X50177210Y-54884676D01*
X50109389Y-54901471D01*
X50043254Y-54878934D01*
X50004215Y-54833880D01*
X50003583Y-54832640D01*
X49956987Y-54741190D01*
X49937994Y-54715048D01*
X49836671Y-54575586D01*
X49691913Y-54430828D01*
X49526313Y-54310515D01*
X49526312Y-54310514D01*
X49526310Y-54310513D01*
X49469353Y-54281491D01*
X49343923Y-54217581D01*
X49149234Y-54154322D01*
X48974695Y-54126678D01*
X48947052Y-54122300D01*
X48742348Y-54122300D01*
X48718029Y-54126151D01*
X48540165Y-54154322D01*
X48345476Y-54217581D01*
X48163086Y-54310515D01*
X47997486Y-54430828D01*
X47852728Y-54575586D01*
X47732415Y-54741186D01*
X47685185Y-54833880D01*
X47637210Y-54884676D01*
X47569389Y-54901471D01*
X47503254Y-54878934D01*
X47464215Y-54833880D01*
X47463583Y-54832640D01*
X47416987Y-54741190D01*
X47397994Y-54715048D01*
X47296671Y-54575586D01*
X47151913Y-54430828D01*
X46986313Y-54310515D01*
X46986312Y-54310514D01*
X46986310Y-54310513D01*
X46929353Y-54281491D01*
X46803923Y-54217581D01*
X46609234Y-54154322D01*
X46434695Y-54126678D01*
X46407052Y-54122300D01*
X46202348Y-54122300D01*
X46178029Y-54126151D01*
X46000165Y-54154322D01*
X45805476Y-54217581D01*
X45623086Y-54310515D01*
X45457486Y-54430828D01*
X45312728Y-54575586D01*
X45192415Y-54741186D01*
X45145185Y-54833880D01*
X45097210Y-54884676D01*
X45029389Y-54901471D01*
X44963254Y-54878934D01*
X44924215Y-54833880D01*
X44923583Y-54832640D01*
X44876987Y-54741190D01*
X44857994Y-54715048D01*
X44756671Y-54575586D01*
X44611913Y-54430828D01*
X44446313Y-54310515D01*
X44446312Y-54310514D01*
X44446310Y-54310513D01*
X44389353Y-54281491D01*
X44263923Y-54217581D01*
X44069234Y-54154322D01*
X43894695Y-54126678D01*
X43867052Y-54122300D01*
X43662348Y-54122300D01*
X43638029Y-54126151D01*
X43460165Y-54154322D01*
X43265476Y-54217581D01*
X43083086Y-54310515D01*
X42917486Y-54430828D01*
X42772728Y-54575586D01*
X42652415Y-54741186D01*
X42605185Y-54833880D01*
X42557210Y-54884676D01*
X42489389Y-54901471D01*
X42423254Y-54878934D01*
X42384215Y-54833880D01*
X42383583Y-54832640D01*
X42336987Y-54741190D01*
X42317994Y-54715048D01*
X42216671Y-54575586D01*
X42071913Y-54430828D01*
X41906313Y-54310515D01*
X41906312Y-54310514D01*
X41906310Y-54310513D01*
X41849353Y-54281491D01*
X41723923Y-54217581D01*
X41529234Y-54154322D01*
X41354695Y-54126678D01*
X41327052Y-54122300D01*
X41122348Y-54122300D01*
X41098029Y-54126151D01*
X40920165Y-54154322D01*
X40725476Y-54217581D01*
X40543086Y-54310515D01*
X40377486Y-54430828D01*
X40232728Y-54575586D01*
X40112415Y-54741186D01*
X40065185Y-54833880D01*
X40017210Y-54884676D01*
X39949389Y-54901471D01*
X39883254Y-54878934D01*
X39844215Y-54833880D01*
X39843583Y-54832640D01*
X39796987Y-54741190D01*
X39777994Y-54715048D01*
X39676671Y-54575586D01*
X39531913Y-54430828D01*
X39366313Y-54310515D01*
X39366312Y-54310514D01*
X39366310Y-54310513D01*
X39309353Y-54281491D01*
X39183923Y-54217581D01*
X38989234Y-54154322D01*
X38814695Y-54126678D01*
X38787052Y-54122300D01*
X38582348Y-54122300D01*
X38558029Y-54126151D01*
X38380165Y-54154322D01*
X38185476Y-54217581D01*
X38003086Y-54310515D01*
X37837486Y-54430828D01*
X37692728Y-54575586D01*
X37572415Y-54741186D01*
X37525185Y-54833880D01*
X37477210Y-54884676D01*
X37409389Y-54901471D01*
X37343254Y-54878934D01*
X37304215Y-54833880D01*
X37303583Y-54832640D01*
X37256987Y-54741190D01*
X37237994Y-54715048D01*
X37136671Y-54575586D01*
X36991913Y-54430828D01*
X36826313Y-54310515D01*
X36826312Y-54310514D01*
X36826310Y-54310513D01*
X36769353Y-54281491D01*
X36643923Y-54217581D01*
X36449234Y-54154322D01*
X36274695Y-54126678D01*
X36247052Y-54122300D01*
X36042348Y-54122300D01*
X36018029Y-54126151D01*
X35840165Y-54154322D01*
X35645476Y-54217581D01*
X35463086Y-54310515D01*
X35297486Y-54430828D01*
X35152728Y-54575586D01*
X35032415Y-54741186D01*
X34939481Y-54923576D01*
X34876222Y-55118265D01*
X34844200Y-55320448D01*
X25500500Y-55320448D01*
X25500500Y-47868872D01*
X27999500Y-47868872D01*
X27999500Y-48131127D01*
X28020436Y-48290140D01*
X28033730Y-48391116D01*
X28101602Y-48644418D01*
X28101605Y-48644428D01*
X28201953Y-48886690D01*
X28201958Y-48886700D01*
X28333075Y-49113803D01*
X28492718Y-49321851D01*
X28492726Y-49321860D01*
X28678140Y-49507274D01*
X28678148Y-49507281D01*
X28678149Y-49507282D01*
X28726554Y-49544424D01*
X28886196Y-49666924D01*
X29113299Y-49798041D01*
X29113309Y-49798046D01*
X29355571Y-49898394D01*
X29355581Y-49898398D01*
X29608884Y-49966270D01*
X29868880Y-50000500D01*
X29868887Y-50000500D01*
X30131113Y-50000500D01*
X30131120Y-50000500D01*
X30391116Y-49966270D01*
X30644419Y-49898398D01*
X30886697Y-49798043D01*
X31113803Y-49666924D01*
X31321851Y-49507282D01*
X31321855Y-49507277D01*
X31321860Y-49507274D01*
X31507274Y-49321860D01*
X31507277Y-49321855D01*
X31507282Y-49321851D01*
X31666924Y-49113803D01*
X31798043Y-48886697D01*
X31898398Y-48644419D01*
X31939733Y-48490155D01*
X41738800Y-48490155D01*
X41738800Y-49788000D01*
X43019736Y-49788000D01*
X43008007Y-49816316D01*
X42978800Y-49963147D01*
X42978800Y-50112853D01*
X43008007Y-50259684D01*
X43019736Y-50288000D01*
X41738800Y-50288000D01*
X41738800Y-51585844D01*
X41745201Y-51645372D01*
X41745203Y-51645379D01*
X41795445Y-51780086D01*
X41795449Y-51780093D01*
X41881609Y-51895187D01*
X41881612Y-51895190D01*
X41996706Y-51981350D01*
X41996713Y-51981354D01*
X42131420Y-52031596D01*
X42131427Y-52031598D01*
X42190955Y-52037999D01*
X42190972Y-52038000D01*
X43488800Y-52038000D01*
X43488800Y-50757064D01*
X43517116Y-50768793D01*
X43663947Y-50798000D01*
X43813653Y-50798000D01*
X43960484Y-50768793D01*
X43988800Y-50757064D01*
X43988800Y-52038000D01*
X45286628Y-52038000D01*
X45286644Y-52037999D01*
X45346172Y-52031598D01*
X45346179Y-52031596D01*
X45480886Y-51981354D01*
X45480893Y-51981350D01*
X45595987Y-51895190D01*
X45595990Y-51895187D01*
X45682150Y-51780093D01*
X45682154Y-51780086D01*
X45732396Y-51645379D01*
X45732398Y-51645372D01*
X45738799Y-51585844D01*
X45738800Y-51585827D01*
X45738800Y-50288000D01*
X44457864Y-50288000D01*
X44469593Y-50259684D01*
X44498800Y-50112853D01*
X44498800Y-49963147D01*
X44469593Y-49816316D01*
X44457864Y-49788000D01*
X45738800Y-49788000D01*
X45738800Y-48490172D01*
X45738799Y-48490155D01*
X45732398Y-48430627D01*
X45732396Y-48430620D01*
X45682154Y-48295913D01*
X45682150Y-48295906D01*
X45595990Y-48180812D01*
X45595987Y-48180809D01*
X45480893Y-48094649D01*
X45480886Y-48094645D01*
X45346179Y-48044403D01*
X45346172Y-48044401D01*
X45286644Y-48038000D01*
X43988800Y-48038000D01*
X43988800Y-49318935D01*
X43960484Y-49307207D01*
X43813653Y-49278000D01*
X43663947Y-49278000D01*
X43517116Y-49307207D01*
X43488800Y-49318935D01*
X43488800Y-48038000D01*
X42190955Y-48038000D01*
X42131427Y-48044401D01*
X42131420Y-48044403D01*
X41996713Y-48094645D01*
X41996706Y-48094649D01*
X41881612Y-48180809D01*
X41881609Y-48180812D01*
X41795449Y-48295906D01*
X41795445Y-48295913D01*
X41745203Y-48430620D01*
X41745201Y-48430627D01*
X41738800Y-48490155D01*
X31939733Y-48490155D01*
X31966270Y-48391116D01*
X32000500Y-48131120D01*
X32000500Y-47868880D01*
X31966270Y-47608884D01*
X31898398Y-47355581D01*
X31844278Y-47224924D01*
X31798046Y-47113309D01*
X31798041Y-47113299D01*
X31666924Y-46886196D01*
X31507281Y-46678148D01*
X31507274Y-46678140D01*
X31321860Y-46492726D01*
X31321851Y-46492718D01*
X31113803Y-46333075D01*
X30886700Y-46201958D01*
X30886690Y-46201953D01*
X30644428Y-46101605D01*
X30644421Y-46101603D01*
X30644419Y-46101602D01*
X30391116Y-46033730D01*
X30333339Y-46026123D01*
X30131127Y-45999500D01*
X30131120Y-45999500D01*
X29868880Y-45999500D01*
X29868872Y-45999500D01*
X29643588Y-46029161D01*
X29608884Y-46033730D01*
X29466793Y-46071803D01*
X29355581Y-46101602D01*
X29355571Y-46101605D01*
X29113309Y-46201953D01*
X29113299Y-46201958D01*
X28886196Y-46333075D01*
X28678148Y-46492718D01*
X28492718Y-46678148D01*
X28333075Y-46886196D01*
X28201958Y-47113299D01*
X28201953Y-47113309D01*
X28101605Y-47355571D01*
X28101602Y-47355581D01*
X28047231Y-47558500D01*
X28033730Y-47608885D01*
X27999500Y-47868872D01*
X25500500Y-47868872D01*
X25500500Y-44826872D01*
X41738300Y-44826872D01*
X41738300Y-45089127D01*
X41761832Y-45267860D01*
X41772530Y-45349116D01*
X41802250Y-45460032D01*
X41840402Y-45602418D01*
X41840405Y-45602428D01*
X41940753Y-45844690D01*
X41940758Y-45844700D01*
X42071875Y-46071803D01*
X42231518Y-46279851D01*
X42231526Y-46279860D01*
X42416940Y-46465274D01*
X42416948Y-46465281D01*
X42416949Y-46465282D01*
X42465354Y-46502424D01*
X42624996Y-46624924D01*
X42852099Y-46756041D01*
X42852109Y-46756046D01*
X43094313Y-46856370D01*
X43094381Y-46856398D01*
X43347684Y-46924270D01*
X43607680Y-46958500D01*
X43607687Y-46958500D01*
X43869913Y-46958500D01*
X43869920Y-46958500D01*
X44129916Y-46924270D01*
X44383219Y-46856398D01*
X44625497Y-46756043D01*
X44852603Y-46624924D01*
X45060651Y-46465282D01*
X45060655Y-46465277D01*
X45060660Y-46465274D01*
X45246074Y-46279860D01*
X45246077Y-46279855D01*
X45246082Y-46279851D01*
X45405724Y-46071803D01*
X45536843Y-45844697D01*
X45637198Y-45602419D01*
X45705070Y-45349116D01*
X45739300Y-45089120D01*
X45739300Y-44826880D01*
X45705070Y-44566884D01*
X45637198Y-44313581D01*
X45578727Y-44172420D01*
X45536846Y-44071309D01*
X45536841Y-44071299D01*
X45405724Y-43844196D01*
X45283224Y-43684554D01*
X45246082Y-43636149D01*
X45246081Y-43636148D01*
X45246074Y-43636140D01*
X45060660Y-43450726D01*
X45060651Y-43450718D01*
X44852603Y-43291075D01*
X44625500Y-43159958D01*
X44625490Y-43159953D01*
X44383228Y-43059605D01*
X44383221Y-43059603D01*
X44383219Y-43059602D01*
X44129916Y-42991730D01*
X44072139Y-42984123D01*
X43869927Y-42957500D01*
X43869920Y-42957500D01*
X43607680Y-42957500D01*
X43607672Y-42957500D01*
X43376572Y-42987926D01*
X43347684Y-42991730D01*
X43094381Y-43059602D01*
X43094371Y-43059605D01*
X42852109Y-43159953D01*
X42852099Y-43159958D01*
X42624996Y-43291075D01*
X42416948Y-43450718D01*
X42231518Y-43636148D01*
X42071875Y-43844196D01*
X41940758Y-44071299D01*
X41940753Y-44071309D01*
X41840405Y-44313571D01*
X41840402Y-44313581D01*
X41772530Y-44566885D01*
X41738300Y-44826872D01*
X25500500Y-44826872D01*
X25500500Y-33724973D01*
X27299500Y-33724973D01*
X27299500Y-34275026D01*
X27338740Y-34823671D01*
X27417020Y-35368126D01*
X27533938Y-35905590D01*
X27533941Y-35905600D01*
X27688901Y-36433349D01*
X27881130Y-36948736D01*
X28109626Y-37449071D01*
X28371687Y-37929000D01*
X28373238Y-37931840D01*
X28442417Y-38039485D01*
X28670612Y-38394565D01*
X29000253Y-38834913D01*
X29250849Y-39124115D01*
X29360453Y-39250605D01*
X29360462Y-39250614D01*
X29360474Y-39250627D01*
X29749372Y-39639525D01*
X29749385Y-39639537D01*
X29749395Y-39639547D01*
X29817111Y-39698223D01*
X30165086Y-39999746D01*
X30605434Y-40329387D01*
X30721874Y-40404218D01*
X31068160Y-40626762D01*
X31550926Y-40890372D01*
X32051267Y-41118871D01*
X32566635Y-41311093D01*
X32566642Y-41311095D01*
X32566650Y-41311098D01*
X33094399Y-41466058D01*
X33094409Y-41466061D01*
X33631873Y-41582979D01*
X33631880Y-41582980D01*
X34176329Y-41661260D01*
X34724976Y-41700500D01*
X35275024Y-41700500D01*
X35823671Y-41661260D01*
X36368120Y-41582980D01*
X36368121Y-41582979D01*
X36368126Y-41582979D01*
X36905590Y-41466061D01*
X36905593Y-41466060D01*
X36905598Y-41466059D01*
X37210366Y-41376571D01*
X37433349Y-41311098D01*
X37433352Y-41311096D01*
X37433365Y-41311093D01*
X37948733Y-41118871D01*
X38449074Y-40890372D01*
X38931840Y-40626762D01*
X39394570Y-40329384D01*
X39834906Y-39999752D01*
X40250605Y-39639547D01*
X40639547Y-39250605D01*
X40999752Y-38834906D01*
X41329384Y-38394570D01*
X41626762Y-37931840D01*
X41890372Y-37449074D01*
X42118871Y-36948733D01*
X42311093Y-36433365D01*
X42466059Y-35905598D01*
X42486468Y-35811781D01*
X42582979Y-35368126D01*
X42595863Y-35278515D01*
X42661260Y-34823671D01*
X42700500Y-34275024D01*
X42700500Y-33724976D01*
X42661260Y-33176329D01*
X42582980Y-32631880D01*
X42582979Y-32631873D01*
X42466061Y-32094409D01*
X42466058Y-32094399D01*
X42311098Y-31566650D01*
X42311095Y-31566642D01*
X42311093Y-31566635D01*
X42118871Y-31051267D01*
X41890372Y-30550926D01*
X41626762Y-30068160D01*
X41428726Y-29760009D01*
X41329387Y-29605434D01*
X40999746Y-29165086D01*
X40688099Y-28805427D01*
X40639547Y-28749395D01*
X40639537Y-28749385D01*
X40639525Y-28749372D01*
X40250627Y-28360474D01*
X40250614Y-28360462D01*
X40250605Y-28360453D01*
X40010948Y-28152789D01*
X39834913Y-28000253D01*
X39394565Y-27670612D01*
X38984292Y-27406947D01*
X38931840Y-27373238D01*
X38931833Y-27373234D01*
X38449071Y-27109626D01*
X37948736Y-26881130D01*
X37433349Y-26688901D01*
X36905600Y-26533941D01*
X36905590Y-26533938D01*
X36368126Y-26417020D01*
X35823671Y-26338740D01*
X35275026Y-26299500D01*
X35275024Y-26299500D01*
X34724976Y-26299500D01*
X34724973Y-26299500D01*
X34176328Y-26338740D01*
X33631873Y-26417020D01*
X33094409Y-26533938D01*
X33094399Y-26533941D01*
X32566650Y-26688901D01*
X32051263Y-26881130D01*
X31550928Y-27109626D01*
X31068166Y-27373234D01*
X30605434Y-27670612D01*
X30165086Y-28000253D01*
X29749398Y-28360450D01*
X29749372Y-28360474D01*
X29360474Y-28749372D01*
X29360450Y-28749398D01*
X29000253Y-29165086D01*
X28670612Y-29605434D01*
X28373234Y-30068166D01*
X28109626Y-30550928D01*
X27881130Y-31051263D01*
X27688901Y-31566650D01*
X27533941Y-32094399D01*
X27533938Y-32094409D01*
X27417020Y-32631873D01*
X27338740Y-33176328D01*
X27299500Y-33724973D01*
X25500500Y-33724973D01*
X25500500Y-23624500D01*
X25520185Y-23557461D01*
X25572989Y-23511706D01*
X25624500Y-23500500D01*
X124375500Y-23500500D01*
X124442539Y-23520185D01*
G37*
%TD.AperFunction*%
%TD*%
M02*
