%TF.GenerationSoftware,KiCad,Pcbnew,8.0.2*%
%TF.CreationDate,2024-09-22T08:40:02+02:00*%
%TF.ProjectId,FrenGP_robot,4672656e-4750-45f7-926f-626f742e6b69,rev?*%
%TF.SameCoordinates,Original*%
%TF.FileFunction,Legend,Top*%
%TF.FilePolarity,Positive*%
%FSLAX46Y46*%
G04 Gerber Fmt 4.6, Leading zero omitted, Abs format (unit mm)*
G04 Created by KiCad (PCBNEW 8.0.2) date 2024-09-22 08:40:02*
%MOMM*%
%LPD*%
G01*
G04 APERTURE LIST*
%ADD10C,0.200000*%
%ADD11C,0.150000*%
%ADD12C,0.120000*%
G04 APERTURE END LIST*
D10*
X100203006Y-110270314D02*
X99869673Y-110270314D01*
X99869673Y-111056028D02*
X99869673Y-109556028D01*
X99869673Y-109556028D02*
X100345863Y-109556028D01*
X100726816Y-111056028D02*
X100726816Y-110056028D01*
X100726816Y-110341742D02*
X100774435Y-110198885D01*
X100774435Y-110198885D02*
X100822054Y-110127457D01*
X100822054Y-110127457D02*
X100917292Y-110056028D01*
X100917292Y-110056028D02*
X101012530Y-110056028D01*
X101726816Y-110984600D02*
X101631578Y-111056028D01*
X101631578Y-111056028D02*
X101441102Y-111056028D01*
X101441102Y-111056028D02*
X101345864Y-110984600D01*
X101345864Y-110984600D02*
X101298245Y-110841742D01*
X101298245Y-110841742D02*
X101298245Y-110270314D01*
X101298245Y-110270314D02*
X101345864Y-110127457D01*
X101345864Y-110127457D02*
X101441102Y-110056028D01*
X101441102Y-110056028D02*
X101631578Y-110056028D01*
X101631578Y-110056028D02*
X101726816Y-110127457D01*
X101726816Y-110127457D02*
X101774435Y-110270314D01*
X101774435Y-110270314D02*
X101774435Y-110413171D01*
X101774435Y-110413171D02*
X101298245Y-110556028D01*
X102203007Y-110056028D02*
X102203007Y-111056028D01*
X102203007Y-110198885D02*
X102250626Y-110127457D01*
X102250626Y-110127457D02*
X102345864Y-110056028D01*
X102345864Y-110056028D02*
X102488721Y-110056028D01*
X102488721Y-110056028D02*
X102583959Y-110127457D01*
X102583959Y-110127457D02*
X102631578Y-110270314D01*
X102631578Y-110270314D02*
X102631578Y-111056028D01*
X103631578Y-109627457D02*
X103536340Y-109556028D01*
X103536340Y-109556028D02*
X103393483Y-109556028D01*
X103393483Y-109556028D02*
X103250626Y-109627457D01*
X103250626Y-109627457D02*
X103155388Y-109770314D01*
X103155388Y-109770314D02*
X103107769Y-109913171D01*
X103107769Y-109913171D02*
X103060150Y-110198885D01*
X103060150Y-110198885D02*
X103060150Y-110413171D01*
X103060150Y-110413171D02*
X103107769Y-110698885D01*
X103107769Y-110698885D02*
X103155388Y-110841742D01*
X103155388Y-110841742D02*
X103250626Y-110984600D01*
X103250626Y-110984600D02*
X103393483Y-111056028D01*
X103393483Y-111056028D02*
X103488721Y-111056028D01*
X103488721Y-111056028D02*
X103631578Y-110984600D01*
X103631578Y-110984600D02*
X103679197Y-110913171D01*
X103679197Y-110913171D02*
X103679197Y-110413171D01*
X103679197Y-110413171D02*
X103488721Y-110413171D01*
X104107769Y-111056028D02*
X104107769Y-109556028D01*
X104107769Y-109556028D02*
X104488721Y-109556028D01*
X104488721Y-109556028D02*
X104583959Y-109627457D01*
X104583959Y-109627457D02*
X104631578Y-109698885D01*
X104631578Y-109698885D02*
X104679197Y-109841742D01*
X104679197Y-109841742D02*
X104679197Y-110056028D01*
X104679197Y-110056028D02*
X104631578Y-110198885D01*
X104631578Y-110198885D02*
X104583959Y-110270314D01*
X104583959Y-110270314D02*
X104488721Y-110341742D01*
X104488721Y-110341742D02*
X104107769Y-110341742D01*
X106441102Y-111056028D02*
X106107769Y-110341742D01*
X105869674Y-111056028D02*
X105869674Y-109556028D01*
X105869674Y-109556028D02*
X106250626Y-109556028D01*
X106250626Y-109556028D02*
X106345864Y-109627457D01*
X106345864Y-109627457D02*
X106393483Y-109698885D01*
X106393483Y-109698885D02*
X106441102Y-109841742D01*
X106441102Y-109841742D02*
X106441102Y-110056028D01*
X106441102Y-110056028D02*
X106393483Y-110198885D01*
X106393483Y-110198885D02*
X106345864Y-110270314D01*
X106345864Y-110270314D02*
X106250626Y-110341742D01*
X106250626Y-110341742D02*
X105869674Y-110341742D01*
X107012531Y-111056028D02*
X106917293Y-110984600D01*
X106917293Y-110984600D02*
X106869674Y-110913171D01*
X106869674Y-110913171D02*
X106822055Y-110770314D01*
X106822055Y-110770314D02*
X106822055Y-110341742D01*
X106822055Y-110341742D02*
X106869674Y-110198885D01*
X106869674Y-110198885D02*
X106917293Y-110127457D01*
X106917293Y-110127457D02*
X107012531Y-110056028D01*
X107012531Y-110056028D02*
X107155388Y-110056028D01*
X107155388Y-110056028D02*
X107250626Y-110127457D01*
X107250626Y-110127457D02*
X107298245Y-110198885D01*
X107298245Y-110198885D02*
X107345864Y-110341742D01*
X107345864Y-110341742D02*
X107345864Y-110770314D01*
X107345864Y-110770314D02*
X107298245Y-110913171D01*
X107298245Y-110913171D02*
X107250626Y-110984600D01*
X107250626Y-110984600D02*
X107155388Y-111056028D01*
X107155388Y-111056028D02*
X107012531Y-111056028D01*
X107774436Y-111056028D02*
X107774436Y-109556028D01*
X107774436Y-110127457D02*
X107869674Y-110056028D01*
X107869674Y-110056028D02*
X108060150Y-110056028D01*
X108060150Y-110056028D02*
X108155388Y-110127457D01*
X108155388Y-110127457D02*
X108203007Y-110198885D01*
X108203007Y-110198885D02*
X108250626Y-110341742D01*
X108250626Y-110341742D02*
X108250626Y-110770314D01*
X108250626Y-110770314D02*
X108203007Y-110913171D01*
X108203007Y-110913171D02*
X108155388Y-110984600D01*
X108155388Y-110984600D02*
X108060150Y-111056028D01*
X108060150Y-111056028D02*
X107869674Y-111056028D01*
X107869674Y-111056028D02*
X107774436Y-110984600D01*
X108822055Y-111056028D02*
X108726817Y-110984600D01*
X108726817Y-110984600D02*
X108679198Y-110913171D01*
X108679198Y-110913171D02*
X108631579Y-110770314D01*
X108631579Y-110770314D02*
X108631579Y-110341742D01*
X108631579Y-110341742D02*
X108679198Y-110198885D01*
X108679198Y-110198885D02*
X108726817Y-110127457D01*
X108726817Y-110127457D02*
X108822055Y-110056028D01*
X108822055Y-110056028D02*
X108964912Y-110056028D01*
X108964912Y-110056028D02*
X109060150Y-110127457D01*
X109060150Y-110127457D02*
X109107769Y-110198885D01*
X109107769Y-110198885D02*
X109155388Y-110341742D01*
X109155388Y-110341742D02*
X109155388Y-110770314D01*
X109155388Y-110770314D02*
X109107769Y-110913171D01*
X109107769Y-110913171D02*
X109060150Y-110984600D01*
X109060150Y-110984600D02*
X108964912Y-111056028D01*
X108964912Y-111056028D02*
X108822055Y-111056028D01*
X109441103Y-110056028D02*
X109822055Y-110056028D01*
X109583960Y-109556028D02*
X109583960Y-110841742D01*
X109583960Y-110841742D02*
X109631579Y-110984600D01*
X109631579Y-110984600D02*
X109726817Y-111056028D01*
X109726817Y-111056028D02*
X109822055Y-111056028D01*
X110536341Y-110984600D02*
X110441103Y-111056028D01*
X110441103Y-111056028D02*
X110250627Y-111056028D01*
X110250627Y-111056028D02*
X110155389Y-110984600D01*
X110155389Y-110984600D02*
X110107770Y-110841742D01*
X110107770Y-110841742D02*
X110107770Y-110270314D01*
X110107770Y-110270314D02*
X110155389Y-110127457D01*
X110155389Y-110127457D02*
X110250627Y-110056028D01*
X110250627Y-110056028D02*
X110441103Y-110056028D01*
X110441103Y-110056028D02*
X110536341Y-110127457D01*
X110536341Y-110127457D02*
X110583960Y-110270314D01*
X110583960Y-110270314D02*
X110583960Y-110413171D01*
X110583960Y-110413171D02*
X110107770Y-110556028D01*
X111012532Y-111056028D02*
X111012532Y-109556028D01*
X111107770Y-110484600D02*
X111393484Y-111056028D01*
X111393484Y-110056028D02*
X111012532Y-110627457D01*
X113107770Y-111056028D02*
X112536342Y-111056028D01*
X112822056Y-111056028D02*
X112822056Y-109556028D01*
X112822056Y-109556028D02*
X112726818Y-109770314D01*
X112726818Y-109770314D02*
X112631580Y-109913171D01*
X112631580Y-109913171D02*
X112536342Y-109984600D01*
X113536342Y-110913171D02*
X113583961Y-110984600D01*
X113583961Y-110984600D02*
X113536342Y-111056028D01*
X113536342Y-111056028D02*
X113488723Y-110984600D01*
X113488723Y-110984600D02*
X113536342Y-110913171D01*
X113536342Y-110913171D02*
X113536342Y-111056028D01*
X114203008Y-109556028D02*
X114298246Y-109556028D01*
X114298246Y-109556028D02*
X114393484Y-109627457D01*
X114393484Y-109627457D02*
X114441103Y-109698885D01*
X114441103Y-109698885D02*
X114488722Y-109841742D01*
X114488722Y-109841742D02*
X114536341Y-110127457D01*
X114536341Y-110127457D02*
X114536341Y-110484600D01*
X114536341Y-110484600D02*
X114488722Y-110770314D01*
X114488722Y-110770314D02*
X114441103Y-110913171D01*
X114441103Y-110913171D02*
X114393484Y-110984600D01*
X114393484Y-110984600D02*
X114298246Y-111056028D01*
X114298246Y-111056028D02*
X114203008Y-111056028D01*
X114203008Y-111056028D02*
X114107770Y-110984600D01*
X114107770Y-110984600D02*
X114060151Y-110913171D01*
X114060151Y-110913171D02*
X114012532Y-110770314D01*
X114012532Y-110770314D02*
X113964913Y-110484600D01*
X113964913Y-110484600D02*
X113964913Y-110127457D01*
X113964913Y-110127457D02*
X114012532Y-109841742D01*
X114012532Y-109841742D02*
X114060151Y-109698885D01*
X114060151Y-109698885D02*
X114107770Y-109627457D01*
X114107770Y-109627457D02*
X114203008Y-109556028D01*
D11*
X35393333Y-81734819D02*
X35060000Y-81258628D01*
X34821905Y-81734819D02*
X34821905Y-80734819D01*
X34821905Y-80734819D02*
X35202857Y-80734819D01*
X35202857Y-80734819D02*
X35298095Y-80782438D01*
X35298095Y-80782438D02*
X35345714Y-80830057D01*
X35345714Y-80830057D02*
X35393333Y-80925295D01*
X35393333Y-80925295D02*
X35393333Y-81068152D01*
X35393333Y-81068152D02*
X35345714Y-81163390D01*
X35345714Y-81163390D02*
X35298095Y-81211009D01*
X35298095Y-81211009D02*
X35202857Y-81258628D01*
X35202857Y-81258628D02*
X34821905Y-81258628D01*
X36345714Y-81734819D02*
X35774286Y-81734819D01*
X36060000Y-81734819D02*
X36060000Y-80734819D01*
X36060000Y-80734819D02*
X35964762Y-80877676D01*
X35964762Y-80877676D02*
X35869524Y-80972914D01*
X35869524Y-80972914D02*
X35774286Y-81020533D01*
X51700133Y-56310780D02*
X51652514Y-56358400D01*
X51652514Y-56358400D02*
X51509657Y-56406019D01*
X51509657Y-56406019D02*
X51414419Y-56406019D01*
X51414419Y-56406019D02*
X51271562Y-56358400D01*
X51271562Y-56358400D02*
X51176324Y-56263161D01*
X51176324Y-56263161D02*
X51128705Y-56167923D01*
X51128705Y-56167923D02*
X51081086Y-55977447D01*
X51081086Y-55977447D02*
X51081086Y-55834590D01*
X51081086Y-55834590D02*
X51128705Y-55644114D01*
X51128705Y-55644114D02*
X51176324Y-55548876D01*
X51176324Y-55548876D02*
X51271562Y-55453638D01*
X51271562Y-55453638D02*
X51414419Y-55406019D01*
X51414419Y-55406019D02*
X51509657Y-55406019D01*
X51509657Y-55406019D02*
X51652514Y-55453638D01*
X51652514Y-55453638D02*
X51700133Y-55501257D01*
X52033467Y-55406019D02*
X52652514Y-55406019D01*
X52652514Y-55406019D02*
X52319181Y-55786971D01*
X52319181Y-55786971D02*
X52462038Y-55786971D01*
X52462038Y-55786971D02*
X52557276Y-55834590D01*
X52557276Y-55834590D02*
X52604895Y-55882209D01*
X52604895Y-55882209D02*
X52652514Y-55977447D01*
X52652514Y-55977447D02*
X52652514Y-56215542D01*
X52652514Y-56215542D02*
X52604895Y-56310780D01*
X52604895Y-56310780D02*
X52557276Y-56358400D01*
X52557276Y-56358400D02*
X52462038Y-56406019D01*
X52462038Y-56406019D02*
X52176324Y-56406019D01*
X52176324Y-56406019D02*
X52081086Y-56358400D01*
X52081086Y-56358400D02*
X52033467Y-56310780D01*
X51261905Y-45454819D02*
X51261905Y-44454819D01*
X51261905Y-44454819D02*
X51500000Y-44454819D01*
X51500000Y-44454819D02*
X51642857Y-44502438D01*
X51642857Y-44502438D02*
X51738095Y-44597676D01*
X51738095Y-44597676D02*
X51785714Y-44692914D01*
X51785714Y-44692914D02*
X51833333Y-44883390D01*
X51833333Y-44883390D02*
X51833333Y-45026247D01*
X51833333Y-45026247D02*
X51785714Y-45216723D01*
X51785714Y-45216723D02*
X51738095Y-45311961D01*
X51738095Y-45311961D02*
X51642857Y-45407200D01*
X51642857Y-45407200D02*
X51500000Y-45454819D01*
X51500000Y-45454819D02*
X51261905Y-45454819D01*
X52214286Y-44550057D02*
X52261905Y-44502438D01*
X52261905Y-44502438D02*
X52357143Y-44454819D01*
X52357143Y-44454819D02*
X52595238Y-44454819D01*
X52595238Y-44454819D02*
X52690476Y-44502438D01*
X52690476Y-44502438D02*
X52738095Y-44550057D01*
X52738095Y-44550057D02*
X52785714Y-44645295D01*
X52785714Y-44645295D02*
X52785714Y-44740533D01*
X52785714Y-44740533D02*
X52738095Y-44883390D01*
X52738095Y-44883390D02*
X52166667Y-45454819D01*
X52166667Y-45454819D02*
X52785714Y-45454819D01*
X94996333Y-77582580D02*
X94948714Y-77630200D01*
X94948714Y-77630200D02*
X94805857Y-77677819D01*
X94805857Y-77677819D02*
X94710619Y-77677819D01*
X94710619Y-77677819D02*
X94567762Y-77630200D01*
X94567762Y-77630200D02*
X94472524Y-77534961D01*
X94472524Y-77534961D02*
X94424905Y-77439723D01*
X94424905Y-77439723D02*
X94377286Y-77249247D01*
X94377286Y-77249247D02*
X94377286Y-77106390D01*
X94377286Y-77106390D02*
X94424905Y-76915914D01*
X94424905Y-76915914D02*
X94472524Y-76820676D01*
X94472524Y-76820676D02*
X94567762Y-76725438D01*
X94567762Y-76725438D02*
X94710619Y-76677819D01*
X94710619Y-76677819D02*
X94805857Y-76677819D01*
X94805857Y-76677819D02*
X94948714Y-76725438D01*
X94948714Y-76725438D02*
X94996333Y-76773057D01*
X95948714Y-77677819D02*
X95377286Y-77677819D01*
X95663000Y-77677819D02*
X95663000Y-76677819D01*
X95663000Y-76677819D02*
X95567762Y-76820676D01*
X95567762Y-76820676D02*
X95472524Y-76915914D01*
X95472524Y-76915914D02*
X95377286Y-76963533D01*
X121238095Y-32982819D02*
X121238095Y-33792342D01*
X121238095Y-33792342D02*
X121285714Y-33887580D01*
X121285714Y-33887580D02*
X121333333Y-33935200D01*
X121333333Y-33935200D02*
X121428571Y-33982819D01*
X121428571Y-33982819D02*
X121619047Y-33982819D01*
X121619047Y-33982819D02*
X121714285Y-33935200D01*
X121714285Y-33935200D02*
X121761904Y-33887580D01*
X121761904Y-33887580D02*
X121809523Y-33792342D01*
X121809523Y-33792342D02*
X121809523Y-32982819D01*
X122809523Y-33982819D02*
X122238095Y-33982819D01*
X122523809Y-33982819D02*
X122523809Y-32982819D01*
X122523809Y-32982819D02*
X122428571Y-33125676D01*
X122428571Y-33125676D02*
X122333333Y-33220914D01*
X122333333Y-33220914D02*
X122238095Y-33268533D01*
X31061900Y-98201132D02*
X31109519Y-98058275D01*
X31109519Y-98058275D02*
X31109519Y-97820180D01*
X31109519Y-97820180D02*
X31061900Y-97724942D01*
X31061900Y-97724942D02*
X31014280Y-97677323D01*
X31014280Y-97677323D02*
X30919042Y-97629704D01*
X30919042Y-97629704D02*
X30823804Y-97629704D01*
X30823804Y-97629704D02*
X30728566Y-97677323D01*
X30728566Y-97677323D02*
X30680947Y-97724942D01*
X30680947Y-97724942D02*
X30633328Y-97820180D01*
X30633328Y-97820180D02*
X30585709Y-98010656D01*
X30585709Y-98010656D02*
X30538090Y-98105894D01*
X30538090Y-98105894D02*
X30490471Y-98153513D01*
X30490471Y-98153513D02*
X30395233Y-98201132D01*
X30395233Y-98201132D02*
X30299995Y-98201132D01*
X30299995Y-98201132D02*
X30204757Y-98153513D01*
X30204757Y-98153513D02*
X30157138Y-98105894D01*
X30157138Y-98105894D02*
X30109519Y-98010656D01*
X30109519Y-98010656D02*
X30109519Y-97772561D01*
X30109519Y-97772561D02*
X30157138Y-97629704D01*
X30109519Y-97296370D02*
X31109519Y-97058275D01*
X31109519Y-97058275D02*
X30395233Y-96867799D01*
X30395233Y-96867799D02*
X31109519Y-96677323D01*
X31109519Y-96677323D02*
X30109519Y-96439228D01*
X31109519Y-95534466D02*
X31109519Y-96105894D01*
X31109519Y-95820180D02*
X30109519Y-95820180D01*
X30109519Y-95820180D02*
X30252376Y-95915418D01*
X30252376Y-95915418D02*
X30347614Y-96010656D01*
X30347614Y-96010656D02*
X30395233Y-96105894D01*
X101433333Y-70303580D02*
X101385714Y-70351200D01*
X101385714Y-70351200D02*
X101242857Y-70398819D01*
X101242857Y-70398819D02*
X101147619Y-70398819D01*
X101147619Y-70398819D02*
X101004762Y-70351200D01*
X101004762Y-70351200D02*
X100909524Y-70255961D01*
X100909524Y-70255961D02*
X100861905Y-70160723D01*
X100861905Y-70160723D02*
X100814286Y-69970247D01*
X100814286Y-69970247D02*
X100814286Y-69827390D01*
X100814286Y-69827390D02*
X100861905Y-69636914D01*
X100861905Y-69636914D02*
X100909524Y-69541676D01*
X100909524Y-69541676D02*
X101004762Y-69446438D01*
X101004762Y-69446438D02*
X101147619Y-69398819D01*
X101147619Y-69398819D02*
X101242857Y-69398819D01*
X101242857Y-69398819D02*
X101385714Y-69446438D01*
X101385714Y-69446438D02*
X101433333Y-69494057D01*
X101814286Y-69494057D02*
X101861905Y-69446438D01*
X101861905Y-69446438D02*
X101957143Y-69398819D01*
X101957143Y-69398819D02*
X102195238Y-69398819D01*
X102195238Y-69398819D02*
X102290476Y-69446438D01*
X102290476Y-69446438D02*
X102338095Y-69494057D01*
X102338095Y-69494057D02*
X102385714Y-69589295D01*
X102385714Y-69589295D02*
X102385714Y-69684533D01*
X102385714Y-69684533D02*
X102338095Y-69827390D01*
X102338095Y-69827390D02*
X101766667Y-70398819D01*
X101766667Y-70398819D02*
X102385714Y-70398819D01*
X121158095Y-63462819D02*
X121158095Y-64272342D01*
X121158095Y-64272342D02*
X121205714Y-64367580D01*
X121205714Y-64367580D02*
X121253333Y-64415200D01*
X121253333Y-64415200D02*
X121348571Y-64462819D01*
X121348571Y-64462819D02*
X121539047Y-64462819D01*
X121539047Y-64462819D02*
X121634285Y-64415200D01*
X121634285Y-64415200D02*
X121681904Y-64367580D01*
X121681904Y-64367580D02*
X121729523Y-64272342D01*
X121729523Y-64272342D02*
X121729523Y-63462819D01*
X122634285Y-63796152D02*
X122634285Y-64462819D01*
X122396190Y-63415200D02*
X122158095Y-64129485D01*
X122158095Y-64129485D02*
X122777142Y-64129485D01*
X76953804Y-68710085D02*
X76953804Y-68233895D01*
X77239519Y-68805323D02*
X76239519Y-68471990D01*
X76239519Y-68471990D02*
X77239519Y-68138657D01*
X77239519Y-67281514D02*
X77239519Y-67852942D01*
X77239519Y-67567228D02*
X76239519Y-67567228D01*
X76239519Y-67567228D02*
X76382376Y-67662466D01*
X76382376Y-67662466D02*
X76477614Y-67757704D01*
X76477614Y-67757704D02*
X76525233Y-67852942D01*
X36689880Y-66733895D02*
X35880357Y-66733895D01*
X35880357Y-66733895D02*
X35785119Y-66781514D01*
X35785119Y-66781514D02*
X35737500Y-66829133D01*
X35737500Y-66829133D02*
X35689880Y-66924371D01*
X35689880Y-66924371D02*
X35689880Y-67114847D01*
X35689880Y-67114847D02*
X35737500Y-67210085D01*
X35737500Y-67210085D02*
X35785119Y-67257704D01*
X35785119Y-67257704D02*
X35880357Y-67305323D01*
X35880357Y-67305323D02*
X36689880Y-67305323D01*
X35737500Y-67733895D02*
X35689880Y-67876752D01*
X35689880Y-67876752D02*
X35689880Y-68114847D01*
X35689880Y-68114847D02*
X35737500Y-68210085D01*
X35737500Y-68210085D02*
X35785119Y-68257704D01*
X35785119Y-68257704D02*
X35880357Y-68305323D01*
X35880357Y-68305323D02*
X35975595Y-68305323D01*
X35975595Y-68305323D02*
X36070833Y-68257704D01*
X36070833Y-68257704D02*
X36118452Y-68210085D01*
X36118452Y-68210085D02*
X36166071Y-68114847D01*
X36166071Y-68114847D02*
X36213690Y-67924371D01*
X36213690Y-67924371D02*
X36261309Y-67829133D01*
X36261309Y-67829133D02*
X36308928Y-67781514D01*
X36308928Y-67781514D02*
X36404166Y-67733895D01*
X36404166Y-67733895D02*
X36499404Y-67733895D01*
X36499404Y-67733895D02*
X36594642Y-67781514D01*
X36594642Y-67781514D02*
X36642261Y-67829133D01*
X36642261Y-67829133D02*
X36689880Y-67924371D01*
X36689880Y-67924371D02*
X36689880Y-68162466D01*
X36689880Y-68162466D02*
X36642261Y-68305323D01*
X36213690Y-69067228D02*
X36166071Y-69210085D01*
X36166071Y-69210085D02*
X36118452Y-69257704D01*
X36118452Y-69257704D02*
X36023214Y-69305323D01*
X36023214Y-69305323D02*
X35880357Y-69305323D01*
X35880357Y-69305323D02*
X35785119Y-69257704D01*
X35785119Y-69257704D02*
X35737500Y-69210085D01*
X35737500Y-69210085D02*
X35689880Y-69114847D01*
X35689880Y-69114847D02*
X35689880Y-68733895D01*
X35689880Y-68733895D02*
X36689880Y-68733895D01*
X36689880Y-68733895D02*
X36689880Y-69067228D01*
X36689880Y-69067228D02*
X36642261Y-69162466D01*
X36642261Y-69162466D02*
X36594642Y-69210085D01*
X36594642Y-69210085D02*
X36499404Y-69257704D01*
X36499404Y-69257704D02*
X36404166Y-69257704D01*
X36404166Y-69257704D02*
X36308928Y-69210085D01*
X36308928Y-69210085D02*
X36261309Y-69162466D01*
X36261309Y-69162466D02*
X36213690Y-69067228D01*
X36213690Y-69067228D02*
X36213690Y-68733895D01*
X121158095Y-78702819D02*
X121158095Y-79512342D01*
X121158095Y-79512342D02*
X121205714Y-79607580D01*
X121205714Y-79607580D02*
X121253333Y-79655200D01*
X121253333Y-79655200D02*
X121348571Y-79702819D01*
X121348571Y-79702819D02*
X121539047Y-79702819D01*
X121539047Y-79702819D02*
X121634285Y-79655200D01*
X121634285Y-79655200D02*
X121681904Y-79607580D01*
X121681904Y-79607580D02*
X121729523Y-79512342D01*
X121729523Y-79512342D02*
X121729523Y-78702819D01*
X122634285Y-78702819D02*
X122443809Y-78702819D01*
X122443809Y-78702819D02*
X122348571Y-78750438D01*
X122348571Y-78750438D02*
X122300952Y-78798057D01*
X122300952Y-78798057D02*
X122205714Y-78940914D01*
X122205714Y-78940914D02*
X122158095Y-79131390D01*
X122158095Y-79131390D02*
X122158095Y-79512342D01*
X122158095Y-79512342D02*
X122205714Y-79607580D01*
X122205714Y-79607580D02*
X122253333Y-79655200D01*
X122253333Y-79655200D02*
X122348571Y-79702819D01*
X122348571Y-79702819D02*
X122539047Y-79702819D01*
X122539047Y-79702819D02*
X122634285Y-79655200D01*
X122634285Y-79655200D02*
X122681904Y-79607580D01*
X122681904Y-79607580D02*
X122729523Y-79512342D01*
X122729523Y-79512342D02*
X122729523Y-79274247D01*
X122729523Y-79274247D02*
X122681904Y-79179009D01*
X122681904Y-79179009D02*
X122634285Y-79131390D01*
X122634285Y-79131390D02*
X122539047Y-79083771D01*
X122539047Y-79083771D02*
X122348571Y-79083771D01*
X122348571Y-79083771D02*
X122253333Y-79131390D01*
X122253333Y-79131390D02*
X122205714Y-79179009D01*
X122205714Y-79179009D02*
X122158095Y-79274247D01*
X104273819Y-66093904D02*
X105083342Y-66093904D01*
X105083342Y-66093904D02*
X105178580Y-66046285D01*
X105178580Y-66046285D02*
X105226200Y-65998666D01*
X105226200Y-65998666D02*
X105273819Y-65903428D01*
X105273819Y-65903428D02*
X105273819Y-65712952D01*
X105273819Y-65712952D02*
X105226200Y-65617714D01*
X105226200Y-65617714D02*
X105178580Y-65570095D01*
X105178580Y-65570095D02*
X105083342Y-65522476D01*
X105083342Y-65522476D02*
X104273819Y-65522476D01*
X104369057Y-65093904D02*
X104321438Y-65046285D01*
X104321438Y-65046285D02*
X104273819Y-64951047D01*
X104273819Y-64951047D02*
X104273819Y-64712952D01*
X104273819Y-64712952D02*
X104321438Y-64617714D01*
X104321438Y-64617714D02*
X104369057Y-64570095D01*
X104369057Y-64570095D02*
X104464295Y-64522476D01*
X104464295Y-64522476D02*
X104559533Y-64522476D01*
X104559533Y-64522476D02*
X104702390Y-64570095D01*
X104702390Y-64570095D02*
X105273819Y-65141523D01*
X105273819Y-65141523D02*
X105273819Y-64522476D01*
X33871819Y-49536333D02*
X34586104Y-49536333D01*
X34586104Y-49536333D02*
X34728961Y-49583952D01*
X34728961Y-49583952D02*
X34824200Y-49679190D01*
X34824200Y-49679190D02*
X34871819Y-49822047D01*
X34871819Y-49822047D02*
X34871819Y-49917285D01*
X34871819Y-48536333D02*
X34871819Y-49107761D01*
X34871819Y-48822047D02*
X33871819Y-48822047D01*
X33871819Y-48822047D02*
X34014676Y-48917285D01*
X34014676Y-48917285D02*
X34109914Y-49012523D01*
X34109914Y-49012523D02*
X34157533Y-49107761D01*
X39026905Y-85704819D02*
X39026905Y-84704819D01*
X39026905Y-84704819D02*
X39265000Y-84704819D01*
X39265000Y-84704819D02*
X39407857Y-84752438D01*
X39407857Y-84752438D02*
X39503095Y-84847676D01*
X39503095Y-84847676D02*
X39550714Y-84942914D01*
X39550714Y-84942914D02*
X39598333Y-85133390D01*
X39598333Y-85133390D02*
X39598333Y-85276247D01*
X39598333Y-85276247D02*
X39550714Y-85466723D01*
X39550714Y-85466723D02*
X39503095Y-85561961D01*
X39503095Y-85561961D02*
X39407857Y-85657200D01*
X39407857Y-85657200D02*
X39265000Y-85704819D01*
X39265000Y-85704819D02*
X39026905Y-85704819D01*
X40550714Y-85704819D02*
X39979286Y-85704819D01*
X40265000Y-85704819D02*
X40265000Y-84704819D01*
X40265000Y-84704819D02*
X40169762Y-84847676D01*
X40169762Y-84847676D02*
X40074524Y-84942914D01*
X40074524Y-84942914D02*
X39979286Y-84990533D01*
X81683266Y-70095419D02*
X81683266Y-70809704D01*
X81683266Y-70809704D02*
X81635647Y-70952561D01*
X81635647Y-70952561D02*
X81540409Y-71047800D01*
X81540409Y-71047800D02*
X81397552Y-71095419D01*
X81397552Y-71095419D02*
X81302314Y-71095419D01*
X82111838Y-70190657D02*
X82159457Y-70143038D01*
X82159457Y-70143038D02*
X82254695Y-70095419D01*
X82254695Y-70095419D02*
X82492790Y-70095419D01*
X82492790Y-70095419D02*
X82588028Y-70143038D01*
X82588028Y-70143038D02*
X82635647Y-70190657D01*
X82635647Y-70190657D02*
X82683266Y-70285895D01*
X82683266Y-70285895D02*
X82683266Y-70381133D01*
X82683266Y-70381133D02*
X82635647Y-70523990D01*
X82635647Y-70523990D02*
X82064219Y-71095419D01*
X82064219Y-71095419D02*
X82683266Y-71095419D01*
X81759466Y-54855419D02*
X81759466Y-55569704D01*
X81759466Y-55569704D02*
X81711847Y-55712561D01*
X81711847Y-55712561D02*
X81616609Y-55807800D01*
X81616609Y-55807800D02*
X81473752Y-55855419D01*
X81473752Y-55855419D02*
X81378514Y-55855419D01*
X82140419Y-54855419D02*
X82759466Y-54855419D01*
X82759466Y-54855419D02*
X82426133Y-55236371D01*
X82426133Y-55236371D02*
X82568990Y-55236371D01*
X82568990Y-55236371D02*
X82664228Y-55283990D01*
X82664228Y-55283990D02*
X82711847Y-55331609D01*
X82711847Y-55331609D02*
X82759466Y-55426847D01*
X82759466Y-55426847D02*
X82759466Y-55664942D01*
X82759466Y-55664942D02*
X82711847Y-55760180D01*
X82711847Y-55760180D02*
X82664228Y-55807800D01*
X82664228Y-55807800D02*
X82568990Y-55855419D01*
X82568990Y-55855419D02*
X82283276Y-55855419D01*
X82283276Y-55855419D02*
X82188038Y-55807800D01*
X82188038Y-55807800D02*
X82140419Y-55760180D01*
X121158095Y-48222819D02*
X121158095Y-49032342D01*
X121158095Y-49032342D02*
X121205714Y-49127580D01*
X121205714Y-49127580D02*
X121253333Y-49175200D01*
X121253333Y-49175200D02*
X121348571Y-49222819D01*
X121348571Y-49222819D02*
X121539047Y-49222819D01*
X121539047Y-49222819D02*
X121634285Y-49175200D01*
X121634285Y-49175200D02*
X121681904Y-49127580D01*
X121681904Y-49127580D02*
X121729523Y-49032342D01*
X121729523Y-49032342D02*
X121729523Y-48222819D01*
X122110476Y-48222819D02*
X122729523Y-48222819D01*
X122729523Y-48222819D02*
X122396190Y-48603771D01*
X122396190Y-48603771D02*
X122539047Y-48603771D01*
X122539047Y-48603771D02*
X122634285Y-48651390D01*
X122634285Y-48651390D02*
X122681904Y-48699009D01*
X122681904Y-48699009D02*
X122729523Y-48794247D01*
X122729523Y-48794247D02*
X122729523Y-49032342D01*
X122729523Y-49032342D02*
X122681904Y-49127580D01*
X122681904Y-49127580D02*
X122634285Y-49175200D01*
X122634285Y-49175200D02*
X122539047Y-49222819D01*
X122539047Y-49222819D02*
X122253333Y-49222819D01*
X122253333Y-49222819D02*
X122158095Y-49175200D01*
X122158095Y-49175200D02*
X122110476Y-49127580D01*
X61402933Y-69814680D02*
X61355314Y-69862300D01*
X61355314Y-69862300D02*
X61212457Y-69909919D01*
X61212457Y-69909919D02*
X61117219Y-69909919D01*
X61117219Y-69909919D02*
X60974362Y-69862300D01*
X60974362Y-69862300D02*
X60879124Y-69767061D01*
X60879124Y-69767061D02*
X60831505Y-69671823D01*
X60831505Y-69671823D02*
X60783886Y-69481347D01*
X60783886Y-69481347D02*
X60783886Y-69338490D01*
X60783886Y-69338490D02*
X60831505Y-69148014D01*
X60831505Y-69148014D02*
X60879124Y-69052776D01*
X60879124Y-69052776D02*
X60974362Y-68957538D01*
X60974362Y-68957538D02*
X61117219Y-68909919D01*
X61117219Y-68909919D02*
X61212457Y-68909919D01*
X61212457Y-68909919D02*
X61355314Y-68957538D01*
X61355314Y-68957538D02*
X61402933Y-69005157D01*
X62260076Y-69243252D02*
X62260076Y-69909919D01*
X62021981Y-68862300D02*
X61783886Y-69576585D01*
X61783886Y-69576585D02*
X62402933Y-69576585D01*
D12*
%TO.C,R1*%
X35814724Y-83297500D02*
X35305276Y-83297500D01*
X35814724Y-84342500D02*
X35305276Y-84342500D01*
%TO.C,C3*%
X47606800Y-46491200D02*
X47606800Y-49241200D01*
X47606800Y-55011200D02*
X47606800Y-52261200D01*
X55062363Y-46491200D02*
X47606800Y-46491200D01*
X55062363Y-55011200D02*
X47606800Y-55011200D01*
X56126800Y-47555637D02*
X55062363Y-46491200D01*
X56126800Y-47555637D02*
X56126800Y-49241200D01*
X56126800Y-53946763D02*
X55062363Y-55011200D01*
X56126800Y-53946763D02*
X56126800Y-52261200D01*
X56866800Y-53761200D02*
X56866800Y-52761200D01*
X57366800Y-53261200D02*
X56366800Y-53261200D01*
%TO.C,D2*%
X56960000Y-39850000D02*
X49300000Y-39850000D01*
X56960000Y-44150000D02*
X49300000Y-44150000D01*
X56960000Y-44150000D02*
X56960000Y-39850000D01*
%TO.C,C1*%
X89663000Y-79913000D02*
X90663000Y-79913000D01*
X90163000Y-79413000D02*
X90163000Y-80413000D01*
X90903000Y-79227437D02*
X90903000Y-80913000D01*
X90903000Y-79227437D02*
X91967437Y-78163000D01*
X90903000Y-85618563D02*
X90903000Y-83933000D01*
X90903000Y-85618563D02*
X91967437Y-86683000D01*
X91967437Y-78163000D02*
X99423000Y-78163000D01*
X91967437Y-86683000D02*
X99423000Y-86683000D01*
X99423000Y-78163000D02*
X99423000Y-80913000D01*
X99423000Y-86683000D02*
X99423000Y-83933000D01*
%TO.C,SW1*%
X31654700Y-94617800D02*
X31654700Y-99117800D01*
X34154700Y-100367800D02*
X35654700Y-100367800D01*
X35654700Y-93367800D02*
X34154700Y-93367800D01*
X38154700Y-99117800D02*
X38154700Y-94617800D01*
%TO.C,C2*%
X101453733Y-70864000D02*
X101746267Y-70864000D01*
X101453733Y-71884000D02*
X101746267Y-71884000D01*
%TO.C,A1*%
X29664700Y-64055800D02*
X40084700Y-64055800D01*
X29664700Y-71935800D02*
X29664700Y-64055800D01*
X32204700Y-58975800D02*
X32204700Y-64055800D01*
X32204700Y-77015800D02*
X32204700Y-71935800D01*
X32204700Y-77015800D02*
X75644700Y-77015800D01*
X34874700Y-61645800D02*
X34874700Y-58975800D01*
X34874700Y-74345800D02*
X34874700Y-77015800D01*
X40084700Y-64055800D02*
X40084700Y-71935800D01*
X40084700Y-71935800D02*
X29664700Y-71935800D01*
X70434700Y-58975800D02*
X32204700Y-58975800D01*
X70434700Y-61645800D02*
X34874700Y-61645800D01*
X70434700Y-61645800D02*
X70434700Y-58975800D01*
X70434700Y-61645800D02*
X72974700Y-61645800D01*
X72974700Y-61645800D02*
X72974700Y-58975800D01*
X72974700Y-74345800D02*
X34874700Y-74345800D01*
X72974700Y-74345800D02*
X72974700Y-77015800D01*
X75644700Y-58975800D02*
X72974700Y-58975800D01*
X75644700Y-77015800D02*
X75644700Y-58975800D01*
%TO.C,U2*%
X88459000Y-62097000D02*
X88459000Y-73647000D01*
X88459000Y-73647000D02*
X103819000Y-73647000D01*
X103819000Y-62097000D02*
X88459000Y-62097000D01*
X103819000Y-71412000D02*
X103819000Y-62097000D01*
X103819000Y-73647000D02*
X103819000Y-71412000D01*
%TO.C,J1*%
X35687000Y-44123000D02*
X35687000Y-54283000D01*
X35687000Y-54283000D02*
X43307000Y-54283000D01*
X42037000Y-44123000D02*
X42037000Y-54283000D01*
X43307000Y-44123000D02*
X35687000Y-44123000D01*
X43307000Y-54283000D02*
X43307000Y-44123000D01*
%TO.C,D1*%
X38965000Y-84555000D02*
X41425000Y-84555000D01*
X41425000Y-83085000D02*
X38965000Y-83085000D01*
X41425000Y-84555000D02*
X41425000Y-83085000D01*
%TO.C,J2*%
X76936600Y-71910600D02*
X76936600Y-79530600D01*
X76936600Y-79530600D02*
X87096600Y-79530600D01*
X87096600Y-71910600D02*
X76936600Y-71910600D01*
X87096600Y-78260600D02*
X76936600Y-78260600D01*
X87096600Y-79530600D02*
X87096600Y-71910600D01*
%TO.C,J3*%
X77012800Y-56670600D02*
X77012800Y-64290600D01*
X77012800Y-64290600D02*
X87172800Y-64290600D01*
X87172800Y-56670600D02*
X77012800Y-56670600D01*
X87172800Y-63020600D02*
X77012800Y-63020600D01*
X87172800Y-64290600D02*
X87172800Y-56670600D01*
%TO.C,C4*%
X61715867Y-67515100D02*
X61423333Y-67515100D01*
X61715867Y-68535100D02*
X61423333Y-68535100D01*
%TD*%
M02*
