%TF.GenerationSoftware,KiCad,Pcbnew,9.0.2*%
%TF.CreationDate,2025-06-10T12:02:56+02:00*%
%TF.ProjectId,FrenGP_robot,4672656e-4750-45f7-926f-626f742e6b69,rev?*%
%TF.SameCoordinates,Original*%
%TF.FileFunction,Soldermask,Bot*%
%TF.FilePolarity,Negative*%
%FSLAX46Y46*%
G04 Gerber Fmt 4.6, Leading zero omitted, Abs format (unit mm)*
G04 Created by KiCad (PCBNEW 9.0.2) date 2025-06-10 12:02:56*
%MOMM*%
%LPD*%
G01*
G04 APERTURE LIST*
%ADD10O,1.600000X1.600000*%
%ADD11C,2.000000*%
%ADD12R,1.600000X1.600000*%
%ADD13R,3.000000X3.000000*%
%ADD14C,3.000000*%
%ADD15R,2.000000X2.000000*%
G04 APERTURE END LIST*
D10*
%TO.C,U3*%
X111196000Y-39199000D03*
X111196000Y-36659000D03*
X111196000Y-34119000D03*
X111196000Y-31579000D03*
X111196000Y-29039000D03*
X111196000Y-26499000D03*
%TD*%
D11*
%TO.C,SW1*%
X32654700Y-100117800D03*
X32654700Y-93617800D03*
X37154700Y-100117800D03*
X37154700Y-93617800D03*
%TD*%
D12*
%TO.C,U5*%
X114574700Y-72573800D03*
D10*
X114574700Y-70033800D03*
X114574700Y-67493800D03*
X114574700Y-64953800D03*
%TD*%
D12*
%TO.C,U4*%
X88817900Y-29000000D03*
D10*
X91357900Y-29000000D03*
X93897900Y-29000000D03*
X96437900Y-29000000D03*
%TD*%
%TO.C,U1*%
X109321600Y-108280200D03*
X109321600Y-105740200D03*
X109321600Y-103200200D03*
X109321600Y-100660200D03*
X109321600Y-98120200D03*
X109321600Y-95580200D03*
X109321600Y-93014200D03*
%TD*%
D12*
%TO.C,A1*%
X71704700Y-55422800D03*
X71704700Y-60375800D03*
D10*
X69164700Y-55422800D03*
X69164700Y-60375800D03*
X66624700Y-55422800D03*
X66624700Y-60375800D03*
X64084700Y-55422800D03*
X64084700Y-60375800D03*
X61544700Y-55422800D03*
X61544700Y-60375800D03*
X59004700Y-55422800D03*
X59004700Y-60375800D03*
X56464700Y-55422800D03*
X56464700Y-60375800D03*
X53924700Y-55422800D03*
X53924700Y-60375800D03*
X51384700Y-55422800D03*
X51384700Y-60375800D03*
X48844700Y-55422800D03*
X48844700Y-60375800D03*
X46304700Y-55422800D03*
X46304700Y-60375800D03*
X43764700Y-55422800D03*
X43764700Y-60375800D03*
X41224700Y-55422800D03*
X41224700Y-60375800D03*
X38684700Y-55422800D03*
X38684700Y-60375800D03*
X36144700Y-55422800D03*
X36144700Y-60375800D03*
X36144700Y-75615800D03*
X36017700Y-80249800D03*
X38684700Y-75615800D03*
X38557700Y-80249800D03*
X41224700Y-75615800D03*
X41097700Y-80249800D03*
X43764700Y-75615800D03*
X43637700Y-80249800D03*
X46304700Y-75615800D03*
X46177700Y-80249800D03*
X48844700Y-75615800D03*
X48717700Y-80249800D03*
X51384700Y-75615800D03*
X51257700Y-80249800D03*
X53924700Y-75615800D03*
X53797700Y-80249800D03*
X56464700Y-75615800D03*
X56337700Y-80249800D03*
X59004700Y-75615800D03*
X58877700Y-80249800D03*
X61544700Y-75615800D03*
X61417700Y-80249800D03*
X64084700Y-75615800D03*
X63957700Y-80249800D03*
X66624700Y-75615800D03*
X66497700Y-80249800D03*
X69164700Y-75615800D03*
X69037700Y-80249800D03*
X71704700Y-75615800D03*
X71577700Y-80249800D03*
%TD*%
D12*
%TO.C,U2*%
X102489000Y-60252000D03*
D10*
X99949000Y-60252000D03*
X97409000Y-60252000D03*
X94869000Y-60252000D03*
X92329000Y-60252000D03*
X89789000Y-60252000D03*
X89789000Y-75492000D03*
X92329000Y-75492000D03*
X94869000Y-75492000D03*
X97409000Y-75492000D03*
X99949000Y-75492000D03*
X102489000Y-75492000D03*
%TD*%
D13*
%TO.C,J1*%
X43738800Y-50038000D03*
D14*
X43738800Y-44958000D03*
%TD*%
D15*
%TO.C,BZ1*%
X51782016Y-97231200D03*
D11*
X59382016Y-97231200D03*
%TD*%
D13*
%TO.C,J2*%
X79476600Y-75720600D03*
D14*
X84556600Y-75720600D03*
%TD*%
D13*
%TO.C,J3*%
X79552800Y-60480600D03*
D14*
X84632800Y-60480600D03*
%TD*%
M02*
