%TF.GenerationSoftware,KiCad,Pcbnew,8.0.2*%
%TF.CreationDate,2024-09-22T08:40:02+02:00*%
%TF.ProjectId,FrenGP_robot,4672656e-4750-45f7-926f-626f742e6b69,rev?*%
%TF.SameCoordinates,Original*%
%TF.FileFunction,Copper,L2,Bot*%
%TF.FilePolarity,Positive*%
%FSLAX46Y46*%
G04 Gerber Fmt 4.6, Leading zero omitted, Abs format (unit mm)*
G04 Created by KiCad (PCBNEW 8.0.2) date 2024-09-22 08:40:02*
%MOMM*%
%LPD*%
G01*
G04 APERTURE LIST*
%TA.AperFunction,ComponentPad*%
%ADD10R,1.600000X1.600000*%
%TD*%
%TA.AperFunction,ComponentPad*%
%ADD11O,1.600000X1.600000*%
%TD*%
%TA.AperFunction,ComponentPad*%
%ADD12C,2.000000*%
%TD*%
%TA.AperFunction,ComponentPad*%
%ADD13R,3.000000X3.000000*%
%TD*%
%TA.AperFunction,ComponentPad*%
%ADD14C,3.000000*%
%TD*%
%TA.AperFunction,ViaPad*%
%ADD15C,0.600000*%
%TD*%
%TA.AperFunction,Conductor*%
%ADD16C,0.500000*%
%TD*%
G04 APERTURE END LIST*
D10*
%TO.P,U1,1,Vcc*%
%TO.N,+5V_MCU*%
X122000000Y-35560000D03*
D11*
%TO.P,U1,2,GND*%
%TO.N,GND*%
X122000000Y-38100000D03*
%TO.P,U1,3,OUT*%
%TO.N,IR1*%
X122000000Y-40640000D03*
%TD*%
D12*
%TO.P,SW1,1,1*%
%TO.N,GND*%
X32654700Y-100117800D03*
X32654700Y-93617800D03*
%TO.P,SW1,2,2*%
%TO.N,Net-(A1-D2)*%
X37154700Y-100117800D03*
X37154700Y-93617800D03*
%TD*%
D10*
%TO.P,U5,1,Vcc*%
%TO.N,+5V_MCU*%
X114574700Y-64445800D03*
D11*
%TO.P,U5,2,Trig*%
%TO.N,Trig*%
X114574700Y-66985800D03*
%TO.P,U5,3,Echo*%
%TO.N,Echo*%
X114574700Y-69525800D03*
%TO.P,U5,4,GND*%
%TO.N,GND*%
X114574700Y-72065800D03*
%TD*%
D10*
%TO.P,U4,1,Vcc*%
%TO.N,+5V_MCU*%
X121920000Y-66040000D03*
D11*
%TO.P,U4,2,GND*%
%TO.N,GND*%
X121920000Y-68580000D03*
%TO.P,U4,3,OUT*%
%TO.N,IR3*%
X121920000Y-71120000D03*
%TD*%
D10*
%TO.P,A1,1,D1/TX*%
%TO.N,unconnected-(A1-D1{slash}TX-Pad1)*%
X71704700Y-60375800D03*
D11*
%TO.P,A1,2,D0/RX*%
%TO.N,unconnected-(A1-D0{slash}RX-Pad2)*%
X69164700Y-60375800D03*
%TO.P,A1,3,~{RESET}*%
%TO.N,unconnected-(A1-~{RESET}-Pad3)*%
X66624700Y-60375800D03*
%TO.P,A1,4,GND*%
%TO.N,GND*%
X64084700Y-60375800D03*
%TO.P,A1,5,D2*%
%TO.N,Net-(A1-D2)*%
X61544700Y-60375800D03*
%TO.P,A1,6,D3*%
%TO.N,AIN1*%
X59004700Y-60375800D03*
%TO.P,A1,7,D4*%
%TO.N,unconnected-(A1-D4-Pad7)*%
X56464700Y-60375800D03*
%TO.P,A1,8,D5*%
%TO.N,unconnected-(A1-D5-Pad8)*%
X53924700Y-60375800D03*
%TO.P,A1,9,D6*%
%TO.N,unconnected-(A1-D6-Pad9)*%
X51384700Y-60375800D03*
%TO.P,A1,10,D7*%
%TO.N,Trig*%
X48844700Y-60375800D03*
%TO.P,A1,11,D8*%
%TO.N,Echo*%
X46304700Y-60375800D03*
%TO.P,A1,12,D9*%
%TO.N,AIN2*%
X43764700Y-60375800D03*
%TO.P,A1,13,D10*%
%TO.N,BIN1*%
X41224700Y-60375800D03*
%TO.P,A1,14,D11*%
%TO.N,BIN2*%
X38684700Y-60375800D03*
%TO.P,A1,15,D12*%
%TO.N,Net-(A1-D12)*%
X36144700Y-60375800D03*
%TO.P,A1,16,D13*%
%TO.N,unconnected-(A1-D13-Pad16)*%
X36144700Y-75615800D03*
%TO.P,A1,17,3V3*%
%TO.N,unconnected-(A1-3V3-Pad17)*%
X38684700Y-75615800D03*
%TO.P,A1,18,AREF*%
%TO.N,unconnected-(A1-AREF-Pad18)*%
X41224700Y-75615800D03*
%TO.P,A1,19,A0*%
%TO.N,IR5*%
X43764700Y-75615800D03*
%TO.P,A1,20,A1*%
%TO.N,IR4*%
X46304700Y-75615800D03*
%TO.P,A1,21,A2*%
%TO.N,IR3*%
X48844700Y-75615800D03*
%TO.P,A1,22,A3*%
%TO.N,IR2*%
X51384700Y-75615800D03*
%TO.P,A1,23,A4*%
%TO.N,IR1*%
X53924700Y-75615800D03*
%TO.P,A1,24,A5*%
%TO.N,unconnected-(A1-A5-Pad24)*%
X56464700Y-75615800D03*
%TO.P,A1,25,A6*%
%TO.N,unconnected-(A1-A6-Pad25)*%
X59004700Y-75615800D03*
%TO.P,A1,26,A7*%
%TO.N,unconnected-(A1-A7-Pad26)*%
X61544700Y-75615800D03*
%TO.P,A1,27,+5V*%
%TO.N,+5V_MCU*%
X64084700Y-75615800D03*
%TO.P,A1,28,~{RESET}*%
%TO.N,unconnected-(A1-~{RESET}-Pad28)*%
X66624700Y-75615800D03*
%TO.P,A1,29,GND*%
%TO.N,GND*%
X69164700Y-75615800D03*
%TO.P,A1,30,VIN*%
%TO.N,unconnected-(A1-VIN-Pad30)*%
X71704700Y-75615800D03*
%TD*%
D10*
%TO.P,U6,1,Vcc*%
%TO.N,+5V_MCU*%
X121920000Y-81280000D03*
D11*
%TO.P,U6,2,GND*%
%TO.N,GND*%
X121920000Y-83820000D03*
%TO.P,U6,3,OUT*%
%TO.N,IR4*%
X121920000Y-86360000D03*
%TD*%
D10*
%TO.P,U2,1,Sleep*%
%TO.N,unconnected-(U2-Sleep-Pad1)*%
X102489000Y-60252000D03*
D11*
%TO.P,U2,2,OUT1*%
%TO.N,Net-(J2-Pin_1)*%
X99949000Y-60252000D03*
%TO.P,U2,3,OUT2*%
%TO.N,Net-(J2-Pin_2)*%
X97409000Y-60252000D03*
%TO.P,U2,4,OUT3*%
%TO.N,Net-(J3-Pin_1)*%
X94869000Y-60252000D03*
%TO.P,U2,5,OUT4*%
%TO.N,Net-(J3-Pin_2)*%
X92329000Y-60252000D03*
%TO.P,U2,6,Fault*%
%TO.N,unconnected-(U2-Fault-Pad6)*%
X89789000Y-60252000D03*
%TO.P,U2,7,IN1*%
%TO.N,AIN1*%
X89789000Y-75492000D03*
%TO.P,U2,8,IN2*%
%TO.N,AIN2*%
X92329000Y-75492000D03*
%TO.P,U2,9,Vcc*%
%TO.N,+5V_bat*%
X94869000Y-75492000D03*
%TO.P,U2,10,GND*%
%TO.N,GND*%
X97409000Y-75492000D03*
%TO.P,U2,11,IN3*%
%TO.N,BIN1*%
X99949000Y-75492000D03*
%TO.P,U2,12,IN4*%
%TO.N,BIN2*%
X102489000Y-75492000D03*
%TD*%
D13*
%TO.P,J1,1,Pin_1*%
%TO.N,GND*%
X39497000Y-51743000D03*
D14*
%TO.P,J1,2,Pin_2*%
%TO.N,+5V_bat*%
X39497000Y-46663000D03*
%TD*%
D10*
%TO.P,U7,1,Vcc*%
%TO.N,+5V_MCU*%
X121920000Y-96520000D03*
D11*
%TO.P,U7,2,GND*%
%TO.N,GND*%
X121920000Y-99060000D03*
%TO.P,U7,3,OUT*%
%TO.N,IR5*%
X121920000Y-101600000D03*
%TD*%
D13*
%TO.P,J2,1,Pin_1*%
%TO.N,Net-(J2-Pin_1)*%
X79476600Y-75720600D03*
D14*
%TO.P,J2,2,Pin_2*%
%TO.N,Net-(J2-Pin_2)*%
X84556600Y-75720600D03*
%TD*%
D13*
%TO.P,J3,1,Pin_1*%
%TO.N,Net-(J3-Pin_1)*%
X79552800Y-60480600D03*
D14*
%TO.P,J3,2,Pin_2*%
%TO.N,Net-(J3-Pin_2)*%
X84632800Y-60480600D03*
%TD*%
D10*
%TO.P,U3,1,Vcc*%
%TO.N,+5V_MCU*%
X121920000Y-50800000D03*
D11*
%TO.P,U3,2,GND*%
%TO.N,GND*%
X121920000Y-53340000D03*
%TO.P,U3,3,OUT*%
%TO.N,IR2*%
X121920000Y-55880000D03*
%TD*%
D15*
%TO.N,GND*%
X98552000Y-77216000D03*
X119380000Y-99568000D03*
X58420000Y-45720000D03*
X90424000Y-91948000D03*
X101600000Y-68580000D03*
X111760000Y-45720000D03*
X90424000Y-89916000D03*
X100076000Y-77216000D03*
X104140000Y-83312000D03*
X102108000Y-83312000D03*
X96520000Y-77216000D03*
X43180000Y-68580000D03*
X73660000Y-68580000D03*
X40640000Y-66040000D03*
X108712000Y-72136000D03*
X104140000Y-78232000D03*
X102108000Y-66548000D03*
X106680000Y-63500000D03*
X82804000Y-68580000D03*
X58420000Y-48260000D03*
X107188000Y-73152000D03*
X50800000Y-71120000D03*
X106680000Y-79756000D03*
X81280000Y-68580000D03*
X106680000Y-55880000D03*
X114300000Y-43180000D03*
X119380000Y-60960000D03*
X45720000Y-71120000D03*
X121920000Y-45720000D03*
X55880000Y-66040000D03*
X111760000Y-60960000D03*
X102616000Y-81788000D03*
X119380000Y-96012000D03*
X58420000Y-66040000D03*
X104140000Y-81788000D03*
X83820000Y-68580000D03*
X106172000Y-81280000D03*
X107188000Y-72136000D03*
X121920000Y-43180000D03*
X103124000Y-79756000D03*
X101600000Y-72644000D03*
X60960000Y-48260000D03*
X87376000Y-89916000D03*
X119380000Y-98044000D03*
X103124000Y-78232000D03*
X81280000Y-91948000D03*
X104140000Y-55880000D03*
X108712000Y-70612000D03*
X107188000Y-70612000D03*
X87376000Y-91948000D03*
X101600000Y-55880000D03*
X68580000Y-63500000D03*
X43180000Y-66040000D03*
X101092000Y-66548000D03*
X102616000Y-84328000D03*
X108712000Y-73152000D03*
X66040000Y-63500000D03*
X58420000Y-63500000D03*
X81280000Y-89916000D03*
X105664000Y-72644000D03*
X83820000Y-89916000D03*
X111760000Y-43180000D03*
X82296000Y-68580000D03*
X101092000Y-72644000D03*
X105156000Y-79756000D03*
X97536000Y-77216000D03*
X99060000Y-68580000D03*
X103124000Y-66548000D03*
X83820000Y-91948000D03*
X55880000Y-63500000D03*
X40640000Y-68580000D03*
X114300000Y-45720000D03*
X100076000Y-66548000D03*
X71120000Y-68580000D03*
%TO.N,AIN1*%
X92964000Y-72390000D03*
%TO.N,BIN1*%
X48768000Y-63754000D03*
%TO.N,Echo*%
X48260000Y-54102000D03*
%TO.N,Trig*%
X50292000Y-55626000D03*
%TD*%
D16*
%TO.N,BIN2*%
X72068200Y-56896000D02*
X40132000Y-56896000D01*
X38684700Y-58343300D02*
X38684700Y-60375800D01*
X89427600Y-62430600D02*
X77602800Y-62430600D01*
X77602800Y-62430600D02*
X72068200Y-56896000D01*
X40132000Y-56896000D02*
X38684700Y-58343300D01*
X102489000Y-75492000D02*
X89427600Y-62430600D01*
%TO.N,AIN1*%
X92964000Y-72390000D02*
X71018900Y-72390000D01*
X71018900Y-72390000D02*
X59004700Y-60375800D01*
%TO.N,AIN2*%
X92329000Y-75492000D02*
X90150400Y-77670600D01*
X57754700Y-74365800D02*
X43764700Y-60375800D01*
X90150400Y-77670600D02*
X77526600Y-77670600D01*
X77526600Y-77670600D02*
X74221800Y-74365800D01*
X74221800Y-74365800D02*
X57754700Y-74365800D01*
%TO.N,BIN1*%
X99949000Y-75492000D02*
X97597000Y-73140000D01*
X97597000Y-73140000D02*
X58154000Y-73140000D01*
X58154000Y-73140000D02*
X48768000Y-63754000D01*
%TO.N,Echo*%
X114574700Y-69525800D02*
X115824700Y-68275800D01*
X115824700Y-68275800D02*
X115824700Y-63195800D01*
X106730900Y-54102000D02*
X48260000Y-54102000D01*
X115824700Y-63195800D02*
X106730900Y-54102000D01*
%TO.N,Trig*%
X97090767Y-55626000D02*
X50292000Y-55626000D01*
X101199000Y-61321000D02*
X101199000Y-59734233D01*
X106863800Y-66985800D02*
X101199000Y-61321000D01*
X101199000Y-59734233D02*
X97090767Y-55626000D01*
X114574700Y-66985800D02*
X106863800Y-66985800D01*
%TD*%
%TA.AperFunction,Conductor*%
%TO.N,GND*%
G36*
X71773009Y-57666185D02*
G01*
X71793651Y-57682819D01*
X77124380Y-63013548D01*
X77124384Y-63013551D01*
X77247298Y-63095680D01*
X77247311Y-63095687D01*
X77383882Y-63152256D01*
X77383887Y-63152258D01*
X77383891Y-63152258D01*
X77383892Y-63152259D01*
X77528879Y-63181100D01*
X77528882Y-63181100D01*
X77676717Y-63181100D01*
X89065370Y-63181100D01*
X89132409Y-63200785D01*
X89153051Y-63217419D01*
X99920199Y-73984567D01*
X99953684Y-74045890D01*
X99948700Y-74115582D01*
X99906828Y-74171515D01*
X99843325Y-74195776D01*
X99782138Y-74201129D01*
X99713638Y-74187362D01*
X99683650Y-74165282D01*
X98075421Y-72557052D01*
X98075414Y-72557046D01*
X98001729Y-72507812D01*
X98001729Y-72507813D01*
X97952491Y-72474913D01*
X97815917Y-72418343D01*
X97815907Y-72418340D01*
X97670920Y-72389500D01*
X97670918Y-72389500D01*
X93880322Y-72389500D01*
X93813283Y-72369815D01*
X93767528Y-72317011D01*
X93757102Y-72279383D01*
X93749369Y-72210750D01*
X93749368Y-72210748D01*
X93749368Y-72210745D01*
X93689789Y-72040478D01*
X93593816Y-71887738D01*
X93466262Y-71760184D01*
X93443243Y-71745720D01*
X93313523Y-71664211D01*
X93143254Y-71604631D01*
X93143249Y-71604630D01*
X92964004Y-71584435D01*
X92963996Y-71584435D01*
X92784750Y-71604630D01*
X92784745Y-71604631D01*
X92704983Y-71632542D01*
X92664028Y-71639500D01*
X71381129Y-71639500D01*
X71314090Y-71619815D01*
X71293448Y-71603181D01*
X61573499Y-61883231D01*
X61540014Y-61821908D01*
X61544998Y-61752216D01*
X61586870Y-61696283D01*
X61650370Y-61672023D01*
X61771392Y-61661435D01*
X61991196Y-61602539D01*
X62197434Y-61506368D01*
X62383839Y-61375847D01*
X62544747Y-61214939D01*
X62675268Y-61028534D01*
X62702595Y-60969929D01*
X62748764Y-60917495D01*
X62815957Y-60898342D01*
X62882839Y-60918557D01*
X62927357Y-60969933D01*
X62954565Y-61028282D01*
X63085042Y-61214620D01*
X63245879Y-61375457D01*
X63432217Y-61505934D01*
X63638373Y-61602065D01*
X63638382Y-61602069D01*
X63834699Y-61654672D01*
X63834700Y-61654671D01*
X63834700Y-60808812D01*
X63891707Y-60841725D01*
X64018874Y-60875800D01*
X64150526Y-60875800D01*
X64277693Y-60841725D01*
X64334700Y-60808812D01*
X64334700Y-61654672D01*
X64531017Y-61602069D01*
X64531026Y-61602065D01*
X64737182Y-61505934D01*
X64923520Y-61375457D01*
X65084357Y-61214620D01*
X65214832Y-61028284D01*
X65242041Y-60969934D01*
X65288213Y-60917495D01*
X65355407Y-60898342D01*
X65422288Y-60918557D01*
X65466806Y-60969933D01*
X65494131Y-61028532D01*
X65494132Y-61028534D01*
X65624654Y-61214941D01*
X65785558Y-61375845D01*
X65785561Y-61375847D01*
X65971966Y-61506368D01*
X66178204Y-61602539D01*
X66398008Y-61661435D01*
X66559930Y-61675601D01*
X66624698Y-61681268D01*
X66624700Y-61681268D01*
X66624702Y-61681268D01*
X66681507Y-61676298D01*
X66851392Y-61661435D01*
X67071196Y-61602539D01*
X67277434Y-61506368D01*
X67463839Y-61375847D01*
X67624747Y-61214939D01*
X67755268Y-61028534D01*
X67782318Y-60970524D01*
X67828490Y-60918085D01*
X67895683Y-60898933D01*
X67962565Y-60919148D01*
X68007082Y-60970525D01*
X68034129Y-61028528D01*
X68034132Y-61028534D01*
X68164654Y-61214941D01*
X68325558Y-61375845D01*
X68325561Y-61375847D01*
X68511966Y-61506368D01*
X68718204Y-61602539D01*
X68938008Y-61661435D01*
X69099930Y-61675601D01*
X69164698Y-61681268D01*
X69164700Y-61681268D01*
X69164702Y-61681268D01*
X69221507Y-61676298D01*
X69391392Y-61661435D01*
X69611196Y-61602539D01*
X69817434Y-61506368D01*
X70003839Y-61375847D01*
X70164747Y-61214939D01*
X70181972Y-61190339D01*
X70236548Y-61146713D01*
X70306046Y-61139518D01*
X70368401Y-61171039D01*
X70403816Y-61231268D01*
X70406838Y-61248206D01*
X70410608Y-61283283D01*
X70460902Y-61418128D01*
X70460906Y-61418135D01*
X70547152Y-61533344D01*
X70547155Y-61533347D01*
X70662364Y-61619593D01*
X70662371Y-61619597D01*
X70797217Y-61669891D01*
X70797216Y-61669891D01*
X70804144Y-61670635D01*
X70856827Y-61676300D01*
X72552572Y-61676299D01*
X72612183Y-61669891D01*
X72747031Y-61619596D01*
X72862246Y-61533346D01*
X72948496Y-61418131D01*
X72998791Y-61283283D01*
X73005200Y-61223673D01*
X73005199Y-59527928D01*
X72998791Y-59468317D01*
X72978107Y-59412861D01*
X72948497Y-59333471D01*
X72948493Y-59333464D01*
X72862247Y-59218255D01*
X72862244Y-59218252D01*
X72747035Y-59132006D01*
X72747028Y-59132002D01*
X72612182Y-59081708D01*
X72612183Y-59081708D01*
X72552583Y-59075301D01*
X72552581Y-59075300D01*
X72552573Y-59075300D01*
X72552564Y-59075300D01*
X70856829Y-59075300D01*
X70856823Y-59075301D01*
X70797216Y-59081708D01*
X70662371Y-59132002D01*
X70662364Y-59132006D01*
X70547155Y-59218252D01*
X70547152Y-59218255D01*
X70460906Y-59333464D01*
X70460902Y-59333471D01*
X70410608Y-59468316D01*
X70406837Y-59503396D01*
X70380098Y-59567946D01*
X70322706Y-59607794D01*
X70252880Y-59610287D01*
X70192792Y-59574634D01*
X70181973Y-59561262D01*
X70164745Y-59536658D01*
X70003841Y-59375754D01*
X69817434Y-59245232D01*
X69817432Y-59245231D01*
X69611197Y-59149061D01*
X69611188Y-59149058D01*
X69391397Y-59090166D01*
X69391393Y-59090165D01*
X69391392Y-59090165D01*
X69391391Y-59090164D01*
X69391386Y-59090164D01*
X69164702Y-59070332D01*
X69164698Y-59070332D01*
X68938013Y-59090164D01*
X68938002Y-59090166D01*
X68718211Y-59149058D01*
X68718202Y-59149061D01*
X68511967Y-59245231D01*
X68511965Y-59245232D01*
X68325558Y-59375754D01*
X68164654Y-59536658D01*
X68034132Y-59723065D01*
X68034131Y-59723067D01*
X68007082Y-59781075D01*
X67960909Y-59833514D01*
X67893716Y-59852666D01*
X67826835Y-59832450D01*
X67782318Y-59781075D01*
X67755268Y-59723066D01*
X67624747Y-59536661D01*
X67624745Y-59536658D01*
X67463841Y-59375754D01*
X67277434Y-59245232D01*
X67277432Y-59245231D01*
X67071197Y-59149061D01*
X67071188Y-59149058D01*
X66851397Y-59090166D01*
X66851393Y-59090165D01*
X66851392Y-59090165D01*
X66851391Y-59090164D01*
X66851386Y-59090164D01*
X66624702Y-59070332D01*
X66624698Y-59070332D01*
X66398013Y-59090164D01*
X66398002Y-59090166D01*
X66178211Y-59149058D01*
X66178202Y-59149061D01*
X65971967Y-59245231D01*
X65971965Y-59245232D01*
X65785558Y-59375754D01*
X65624654Y-59536658D01*
X65531956Y-59669047D01*
X65494132Y-59723066D01*
X65494015Y-59723318D01*
X65466806Y-59781667D01*
X65420633Y-59834106D01*
X65353439Y-59853257D01*
X65286558Y-59833041D01*
X65242042Y-59781665D01*
X65214835Y-59723320D01*
X65214834Y-59723318D01*
X65084357Y-59536979D01*
X64923520Y-59376142D01*
X64737182Y-59245665D01*
X64531028Y-59149534D01*
X64334700Y-59096927D01*
X64334700Y-59942788D01*
X64277693Y-59909875D01*
X64150526Y-59875800D01*
X64018874Y-59875800D01*
X63891707Y-59909875D01*
X63834700Y-59942788D01*
X63834700Y-59096927D01*
X63638371Y-59149534D01*
X63432217Y-59245665D01*
X63245879Y-59376142D01*
X63085042Y-59536979D01*
X62954567Y-59723315D01*
X62927357Y-59781667D01*
X62881184Y-59834106D01*
X62813990Y-59853257D01*
X62747109Y-59833041D01*
X62702593Y-59781665D01*
X62677972Y-59728866D01*
X62675268Y-59723066D01*
X62544747Y-59536661D01*
X62544745Y-59536658D01*
X62383841Y-59375754D01*
X62197434Y-59245232D01*
X62197432Y-59245231D01*
X61991197Y-59149061D01*
X61991188Y-59149058D01*
X61771397Y-59090166D01*
X61771393Y-59090165D01*
X61771392Y-59090165D01*
X61771391Y-59090164D01*
X61771386Y-59090164D01*
X61544702Y-59070332D01*
X61544698Y-59070332D01*
X61318013Y-59090164D01*
X61318002Y-59090166D01*
X61098211Y-59149058D01*
X61098202Y-59149061D01*
X60891967Y-59245231D01*
X60891965Y-59245232D01*
X60705558Y-59375754D01*
X60544654Y-59536658D01*
X60414132Y-59723065D01*
X60414131Y-59723067D01*
X60387082Y-59781075D01*
X60340909Y-59833514D01*
X60273716Y-59852666D01*
X60206835Y-59832450D01*
X60162318Y-59781075D01*
X60135268Y-59723066D01*
X60004747Y-59536661D01*
X60004745Y-59536658D01*
X59843841Y-59375754D01*
X59657434Y-59245232D01*
X59657432Y-59245231D01*
X59451197Y-59149061D01*
X59451188Y-59149058D01*
X59231397Y-59090166D01*
X59231393Y-59090165D01*
X59231392Y-59090165D01*
X59231391Y-59090164D01*
X59231386Y-59090164D01*
X59004702Y-59070332D01*
X59004698Y-59070332D01*
X58778013Y-59090164D01*
X58778002Y-59090166D01*
X58558211Y-59149058D01*
X58558202Y-59149061D01*
X58351967Y-59245231D01*
X58351965Y-59245232D01*
X58165558Y-59375754D01*
X58004654Y-59536658D01*
X57874132Y-59723065D01*
X57874131Y-59723067D01*
X57847082Y-59781075D01*
X57800909Y-59833514D01*
X57733716Y-59852666D01*
X57666835Y-59832450D01*
X57622318Y-59781075D01*
X57595268Y-59723066D01*
X57464747Y-59536661D01*
X57464745Y-59536658D01*
X57303841Y-59375754D01*
X57117434Y-59245232D01*
X57117432Y-59245231D01*
X56911197Y-59149061D01*
X56911188Y-59149058D01*
X56691397Y-59090166D01*
X56691393Y-59090165D01*
X56691392Y-59090165D01*
X56691391Y-59090164D01*
X56691386Y-59090164D01*
X56464702Y-59070332D01*
X56464698Y-59070332D01*
X56238013Y-59090164D01*
X56238002Y-59090166D01*
X56018211Y-59149058D01*
X56018202Y-59149061D01*
X55811967Y-59245231D01*
X55811965Y-59245232D01*
X55625558Y-59375754D01*
X55464654Y-59536658D01*
X55334132Y-59723065D01*
X55334131Y-59723067D01*
X55307082Y-59781075D01*
X55260909Y-59833514D01*
X55193716Y-59852666D01*
X55126835Y-59832450D01*
X55082318Y-59781075D01*
X55055268Y-59723066D01*
X54924747Y-59536661D01*
X54924745Y-59536658D01*
X54763841Y-59375754D01*
X54577434Y-59245232D01*
X54577432Y-59245231D01*
X54371197Y-59149061D01*
X54371188Y-59149058D01*
X54151397Y-59090166D01*
X54151393Y-59090165D01*
X54151392Y-59090165D01*
X54151391Y-59090164D01*
X54151386Y-59090164D01*
X53924702Y-59070332D01*
X53924698Y-59070332D01*
X53698013Y-59090164D01*
X53698002Y-59090166D01*
X53478211Y-59149058D01*
X53478202Y-59149061D01*
X53271967Y-59245231D01*
X53271965Y-59245232D01*
X53085558Y-59375754D01*
X52924654Y-59536658D01*
X52794132Y-59723065D01*
X52794131Y-59723067D01*
X52767082Y-59781075D01*
X52720909Y-59833514D01*
X52653716Y-59852666D01*
X52586835Y-59832450D01*
X52542318Y-59781075D01*
X52515268Y-59723066D01*
X52384747Y-59536661D01*
X52384745Y-59536658D01*
X52223841Y-59375754D01*
X52037434Y-59245232D01*
X52037432Y-59245231D01*
X51831197Y-59149061D01*
X51831188Y-59149058D01*
X51611397Y-59090166D01*
X51611393Y-59090165D01*
X51611392Y-59090165D01*
X51611391Y-59090164D01*
X51611386Y-59090164D01*
X51384702Y-59070332D01*
X51384698Y-59070332D01*
X51158013Y-59090164D01*
X51158002Y-59090166D01*
X50938211Y-59149058D01*
X50938202Y-59149061D01*
X50731967Y-59245231D01*
X50731965Y-59245232D01*
X50545558Y-59375754D01*
X50384654Y-59536658D01*
X50254132Y-59723065D01*
X50254131Y-59723067D01*
X50227082Y-59781075D01*
X50180909Y-59833514D01*
X50113716Y-59852666D01*
X50046835Y-59832450D01*
X50002318Y-59781075D01*
X49975268Y-59723066D01*
X49844747Y-59536661D01*
X49844745Y-59536658D01*
X49683841Y-59375754D01*
X49497434Y-59245232D01*
X49497432Y-59245231D01*
X49291197Y-59149061D01*
X49291188Y-59149058D01*
X49071397Y-59090166D01*
X49071393Y-59090165D01*
X49071392Y-59090165D01*
X49071391Y-59090164D01*
X49071386Y-59090164D01*
X48844702Y-59070332D01*
X48844698Y-59070332D01*
X48618013Y-59090164D01*
X48618002Y-59090166D01*
X48398211Y-59149058D01*
X48398202Y-59149061D01*
X48191967Y-59245231D01*
X48191965Y-59245232D01*
X48005558Y-59375754D01*
X47844654Y-59536658D01*
X47714132Y-59723065D01*
X47714131Y-59723067D01*
X47687082Y-59781075D01*
X47640909Y-59833514D01*
X47573716Y-59852666D01*
X47506835Y-59832450D01*
X47462318Y-59781075D01*
X47435268Y-59723066D01*
X47304747Y-59536661D01*
X47304745Y-59536658D01*
X47143841Y-59375754D01*
X46957434Y-59245232D01*
X46957432Y-59245231D01*
X46751197Y-59149061D01*
X46751188Y-59149058D01*
X46531397Y-59090166D01*
X46531393Y-59090165D01*
X46531392Y-59090165D01*
X46531391Y-59090164D01*
X46531386Y-59090164D01*
X46304702Y-59070332D01*
X46304698Y-59070332D01*
X46078013Y-59090164D01*
X46078002Y-59090166D01*
X45858211Y-59149058D01*
X45858202Y-59149061D01*
X45651967Y-59245231D01*
X45651965Y-59245232D01*
X45465558Y-59375754D01*
X45304654Y-59536658D01*
X45174132Y-59723065D01*
X45174131Y-59723067D01*
X45147082Y-59781075D01*
X45100909Y-59833514D01*
X45033716Y-59852666D01*
X44966835Y-59832450D01*
X44922318Y-59781075D01*
X44895268Y-59723066D01*
X44764747Y-59536661D01*
X44764745Y-59536658D01*
X44603841Y-59375754D01*
X44417434Y-59245232D01*
X44417432Y-59245231D01*
X44211197Y-59149061D01*
X44211188Y-59149058D01*
X43991397Y-59090166D01*
X43991393Y-59090165D01*
X43991392Y-59090165D01*
X43991391Y-59090164D01*
X43991386Y-59090164D01*
X43764702Y-59070332D01*
X43764698Y-59070332D01*
X43538013Y-59090164D01*
X43538002Y-59090166D01*
X43318211Y-59149058D01*
X43318202Y-59149061D01*
X43111967Y-59245231D01*
X43111965Y-59245232D01*
X42925558Y-59375754D01*
X42764654Y-59536658D01*
X42634132Y-59723065D01*
X42634131Y-59723067D01*
X42607082Y-59781075D01*
X42560909Y-59833514D01*
X42493716Y-59852666D01*
X42426835Y-59832450D01*
X42382318Y-59781075D01*
X42355268Y-59723066D01*
X42224747Y-59536661D01*
X42224745Y-59536658D01*
X42063841Y-59375754D01*
X41877434Y-59245232D01*
X41877432Y-59245231D01*
X41671197Y-59149061D01*
X41671188Y-59149058D01*
X41451397Y-59090166D01*
X41451393Y-59090165D01*
X41451392Y-59090165D01*
X41451391Y-59090164D01*
X41451386Y-59090164D01*
X41224702Y-59070332D01*
X41224698Y-59070332D01*
X40998013Y-59090164D01*
X40998002Y-59090166D01*
X40778211Y-59149058D01*
X40778202Y-59149061D01*
X40571967Y-59245231D01*
X40571965Y-59245232D01*
X40385558Y-59375754D01*
X40224654Y-59536658D01*
X40094132Y-59723065D01*
X40094131Y-59723067D01*
X40067082Y-59781075D01*
X40020909Y-59833514D01*
X39953716Y-59852666D01*
X39886835Y-59832450D01*
X39842318Y-59781075D01*
X39815268Y-59723066D01*
X39684747Y-59536661D01*
X39523839Y-59375753D01*
X39519073Y-59372415D01*
X39488075Y-59350710D01*
X39444451Y-59296132D01*
X39435200Y-59249136D01*
X39435200Y-58705529D01*
X39454885Y-58638490D01*
X39471519Y-58617848D01*
X40406548Y-57682819D01*
X40467871Y-57649334D01*
X40494229Y-57646500D01*
X71705970Y-57646500D01*
X71773009Y-57666185D01*
G37*
%TD.AperFunction*%
%TA.AperFunction,Conductor*%
G36*
X57802565Y-60919148D02*
G01*
X57847082Y-60970525D01*
X57874129Y-61028528D01*
X57874132Y-61028534D01*
X58004654Y-61214941D01*
X58165558Y-61375845D01*
X58165561Y-61375847D01*
X58351966Y-61506368D01*
X58558204Y-61602539D01*
X58778008Y-61661435D01*
X58939930Y-61675601D01*
X59004698Y-61681268D01*
X59004700Y-61681268D01*
X59004701Y-61681268D01*
X59024762Y-61679512D01*
X59171561Y-61666669D01*
X59240059Y-61680435D01*
X59270048Y-61702516D01*
X64515015Y-66947483D01*
X69745352Y-72177819D01*
X69778837Y-72239142D01*
X69773853Y-72308834D01*
X69731981Y-72364767D01*
X69666517Y-72389184D01*
X69657671Y-72389500D01*
X58516229Y-72389500D01*
X58449190Y-72369815D01*
X58428548Y-72353181D01*
X49521307Y-63445940D01*
X49498651Y-63409867D01*
X49496811Y-63410754D01*
X49493789Y-63404478D01*
X49420761Y-63288255D01*
X49397816Y-63251738D01*
X49270262Y-63124184D01*
X49264506Y-63120567D01*
X49117523Y-63028211D01*
X48947254Y-62968631D01*
X48947249Y-62968630D01*
X48768004Y-62948435D01*
X48767996Y-62948435D01*
X48588750Y-62968630D01*
X48588745Y-62968631D01*
X48418476Y-63028211D01*
X48265737Y-63124184D01*
X48138182Y-63251739D01*
X48052597Y-63387947D01*
X48000263Y-63434237D01*
X47931209Y-63444885D01*
X47867361Y-63416510D01*
X47859923Y-63409655D01*
X46333499Y-61883231D01*
X46300014Y-61821908D01*
X46304998Y-61752216D01*
X46346870Y-61696283D01*
X46410370Y-61672023D01*
X46531392Y-61661435D01*
X46751196Y-61602539D01*
X46957434Y-61506368D01*
X47143839Y-61375847D01*
X47304747Y-61214939D01*
X47435268Y-61028534D01*
X47462318Y-60970524D01*
X47508490Y-60918085D01*
X47575683Y-60898933D01*
X47642565Y-60919148D01*
X47687082Y-60970525D01*
X47714129Y-61028528D01*
X47714132Y-61028534D01*
X47844654Y-61214941D01*
X48005558Y-61375845D01*
X48005561Y-61375847D01*
X48191966Y-61506368D01*
X48398204Y-61602539D01*
X48618008Y-61661435D01*
X48779930Y-61675601D01*
X48844698Y-61681268D01*
X48844700Y-61681268D01*
X48844702Y-61681268D01*
X48901507Y-61676298D01*
X49071392Y-61661435D01*
X49291196Y-61602539D01*
X49497434Y-61506368D01*
X49683839Y-61375847D01*
X49844747Y-61214939D01*
X49975268Y-61028534D01*
X50002318Y-60970524D01*
X50048490Y-60918085D01*
X50115683Y-60898933D01*
X50182565Y-60919148D01*
X50227082Y-60970525D01*
X50254129Y-61028528D01*
X50254132Y-61028534D01*
X50384654Y-61214941D01*
X50545558Y-61375845D01*
X50545561Y-61375847D01*
X50731966Y-61506368D01*
X50938204Y-61602539D01*
X51158008Y-61661435D01*
X51319930Y-61675601D01*
X51384698Y-61681268D01*
X51384700Y-61681268D01*
X51384702Y-61681268D01*
X51441507Y-61676298D01*
X51611392Y-61661435D01*
X51831196Y-61602539D01*
X52037434Y-61506368D01*
X52223839Y-61375847D01*
X52384747Y-61214939D01*
X52515268Y-61028534D01*
X52542318Y-60970524D01*
X52588490Y-60918085D01*
X52655683Y-60898933D01*
X52722565Y-60919148D01*
X52767082Y-60970525D01*
X52794129Y-61028528D01*
X52794132Y-61028534D01*
X52924654Y-61214941D01*
X53085558Y-61375845D01*
X53085561Y-61375847D01*
X53271966Y-61506368D01*
X53478204Y-61602539D01*
X53698008Y-61661435D01*
X53859930Y-61675601D01*
X53924698Y-61681268D01*
X53924700Y-61681268D01*
X53924702Y-61681268D01*
X53981507Y-61676298D01*
X54151392Y-61661435D01*
X54371196Y-61602539D01*
X54577434Y-61506368D01*
X54763839Y-61375847D01*
X54924747Y-61214939D01*
X55055268Y-61028534D01*
X55082318Y-60970524D01*
X55128490Y-60918085D01*
X55195683Y-60898933D01*
X55262565Y-60919148D01*
X55307082Y-60970525D01*
X55334129Y-61028528D01*
X55334132Y-61028534D01*
X55464654Y-61214941D01*
X55625558Y-61375845D01*
X55625561Y-61375847D01*
X55811966Y-61506368D01*
X56018204Y-61602539D01*
X56238008Y-61661435D01*
X56399930Y-61675601D01*
X56464698Y-61681268D01*
X56464700Y-61681268D01*
X56464702Y-61681268D01*
X56521507Y-61676298D01*
X56691392Y-61661435D01*
X56911196Y-61602539D01*
X57117434Y-61506368D01*
X57303839Y-61375847D01*
X57464747Y-61214939D01*
X57595268Y-61028534D01*
X57622318Y-60970524D01*
X57668490Y-60918085D01*
X57735683Y-60898933D01*
X57802565Y-60919148D01*
G37*
%TD.AperFunction*%
%TA.AperFunction,Conductor*%
G36*
X106435709Y-54872185D02*
G01*
X106456351Y-54888819D01*
X110552378Y-58984846D01*
X114501152Y-62933619D01*
X114534637Y-62994942D01*
X114529653Y-63064634D01*
X114487781Y-63120567D01*
X114422317Y-63144984D01*
X114413471Y-63145300D01*
X113726829Y-63145300D01*
X113726823Y-63145301D01*
X113667216Y-63151708D01*
X113532371Y-63202002D01*
X113532364Y-63202006D01*
X113417155Y-63288252D01*
X113417152Y-63288255D01*
X113330906Y-63403464D01*
X113330902Y-63403471D01*
X113280608Y-63538317D01*
X113274201Y-63597916D01*
X113274200Y-63597935D01*
X113274200Y-65293670D01*
X113274201Y-65293676D01*
X113280608Y-65353283D01*
X113330902Y-65488128D01*
X113330906Y-65488135D01*
X113417152Y-65603344D01*
X113417155Y-65603347D01*
X113532364Y-65689593D01*
X113532371Y-65689597D01*
X113577318Y-65706361D01*
X113667217Y-65739891D01*
X113702296Y-65743662D01*
X113766844Y-65770399D01*
X113806693Y-65827791D01*
X113809188Y-65897616D01*
X113773536Y-65957705D01*
X113760164Y-65968525D01*
X113735558Y-65985754D01*
X113574654Y-66146658D01*
X113549612Y-66182423D01*
X113495035Y-66226048D01*
X113448037Y-66235300D01*
X107226030Y-66235300D01*
X107158991Y-66215615D01*
X107138349Y-66198981D01*
X102703548Y-61764180D01*
X102670063Y-61702857D01*
X102675047Y-61633165D01*
X102716919Y-61577232D01*
X102782383Y-61552815D01*
X102791229Y-61552499D01*
X103336871Y-61552499D01*
X103336872Y-61552499D01*
X103396483Y-61546091D01*
X103531331Y-61495796D01*
X103646546Y-61409546D01*
X103732796Y-61294331D01*
X103783091Y-61159483D01*
X103789500Y-61099873D01*
X103789500Y-60375798D01*
X104699090Y-60375798D01*
X104699090Y-60375801D01*
X104719504Y-60661233D01*
X104780328Y-60940837D01*
X104780330Y-60940843D01*
X104780331Y-60940846D01*
X104844572Y-61113083D01*
X104880335Y-61208966D01*
X105017470Y-61460109D01*
X105017475Y-61460117D01*
X105188954Y-61689187D01*
X105188970Y-61689205D01*
X105391294Y-61891529D01*
X105391312Y-61891545D01*
X105620382Y-62063024D01*
X105620390Y-62063029D01*
X105871533Y-62200164D01*
X105871532Y-62200164D01*
X105871536Y-62200165D01*
X105871539Y-62200167D01*
X106139654Y-62300169D01*
X106139660Y-62300170D01*
X106139662Y-62300171D01*
X106419266Y-62360995D01*
X106419268Y-62360995D01*
X106419272Y-62360996D01*
X106672920Y-62379137D01*
X106704699Y-62381410D01*
X106704700Y-62381410D01*
X106704701Y-62381410D01*
X106733295Y-62379364D01*
X106990128Y-62360996D01*
X107269746Y-62300169D01*
X107537861Y-62200167D01*
X107789015Y-62063026D01*
X108018095Y-61891539D01*
X108220439Y-61689195D01*
X108391926Y-61460115D01*
X108529067Y-61208961D01*
X108629069Y-60940846D01*
X108689896Y-60661228D01*
X108710310Y-60375800D01*
X108689896Y-60090372D01*
X108675743Y-60025313D01*
X108629071Y-59810762D01*
X108629070Y-59810760D01*
X108629069Y-59810754D01*
X108529067Y-59542639D01*
X108525976Y-59536979D01*
X108391929Y-59291490D01*
X108391924Y-59291482D01*
X108220445Y-59062412D01*
X108220429Y-59062394D01*
X108018105Y-58860070D01*
X108018087Y-58860054D01*
X107789017Y-58688575D01*
X107789009Y-58688570D01*
X107537866Y-58551435D01*
X107537867Y-58551435D01*
X107363793Y-58486509D01*
X107269746Y-58451431D01*
X107269743Y-58451430D01*
X107269737Y-58451428D01*
X106990133Y-58390604D01*
X106704701Y-58370190D01*
X106704699Y-58370190D01*
X106419266Y-58390604D01*
X106139662Y-58451428D01*
X105871533Y-58551435D01*
X105620390Y-58688570D01*
X105620382Y-58688575D01*
X105391312Y-58860054D01*
X105391294Y-58860070D01*
X105188970Y-59062394D01*
X105188954Y-59062412D01*
X105017475Y-59291482D01*
X105017470Y-59291490D01*
X104880335Y-59542633D01*
X104780328Y-59810762D01*
X104719504Y-60090366D01*
X104699090Y-60375798D01*
X103789500Y-60375798D01*
X103789499Y-59404128D01*
X103783091Y-59344517D01*
X103778970Y-59333469D01*
X103732797Y-59209671D01*
X103732793Y-59209664D01*
X103646547Y-59094455D01*
X103646544Y-59094452D01*
X103531335Y-59008206D01*
X103531328Y-59008202D01*
X103396482Y-58957908D01*
X103396483Y-58957908D01*
X103336883Y-58951501D01*
X103336881Y-58951500D01*
X103336873Y-58951500D01*
X103336864Y-58951500D01*
X101641129Y-58951500D01*
X101641123Y-58951501D01*
X101581512Y-58957909D01*
X101573969Y-58959692D01*
X101573423Y-58957385D01*
X101515467Y-58961517D01*
X101454173Y-58928038D01*
X97590317Y-55064181D01*
X97556832Y-55002858D01*
X97561816Y-54933166D01*
X97603688Y-54877233D01*
X97669152Y-54852816D01*
X97677998Y-54852500D01*
X106368670Y-54852500D01*
X106435709Y-54872185D01*
G37*
%TD.AperFunction*%
%TA.AperFunction,Conductor*%
G36*
X123895039Y-24149685D02*
G01*
X123940794Y-24202489D01*
X123952000Y-24254000D01*
X123952000Y-111636000D01*
X123932315Y-111703039D01*
X123879511Y-111748794D01*
X123828000Y-111760000D01*
X26286000Y-111760000D01*
X26218961Y-111740315D01*
X26173206Y-111687511D01*
X26162000Y-111636000D01*
X26162000Y-100117794D01*
X31149559Y-100117794D01*
X31149559Y-100117805D01*
X31170085Y-100365529D01*
X31170087Y-100365538D01*
X31231112Y-100606517D01*
X31330966Y-100834164D01*
X31431264Y-100987682D01*
X32130912Y-100288034D01*
X32142182Y-100330092D01*
X32214590Y-100455508D01*
X32316992Y-100557910D01*
X32442408Y-100630318D01*
X32484465Y-100641587D01*
X31784642Y-101341409D01*
X31831468Y-101377855D01*
X31831470Y-101377856D01*
X32050085Y-101496164D01*
X32050096Y-101496169D01*
X32285206Y-101576883D01*
X32530407Y-101617800D01*
X32778993Y-101617800D01*
X33024193Y-101576883D01*
X33259303Y-101496169D01*
X33259314Y-101496164D01*
X33477928Y-101377857D01*
X33477931Y-101377855D01*
X33524756Y-101341409D01*
X32824934Y-100641587D01*
X32866992Y-100630318D01*
X32992408Y-100557910D01*
X33094810Y-100455508D01*
X33167218Y-100330092D01*
X33178487Y-100288034D01*
X33878134Y-100987682D01*
X33978431Y-100834169D01*
X34078287Y-100606517D01*
X34139312Y-100365538D01*
X34139314Y-100365529D01*
X34159841Y-100117805D01*
X34159841Y-100117794D01*
X35649057Y-100117794D01*
X35649057Y-100117805D01*
X35669590Y-100365612D01*
X35669592Y-100365624D01*
X35730636Y-100606681D01*
X35830526Y-100834406D01*
X35966533Y-101042582D01*
X35966536Y-101042585D01*
X36134956Y-101225538D01*
X36331191Y-101378274D01*
X36331193Y-101378275D01*
X36549032Y-101496164D01*
X36549890Y-101496628D01*
X36768841Y-101571794D01*
X36783664Y-101576883D01*
X36785086Y-101577371D01*
X37030365Y-101618300D01*
X37279035Y-101618300D01*
X37388715Y-101599998D01*
X120614532Y-101599998D01*
X120614532Y-101600001D01*
X120634364Y-101826686D01*
X120634366Y-101826697D01*
X120693258Y-102046488D01*
X120693261Y-102046497D01*
X120789431Y-102252732D01*
X120789432Y-102252734D01*
X120919954Y-102439141D01*
X121080858Y-102600045D01*
X121080861Y-102600047D01*
X121267266Y-102730568D01*
X121473504Y-102826739D01*
X121693308Y-102885635D01*
X121855230Y-102899801D01*
X121919998Y-102905468D01*
X121920000Y-102905468D01*
X121920002Y-102905468D01*
X121976673Y-102900509D01*
X122146692Y-102885635D01*
X122366496Y-102826739D01*
X122572734Y-102730568D01*
X122759139Y-102600047D01*
X122920047Y-102439139D01*
X123050568Y-102252734D01*
X123146739Y-102046496D01*
X123205635Y-101826692D01*
X123225468Y-101600000D01*
X123205635Y-101373308D01*
X123146739Y-101153504D01*
X123050568Y-100947266D01*
X122920047Y-100760861D01*
X122920045Y-100760858D01*
X122759141Y-100599954D01*
X122572734Y-100469432D01*
X122572732Y-100469431D01*
X122542874Y-100455508D01*
X122514132Y-100442105D01*
X122461694Y-100395934D01*
X122442542Y-100328740D01*
X122462758Y-100261859D01*
X122514134Y-100217341D01*
X122572484Y-100190132D01*
X122758820Y-100059657D01*
X122919657Y-99898820D01*
X123050134Y-99712482D01*
X123146265Y-99506326D01*
X123146269Y-99506317D01*
X123198872Y-99310000D01*
X122235686Y-99310000D01*
X122240080Y-99305606D01*
X122292741Y-99214394D01*
X122320000Y-99112661D01*
X122320000Y-99007339D01*
X122292741Y-98905606D01*
X122240080Y-98814394D01*
X122235686Y-98810000D01*
X123198872Y-98810000D01*
X123198872Y-98809999D01*
X123146269Y-98613682D01*
X123146265Y-98613673D01*
X123050134Y-98407517D01*
X122919657Y-98221179D01*
X122758820Y-98060342D01*
X122733779Y-98042808D01*
X122690154Y-97988230D01*
X122682962Y-97918732D01*
X122714484Y-97856377D01*
X122774714Y-97820964D01*
X122791650Y-97817943D01*
X122827483Y-97814091D01*
X122962328Y-97763797D01*
X122962327Y-97763797D01*
X122962331Y-97763796D01*
X123077546Y-97677546D01*
X123163796Y-97562331D01*
X123214091Y-97427483D01*
X123220500Y-97367873D01*
X123220499Y-95672128D01*
X123214091Y-95612517D01*
X123163796Y-95477669D01*
X123163795Y-95477668D01*
X123163793Y-95477664D01*
X123077547Y-95362455D01*
X123077544Y-95362452D01*
X122962335Y-95276206D01*
X122962328Y-95276202D01*
X122827482Y-95225908D01*
X122827483Y-95225908D01*
X122767883Y-95219501D01*
X122767881Y-95219500D01*
X122767873Y-95219500D01*
X122767864Y-95219500D01*
X121072129Y-95219500D01*
X121072123Y-95219501D01*
X121012516Y-95225908D01*
X120877671Y-95276202D01*
X120877664Y-95276206D01*
X120762455Y-95362452D01*
X120762452Y-95362455D01*
X120676206Y-95477664D01*
X120676202Y-95477671D01*
X120625908Y-95612517D01*
X120619501Y-95672116D01*
X120619501Y-95672123D01*
X120619500Y-95672135D01*
X120619500Y-97367870D01*
X120619501Y-97367876D01*
X120625908Y-97427483D01*
X120676202Y-97562328D01*
X120676206Y-97562335D01*
X120762452Y-97677544D01*
X120762455Y-97677547D01*
X120877664Y-97763793D01*
X120877671Y-97763797D01*
X121012513Y-97814090D01*
X121012514Y-97814090D01*
X121012517Y-97814091D01*
X121048353Y-97817944D01*
X121112901Y-97844679D01*
X121152751Y-97902070D01*
X121155246Y-97971896D01*
X121119595Y-98031985D01*
X121106223Y-98042805D01*
X121081182Y-98060339D01*
X120920342Y-98221179D01*
X120789865Y-98407517D01*
X120693734Y-98613673D01*
X120693730Y-98613682D01*
X120641127Y-98809999D01*
X120641128Y-98810000D01*
X121604314Y-98810000D01*
X121599920Y-98814394D01*
X121547259Y-98905606D01*
X121520000Y-99007339D01*
X121520000Y-99112661D01*
X121547259Y-99214394D01*
X121599920Y-99305606D01*
X121604314Y-99310000D01*
X120641128Y-99310000D01*
X120693730Y-99506317D01*
X120693734Y-99506326D01*
X120789865Y-99712482D01*
X120920342Y-99898820D01*
X121081179Y-100059657D01*
X121267518Y-100190134D01*
X121267520Y-100190135D01*
X121325865Y-100217342D01*
X121378305Y-100263514D01*
X121397457Y-100330707D01*
X121377242Y-100397589D01*
X121325867Y-100442105D01*
X121297126Y-100455508D01*
X121267264Y-100469433D01*
X121080858Y-100599954D01*
X120919954Y-100760858D01*
X120789432Y-100947265D01*
X120789431Y-100947267D01*
X120693261Y-101153502D01*
X120693258Y-101153511D01*
X120634366Y-101373302D01*
X120634364Y-101373313D01*
X120614532Y-101599998D01*
X37388715Y-101599998D01*
X37524314Y-101577371D01*
X37759510Y-101496628D01*
X37978209Y-101378274D01*
X38174444Y-101225538D01*
X38342864Y-101042585D01*
X38478873Y-100834407D01*
X38578763Y-100606681D01*
X38639808Y-100365621D01*
X38654343Y-100190209D01*
X38660343Y-100117805D01*
X38660343Y-100117794D01*
X38639809Y-99869987D01*
X38639807Y-99869975D01*
X38578763Y-99628918D01*
X38478873Y-99401193D01*
X38342866Y-99193017D01*
X38268893Y-99112661D01*
X38174444Y-99010062D01*
X37978209Y-98857326D01*
X37978207Y-98857325D01*
X37978206Y-98857324D01*
X37759511Y-98738972D01*
X37759502Y-98738969D01*
X37524316Y-98658229D01*
X37279035Y-98617300D01*
X37030365Y-98617300D01*
X36785083Y-98658229D01*
X36549897Y-98738969D01*
X36549888Y-98738972D01*
X36331193Y-98857324D01*
X36134957Y-99010061D01*
X35966533Y-99193017D01*
X35830526Y-99401193D01*
X35730636Y-99628918D01*
X35669592Y-99869975D01*
X35669590Y-99869987D01*
X35649057Y-100117794D01*
X34159841Y-100117794D01*
X34139314Y-99870070D01*
X34139312Y-99870061D01*
X34078287Y-99629082D01*
X33978431Y-99401430D01*
X33878134Y-99247916D01*
X33178487Y-99947564D01*
X33167218Y-99905508D01*
X33094810Y-99780092D01*
X32992408Y-99677690D01*
X32866992Y-99605282D01*
X32824935Y-99594012D01*
X33524757Y-98894190D01*
X33524756Y-98894189D01*
X33477929Y-98857743D01*
X33259314Y-98739435D01*
X33259303Y-98739430D01*
X33024193Y-98658716D01*
X32778993Y-98617800D01*
X32530407Y-98617800D01*
X32285206Y-98658716D01*
X32050096Y-98739430D01*
X32050090Y-98739432D01*
X31831461Y-98857749D01*
X31784642Y-98894188D01*
X31784642Y-98894190D01*
X32484465Y-99594012D01*
X32442408Y-99605282D01*
X32316992Y-99677690D01*
X32214590Y-99780092D01*
X32142182Y-99905508D01*
X32130912Y-99947564D01*
X31431264Y-99247916D01*
X31330967Y-99401432D01*
X31231112Y-99629082D01*
X31170087Y-99870061D01*
X31170085Y-99870070D01*
X31149559Y-100117794D01*
X26162000Y-100117794D01*
X26162000Y-93617794D01*
X31149559Y-93617794D01*
X31149559Y-93617805D01*
X31170085Y-93865529D01*
X31170087Y-93865538D01*
X31231112Y-94106517D01*
X31330966Y-94334164D01*
X31431264Y-94487682D01*
X32130912Y-93788034D01*
X32142182Y-93830092D01*
X32214590Y-93955508D01*
X32316992Y-94057910D01*
X32442408Y-94130318D01*
X32484465Y-94141587D01*
X31784642Y-94841409D01*
X31831468Y-94877855D01*
X31831470Y-94877856D01*
X32050085Y-94996164D01*
X32050096Y-94996169D01*
X32285206Y-95076883D01*
X32530407Y-95117800D01*
X32778993Y-95117800D01*
X33024193Y-95076883D01*
X33259303Y-94996169D01*
X33259314Y-94996164D01*
X33477928Y-94877857D01*
X33477931Y-94877855D01*
X33524756Y-94841409D01*
X32824934Y-94141587D01*
X32866992Y-94130318D01*
X32992408Y-94057910D01*
X33094810Y-93955508D01*
X33167218Y-93830092D01*
X33178487Y-93788034D01*
X33878134Y-94487682D01*
X33978431Y-94334169D01*
X34078287Y-94106517D01*
X34139312Y-93865538D01*
X34139314Y-93865529D01*
X34159841Y-93617805D01*
X34159841Y-93617794D01*
X35649057Y-93617794D01*
X35649057Y-93617805D01*
X35669590Y-93865612D01*
X35669592Y-93865624D01*
X35730636Y-94106681D01*
X35830526Y-94334406D01*
X35966533Y-94542582D01*
X35966536Y-94542585D01*
X36134956Y-94725538D01*
X36331191Y-94878274D01*
X36331193Y-94878275D01*
X36549032Y-94996164D01*
X36549890Y-94996628D01*
X36768841Y-95071794D01*
X36783664Y-95076883D01*
X36785086Y-95077371D01*
X37030365Y-95118300D01*
X37279035Y-95118300D01*
X37524314Y-95077371D01*
X37759510Y-94996628D01*
X37978209Y-94878274D01*
X38174444Y-94725538D01*
X38342864Y-94542585D01*
X38478873Y-94334407D01*
X38578763Y-94106681D01*
X38639808Y-93865621D01*
X38660343Y-93617800D01*
X38639808Y-93369979D01*
X38639807Y-93369975D01*
X38578763Y-93128918D01*
X38478873Y-92901193D01*
X38342866Y-92693017D01*
X38321257Y-92669544D01*
X38174444Y-92510062D01*
X37978209Y-92357326D01*
X37978207Y-92357325D01*
X37978206Y-92357324D01*
X37759511Y-92238972D01*
X37759502Y-92238969D01*
X37524316Y-92158229D01*
X37279035Y-92117300D01*
X37030365Y-92117300D01*
X36785083Y-92158229D01*
X36549897Y-92238969D01*
X36549888Y-92238972D01*
X36331193Y-92357324D01*
X36134957Y-92510061D01*
X35966533Y-92693017D01*
X35830526Y-92901193D01*
X35730636Y-93128918D01*
X35669592Y-93369975D01*
X35669590Y-93369987D01*
X35649057Y-93617794D01*
X34159841Y-93617794D01*
X34139314Y-93370070D01*
X34139312Y-93370061D01*
X34078287Y-93129082D01*
X33978431Y-92901430D01*
X33878134Y-92747916D01*
X33178487Y-93447564D01*
X33167218Y-93405508D01*
X33094810Y-93280092D01*
X32992408Y-93177690D01*
X32866992Y-93105282D01*
X32824935Y-93094012D01*
X33524757Y-92394190D01*
X33524756Y-92394189D01*
X33477929Y-92357743D01*
X33259314Y-92239435D01*
X33259303Y-92239430D01*
X33024193Y-92158716D01*
X32778993Y-92117800D01*
X32530407Y-92117800D01*
X32285206Y-92158716D01*
X32050096Y-92239430D01*
X32050090Y-92239432D01*
X31831461Y-92357749D01*
X31784642Y-92394188D01*
X31784642Y-92394190D01*
X32484465Y-93094012D01*
X32442408Y-93105282D01*
X32316992Y-93177690D01*
X32214590Y-93280092D01*
X32142182Y-93405508D01*
X32130912Y-93447564D01*
X31431264Y-92747916D01*
X31330967Y-92901432D01*
X31231112Y-93129082D01*
X31170087Y-93370061D01*
X31170085Y-93370070D01*
X31149559Y-93617794D01*
X26162000Y-93617794D01*
X26162000Y-90441998D01*
X72994390Y-90441998D01*
X72994390Y-90442001D01*
X73014804Y-90727433D01*
X73075628Y-91007037D01*
X73175635Y-91275166D01*
X73312770Y-91526309D01*
X73312775Y-91526317D01*
X73484254Y-91755387D01*
X73484270Y-91755405D01*
X73686594Y-91957729D01*
X73686612Y-91957745D01*
X73915682Y-92129224D01*
X73915690Y-92129229D01*
X74166833Y-92266364D01*
X74166832Y-92266364D01*
X74166836Y-92266365D01*
X74166839Y-92266367D01*
X74434954Y-92366369D01*
X74434960Y-92366370D01*
X74434962Y-92366371D01*
X74714566Y-92427195D01*
X74714568Y-92427195D01*
X74714572Y-92427196D01*
X74968220Y-92445337D01*
X74999999Y-92447610D01*
X75000000Y-92447610D01*
X75000001Y-92447610D01*
X75028595Y-92445564D01*
X75285428Y-92427196D01*
X75565046Y-92366369D01*
X75833161Y-92266367D01*
X76084315Y-92129226D01*
X76313395Y-91957739D01*
X76515739Y-91755395D01*
X76687226Y-91526315D01*
X76824367Y-91275161D01*
X76924369Y-91007046D01*
X76985196Y-90727428D01*
X77005610Y-90442000D01*
X76985196Y-90156572D01*
X76952356Y-90005610D01*
X76924371Y-89876962D01*
X76924370Y-89876960D01*
X76924369Y-89876954D01*
X76824367Y-89608839D01*
X76773530Y-89515739D01*
X76687229Y-89357690D01*
X76687224Y-89357682D01*
X76515745Y-89128612D01*
X76515729Y-89128594D01*
X76313405Y-88926270D01*
X76313387Y-88926254D01*
X76084317Y-88754775D01*
X76084309Y-88754770D01*
X75833166Y-88617635D01*
X75833167Y-88617635D01*
X75692146Y-88565037D01*
X75565046Y-88517631D01*
X75565043Y-88517630D01*
X75565037Y-88517628D01*
X75285433Y-88456804D01*
X75000001Y-88436390D01*
X74999999Y-88436390D01*
X74714566Y-88456804D01*
X74434962Y-88517628D01*
X74166833Y-88617635D01*
X73915690Y-88754770D01*
X73915682Y-88754775D01*
X73686612Y-88926254D01*
X73686594Y-88926270D01*
X73484270Y-89128594D01*
X73484254Y-89128612D01*
X73312775Y-89357682D01*
X73312770Y-89357690D01*
X73175635Y-89608833D01*
X73075628Y-89876962D01*
X73014804Y-90156566D01*
X72994390Y-90441998D01*
X26162000Y-90441998D01*
X26162000Y-87999998D01*
X27994390Y-87999998D01*
X27994390Y-88000001D01*
X28014804Y-88285433D01*
X28075628Y-88565037D01*
X28075630Y-88565043D01*
X28075631Y-88565046D01*
X28174847Y-88831054D01*
X28175635Y-88833166D01*
X28312770Y-89084309D01*
X28312775Y-89084317D01*
X28484254Y-89313387D01*
X28484270Y-89313405D01*
X28686594Y-89515729D01*
X28686612Y-89515745D01*
X28915682Y-89687224D01*
X28915690Y-89687229D01*
X29166833Y-89824364D01*
X29166832Y-89824364D01*
X29166836Y-89824365D01*
X29166839Y-89824367D01*
X29434954Y-89924369D01*
X29434960Y-89924370D01*
X29434962Y-89924371D01*
X29714566Y-89985195D01*
X29714568Y-89985195D01*
X29714572Y-89985196D01*
X29968220Y-90003337D01*
X29999999Y-90005610D01*
X30000000Y-90005610D01*
X30000001Y-90005610D01*
X30028595Y-90003564D01*
X30285428Y-89985196D01*
X30565046Y-89924369D01*
X30833161Y-89824367D01*
X31084315Y-89687226D01*
X31313395Y-89515739D01*
X31515739Y-89313395D01*
X31687226Y-89084315D01*
X31824367Y-88833161D01*
X31924369Y-88565046D01*
X31926491Y-88555292D01*
X31985195Y-88285433D01*
X31985195Y-88285432D01*
X31985196Y-88285428D01*
X32005610Y-88000000D01*
X31985196Y-87714572D01*
X31979247Y-87687226D01*
X31924371Y-87434962D01*
X31924370Y-87434960D01*
X31924369Y-87434954D01*
X31824367Y-87166839D01*
X31779306Y-87084317D01*
X31687229Y-86915690D01*
X31687224Y-86915682D01*
X31515745Y-86686612D01*
X31515729Y-86686594D01*
X31313405Y-86484270D01*
X31313387Y-86484254D01*
X31084317Y-86312775D01*
X31084309Y-86312770D01*
X30833166Y-86175635D01*
X30833167Y-86175635D01*
X30719684Y-86133308D01*
X30565046Y-86075631D01*
X30565043Y-86075630D01*
X30565037Y-86075628D01*
X30285433Y-86014804D01*
X30078413Y-85999998D01*
X112994390Y-85999998D01*
X112994390Y-86000001D01*
X113014804Y-86285433D01*
X113075628Y-86565037D01*
X113075630Y-86565043D01*
X113075631Y-86565046D01*
X113165688Y-86806497D01*
X113175635Y-86833166D01*
X113312770Y-87084309D01*
X113312775Y-87084317D01*
X113484254Y-87313387D01*
X113484270Y-87313405D01*
X113686594Y-87515729D01*
X113686612Y-87515745D01*
X113915682Y-87687224D01*
X113915690Y-87687229D01*
X114166833Y-87824364D01*
X114166832Y-87824364D01*
X114166836Y-87824365D01*
X114166839Y-87824367D01*
X114434954Y-87924369D01*
X114434960Y-87924370D01*
X114434962Y-87924371D01*
X114714566Y-87985195D01*
X114714568Y-87985195D01*
X114714572Y-87985196D01*
X114968220Y-88003337D01*
X114999999Y-88005610D01*
X115000000Y-88005610D01*
X115000001Y-88005610D01*
X115028595Y-88003564D01*
X115285428Y-87985196D01*
X115565046Y-87924369D01*
X115833161Y-87824367D01*
X116084315Y-87687226D01*
X116313395Y-87515739D01*
X116515739Y-87313395D01*
X116687226Y-87084315D01*
X116824367Y-86833161D01*
X116924369Y-86565046D01*
X116968974Y-86359998D01*
X120614532Y-86359998D01*
X120614532Y-86360001D01*
X120634364Y-86586686D01*
X120634366Y-86586697D01*
X120693258Y-86806488D01*
X120693261Y-86806497D01*
X120789431Y-87012732D01*
X120789432Y-87012734D01*
X120919954Y-87199141D01*
X121080858Y-87360045D01*
X121080861Y-87360047D01*
X121267266Y-87490568D01*
X121473504Y-87586739D01*
X121693308Y-87645635D01*
X121855230Y-87659801D01*
X121919998Y-87665468D01*
X121920000Y-87665468D01*
X121920002Y-87665468D01*
X121976673Y-87660509D01*
X122146692Y-87645635D01*
X122366496Y-87586739D01*
X122572734Y-87490568D01*
X122759139Y-87360047D01*
X122920047Y-87199139D01*
X123050568Y-87012734D01*
X123146739Y-86806496D01*
X123205635Y-86586692D01*
X123225468Y-86360000D01*
X123205635Y-86133308D01*
X123146739Y-85913504D01*
X123050568Y-85707266D01*
X122920047Y-85520861D01*
X122920045Y-85520858D01*
X122759141Y-85359954D01*
X122572734Y-85229432D01*
X122572732Y-85229431D01*
X122561275Y-85224088D01*
X122514132Y-85202105D01*
X122461694Y-85155934D01*
X122442542Y-85088740D01*
X122462758Y-85021859D01*
X122514134Y-84977341D01*
X122572484Y-84950132D01*
X122758820Y-84819657D01*
X122919657Y-84658820D01*
X123050134Y-84472482D01*
X123146265Y-84266326D01*
X123146269Y-84266317D01*
X123198872Y-84070000D01*
X122235686Y-84070000D01*
X122240080Y-84065606D01*
X122292741Y-83974394D01*
X122320000Y-83872661D01*
X122320000Y-83767339D01*
X122292741Y-83665606D01*
X122240080Y-83574394D01*
X122235686Y-83570000D01*
X123198872Y-83570000D01*
X123198872Y-83569999D01*
X123146269Y-83373682D01*
X123146265Y-83373673D01*
X123050134Y-83167517D01*
X122919657Y-82981179D01*
X122758820Y-82820342D01*
X122733779Y-82802808D01*
X122690154Y-82748230D01*
X122682962Y-82678732D01*
X122714484Y-82616377D01*
X122774714Y-82580964D01*
X122791650Y-82577943D01*
X122827483Y-82574091D01*
X122962328Y-82523797D01*
X122962327Y-82523797D01*
X122962331Y-82523796D01*
X123077546Y-82437546D01*
X123163796Y-82322331D01*
X123214091Y-82187483D01*
X123220500Y-82127873D01*
X123220499Y-80432128D01*
X123214091Y-80372517D01*
X123163796Y-80237669D01*
X123163795Y-80237668D01*
X123163793Y-80237664D01*
X123077547Y-80122455D01*
X123077544Y-80122452D01*
X122962335Y-80036206D01*
X122962328Y-80036202D01*
X122827482Y-79985908D01*
X122827483Y-79985908D01*
X122767883Y-79979501D01*
X122767881Y-79979500D01*
X122767873Y-79979500D01*
X122767864Y-79979500D01*
X121072129Y-79979500D01*
X121072123Y-79979501D01*
X121012516Y-79985908D01*
X120877671Y-80036202D01*
X120877664Y-80036206D01*
X120762455Y-80122452D01*
X120762452Y-80122455D01*
X120676206Y-80237664D01*
X120676202Y-80237671D01*
X120625908Y-80372517D01*
X120619501Y-80432116D01*
X120619501Y-80432123D01*
X120619500Y-80432135D01*
X120619500Y-82127870D01*
X120619501Y-82127876D01*
X120625908Y-82187483D01*
X120676202Y-82322328D01*
X120676206Y-82322335D01*
X120762452Y-82437544D01*
X120762455Y-82437547D01*
X120877664Y-82523793D01*
X120877671Y-82523797D01*
X121012513Y-82574090D01*
X121012514Y-82574090D01*
X121012517Y-82574091D01*
X121048353Y-82577944D01*
X121112901Y-82604679D01*
X121152751Y-82662070D01*
X121155246Y-82731896D01*
X121119595Y-82791985D01*
X121106223Y-82802805D01*
X121081182Y-82820339D01*
X120920342Y-82981179D01*
X120789865Y-83167517D01*
X120693734Y-83373673D01*
X120693730Y-83373682D01*
X120641127Y-83569999D01*
X120641128Y-83570000D01*
X121604314Y-83570000D01*
X121599920Y-83574394D01*
X121547259Y-83665606D01*
X121520000Y-83767339D01*
X121520000Y-83872661D01*
X121547259Y-83974394D01*
X121599920Y-84065606D01*
X121604314Y-84070000D01*
X120641128Y-84070000D01*
X120693730Y-84266317D01*
X120693734Y-84266326D01*
X120789865Y-84472482D01*
X120920342Y-84658820D01*
X121081179Y-84819657D01*
X121267518Y-84950134D01*
X121267520Y-84950135D01*
X121325865Y-84977342D01*
X121378305Y-85023514D01*
X121397457Y-85090707D01*
X121377242Y-85157589D01*
X121325867Y-85202105D01*
X121267268Y-85229431D01*
X121267264Y-85229433D01*
X121080858Y-85359954D01*
X120919954Y-85520858D01*
X120789432Y-85707265D01*
X120789431Y-85707267D01*
X120693261Y-85913502D01*
X120693258Y-85913511D01*
X120634366Y-86133302D01*
X120634364Y-86133313D01*
X120614532Y-86359998D01*
X116968974Y-86359998D01*
X116985196Y-86285428D01*
X117005610Y-86000000D01*
X116985196Y-85714572D01*
X116983606Y-85707265D01*
X116924371Y-85434962D01*
X116924370Y-85434960D01*
X116924369Y-85434954D01*
X116824367Y-85166839D01*
X116818412Y-85155934D01*
X116687229Y-84915690D01*
X116687224Y-84915682D01*
X116515745Y-84686612D01*
X116515729Y-84686594D01*
X116313405Y-84484270D01*
X116313387Y-84484254D01*
X116084317Y-84312775D01*
X116084309Y-84312770D01*
X115833166Y-84175635D01*
X115833167Y-84175635D01*
X115725915Y-84135632D01*
X115565046Y-84075631D01*
X115565043Y-84075630D01*
X115565037Y-84075628D01*
X115285433Y-84014804D01*
X115000001Y-83994390D01*
X114999999Y-83994390D01*
X114714566Y-84014804D01*
X114434962Y-84075628D01*
X114166833Y-84175635D01*
X113915690Y-84312770D01*
X113915682Y-84312775D01*
X113686612Y-84484254D01*
X113686594Y-84484270D01*
X113484270Y-84686594D01*
X113484254Y-84686612D01*
X113312775Y-84915682D01*
X113312770Y-84915690D01*
X113175635Y-85166833D01*
X113075628Y-85434962D01*
X113014804Y-85714566D01*
X112994390Y-85999998D01*
X30078413Y-85999998D01*
X30000001Y-85994390D01*
X29999999Y-85994390D01*
X29714566Y-86014804D01*
X29434962Y-86075628D01*
X29166833Y-86175635D01*
X28915690Y-86312770D01*
X28915682Y-86312775D01*
X28686612Y-86484254D01*
X28686594Y-86484270D01*
X28484270Y-86686594D01*
X28484254Y-86686612D01*
X28312775Y-86915682D01*
X28312770Y-86915690D01*
X28175635Y-87166833D01*
X28075628Y-87434962D01*
X28014804Y-87714566D01*
X27994390Y-87999998D01*
X26162000Y-87999998D01*
X26162000Y-60375798D01*
X34839232Y-60375798D01*
X34839232Y-60375801D01*
X34859064Y-60602486D01*
X34859066Y-60602497D01*
X34917958Y-60822288D01*
X34917961Y-60822297D01*
X35014131Y-61028532D01*
X35014132Y-61028534D01*
X35144654Y-61214941D01*
X35305558Y-61375845D01*
X35305561Y-61375847D01*
X35491966Y-61506368D01*
X35698204Y-61602539D01*
X35918008Y-61661435D01*
X36079930Y-61675601D01*
X36144698Y-61681268D01*
X36144700Y-61681268D01*
X36144702Y-61681268D01*
X36201507Y-61676298D01*
X36371392Y-61661435D01*
X36591196Y-61602539D01*
X36797434Y-61506368D01*
X36983839Y-61375847D01*
X37144747Y-61214939D01*
X37275268Y-61028534D01*
X37302318Y-60970524D01*
X37348490Y-60918085D01*
X37415683Y-60898933D01*
X37482565Y-60919148D01*
X37527082Y-60970525D01*
X37554129Y-61028528D01*
X37554132Y-61028534D01*
X37684654Y-61214941D01*
X37845558Y-61375845D01*
X37845561Y-61375847D01*
X38031966Y-61506368D01*
X38238204Y-61602539D01*
X38458008Y-61661435D01*
X38619930Y-61675601D01*
X38684698Y-61681268D01*
X38684700Y-61681268D01*
X38684702Y-61681268D01*
X38741507Y-61676298D01*
X38911392Y-61661435D01*
X39131196Y-61602539D01*
X39337434Y-61506368D01*
X39523839Y-61375847D01*
X39684747Y-61214939D01*
X39815268Y-61028534D01*
X39842318Y-60970524D01*
X39888490Y-60918085D01*
X39955683Y-60898933D01*
X40022565Y-60919148D01*
X40067082Y-60970525D01*
X40094129Y-61028528D01*
X40094132Y-61028534D01*
X40224654Y-61214941D01*
X40385558Y-61375845D01*
X40385561Y-61375847D01*
X40571966Y-61506368D01*
X40778204Y-61602539D01*
X40998008Y-61661435D01*
X41159930Y-61675601D01*
X41224698Y-61681268D01*
X41224700Y-61681268D01*
X41224702Y-61681268D01*
X41281507Y-61676298D01*
X41451392Y-61661435D01*
X41671196Y-61602539D01*
X41877434Y-61506368D01*
X42063839Y-61375847D01*
X42224747Y-61214939D01*
X42355268Y-61028534D01*
X42382318Y-60970524D01*
X42428490Y-60918085D01*
X42495683Y-60898933D01*
X42562565Y-60919148D01*
X42607082Y-60970525D01*
X42634129Y-61028528D01*
X42634132Y-61028534D01*
X42764654Y-61214941D01*
X42925558Y-61375845D01*
X42925561Y-61375847D01*
X43111966Y-61506368D01*
X43318204Y-61602539D01*
X43538008Y-61661435D01*
X43699930Y-61675601D01*
X43764698Y-61681268D01*
X43764700Y-61681268D01*
X43764701Y-61681268D01*
X43784762Y-61679512D01*
X43931561Y-61666669D01*
X44000059Y-61680435D01*
X44030048Y-61702516D01*
X56435900Y-74108368D01*
X56469385Y-74169691D01*
X56464401Y-74239383D01*
X56422529Y-74295316D01*
X56359027Y-74319577D01*
X56238012Y-74330164D01*
X56238002Y-74330166D01*
X56018211Y-74389058D01*
X56018202Y-74389061D01*
X55811967Y-74485231D01*
X55811965Y-74485232D01*
X55625558Y-74615754D01*
X55464654Y-74776658D01*
X55334132Y-74963065D01*
X55334131Y-74963067D01*
X55307082Y-75021075D01*
X55260909Y-75073514D01*
X55193716Y-75092666D01*
X55126835Y-75072450D01*
X55082318Y-75021075D01*
X55058248Y-74969457D01*
X55055268Y-74963066D01*
X54924747Y-74776661D01*
X54924745Y-74776658D01*
X54763841Y-74615754D01*
X54577434Y-74485232D01*
X54577432Y-74485231D01*
X54371197Y-74389061D01*
X54371188Y-74389058D01*
X54151397Y-74330166D01*
X54151393Y-74330165D01*
X54151392Y-74330165D01*
X54151391Y-74330164D01*
X54151386Y-74330164D01*
X53924702Y-74310332D01*
X53924698Y-74310332D01*
X53698013Y-74330164D01*
X53698002Y-74330166D01*
X53478211Y-74389058D01*
X53478202Y-74389061D01*
X53271967Y-74485231D01*
X53271965Y-74485232D01*
X53085558Y-74615754D01*
X52924654Y-74776658D01*
X52794132Y-74963065D01*
X52794131Y-74963067D01*
X52767082Y-75021075D01*
X52720909Y-75073514D01*
X52653716Y-75092666D01*
X52586835Y-75072450D01*
X52542318Y-75021075D01*
X52518248Y-74969457D01*
X52515268Y-74963066D01*
X52384747Y-74776661D01*
X52384745Y-74776658D01*
X52223841Y-74615754D01*
X52037434Y-74485232D01*
X52037432Y-74485231D01*
X51831197Y-74389061D01*
X51831188Y-74389058D01*
X51611397Y-74330166D01*
X51611393Y-74330165D01*
X51611392Y-74330165D01*
X51611391Y-74330164D01*
X51611386Y-74330164D01*
X51384702Y-74310332D01*
X51384698Y-74310332D01*
X51158013Y-74330164D01*
X51158002Y-74330166D01*
X50938211Y-74389058D01*
X50938202Y-74389061D01*
X50731967Y-74485231D01*
X50731965Y-74485232D01*
X50545558Y-74615754D01*
X50384654Y-74776658D01*
X50254132Y-74963065D01*
X50254131Y-74963067D01*
X50227082Y-75021075D01*
X50180909Y-75073514D01*
X50113716Y-75092666D01*
X50046835Y-75072450D01*
X50002318Y-75021075D01*
X49978248Y-74969457D01*
X49975268Y-74963066D01*
X49844747Y-74776661D01*
X49844745Y-74776658D01*
X49683841Y-74615754D01*
X49497434Y-74485232D01*
X49497432Y-74485231D01*
X49291197Y-74389061D01*
X49291188Y-74389058D01*
X49071397Y-74330166D01*
X49071393Y-74330165D01*
X49071392Y-74330165D01*
X49071391Y-74330164D01*
X49071386Y-74330164D01*
X48844702Y-74310332D01*
X48844698Y-74310332D01*
X48618013Y-74330164D01*
X48618002Y-74330166D01*
X48398211Y-74389058D01*
X48398202Y-74389061D01*
X48191967Y-74485231D01*
X48191965Y-74485232D01*
X48005558Y-74615754D01*
X47844654Y-74776658D01*
X47714132Y-74963065D01*
X47714131Y-74963067D01*
X47687082Y-75021075D01*
X47640909Y-75073514D01*
X47573716Y-75092666D01*
X47506835Y-75072450D01*
X47462318Y-75021075D01*
X47438248Y-74969457D01*
X47435268Y-74963066D01*
X47304747Y-74776661D01*
X47304745Y-74776658D01*
X47143841Y-74615754D01*
X46957434Y-74485232D01*
X46957432Y-74485231D01*
X46751197Y-74389061D01*
X46751188Y-74389058D01*
X46531397Y-74330166D01*
X46531393Y-74330165D01*
X46531392Y-74330165D01*
X46531391Y-74330164D01*
X46531386Y-74330164D01*
X46304702Y-74310332D01*
X46304698Y-74310332D01*
X46078013Y-74330164D01*
X46078002Y-74330166D01*
X45858211Y-74389058D01*
X45858202Y-74389061D01*
X45651967Y-74485231D01*
X45651965Y-74485232D01*
X45465558Y-74615754D01*
X45304654Y-74776658D01*
X45174132Y-74963065D01*
X45174131Y-74963067D01*
X45147082Y-75021075D01*
X45100909Y-75073514D01*
X45033716Y-75092666D01*
X44966835Y-75072450D01*
X44922318Y-75021075D01*
X44898248Y-74969457D01*
X44895268Y-74963066D01*
X44764747Y-74776661D01*
X44764745Y-74776658D01*
X44603841Y-74615754D01*
X44417434Y-74485232D01*
X44417432Y-74485231D01*
X44211197Y-74389061D01*
X44211188Y-74389058D01*
X43991397Y-74330166D01*
X43991393Y-74330165D01*
X43991392Y-74330165D01*
X43991391Y-74330164D01*
X43991386Y-74330164D01*
X43764702Y-74310332D01*
X43764698Y-74310332D01*
X43538013Y-74330164D01*
X43538002Y-74330166D01*
X43318211Y-74389058D01*
X43318202Y-74389061D01*
X43111967Y-74485231D01*
X43111965Y-74485232D01*
X42925558Y-74615754D01*
X42764654Y-74776658D01*
X42634132Y-74963065D01*
X42634131Y-74963067D01*
X42607082Y-75021075D01*
X42560909Y-75073514D01*
X42493716Y-75092666D01*
X42426835Y-75072450D01*
X42382318Y-75021075D01*
X42358248Y-74969457D01*
X42355268Y-74963066D01*
X42224747Y-74776661D01*
X42224745Y-74776658D01*
X42063841Y-74615754D01*
X41877434Y-74485232D01*
X41877432Y-74485231D01*
X41671197Y-74389061D01*
X41671188Y-74389058D01*
X41451397Y-74330166D01*
X41451393Y-74330165D01*
X41451392Y-74330165D01*
X41451391Y-74330164D01*
X41451386Y-74330164D01*
X41224702Y-74310332D01*
X41224698Y-74310332D01*
X40998013Y-74330164D01*
X40998002Y-74330166D01*
X40778211Y-74389058D01*
X40778202Y-74389061D01*
X40571967Y-74485231D01*
X40571965Y-74485232D01*
X40385558Y-74615754D01*
X40224654Y-74776658D01*
X40094132Y-74963065D01*
X40094131Y-74963067D01*
X40067082Y-75021075D01*
X40020909Y-75073514D01*
X39953716Y-75092666D01*
X39886835Y-75072450D01*
X39842318Y-75021075D01*
X39818248Y-74969457D01*
X39815268Y-74963066D01*
X39684747Y-74776661D01*
X39684745Y-74776658D01*
X39523841Y-74615754D01*
X39337434Y-74485232D01*
X39337432Y-74485231D01*
X39131197Y-74389061D01*
X39131188Y-74389058D01*
X38911397Y-74330166D01*
X38911393Y-74330165D01*
X38911392Y-74330165D01*
X38911391Y-74330164D01*
X38911386Y-74330164D01*
X38684702Y-74310332D01*
X38684698Y-74310332D01*
X38458013Y-74330164D01*
X38458002Y-74330166D01*
X38238211Y-74389058D01*
X38238202Y-74389061D01*
X38031967Y-74485231D01*
X38031965Y-74485232D01*
X37845558Y-74615754D01*
X37684654Y-74776658D01*
X37554132Y-74963065D01*
X37554131Y-74963067D01*
X37527082Y-75021075D01*
X37480909Y-75073514D01*
X37413716Y-75092666D01*
X37346835Y-75072450D01*
X37302318Y-75021075D01*
X37278248Y-74969457D01*
X37275268Y-74963066D01*
X37144747Y-74776661D01*
X37144745Y-74776658D01*
X36983841Y-74615754D01*
X36797434Y-74485232D01*
X36797432Y-74485231D01*
X36591197Y-74389061D01*
X36591188Y-74389058D01*
X36371397Y-74330166D01*
X36371393Y-74330165D01*
X36371392Y-74330165D01*
X36371391Y-74330164D01*
X36371386Y-74330164D01*
X36144702Y-74310332D01*
X36144698Y-74310332D01*
X35918013Y-74330164D01*
X35918002Y-74330166D01*
X35698211Y-74389058D01*
X35698202Y-74389061D01*
X35491967Y-74485231D01*
X35491965Y-74485232D01*
X35305558Y-74615754D01*
X35144654Y-74776658D01*
X35014132Y-74963065D01*
X35014131Y-74963067D01*
X34917961Y-75169302D01*
X34917958Y-75169311D01*
X34859066Y-75389102D01*
X34859064Y-75389113D01*
X34839232Y-75615798D01*
X34839232Y-75615801D01*
X34859064Y-75842486D01*
X34859066Y-75842497D01*
X34917958Y-76062288D01*
X34917961Y-76062297D01*
X35014131Y-76268532D01*
X35014132Y-76268534D01*
X35144654Y-76454941D01*
X35305558Y-76615845D01*
X35305561Y-76615847D01*
X35491966Y-76746368D01*
X35698204Y-76842539D01*
X35918008Y-76901435D01*
X36079930Y-76915601D01*
X36144698Y-76921268D01*
X36144700Y-76921268D01*
X36144702Y-76921268D01*
X36201373Y-76916309D01*
X36371392Y-76901435D01*
X36591196Y-76842539D01*
X36797434Y-76746368D01*
X36983839Y-76615847D01*
X37144747Y-76454939D01*
X37275268Y-76268534D01*
X37302318Y-76210524D01*
X37348490Y-76158085D01*
X37415683Y-76138933D01*
X37482565Y-76159148D01*
X37527082Y-76210525D01*
X37554129Y-76268528D01*
X37554132Y-76268534D01*
X37684654Y-76454941D01*
X37845558Y-76615845D01*
X37845561Y-76615847D01*
X38031966Y-76746368D01*
X38238204Y-76842539D01*
X38458008Y-76901435D01*
X38619930Y-76915601D01*
X38684698Y-76921268D01*
X38684700Y-76921268D01*
X38684702Y-76921268D01*
X38741373Y-76916309D01*
X38911392Y-76901435D01*
X39131196Y-76842539D01*
X39337434Y-76746368D01*
X39523839Y-76615847D01*
X39684747Y-76454939D01*
X39815268Y-76268534D01*
X39842318Y-76210524D01*
X39888490Y-76158085D01*
X39955683Y-76138933D01*
X40022565Y-76159148D01*
X40067082Y-76210525D01*
X40094129Y-76268528D01*
X40094132Y-76268534D01*
X40224654Y-76454941D01*
X40385558Y-76615845D01*
X40385561Y-76615847D01*
X40571966Y-76746368D01*
X40778204Y-76842539D01*
X40998008Y-76901435D01*
X41159930Y-76915601D01*
X41224698Y-76921268D01*
X41224700Y-76921268D01*
X41224702Y-76921268D01*
X41281373Y-76916309D01*
X41451392Y-76901435D01*
X41671196Y-76842539D01*
X41877434Y-76746368D01*
X42063839Y-76615847D01*
X42224747Y-76454939D01*
X42355268Y-76268534D01*
X42382318Y-76210524D01*
X42428490Y-76158085D01*
X42495683Y-76138933D01*
X42562565Y-76159148D01*
X42607082Y-76210525D01*
X42634129Y-76268528D01*
X42634132Y-76268534D01*
X42764654Y-76454941D01*
X42925558Y-76615845D01*
X42925561Y-76615847D01*
X43111966Y-76746368D01*
X43318204Y-76842539D01*
X43538008Y-76901435D01*
X43699930Y-76915601D01*
X43764698Y-76921268D01*
X43764700Y-76921268D01*
X43764702Y-76921268D01*
X43821373Y-76916309D01*
X43991392Y-76901435D01*
X44211196Y-76842539D01*
X44417434Y-76746368D01*
X44603839Y-76615847D01*
X44764747Y-76454939D01*
X44895268Y-76268534D01*
X44922318Y-76210524D01*
X44968490Y-76158085D01*
X45035683Y-76138933D01*
X45102565Y-76159148D01*
X45147082Y-76210525D01*
X45174129Y-76268528D01*
X45174132Y-76268534D01*
X45304654Y-76454941D01*
X45465558Y-76615845D01*
X45465561Y-76615847D01*
X45651966Y-76746368D01*
X45858204Y-76842539D01*
X46078008Y-76901435D01*
X46239930Y-76915601D01*
X46304698Y-76921268D01*
X46304700Y-76921268D01*
X46304702Y-76921268D01*
X46361373Y-76916309D01*
X46531392Y-76901435D01*
X46751196Y-76842539D01*
X46957434Y-76746368D01*
X47143839Y-76615847D01*
X47304747Y-76454939D01*
X47435268Y-76268534D01*
X47462318Y-76210524D01*
X47508490Y-76158085D01*
X47575683Y-76138933D01*
X47642565Y-76159148D01*
X47687082Y-76210525D01*
X47714129Y-76268528D01*
X47714132Y-76268534D01*
X47844654Y-76454941D01*
X48005558Y-76615845D01*
X48005561Y-76615847D01*
X48191966Y-76746368D01*
X48398204Y-76842539D01*
X48618008Y-76901435D01*
X48779930Y-76915601D01*
X48844698Y-76921268D01*
X48844700Y-76921268D01*
X48844702Y-76921268D01*
X48901373Y-76916309D01*
X49071392Y-76901435D01*
X49291196Y-76842539D01*
X49497434Y-76746368D01*
X49683839Y-76615847D01*
X49844747Y-76454939D01*
X49975268Y-76268534D01*
X50002318Y-76210524D01*
X50048490Y-76158085D01*
X50115683Y-76138933D01*
X50182565Y-76159148D01*
X50227082Y-76210525D01*
X50254129Y-76268528D01*
X50254132Y-76268534D01*
X50384654Y-76454941D01*
X50545558Y-76615845D01*
X50545561Y-76615847D01*
X50731966Y-76746368D01*
X50938204Y-76842539D01*
X51158008Y-76901435D01*
X51319930Y-76915601D01*
X51384698Y-76921268D01*
X51384700Y-76921268D01*
X51384702Y-76921268D01*
X51441373Y-76916309D01*
X51611392Y-76901435D01*
X51831196Y-76842539D01*
X52037434Y-76746368D01*
X52223839Y-76615847D01*
X52384747Y-76454939D01*
X52515268Y-76268534D01*
X52542318Y-76210524D01*
X52588490Y-76158085D01*
X52655683Y-76138933D01*
X52722565Y-76159148D01*
X52767082Y-76210525D01*
X52794129Y-76268528D01*
X52794132Y-76268534D01*
X52924654Y-76454941D01*
X53085558Y-76615845D01*
X53085561Y-76615847D01*
X53271966Y-76746368D01*
X53478204Y-76842539D01*
X53698008Y-76901435D01*
X53859930Y-76915601D01*
X53924698Y-76921268D01*
X53924700Y-76921268D01*
X53924702Y-76921268D01*
X53981373Y-76916309D01*
X54151392Y-76901435D01*
X54371196Y-76842539D01*
X54577434Y-76746368D01*
X54763839Y-76615847D01*
X54924747Y-76454939D01*
X55055268Y-76268534D01*
X55082318Y-76210524D01*
X55128490Y-76158085D01*
X55195683Y-76138933D01*
X55262565Y-76159148D01*
X55307082Y-76210525D01*
X55334129Y-76268528D01*
X55334132Y-76268534D01*
X55464654Y-76454941D01*
X55625558Y-76615845D01*
X55625561Y-76615847D01*
X55811966Y-76746368D01*
X56018204Y-76842539D01*
X56238008Y-76901435D01*
X56399930Y-76915601D01*
X56464698Y-76921268D01*
X56464700Y-76921268D01*
X56464702Y-76921268D01*
X56521373Y-76916309D01*
X56691392Y-76901435D01*
X56911196Y-76842539D01*
X57117434Y-76746368D01*
X57303839Y-76615847D01*
X57464747Y-76454939D01*
X57595268Y-76268534D01*
X57622318Y-76210524D01*
X57668490Y-76158085D01*
X57735683Y-76138933D01*
X57802565Y-76159148D01*
X57847082Y-76210525D01*
X57874129Y-76268528D01*
X57874132Y-76268534D01*
X58004654Y-76454941D01*
X58165558Y-76615845D01*
X58165561Y-76615847D01*
X58351966Y-76746368D01*
X58558204Y-76842539D01*
X58778008Y-76901435D01*
X58939930Y-76915601D01*
X59004698Y-76921268D01*
X59004700Y-76921268D01*
X59004702Y-76921268D01*
X59061373Y-76916309D01*
X59231392Y-76901435D01*
X59451196Y-76842539D01*
X59657434Y-76746368D01*
X59843839Y-76615847D01*
X60004747Y-76454939D01*
X60135268Y-76268534D01*
X60162318Y-76210524D01*
X60208490Y-76158085D01*
X60275683Y-76138933D01*
X60342565Y-76159148D01*
X60387082Y-76210525D01*
X60414129Y-76268528D01*
X60414132Y-76268534D01*
X60544654Y-76454941D01*
X60705558Y-76615845D01*
X60705561Y-76615847D01*
X60891966Y-76746368D01*
X61098204Y-76842539D01*
X61318008Y-76901435D01*
X61479930Y-76915601D01*
X61544698Y-76921268D01*
X61544700Y-76921268D01*
X61544702Y-76921268D01*
X61601373Y-76916309D01*
X61771392Y-76901435D01*
X61991196Y-76842539D01*
X62197434Y-76746368D01*
X62383839Y-76615847D01*
X62544747Y-76454939D01*
X62675268Y-76268534D01*
X62702318Y-76210524D01*
X62748490Y-76158085D01*
X62815683Y-76138933D01*
X62882565Y-76159148D01*
X62927082Y-76210525D01*
X62954129Y-76268528D01*
X62954132Y-76268534D01*
X63084654Y-76454941D01*
X63245558Y-76615845D01*
X63245561Y-76615847D01*
X63431966Y-76746368D01*
X63638204Y-76842539D01*
X63858008Y-76901435D01*
X64019930Y-76915601D01*
X64084698Y-76921268D01*
X64084700Y-76921268D01*
X64084702Y-76921268D01*
X64141373Y-76916309D01*
X64311392Y-76901435D01*
X64531196Y-76842539D01*
X64737434Y-76746368D01*
X64923839Y-76615847D01*
X65084747Y-76454939D01*
X65215268Y-76268534D01*
X65242318Y-76210524D01*
X65288490Y-76158085D01*
X65355683Y-76138933D01*
X65422565Y-76159148D01*
X65467082Y-76210525D01*
X65494129Y-76268528D01*
X65494132Y-76268534D01*
X65624654Y-76454941D01*
X65785558Y-76615845D01*
X65785561Y-76615847D01*
X65971966Y-76746368D01*
X66178204Y-76842539D01*
X66398008Y-76901435D01*
X66559930Y-76915601D01*
X66624698Y-76921268D01*
X66624700Y-76921268D01*
X66624702Y-76921268D01*
X66681373Y-76916309D01*
X66851392Y-76901435D01*
X67071196Y-76842539D01*
X67277434Y-76746368D01*
X67463839Y-76615847D01*
X67624747Y-76454939D01*
X67755268Y-76268534D01*
X67782595Y-76209929D01*
X67828764Y-76157495D01*
X67895957Y-76138342D01*
X67962839Y-76158557D01*
X68007357Y-76209933D01*
X68034565Y-76268282D01*
X68165042Y-76454620D01*
X68325879Y-76615457D01*
X68512217Y-76745934D01*
X68718373Y-76842065D01*
X68718382Y-76842069D01*
X68914699Y-76894672D01*
X68914700Y-76894671D01*
X68914700Y-76048812D01*
X68971707Y-76081725D01*
X69098874Y-76115800D01*
X69230526Y-76115800D01*
X69357693Y-76081725D01*
X69414700Y-76048812D01*
X69414700Y-76894672D01*
X69611017Y-76842069D01*
X69611026Y-76842065D01*
X69817182Y-76745934D01*
X70003520Y-76615457D01*
X70164357Y-76454620D01*
X70294832Y-76268284D01*
X70322041Y-76209934D01*
X70368213Y-76157495D01*
X70435407Y-76138342D01*
X70502288Y-76158557D01*
X70546806Y-76209933D01*
X70574131Y-76268532D01*
X70574132Y-76268534D01*
X70704654Y-76454941D01*
X70865558Y-76615845D01*
X70865561Y-76615847D01*
X71051966Y-76746368D01*
X71258204Y-76842539D01*
X71478008Y-76901435D01*
X71639930Y-76915601D01*
X71704698Y-76921268D01*
X71704700Y-76921268D01*
X71704702Y-76921268D01*
X71761373Y-76916309D01*
X71931392Y-76901435D01*
X72151196Y-76842539D01*
X72357434Y-76746368D01*
X72543839Y-76615847D01*
X72704747Y-76454939D01*
X72835268Y-76268534D01*
X72931439Y-76062296D01*
X72990335Y-75842492D01*
X73010168Y-75615800D01*
X72990335Y-75389108D01*
X72968815Y-75308793D01*
X72959062Y-75272393D01*
X72960725Y-75202543D01*
X72999888Y-75144681D01*
X73064117Y-75117177D01*
X73078837Y-75116300D01*
X73859570Y-75116300D01*
X73926609Y-75135985D01*
X73947251Y-75152619D01*
X77048184Y-78253552D01*
X77117953Y-78300169D01*
X77117954Y-78300170D01*
X77171098Y-78335680D01*
X77171111Y-78335687D01*
X77307682Y-78392256D01*
X77307687Y-78392258D01*
X77307691Y-78392258D01*
X77307692Y-78392259D01*
X77452679Y-78421100D01*
X77452682Y-78421100D01*
X90224320Y-78421100D01*
X90321862Y-78401696D01*
X90369313Y-78392258D01*
X90505895Y-78335684D01*
X90505901Y-78335680D01*
X90559046Y-78300170D01*
X90559047Y-78300169D01*
X90628816Y-78253552D01*
X92063652Y-76818714D01*
X92124973Y-76785231D01*
X92162135Y-76782869D01*
X92305366Y-76795400D01*
X92328999Y-76797468D01*
X92329000Y-76797468D01*
X92329002Y-76797468D01*
X92385673Y-76792509D01*
X92555692Y-76777635D01*
X92775496Y-76718739D01*
X92981734Y-76622568D01*
X93168139Y-76492047D01*
X93329047Y-76331139D01*
X93459568Y-76144734D01*
X93486618Y-76086724D01*
X93532790Y-76034285D01*
X93599983Y-76015133D01*
X93666865Y-76035348D01*
X93711381Y-76086724D01*
X93724940Y-76115800D01*
X93738429Y-76144728D01*
X93738432Y-76144734D01*
X93868954Y-76331141D01*
X94029858Y-76492045D01*
X94029861Y-76492047D01*
X94216266Y-76622568D01*
X94422504Y-76718739D01*
X94642308Y-76777635D01*
X94804230Y-76791801D01*
X94868998Y-76797468D01*
X94869000Y-76797468D01*
X94869002Y-76797468D01*
X94925673Y-76792509D01*
X95095692Y-76777635D01*
X95315496Y-76718739D01*
X95521734Y-76622568D01*
X95708139Y-76492047D01*
X95869047Y-76331139D01*
X95999568Y-76144734D01*
X96026895Y-76086129D01*
X96073064Y-76033695D01*
X96140257Y-76014542D01*
X96207139Y-76034757D01*
X96251657Y-76086133D01*
X96278865Y-76144482D01*
X96409342Y-76330820D01*
X96570179Y-76491657D01*
X96756517Y-76622134D01*
X96962673Y-76718265D01*
X96962682Y-76718269D01*
X97158999Y-76770872D01*
X97159000Y-76770871D01*
X97159000Y-75807686D01*
X97163394Y-75812080D01*
X97254606Y-75864741D01*
X97356339Y-75892000D01*
X97461661Y-75892000D01*
X97563394Y-75864741D01*
X97654606Y-75812080D01*
X97659000Y-75807686D01*
X97659000Y-76770872D01*
X97855317Y-76718269D01*
X97855326Y-76718265D01*
X98061482Y-76622134D01*
X98247820Y-76491657D01*
X98408657Y-76330820D01*
X98539132Y-76144484D01*
X98566341Y-76086134D01*
X98612513Y-76033695D01*
X98679707Y-76014542D01*
X98746588Y-76034757D01*
X98791105Y-76086132D01*
X98804940Y-76115800D01*
X98818431Y-76144732D01*
X98818432Y-76144734D01*
X98948954Y-76331141D01*
X99109858Y-76492045D01*
X99109861Y-76492047D01*
X99296266Y-76622568D01*
X99502504Y-76718739D01*
X99722308Y-76777635D01*
X99884230Y-76791801D01*
X99948998Y-76797468D01*
X99949000Y-76797468D01*
X99949002Y-76797468D01*
X100005673Y-76792509D01*
X100175692Y-76777635D01*
X100395496Y-76718739D01*
X100601734Y-76622568D01*
X100788139Y-76492047D01*
X100949047Y-76331139D01*
X101079568Y-76144734D01*
X101106618Y-76086724D01*
X101152790Y-76034285D01*
X101219983Y-76015133D01*
X101286865Y-76035348D01*
X101331381Y-76086724D01*
X101344940Y-76115800D01*
X101358429Y-76144728D01*
X101358432Y-76144734D01*
X101488954Y-76331141D01*
X101649858Y-76492045D01*
X101649861Y-76492047D01*
X101836266Y-76622568D01*
X102042504Y-76718739D01*
X102262308Y-76777635D01*
X102424230Y-76791801D01*
X102488998Y-76797468D01*
X102489000Y-76797468D01*
X102489002Y-76797468D01*
X102545673Y-76792509D01*
X102715692Y-76777635D01*
X102935496Y-76718739D01*
X103141734Y-76622568D01*
X103328139Y-76492047D01*
X103444388Y-76375798D01*
X104699090Y-76375798D01*
X104699090Y-76375801D01*
X104719504Y-76661233D01*
X104780328Y-76940837D01*
X104880335Y-77208966D01*
X105017470Y-77460109D01*
X105017475Y-77460117D01*
X105188954Y-77689187D01*
X105188970Y-77689205D01*
X105391294Y-77891529D01*
X105391312Y-77891545D01*
X105620382Y-78063024D01*
X105620390Y-78063029D01*
X105871533Y-78200164D01*
X105871532Y-78200164D01*
X105871536Y-78200165D01*
X105871539Y-78200167D01*
X106139654Y-78300169D01*
X106139660Y-78300170D01*
X106139662Y-78300171D01*
X106419266Y-78360995D01*
X106419268Y-78360995D01*
X106419272Y-78360996D01*
X106672920Y-78379137D01*
X106704699Y-78381410D01*
X106704700Y-78381410D01*
X106704701Y-78381410D01*
X106733295Y-78379364D01*
X106990128Y-78360996D01*
X107269746Y-78300169D01*
X107537861Y-78200167D01*
X107789015Y-78063026D01*
X108018095Y-77891539D01*
X108220439Y-77689195D01*
X108391926Y-77460115D01*
X108529067Y-77208961D01*
X108629069Y-76940846D01*
X108660342Y-76797084D01*
X108689895Y-76661233D01*
X108689895Y-76661232D01*
X108689896Y-76661228D01*
X108710310Y-76375800D01*
X108689896Y-76090372D01*
X108683788Y-76062296D01*
X108629071Y-75810762D01*
X108629070Y-75810760D01*
X108629069Y-75810754D01*
X108529067Y-75542639D01*
X108501416Y-75492001D01*
X108391929Y-75291490D01*
X108391924Y-75291482D01*
X108220445Y-75062412D01*
X108220429Y-75062394D01*
X108018105Y-74860070D01*
X108018087Y-74860054D01*
X107789017Y-74688575D01*
X107789009Y-74688570D01*
X107537866Y-74551435D01*
X107537867Y-74551435D01*
X107378389Y-74491953D01*
X107269746Y-74451431D01*
X107269743Y-74451430D01*
X107269737Y-74451428D01*
X106990133Y-74390604D01*
X106704701Y-74370190D01*
X106704699Y-74370190D01*
X106419266Y-74390604D01*
X106139662Y-74451428D01*
X105871533Y-74551435D01*
X105620390Y-74688570D01*
X105620382Y-74688575D01*
X105391312Y-74860054D01*
X105391294Y-74860070D01*
X105188970Y-75062394D01*
X105188954Y-75062412D01*
X105017475Y-75291482D01*
X105017470Y-75291490D01*
X104880335Y-75542633D01*
X104780328Y-75810762D01*
X104719504Y-76090366D01*
X104699090Y-76375798D01*
X103444388Y-76375798D01*
X103489047Y-76331139D01*
X103619568Y-76144734D01*
X103715739Y-75938496D01*
X103774635Y-75718692D01*
X103794468Y-75492000D01*
X103774635Y-75265308D01*
X103722959Y-75072450D01*
X103715741Y-75045511D01*
X103715738Y-75045502D01*
X103671071Y-74949714D01*
X103619568Y-74839266D01*
X103514053Y-74688574D01*
X103489045Y-74652858D01*
X103328141Y-74491954D01*
X103141734Y-74361432D01*
X103141732Y-74361431D01*
X102935497Y-74265261D01*
X102935488Y-74265258D01*
X102715697Y-74206366D01*
X102715693Y-74206365D01*
X102715692Y-74206365D01*
X102715691Y-74206364D01*
X102715686Y-74206364D01*
X102489002Y-74186532D01*
X102488997Y-74186532D01*
X102322137Y-74201129D01*
X102253637Y-74187362D01*
X102223650Y-74165282D01*
X89906021Y-61847652D01*
X89906014Y-61847646D01*
X89825717Y-61793994D01*
X89825717Y-61793995D01*
X89801644Y-61777910D01*
X89756840Y-61724299D01*
X89748131Y-61654974D01*
X89778285Y-61591947D01*
X89837728Y-61555227D01*
X89859726Y-61551280D01*
X90015692Y-61537635D01*
X90235496Y-61478739D01*
X90441734Y-61382568D01*
X90628139Y-61252047D01*
X90789047Y-61091139D01*
X90919568Y-60904734D01*
X90946618Y-60846724D01*
X90992790Y-60794285D01*
X91059983Y-60775133D01*
X91126865Y-60795348D01*
X91171382Y-60846725D01*
X91198429Y-60904728D01*
X91198432Y-60904734D01*
X91328954Y-61091141D01*
X91489858Y-61252045D01*
X91489861Y-61252047D01*
X91676266Y-61382568D01*
X91882504Y-61478739D01*
X92102308Y-61537635D01*
X92258271Y-61551280D01*
X92328998Y-61557468D01*
X92329000Y-61557468D01*
X92329002Y-61557468D01*
X92399729Y-61551280D01*
X92555692Y-61537635D01*
X92775496Y-61478739D01*
X92981734Y-61382568D01*
X93168139Y-61252047D01*
X93329047Y-61091139D01*
X93459568Y-60904734D01*
X93486618Y-60846724D01*
X93532790Y-60794285D01*
X93599983Y-60775133D01*
X93666865Y-60795348D01*
X93711382Y-60846725D01*
X93738429Y-60904728D01*
X93738432Y-60904734D01*
X93868954Y-61091141D01*
X94029858Y-61252045D01*
X94029861Y-61252047D01*
X94216266Y-61382568D01*
X94422504Y-61478739D01*
X94642308Y-61537635D01*
X94798271Y-61551280D01*
X94868998Y-61557468D01*
X94869000Y-61557468D01*
X94869002Y-61557468D01*
X94939729Y-61551280D01*
X95095692Y-61537635D01*
X95315496Y-61478739D01*
X95521734Y-61382568D01*
X95708139Y-61252047D01*
X95869047Y-61091139D01*
X95999568Y-60904734D01*
X96026618Y-60846724D01*
X96072790Y-60794285D01*
X96139983Y-60775133D01*
X96206865Y-60795348D01*
X96251382Y-60846725D01*
X96278429Y-60904728D01*
X96278432Y-60904734D01*
X96408954Y-61091141D01*
X96569858Y-61252045D01*
X96569861Y-61252047D01*
X96756266Y-61382568D01*
X96962504Y-61478739D01*
X97182308Y-61537635D01*
X97338271Y-61551280D01*
X97408998Y-61557468D01*
X97409000Y-61557468D01*
X97409002Y-61557468D01*
X97479729Y-61551280D01*
X97635692Y-61537635D01*
X97855496Y-61478739D01*
X98061734Y-61382568D01*
X98248139Y-61252047D01*
X98409047Y-61091139D01*
X98539568Y-60904734D01*
X98566618Y-60846724D01*
X98612790Y-60794285D01*
X98679983Y-60775133D01*
X98746865Y-60795348D01*
X98791382Y-60846725D01*
X98818429Y-60904728D01*
X98818432Y-60904734D01*
X98948954Y-61091141D01*
X99109858Y-61252045D01*
X99109861Y-61252047D01*
X99296266Y-61382568D01*
X99502504Y-61478739D01*
X99722308Y-61537635D01*
X99878271Y-61551280D01*
X99948998Y-61557468D01*
X99949000Y-61557468D01*
X99949002Y-61557468D01*
X100019729Y-61551280D01*
X100175692Y-61537635D01*
X100341320Y-61493255D01*
X100411167Y-61494918D01*
X100469030Y-61534080D01*
X100487972Y-61565577D01*
X100533915Y-61676494D01*
X100566812Y-61725727D01*
X100566813Y-61725730D01*
X100616046Y-61799414D01*
X100616052Y-61799421D01*
X106385378Y-67568747D01*
X106385385Y-67568753D01*
X106448184Y-67610713D01*
X106448186Y-67610714D01*
X106448189Y-67610716D01*
X106508305Y-67650884D01*
X106644887Y-67707458D01*
X106644891Y-67707458D01*
X106644892Y-67707459D01*
X106789879Y-67736300D01*
X106789882Y-67736300D01*
X106789883Y-67736300D01*
X106937717Y-67736300D01*
X113448037Y-67736300D01*
X113515076Y-67755985D01*
X113549612Y-67789177D01*
X113574654Y-67824941D01*
X113735558Y-67985845D01*
X113735561Y-67985847D01*
X113921966Y-68116368D01*
X113959096Y-68133682D01*
X113979975Y-68143418D01*
X114032414Y-68189591D01*
X114051566Y-68256784D01*
X114031350Y-68323665D01*
X113979975Y-68368182D01*
X113921967Y-68395231D01*
X113921965Y-68395232D01*
X113735558Y-68525754D01*
X113574654Y-68686658D01*
X113444132Y-68873065D01*
X113444131Y-68873067D01*
X113347961Y-69079302D01*
X113347958Y-69079311D01*
X113289066Y-69299102D01*
X113289064Y-69299113D01*
X113269232Y-69525798D01*
X113269232Y-69525801D01*
X113289064Y-69752486D01*
X113289066Y-69752497D01*
X113347958Y-69972288D01*
X113347961Y-69972297D01*
X113444131Y-70178532D01*
X113444132Y-70178534D01*
X113574654Y-70364941D01*
X113735558Y-70525845D01*
X113735561Y-70525847D01*
X113921966Y-70656368D01*
X113980565Y-70683693D01*
X114033005Y-70729865D01*
X114052157Y-70797058D01*
X114031942Y-70863939D01*
X113980567Y-70908457D01*
X113922215Y-70935667D01*
X113735879Y-71066142D01*
X113575042Y-71226979D01*
X113444565Y-71413317D01*
X113348434Y-71619473D01*
X113348430Y-71619482D01*
X113295827Y-71815799D01*
X113295828Y-71815800D01*
X114259014Y-71815800D01*
X114254620Y-71820194D01*
X114201959Y-71911406D01*
X114174700Y-72013139D01*
X114174700Y-72118461D01*
X114201959Y-72220194D01*
X114254620Y-72311406D01*
X114259014Y-72315800D01*
X113295828Y-72315800D01*
X113348430Y-72512117D01*
X113348434Y-72512126D01*
X113444565Y-72718282D01*
X113575042Y-72904620D01*
X113735879Y-73065457D01*
X113922217Y-73195934D01*
X114128373Y-73292065D01*
X114128382Y-73292069D01*
X114324699Y-73344672D01*
X114324700Y-73344671D01*
X114324700Y-72381486D01*
X114329094Y-72385880D01*
X114420306Y-72438541D01*
X114522039Y-72465800D01*
X114627361Y-72465800D01*
X114729094Y-72438541D01*
X114820306Y-72385880D01*
X114824700Y-72381486D01*
X114824700Y-73344672D01*
X115021017Y-73292069D01*
X115021026Y-73292065D01*
X115227182Y-73195934D01*
X115413520Y-73065457D01*
X115574357Y-72904620D01*
X115704834Y-72718282D01*
X115800965Y-72512126D01*
X115800969Y-72512117D01*
X115853572Y-72315800D01*
X114890386Y-72315800D01*
X114894780Y-72311406D01*
X114947441Y-72220194D01*
X114974700Y-72118461D01*
X114974700Y-72013139D01*
X114947441Y-71911406D01*
X114894780Y-71820194D01*
X114890386Y-71815800D01*
X115853572Y-71815800D01*
X115853572Y-71815799D01*
X115800969Y-71619482D01*
X115800965Y-71619473D01*
X115704834Y-71413317D01*
X115574357Y-71226979D01*
X115467376Y-71119998D01*
X120614532Y-71119998D01*
X120614532Y-71120001D01*
X120634364Y-71346686D01*
X120634366Y-71346697D01*
X120693258Y-71566488D01*
X120693261Y-71566497D01*
X120789431Y-71772732D01*
X120789432Y-71772734D01*
X120919954Y-71959141D01*
X121080858Y-72120045D01*
X121080861Y-72120047D01*
X121267266Y-72250568D01*
X121473504Y-72346739D01*
X121693308Y-72405635D01*
X121838527Y-72418340D01*
X121919998Y-72425468D01*
X121920000Y-72425468D01*
X121920002Y-72425468D01*
X121976673Y-72420509D01*
X122146692Y-72405635D01*
X122366496Y-72346739D01*
X122572734Y-72250568D01*
X122759139Y-72120047D01*
X122920047Y-71959139D01*
X123050568Y-71772734D01*
X123146739Y-71566496D01*
X123205635Y-71346692D01*
X123225468Y-71120000D01*
X123205635Y-70893308D01*
X123146739Y-70673504D01*
X123050568Y-70467266D01*
X122920047Y-70280861D01*
X122920045Y-70280858D01*
X122759141Y-70119954D01*
X122572734Y-69989432D01*
X122572732Y-69989431D01*
X122535986Y-69972296D01*
X122514132Y-69962105D01*
X122461694Y-69915934D01*
X122442542Y-69848740D01*
X122462758Y-69781859D01*
X122514134Y-69737341D01*
X122572484Y-69710132D01*
X122758820Y-69579657D01*
X122919657Y-69418820D01*
X123050134Y-69232482D01*
X123146265Y-69026326D01*
X123146269Y-69026317D01*
X123198872Y-68830000D01*
X122235686Y-68830000D01*
X122240080Y-68825606D01*
X122292741Y-68734394D01*
X122320000Y-68632661D01*
X122320000Y-68527339D01*
X122292741Y-68425606D01*
X122240080Y-68334394D01*
X122235686Y-68330000D01*
X123198872Y-68330000D01*
X123198872Y-68329999D01*
X123146269Y-68133682D01*
X123146265Y-68133673D01*
X123050134Y-67927517D01*
X122919657Y-67741179D01*
X122758820Y-67580342D01*
X122733779Y-67562808D01*
X122690154Y-67508230D01*
X122682962Y-67438732D01*
X122714484Y-67376377D01*
X122774714Y-67340964D01*
X122791650Y-67337943D01*
X122827483Y-67334091D01*
X122962328Y-67283797D01*
X122962327Y-67283797D01*
X122962331Y-67283796D01*
X123077546Y-67197546D01*
X123163796Y-67082331D01*
X123214091Y-66947483D01*
X123220500Y-66887873D01*
X123220499Y-65192128D01*
X123214091Y-65132517D01*
X123163796Y-64997669D01*
X123163795Y-64997668D01*
X123163793Y-64997664D01*
X123077547Y-64882455D01*
X123077544Y-64882452D01*
X122962335Y-64796206D01*
X122962328Y-64796202D01*
X122827482Y-64745908D01*
X122827483Y-64745908D01*
X122767883Y-64739501D01*
X122767881Y-64739500D01*
X122767873Y-64739500D01*
X122767864Y-64739500D01*
X121072129Y-64739500D01*
X121072123Y-64739501D01*
X121012516Y-64745908D01*
X120877671Y-64796202D01*
X120877664Y-64796206D01*
X120762455Y-64882452D01*
X120762452Y-64882455D01*
X120676206Y-64997664D01*
X120676202Y-64997671D01*
X120625908Y-65132517D01*
X120619501Y-65192116D01*
X120619501Y-65192123D01*
X120619500Y-65192135D01*
X120619500Y-66887870D01*
X120619501Y-66887876D01*
X120625908Y-66947483D01*
X120676202Y-67082328D01*
X120676206Y-67082335D01*
X120762452Y-67197544D01*
X120762455Y-67197547D01*
X120877664Y-67283793D01*
X120877671Y-67283797D01*
X121012513Y-67334090D01*
X121012514Y-67334090D01*
X121012517Y-67334091D01*
X121048353Y-67337944D01*
X121112901Y-67364679D01*
X121152751Y-67422070D01*
X121155246Y-67491896D01*
X121119595Y-67551985D01*
X121106223Y-67562805D01*
X121081182Y-67580339D01*
X120920342Y-67741179D01*
X120789865Y-67927517D01*
X120693734Y-68133673D01*
X120693730Y-68133682D01*
X120641127Y-68329999D01*
X120641128Y-68330000D01*
X121604314Y-68330000D01*
X121599920Y-68334394D01*
X121547259Y-68425606D01*
X121520000Y-68527339D01*
X121520000Y-68632661D01*
X121547259Y-68734394D01*
X121599920Y-68825606D01*
X121604314Y-68830000D01*
X120641128Y-68830000D01*
X120693730Y-69026317D01*
X120693734Y-69026326D01*
X120789865Y-69232482D01*
X120920342Y-69418820D01*
X121081179Y-69579657D01*
X121267518Y-69710134D01*
X121267520Y-69710135D01*
X121325865Y-69737342D01*
X121378305Y-69783514D01*
X121397457Y-69850707D01*
X121377242Y-69917589D01*
X121325867Y-69962105D01*
X121304014Y-69972296D01*
X121267264Y-69989433D01*
X121080858Y-70119954D01*
X120919954Y-70280858D01*
X120789432Y-70467265D01*
X120789431Y-70467267D01*
X120693261Y-70673502D01*
X120693258Y-70673511D01*
X120634366Y-70893302D01*
X120634364Y-70893313D01*
X120614532Y-71119998D01*
X115467376Y-71119998D01*
X115413520Y-71066142D01*
X115227182Y-70935665D01*
X115168833Y-70908457D01*
X115116394Y-70862284D01*
X115097242Y-70795091D01*
X115117458Y-70728210D01*
X115168829Y-70683695D01*
X115227434Y-70656368D01*
X115413839Y-70525847D01*
X115574747Y-70364939D01*
X115705268Y-70178534D01*
X115801439Y-69972296D01*
X115860335Y-69752492D01*
X115880168Y-69525800D01*
X115865569Y-69358937D01*
X115879335Y-69290439D01*
X115901412Y-69260454D01*
X116407652Y-68754216D01*
X116470667Y-68659906D01*
X116489784Y-68631295D01*
X116546358Y-68494713D01*
X116560105Y-68425606D01*
X116575200Y-68349720D01*
X116575200Y-63121879D01*
X116546359Y-62976892D01*
X116546358Y-62976891D01*
X116546358Y-62976887D01*
X116528436Y-62933619D01*
X116489787Y-62840311D01*
X116489780Y-62840298D01*
X116407652Y-62717385D01*
X116407651Y-62717384D01*
X116303116Y-62612849D01*
X114066065Y-60375798D01*
X109570266Y-55879998D01*
X120614532Y-55879998D01*
X120614532Y-55880001D01*
X120634364Y-56106686D01*
X120634366Y-56106697D01*
X120693258Y-56326488D01*
X120693261Y-56326497D01*
X120789431Y-56532732D01*
X120789432Y-56532734D01*
X120919954Y-56719141D01*
X121080858Y-56880045D01*
X121080861Y-56880047D01*
X121267266Y-57010568D01*
X121473504Y-57106739D01*
X121693308Y-57165635D01*
X121855230Y-57179801D01*
X121919998Y-57185468D01*
X121920000Y-57185468D01*
X121920002Y-57185468D01*
X121976673Y-57180509D01*
X122146692Y-57165635D01*
X122366496Y-57106739D01*
X122572734Y-57010568D01*
X122759139Y-56880047D01*
X122920047Y-56719139D01*
X123050568Y-56532734D01*
X123146739Y-56326496D01*
X123205635Y-56106692D01*
X123225468Y-55880000D01*
X123205635Y-55653308D01*
X123146739Y-55433504D01*
X123050568Y-55227266D01*
X122920047Y-55040861D01*
X122920045Y-55040858D01*
X122759141Y-54879954D01*
X122572734Y-54749432D01*
X122572732Y-54749431D01*
X122561275Y-54744088D01*
X122514132Y-54722105D01*
X122461694Y-54675934D01*
X122442542Y-54608740D01*
X122462758Y-54541859D01*
X122514134Y-54497341D01*
X122572484Y-54470132D01*
X122758820Y-54339657D01*
X122919657Y-54178820D01*
X123050134Y-53992482D01*
X123146265Y-53786326D01*
X123146269Y-53786317D01*
X123198872Y-53590000D01*
X122235686Y-53590000D01*
X122240080Y-53585606D01*
X122292741Y-53494394D01*
X122320000Y-53392661D01*
X122320000Y-53287339D01*
X122292741Y-53185606D01*
X122240080Y-53094394D01*
X122235686Y-53090000D01*
X123198872Y-53090000D01*
X123198872Y-53089999D01*
X123146269Y-52893682D01*
X123146265Y-52893673D01*
X123050134Y-52687517D01*
X122919657Y-52501179D01*
X122758820Y-52340342D01*
X122733779Y-52322808D01*
X122690154Y-52268230D01*
X122682962Y-52198732D01*
X122714484Y-52136377D01*
X122774714Y-52100964D01*
X122791650Y-52097943D01*
X122827483Y-52094091D01*
X122962328Y-52043797D01*
X122962327Y-52043797D01*
X122962331Y-52043796D01*
X123077546Y-51957546D01*
X123163796Y-51842331D01*
X123214091Y-51707483D01*
X123220500Y-51647873D01*
X123220499Y-49952128D01*
X123214091Y-49892517D01*
X123211590Y-49885812D01*
X123163797Y-49757671D01*
X123163793Y-49757664D01*
X123077547Y-49642455D01*
X123077544Y-49642452D01*
X122962335Y-49556206D01*
X122962328Y-49556202D01*
X122827482Y-49505908D01*
X122827483Y-49505908D01*
X122767883Y-49499501D01*
X122767881Y-49499500D01*
X122767873Y-49499500D01*
X122767864Y-49499500D01*
X121072129Y-49499500D01*
X121072123Y-49499501D01*
X121012516Y-49505908D01*
X120877671Y-49556202D01*
X120877664Y-49556206D01*
X120762455Y-49642452D01*
X120762452Y-49642455D01*
X120676206Y-49757664D01*
X120676202Y-49757671D01*
X120625908Y-49892517D01*
X120622484Y-49924369D01*
X120619501Y-49952123D01*
X120619500Y-49952135D01*
X120619500Y-51647870D01*
X120619501Y-51647876D01*
X120625908Y-51707483D01*
X120676202Y-51842328D01*
X120676206Y-51842335D01*
X120762452Y-51957544D01*
X120762455Y-51957547D01*
X120877664Y-52043793D01*
X120877671Y-52043797D01*
X121012513Y-52094090D01*
X121012514Y-52094090D01*
X121012517Y-52094091D01*
X121048353Y-52097944D01*
X121112901Y-52124679D01*
X121152751Y-52182070D01*
X121155246Y-52251896D01*
X121119595Y-52311985D01*
X121106223Y-52322805D01*
X121081182Y-52340339D01*
X120920342Y-52501179D01*
X120789865Y-52687517D01*
X120693734Y-52893673D01*
X120693730Y-52893682D01*
X120641127Y-53089999D01*
X120641128Y-53090000D01*
X121604314Y-53090000D01*
X121599920Y-53094394D01*
X121547259Y-53185606D01*
X121520000Y-53287339D01*
X121520000Y-53392661D01*
X121547259Y-53494394D01*
X121599920Y-53585606D01*
X121604314Y-53590000D01*
X120641128Y-53590000D01*
X120693730Y-53786317D01*
X120693734Y-53786326D01*
X120789865Y-53992482D01*
X120920342Y-54178820D01*
X121081179Y-54339657D01*
X121267518Y-54470134D01*
X121267520Y-54470135D01*
X121325865Y-54497342D01*
X121378305Y-54543514D01*
X121397457Y-54610707D01*
X121377242Y-54677589D01*
X121325867Y-54722105D01*
X121267268Y-54749431D01*
X121267264Y-54749433D01*
X121080858Y-54879954D01*
X120919954Y-55040858D01*
X120789432Y-55227265D01*
X120789431Y-55227267D01*
X120693261Y-55433502D01*
X120693258Y-55433511D01*
X120634366Y-55653302D01*
X120634364Y-55653313D01*
X120614532Y-55879998D01*
X109570266Y-55879998D01*
X107209321Y-53519052D01*
X107209314Y-53519046D01*
X107135629Y-53469812D01*
X107135629Y-53469813D01*
X107086391Y-53436913D01*
X106949817Y-53380343D01*
X106949807Y-53380340D01*
X106804820Y-53351500D01*
X106804818Y-53351500D01*
X48559972Y-53351500D01*
X48519017Y-53344542D01*
X48439254Y-53316631D01*
X48439249Y-53316630D01*
X48260004Y-53296435D01*
X48259996Y-53296435D01*
X48080750Y-53316630D01*
X48080745Y-53316631D01*
X47910476Y-53376211D01*
X47757737Y-53472184D01*
X47630184Y-53599737D01*
X47534211Y-53752476D01*
X47474631Y-53922745D01*
X47474630Y-53922750D01*
X47454435Y-54101996D01*
X47454435Y-54102003D01*
X47474630Y-54281249D01*
X47474631Y-54281254D01*
X47534211Y-54451523D01*
X47592013Y-54543514D01*
X47630184Y-54604262D01*
X47757738Y-54731816D01*
X47910478Y-54827789D01*
X48046828Y-54875500D01*
X48080745Y-54887368D01*
X48080750Y-54887369D01*
X48259996Y-54907565D01*
X48260000Y-54907565D01*
X48260004Y-54907565D01*
X48439249Y-54887369D01*
X48439252Y-54887368D01*
X48439255Y-54887368D01*
X48519017Y-54859457D01*
X48559972Y-54852500D01*
X49634060Y-54852500D01*
X49701099Y-54872185D01*
X49746854Y-54924989D01*
X49756798Y-54994147D01*
X49727773Y-55057703D01*
X49721741Y-55064181D01*
X49662184Y-55123737D01*
X49566211Y-55276476D01*
X49506631Y-55446745D01*
X49506630Y-55446750D01*
X49486435Y-55625996D01*
X49486435Y-55626003D01*
X49506630Y-55805249D01*
X49506633Y-55805262D01*
X49567968Y-55980545D01*
X49571530Y-56050324D01*
X49536802Y-56110951D01*
X49474808Y-56143179D01*
X49450927Y-56145500D01*
X40058080Y-56145500D01*
X39913092Y-56174340D01*
X39913082Y-56174343D01*
X39776511Y-56230912D01*
X39776498Y-56230919D01*
X39653584Y-56313048D01*
X39653580Y-56313051D01*
X38101750Y-57864880D01*
X38101744Y-57864888D01*
X38052512Y-57938568D01*
X38052513Y-57938569D01*
X38019621Y-57987796D01*
X38019614Y-57987808D01*
X37963042Y-58124386D01*
X37963040Y-58124392D01*
X37934200Y-58269379D01*
X37934200Y-59249136D01*
X37914515Y-59316175D01*
X37881325Y-59350710D01*
X37845563Y-59375751D01*
X37684651Y-59536662D01*
X37554132Y-59723065D01*
X37554131Y-59723067D01*
X37527082Y-59781075D01*
X37480909Y-59833514D01*
X37413716Y-59852666D01*
X37346835Y-59832450D01*
X37302318Y-59781075D01*
X37275268Y-59723066D01*
X37144747Y-59536661D01*
X37144745Y-59536658D01*
X36983841Y-59375754D01*
X36797434Y-59245232D01*
X36797432Y-59245231D01*
X36591197Y-59149061D01*
X36591188Y-59149058D01*
X36371397Y-59090166D01*
X36371393Y-59090165D01*
X36371392Y-59090165D01*
X36371391Y-59090164D01*
X36371386Y-59090164D01*
X36144702Y-59070332D01*
X36144698Y-59070332D01*
X35918013Y-59090164D01*
X35918002Y-59090166D01*
X35698211Y-59149058D01*
X35698202Y-59149061D01*
X35491967Y-59245231D01*
X35491965Y-59245232D01*
X35305558Y-59375754D01*
X35144654Y-59536658D01*
X35014132Y-59723065D01*
X35014131Y-59723067D01*
X34917961Y-59929302D01*
X34917958Y-59929311D01*
X34859066Y-60149102D01*
X34859064Y-60149113D01*
X34839232Y-60375798D01*
X26162000Y-60375798D01*
X26162000Y-50195155D01*
X37497000Y-50195155D01*
X37497000Y-51493000D01*
X38777936Y-51493000D01*
X38766207Y-51521316D01*
X38737000Y-51668147D01*
X38737000Y-51817853D01*
X38766207Y-51964684D01*
X38777936Y-51993000D01*
X37497000Y-51993000D01*
X37497000Y-53290844D01*
X37503401Y-53350372D01*
X37503403Y-53350379D01*
X37553645Y-53485086D01*
X37553649Y-53485093D01*
X37639809Y-53600187D01*
X37639812Y-53600190D01*
X37754906Y-53686350D01*
X37754913Y-53686354D01*
X37889620Y-53736596D01*
X37889627Y-53736598D01*
X37949155Y-53742999D01*
X37949172Y-53743000D01*
X39247000Y-53743000D01*
X39247000Y-52462064D01*
X39275316Y-52473793D01*
X39422147Y-52503000D01*
X39571853Y-52503000D01*
X39718684Y-52473793D01*
X39747000Y-52462064D01*
X39747000Y-53743000D01*
X41044828Y-53743000D01*
X41044844Y-53742999D01*
X41104372Y-53736598D01*
X41104379Y-53736596D01*
X41239086Y-53686354D01*
X41239093Y-53686350D01*
X41354187Y-53600190D01*
X41354190Y-53600187D01*
X41440350Y-53485093D01*
X41440354Y-53485086D01*
X41490596Y-53350379D01*
X41490598Y-53350372D01*
X41496999Y-53290844D01*
X41497000Y-53290827D01*
X41497000Y-51993000D01*
X40216064Y-51993000D01*
X40227793Y-51964684D01*
X40257000Y-51817853D01*
X40257000Y-51668147D01*
X40227793Y-51521316D01*
X40216064Y-51493000D01*
X41497000Y-51493000D01*
X41497000Y-50195172D01*
X41496999Y-50195155D01*
X41490598Y-50135627D01*
X41490596Y-50135620D01*
X41440354Y-50000913D01*
X41440350Y-50000906D01*
X41439670Y-49999998D01*
X112994390Y-49999998D01*
X112994390Y-50000001D01*
X113014804Y-50285433D01*
X113075628Y-50565037D01*
X113175635Y-50833166D01*
X113312770Y-51084309D01*
X113312775Y-51084317D01*
X113484254Y-51313387D01*
X113484270Y-51313405D01*
X113686594Y-51515729D01*
X113686612Y-51515745D01*
X113915682Y-51687224D01*
X113915690Y-51687229D01*
X114166833Y-51824364D01*
X114166832Y-51824364D01*
X114166836Y-51824365D01*
X114166839Y-51824367D01*
X114434954Y-51924369D01*
X114434960Y-51924370D01*
X114434962Y-51924371D01*
X114714566Y-51985195D01*
X114714568Y-51985195D01*
X114714572Y-51985196D01*
X114968220Y-52003337D01*
X114999999Y-52005610D01*
X115000000Y-52005610D01*
X115000001Y-52005610D01*
X115028595Y-52003564D01*
X115285428Y-51985196D01*
X115379721Y-51964684D01*
X115565037Y-51924371D01*
X115565037Y-51924370D01*
X115565046Y-51924369D01*
X115833161Y-51824367D01*
X116084315Y-51687226D01*
X116313395Y-51515739D01*
X116515739Y-51313395D01*
X116687226Y-51084315D01*
X116824367Y-50833161D01*
X116924369Y-50565046D01*
X116985196Y-50285428D01*
X117005610Y-50000000D01*
X116985196Y-49714572D01*
X116979247Y-49687226D01*
X116924371Y-49434962D01*
X116924370Y-49434960D01*
X116924369Y-49434954D01*
X116824367Y-49166839D01*
X116779306Y-49084317D01*
X116687229Y-48915690D01*
X116687224Y-48915682D01*
X116515745Y-48686612D01*
X116515729Y-48686594D01*
X116313405Y-48484270D01*
X116313387Y-48484254D01*
X116084317Y-48312775D01*
X116084309Y-48312770D01*
X115833166Y-48175635D01*
X115833167Y-48175635D01*
X115725915Y-48135632D01*
X115565046Y-48075631D01*
X115565043Y-48075630D01*
X115565037Y-48075628D01*
X115285433Y-48014804D01*
X115000001Y-47994390D01*
X114999999Y-47994390D01*
X114714566Y-48014804D01*
X114434962Y-48075628D01*
X114166833Y-48175635D01*
X113915690Y-48312770D01*
X113915682Y-48312775D01*
X113686612Y-48484254D01*
X113686594Y-48484270D01*
X113484270Y-48686594D01*
X113484254Y-48686612D01*
X113312775Y-48915682D01*
X113312770Y-48915690D01*
X113175635Y-49166833D01*
X113075628Y-49434962D01*
X113014804Y-49714566D01*
X112994390Y-49999998D01*
X41439670Y-49999998D01*
X41354190Y-49885812D01*
X41354187Y-49885809D01*
X41239093Y-49799649D01*
X41239086Y-49799645D01*
X41104379Y-49749403D01*
X41104372Y-49749401D01*
X41044844Y-49743000D01*
X39747000Y-49743000D01*
X39747000Y-51023935D01*
X39718684Y-51012207D01*
X39571853Y-50983000D01*
X39422147Y-50983000D01*
X39275316Y-51012207D01*
X39247000Y-51023935D01*
X39247000Y-49743000D01*
X37949155Y-49743000D01*
X37889627Y-49749401D01*
X37889620Y-49749403D01*
X37754913Y-49799645D01*
X37754906Y-49799649D01*
X37639812Y-49885809D01*
X37639809Y-49885812D01*
X37553649Y-50000906D01*
X37553645Y-50000913D01*
X37503403Y-50135620D01*
X37503401Y-50135627D01*
X37497000Y-50195155D01*
X26162000Y-50195155D01*
X26162000Y-47999998D01*
X27994390Y-47999998D01*
X27994390Y-48000001D01*
X28014804Y-48285433D01*
X28075628Y-48565037D01*
X28075630Y-48565043D01*
X28075631Y-48565046D01*
X28120973Y-48686612D01*
X28175635Y-48833166D01*
X28312770Y-49084309D01*
X28312775Y-49084317D01*
X28484254Y-49313387D01*
X28484270Y-49313405D01*
X28686594Y-49515729D01*
X28686612Y-49515745D01*
X28915682Y-49687224D01*
X28915690Y-49687229D01*
X29166833Y-49824364D01*
X29166832Y-49824364D01*
X29166836Y-49824365D01*
X29166839Y-49824367D01*
X29434954Y-49924369D01*
X29434960Y-49924370D01*
X29434962Y-49924371D01*
X29714566Y-49985195D01*
X29714568Y-49985195D01*
X29714572Y-49985196D01*
X29968220Y-50003337D01*
X29999999Y-50005610D01*
X30000000Y-50005610D01*
X30000001Y-50005610D01*
X30028595Y-50003564D01*
X30285428Y-49985196D01*
X30437408Y-49952135D01*
X30565037Y-49924371D01*
X30565037Y-49924370D01*
X30565046Y-49924369D01*
X30833161Y-49824367D01*
X31084315Y-49687226D01*
X31313395Y-49515739D01*
X31515739Y-49313395D01*
X31687226Y-49084315D01*
X31824367Y-48833161D01*
X31924369Y-48565046D01*
X31964081Y-48382492D01*
X31985195Y-48285433D01*
X31985195Y-48285432D01*
X31985196Y-48285428D01*
X32005610Y-48000000D01*
X32003922Y-47976405D01*
X31991664Y-47805007D01*
X31985196Y-47714572D01*
X31952356Y-47563610D01*
X31924371Y-47434962D01*
X31924370Y-47434960D01*
X31924369Y-47434954D01*
X31824367Y-47166839D01*
X31773530Y-47073739D01*
X31687229Y-46915690D01*
X31687224Y-46915682D01*
X31515745Y-46686612D01*
X31515729Y-46686594D01*
X31492133Y-46662998D01*
X37491390Y-46662998D01*
X37491390Y-46663001D01*
X37511804Y-46948433D01*
X37572628Y-47228037D01*
X37672635Y-47496166D01*
X37809770Y-47747309D01*
X37809775Y-47747317D01*
X37981254Y-47976387D01*
X37981270Y-47976405D01*
X38183594Y-48178729D01*
X38183612Y-48178745D01*
X38412682Y-48350224D01*
X38412690Y-48350229D01*
X38663833Y-48487364D01*
X38663832Y-48487364D01*
X38663836Y-48487365D01*
X38663839Y-48487367D01*
X38931954Y-48587369D01*
X38931960Y-48587370D01*
X38931962Y-48587371D01*
X39211566Y-48648195D01*
X39211568Y-48648195D01*
X39211572Y-48648196D01*
X39465220Y-48666337D01*
X39496999Y-48668610D01*
X39497000Y-48668610D01*
X39497001Y-48668610D01*
X39525595Y-48666564D01*
X39782428Y-48648196D01*
X40062046Y-48587369D01*
X40330161Y-48487367D01*
X40581315Y-48350226D01*
X40810395Y-48178739D01*
X41012739Y-47976395D01*
X41184226Y-47747315D01*
X41321367Y-47496161D01*
X41421369Y-47228046D01*
X41466691Y-47019705D01*
X41482195Y-46948433D01*
X41482195Y-46948432D01*
X41482196Y-46948428D01*
X41502610Y-46663000D01*
X41482196Y-46377572D01*
X41468100Y-46312775D01*
X41421371Y-46097962D01*
X41421370Y-46097960D01*
X41421369Y-46097954D01*
X41321367Y-45829839D01*
X41184226Y-45578685D01*
X41168742Y-45558001D01*
X41168740Y-45557998D01*
X72994390Y-45557998D01*
X72994390Y-45558001D01*
X73014804Y-45843433D01*
X73075628Y-46123037D01*
X73075630Y-46123043D01*
X73075631Y-46123046D01*
X73170562Y-46377566D01*
X73175635Y-46391166D01*
X73312770Y-46642309D01*
X73312775Y-46642317D01*
X73484254Y-46871387D01*
X73484270Y-46871405D01*
X73686594Y-47073729D01*
X73686612Y-47073745D01*
X73915682Y-47245224D01*
X73915690Y-47245229D01*
X74166833Y-47382364D01*
X74166832Y-47382364D01*
X74166836Y-47382365D01*
X74166839Y-47382367D01*
X74434954Y-47482369D01*
X74434960Y-47482370D01*
X74434962Y-47482371D01*
X74714566Y-47543195D01*
X74714568Y-47543195D01*
X74714572Y-47543196D01*
X74968220Y-47561337D01*
X74999999Y-47563610D01*
X75000000Y-47563610D01*
X75000001Y-47563610D01*
X75028595Y-47561564D01*
X75285428Y-47543196D01*
X75565046Y-47482369D01*
X75833161Y-47382367D01*
X76084315Y-47245226D01*
X76313395Y-47073739D01*
X76515739Y-46871395D01*
X76687226Y-46642315D01*
X76824367Y-46391161D01*
X76924369Y-46123046D01*
X76929827Y-46097954D01*
X76985195Y-45843433D01*
X76985195Y-45843432D01*
X76985196Y-45843428D01*
X77005610Y-45558000D01*
X76985196Y-45272572D01*
X76957938Y-45147270D01*
X76924371Y-44992962D01*
X76924370Y-44992960D01*
X76924369Y-44992954D01*
X76824367Y-44724839D01*
X76744025Y-44577705D01*
X76687229Y-44473690D01*
X76687224Y-44473682D01*
X76515745Y-44244612D01*
X76515729Y-44244594D01*
X76313405Y-44042270D01*
X76313387Y-44042254D01*
X76084317Y-43870775D01*
X76084309Y-43870770D01*
X75833166Y-43733635D01*
X75833167Y-43733635D01*
X75725915Y-43693632D01*
X75565046Y-43633631D01*
X75565043Y-43633630D01*
X75565037Y-43633628D01*
X75285433Y-43572804D01*
X75000001Y-43552390D01*
X74999999Y-43552390D01*
X74714566Y-43572804D01*
X74434962Y-43633628D01*
X74166833Y-43733635D01*
X73915690Y-43870770D01*
X73915682Y-43870775D01*
X73686612Y-44042254D01*
X73686594Y-44042270D01*
X73484270Y-44244594D01*
X73484254Y-44244612D01*
X73312775Y-44473682D01*
X73312770Y-44473690D01*
X73175635Y-44724833D01*
X73075628Y-44992962D01*
X73014804Y-45272566D01*
X72994390Y-45557998D01*
X41168740Y-45557998D01*
X41012745Y-45349612D01*
X41012729Y-45349594D01*
X40810405Y-45147270D01*
X40810387Y-45147254D01*
X40581317Y-44975775D01*
X40581309Y-44975770D01*
X40330166Y-44838635D01*
X40330167Y-44838635D01*
X40222915Y-44798632D01*
X40062046Y-44738631D01*
X40062043Y-44738630D01*
X40062037Y-44738628D01*
X39782433Y-44677804D01*
X39497001Y-44657390D01*
X39496999Y-44657390D01*
X39211566Y-44677804D01*
X38931962Y-44738628D01*
X38663833Y-44838635D01*
X38412690Y-44975770D01*
X38412682Y-44975775D01*
X38183612Y-45147254D01*
X38183594Y-45147270D01*
X37981270Y-45349594D01*
X37981254Y-45349612D01*
X37809775Y-45578682D01*
X37809770Y-45578690D01*
X37672635Y-45829833D01*
X37572628Y-46097962D01*
X37511804Y-46377566D01*
X37491390Y-46662998D01*
X31492133Y-46662998D01*
X31313405Y-46484270D01*
X31313387Y-46484254D01*
X31084317Y-46312775D01*
X31084309Y-46312770D01*
X30833166Y-46175635D01*
X30833167Y-46175635D01*
X30692146Y-46123037D01*
X30565046Y-46075631D01*
X30565043Y-46075630D01*
X30565037Y-46075628D01*
X30285433Y-46014804D01*
X30000001Y-45994390D01*
X29999999Y-45994390D01*
X29714566Y-46014804D01*
X29434962Y-46075628D01*
X29166833Y-46175635D01*
X28915690Y-46312770D01*
X28915682Y-46312775D01*
X28686612Y-46484254D01*
X28686594Y-46484270D01*
X28484270Y-46686594D01*
X28484254Y-46686612D01*
X28312775Y-46915682D01*
X28312770Y-46915690D01*
X28175635Y-47166833D01*
X28075628Y-47434962D01*
X28014804Y-47714566D01*
X27994390Y-47999998D01*
X26162000Y-47999998D01*
X26162000Y-33999992D01*
X27494493Y-33999992D01*
X27494493Y-34000007D01*
X27514514Y-34547843D01*
X27514516Y-34547877D01*
X27574475Y-35092806D01*
X27574480Y-35092841D01*
X27674054Y-35631916D01*
X27812724Y-36162337D01*
X27812725Y-36162341D01*
X27989732Y-36681190D01*
X27989734Y-36681195D01*
X28204152Y-37185763D01*
X28204157Y-37185774D01*
X28454819Y-37673315D01*
X28454824Y-37673323D01*
X28454827Y-37673329D01*
X28740424Y-38141297D01*
X28740427Y-38141301D01*
X29059408Y-38587156D01*
X29059418Y-38587169D01*
X29410107Y-39008566D01*
X29497930Y-39099657D01*
X29790607Y-39403227D01*
X29790611Y-39403231D01*
X29790621Y-39403241D01*
X30198930Y-39769086D01*
X30454857Y-39966707D01*
X30632847Y-40104147D01*
X30632850Y-40104149D01*
X30632854Y-40104152D01*
X30871303Y-40261908D01*
X31090080Y-40406650D01*
X31388023Y-40573863D01*
X31568165Y-40674964D01*
X32064561Y-40907665D01*
X32576619Y-41103510D01*
X33101607Y-41261456D01*
X33101609Y-41261456D01*
X33101618Y-41261459D01*
X33487213Y-41347353D01*
X33636723Y-41380658D01*
X34179114Y-41460481D01*
X34512473Y-41484880D01*
X34725865Y-41500499D01*
X34725880Y-41500499D01*
X34725884Y-41500500D01*
X34725886Y-41500500D01*
X35274114Y-41500500D01*
X35274116Y-41500500D01*
X35274120Y-41500499D01*
X35274134Y-41500499D01*
X35447544Y-41487806D01*
X35820886Y-41460481D01*
X36363277Y-41380658D01*
X36669057Y-41312542D01*
X36898381Y-41261459D01*
X36898386Y-41261457D01*
X36898393Y-41261456D01*
X37423381Y-41103510D01*
X37935439Y-40907665D01*
X38431835Y-40674964D01*
X38494138Y-40639998D01*
X120694532Y-40639998D01*
X120694532Y-40640001D01*
X120714364Y-40866686D01*
X120714366Y-40866697D01*
X120773258Y-41086488D01*
X120773261Y-41086497D01*
X120869431Y-41292732D01*
X120869432Y-41292734D01*
X120999954Y-41479141D01*
X121160858Y-41640045D01*
X121160861Y-41640047D01*
X121347266Y-41770568D01*
X121553504Y-41866739D01*
X121773308Y-41925635D01*
X121935230Y-41939801D01*
X121999998Y-41945468D01*
X122000000Y-41945468D01*
X122000002Y-41945468D01*
X122056673Y-41940509D01*
X122226692Y-41925635D01*
X122446496Y-41866739D01*
X122652734Y-41770568D01*
X122839139Y-41640047D01*
X123000047Y-41479139D01*
X123130568Y-41292734D01*
X123226739Y-41086496D01*
X123285635Y-40866692D01*
X123305468Y-40640000D01*
X123285635Y-40413308D01*
X123226739Y-40193504D01*
X123130568Y-39987266D01*
X123000047Y-39800861D01*
X123000045Y-39800858D01*
X122839141Y-39639954D01*
X122652734Y-39509432D01*
X122652732Y-39509431D01*
X122641275Y-39504088D01*
X122594132Y-39482105D01*
X122541694Y-39435934D01*
X122522542Y-39368740D01*
X122542758Y-39301859D01*
X122594134Y-39257341D01*
X122652484Y-39230132D01*
X122838820Y-39099657D01*
X122999657Y-38938820D01*
X123130134Y-38752482D01*
X123226265Y-38546326D01*
X123226269Y-38546317D01*
X123278872Y-38350000D01*
X122315686Y-38350000D01*
X122320080Y-38345606D01*
X122372741Y-38254394D01*
X122400000Y-38152661D01*
X122400000Y-38047339D01*
X122372741Y-37945606D01*
X122320080Y-37854394D01*
X122315686Y-37850000D01*
X123278872Y-37850000D01*
X123278872Y-37849999D01*
X123226269Y-37653682D01*
X123226265Y-37653673D01*
X123130134Y-37447517D01*
X122999657Y-37261179D01*
X122838820Y-37100342D01*
X122813779Y-37082808D01*
X122770154Y-37028230D01*
X122762962Y-36958732D01*
X122794484Y-36896377D01*
X122854714Y-36860964D01*
X122871650Y-36857943D01*
X122907483Y-36854091D01*
X123042328Y-36803797D01*
X123042327Y-36803797D01*
X123042331Y-36803796D01*
X123157546Y-36717546D01*
X123243796Y-36602331D01*
X123294091Y-36467483D01*
X123300500Y-36407873D01*
X123300499Y-34712128D01*
X123294091Y-34652517D01*
X123243796Y-34517669D01*
X123243795Y-34517668D01*
X123243793Y-34517664D01*
X123157547Y-34402455D01*
X123157544Y-34402452D01*
X123042335Y-34316206D01*
X123042328Y-34316202D01*
X122907482Y-34265908D01*
X122907483Y-34265908D01*
X122847883Y-34259501D01*
X122847881Y-34259500D01*
X122847873Y-34259500D01*
X122847864Y-34259500D01*
X121152129Y-34259500D01*
X121152123Y-34259501D01*
X121092516Y-34265908D01*
X120957671Y-34316202D01*
X120957664Y-34316206D01*
X120842455Y-34402452D01*
X120842452Y-34402455D01*
X120756206Y-34517664D01*
X120756202Y-34517671D01*
X120705908Y-34652517D01*
X120699501Y-34712116D01*
X120699501Y-34712123D01*
X120699500Y-34712135D01*
X120699500Y-36407870D01*
X120699501Y-36407876D01*
X120705908Y-36467483D01*
X120756202Y-36602328D01*
X120756206Y-36602335D01*
X120842452Y-36717544D01*
X120842455Y-36717547D01*
X120957664Y-36803793D01*
X120957671Y-36803797D01*
X121092513Y-36854090D01*
X121092514Y-36854090D01*
X121092517Y-36854091D01*
X121128353Y-36857944D01*
X121192901Y-36884679D01*
X121232751Y-36942070D01*
X121235246Y-37011896D01*
X121199595Y-37071985D01*
X121186223Y-37082805D01*
X121161182Y-37100339D01*
X121000342Y-37261179D01*
X120869865Y-37447517D01*
X120773734Y-37653673D01*
X120773730Y-37653682D01*
X120721127Y-37849999D01*
X120721128Y-37850000D01*
X121684314Y-37850000D01*
X121679920Y-37854394D01*
X121627259Y-37945606D01*
X121600000Y-38047339D01*
X121600000Y-38152661D01*
X121627259Y-38254394D01*
X121679920Y-38345606D01*
X121684314Y-38350000D01*
X120721128Y-38350000D01*
X120773730Y-38546317D01*
X120773734Y-38546326D01*
X120869865Y-38752482D01*
X121000342Y-38938820D01*
X121161179Y-39099657D01*
X121347518Y-39230134D01*
X121347520Y-39230135D01*
X121405865Y-39257342D01*
X121458305Y-39303514D01*
X121477457Y-39370707D01*
X121457242Y-39437589D01*
X121405867Y-39482105D01*
X121347268Y-39509431D01*
X121347264Y-39509433D01*
X121160858Y-39639954D01*
X120999954Y-39800858D01*
X120869432Y-39987265D01*
X120869431Y-39987267D01*
X120773261Y-40193502D01*
X120773258Y-40193511D01*
X120714366Y-40413302D01*
X120714364Y-40413313D01*
X120694532Y-40639998D01*
X38494138Y-40639998D01*
X38909921Y-40406649D01*
X39367146Y-40104152D01*
X39801070Y-39769086D01*
X40209379Y-39403241D01*
X40589893Y-39008566D01*
X40940582Y-38587169D01*
X41259576Y-38141297D01*
X41545173Y-37673329D01*
X41795848Y-37185763D01*
X42010264Y-36681199D01*
X42187278Y-36162330D01*
X42325944Y-35631924D01*
X42372622Y-35379211D01*
X42425519Y-35092841D01*
X42425520Y-35092828D01*
X42425524Y-35092811D01*
X42485484Y-34547867D01*
X42486870Y-34509945D01*
X42505507Y-34000007D01*
X42505507Y-33999992D01*
X42485485Y-33452156D01*
X42485483Y-33452122D01*
X42425524Y-32907193D01*
X42425524Y-32907189D01*
X42425521Y-32907175D01*
X42425519Y-32907158D01*
X42325945Y-32368083D01*
X42325944Y-32368076D01*
X42187278Y-31837670D01*
X42010264Y-31318801D01*
X41795848Y-30814237D01*
X41795842Y-30814225D01*
X41545180Y-30326684D01*
X41545177Y-30326680D01*
X41545173Y-30326671D01*
X41259576Y-29858703D01*
X40940582Y-29412831D01*
X40589893Y-28991434D01*
X40209379Y-28596759D01*
X39801070Y-28230914D01*
X39645206Y-28110559D01*
X39367152Y-27895852D01*
X38909919Y-27593349D01*
X38431846Y-27325042D01*
X38431844Y-27325041D01*
X38431835Y-27325036D01*
X37935439Y-27092335D01*
X37935436Y-27092334D01*
X37935430Y-27092331D01*
X37423379Y-26896489D01*
X37423370Y-26896486D01*
X36898402Y-26738546D01*
X36898381Y-26738540D01*
X36363293Y-26619345D01*
X36363278Y-26619342D01*
X35820881Y-26539518D01*
X35820863Y-26539517D01*
X35274134Y-26499500D01*
X35274116Y-26499500D01*
X34725884Y-26499500D01*
X34725865Y-26499500D01*
X34179136Y-26539517D01*
X34179118Y-26539518D01*
X33636721Y-26619342D01*
X33636706Y-26619345D01*
X33101618Y-26738540D01*
X33101597Y-26738546D01*
X32576629Y-26896486D01*
X32576620Y-26896489D01*
X32064569Y-27092331D01*
X31866002Y-27185415D01*
X31568165Y-27325036D01*
X31568160Y-27325038D01*
X31568153Y-27325042D01*
X31090080Y-27593349D01*
X30632847Y-27895852D01*
X30198945Y-28230902D01*
X30198938Y-28230907D01*
X30198930Y-28230914D01*
X30198920Y-28230923D01*
X29790621Y-28596759D01*
X29790607Y-28596772D01*
X29410109Y-28991432D01*
X29410100Y-28991441D01*
X29059421Y-29412826D01*
X29059408Y-29412843D01*
X28740427Y-29858698D01*
X28454819Y-30326684D01*
X28204157Y-30814225D01*
X28204152Y-30814236D01*
X27989734Y-31318804D01*
X27989732Y-31318809D01*
X27812725Y-31837658D01*
X27812724Y-31837662D01*
X27674054Y-32368083D01*
X27574480Y-32907158D01*
X27574475Y-32907193D01*
X27514516Y-33452122D01*
X27514514Y-33452156D01*
X27494493Y-33999992D01*
X26162000Y-33999992D01*
X26162000Y-24254000D01*
X26181685Y-24186961D01*
X26234489Y-24141206D01*
X26286000Y-24130000D01*
X123828000Y-24130000D01*
X123895039Y-24149685D01*
G37*
%TD.AperFunction*%
%TD*%
M02*
