%TF.GenerationSoftware,KiCad,Pcbnew,8.0.2*%
%TF.CreationDate,2024-09-22T08:40:02+02:00*%
%TF.ProjectId,FrenGP_robot,4672656e-4750-45f7-926f-626f742e6b69,rev?*%
%TF.SameCoordinates,Original*%
%TF.FileFunction,Soldermask,Top*%
%TF.FilePolarity,Negative*%
%FSLAX46Y46*%
G04 Gerber Fmt 4.6, Leading zero omitted, Abs format (unit mm)*
G04 Created by KiCad (PCBNEW 8.0.2) date 2024-09-22 08:40:02*
%MOMM*%
%LPD*%
G01*
G04 APERTURE LIST*
G04 Aperture macros list*
%AMRoundRect*
0 Rectangle with rounded corners*
0 $1 Rounding radius*
0 $2 $3 $4 $5 $6 $7 $8 $9 X,Y pos of 4 corners*
0 Add a 4 corners polygon primitive as box body*
4,1,4,$2,$3,$4,$5,$6,$7,$8,$9,$2,$3,0*
0 Add four circle primitives for the rounded corners*
1,1,$1+$1,$2,$3*
1,1,$1+$1,$4,$5*
1,1,$1+$1,$6,$7*
1,1,$1+$1,$8,$9*
0 Add four rect primitives between the rounded corners*
20,1,$1+$1,$2,$3,$4,$5,0*
20,1,$1+$1,$4,$5,$6,$7,0*
20,1,$1+$1,$6,$7,$8,$9,0*
20,1,$1+$1,$8,$9,$2,$3,0*%
%AMOutline4P*
0 Free polygon, 4 corners , with rotation*
0 The origin of the aperture is its center*
0 number of corners: always 4*
0 $1 to $8 corner X, Y*
0 $9 Rotation angle, in degrees counterclockwise*
0 create outline with 4 corners*
4,1,4,$1,$2,$3,$4,$5,$6,$7,$8,$1,$2,$9*%
G04 Aperture macros list end*
%ADD10RoundRect,0.237500X0.250000X0.237500X-0.250000X0.237500X-0.250000X-0.237500X0.250000X-0.237500X0*%
%ADD11RoundRect,0.250000X1.750000X1.000000X-1.750000X1.000000X-1.750000X-1.000000X1.750000X-1.000000X0*%
%ADD12Outline4P,-1.800000X-1.150000X1.800000X-0.550000X1.800000X0.550000X-1.800000X1.150000X180.000000*%
%ADD13Outline4P,-1.800000X-1.150000X1.800000X-0.550000X1.800000X0.550000X-1.800000X1.150000X0.000000*%
%ADD14RoundRect,0.250000X-1.750000X-1.000000X1.750000X-1.000000X1.750000X1.000000X-1.750000X1.000000X0*%
%ADD15R,1.600000X1.600000*%
%ADD16O,1.600000X1.600000*%
%ADD17C,2.000000*%
%ADD18RoundRect,0.237500X-0.300000X-0.237500X0.300000X-0.237500X0.300000X0.237500X-0.300000X0.237500X0*%
%ADD19R,3.000000X3.000000*%
%ADD20C,3.000000*%
%ADD21RoundRect,0.237500X0.287500X0.237500X-0.287500X0.237500X-0.287500X-0.237500X0.287500X-0.237500X0*%
%ADD22RoundRect,0.237500X0.300000X0.237500X-0.300000X0.237500X-0.300000X-0.237500X0.300000X-0.237500X0*%
G04 APERTURE END LIST*
D10*
%TO.C,R1*%
X36472500Y-83820000D03*
X34647500Y-83820000D03*
%TD*%
D11*
%TO.C,C3*%
X54916800Y-50751200D03*
X48816800Y-50751200D03*
%TD*%
D12*
%TO.C,D2*%
X54900000Y-42000000D03*
D13*
X49100000Y-42000000D03*
%TD*%
D14*
%TO.C,C1*%
X92113000Y-82423000D03*
X98213000Y-82423000D03*
%TD*%
D15*
%TO.C,U1*%
X122000000Y-35560000D03*
D16*
X122000000Y-38100000D03*
X122000000Y-40640000D03*
%TD*%
D17*
%TO.C,SW1*%
X32654700Y-100117800D03*
X32654700Y-93617800D03*
X37154700Y-100117800D03*
X37154700Y-93617800D03*
%TD*%
D15*
%TO.C,U5*%
X114574700Y-64445800D03*
D16*
X114574700Y-66985800D03*
X114574700Y-69525800D03*
X114574700Y-72065800D03*
%TD*%
D18*
%TO.C,C2*%
X100737500Y-71374000D03*
X102462500Y-71374000D03*
%TD*%
D15*
%TO.C,U4*%
X121920000Y-66040000D03*
D16*
X121920000Y-68580000D03*
X121920000Y-71120000D03*
%TD*%
D15*
%TO.C,A1*%
X71704700Y-60375800D03*
D16*
X69164700Y-60375800D03*
X66624700Y-60375800D03*
X64084700Y-60375800D03*
X61544700Y-60375800D03*
X59004700Y-60375800D03*
X56464700Y-60375800D03*
X53924700Y-60375800D03*
X51384700Y-60375800D03*
X48844700Y-60375800D03*
X46304700Y-60375800D03*
X43764700Y-60375800D03*
X41224700Y-60375800D03*
X38684700Y-60375800D03*
X36144700Y-60375800D03*
X36144700Y-75615800D03*
X38684700Y-75615800D03*
X41224700Y-75615800D03*
X43764700Y-75615800D03*
X46304700Y-75615800D03*
X48844700Y-75615800D03*
X51384700Y-75615800D03*
X53924700Y-75615800D03*
X56464700Y-75615800D03*
X59004700Y-75615800D03*
X61544700Y-75615800D03*
X64084700Y-75615800D03*
X66624700Y-75615800D03*
X69164700Y-75615800D03*
X71704700Y-75615800D03*
%TD*%
D15*
%TO.C,U6*%
X121920000Y-81280000D03*
D16*
X121920000Y-83820000D03*
X121920000Y-86360000D03*
%TD*%
D15*
%TO.C,U2*%
X102489000Y-60252000D03*
D16*
X99949000Y-60252000D03*
X97409000Y-60252000D03*
X94869000Y-60252000D03*
X92329000Y-60252000D03*
X89789000Y-60252000D03*
X89789000Y-75492000D03*
X92329000Y-75492000D03*
X94869000Y-75492000D03*
X97409000Y-75492000D03*
X99949000Y-75492000D03*
X102489000Y-75492000D03*
%TD*%
D19*
%TO.C,J1*%
X39497000Y-51743000D03*
D20*
X39497000Y-46663000D03*
%TD*%
D15*
%TO.C,U7*%
X121920000Y-96520000D03*
D16*
X121920000Y-99060000D03*
X121920000Y-101600000D03*
%TD*%
D21*
%TO.C,D1*%
X40640000Y-83820000D03*
X38890000Y-83820000D03*
%TD*%
D19*
%TO.C,J2*%
X79476600Y-75720600D03*
D20*
X84556600Y-75720600D03*
%TD*%
D19*
%TO.C,J3*%
X79552800Y-60480600D03*
D20*
X84632800Y-60480600D03*
%TD*%
D15*
%TO.C,U3*%
X121920000Y-50800000D03*
D16*
X121920000Y-53340000D03*
X121920000Y-55880000D03*
%TD*%
D22*
%TO.C,C4*%
X62432100Y-68025100D03*
X60707100Y-68025100D03*
%TD*%
M02*
